<svg width="248" height="200" viewBox="0 0 248 200" fill="none" xmlns="http://www.w3.org/2000/svg">
<g opacity="0.4" clip-path="url(#clip0)">
<path d="M93.5796 109.069C91.138 99.7047 93.4289 97.8584 95.6456 97.8757C96.1571 97.8806 96.2387 97.8707 96.6835 98.004L96.6884 97.7992C96.6884 97.7992 90.1223 75.9153 105.916 66.2914C105.916 66.2914 103.141 64.0452 103.356 60.8093C103.356 60.8093 110.597 61.6313 117.536 61.6461C120.689 61.6535 123.781 61.493 126.101 61.0142C127.03 60.8217 127.967 60.7451 128.896 60.7698C135.413 60.9352 141.658 66.0075 142.755 70.9046C142.755 70.9046 142.851 70.8972 143.027 70.8972C145.085 70.8923 158.027 71.8821 151.817 97.888C151.817 97.888 151.812 97.9226 151.802 97.9867C152.101 97.9226 152.417 97.8806 152.734 97.8781C154.955 97.851 157.266 99.6825 154.82 109.072C152.865 116.573 151.051 118.506 149.707 118.503C149.259 118.501 148.861 118.286 148.53 117.987C147.589 123.887 145.112 131.069 138.981 136.171C123.842 147.782 109.472 136.401 109.472 136.401C103.195 131.333 100.65 124.104 99.6737 118.148C99.3771 118.365 99.0361 118.508 98.6605 118.501C97.3161 118.471 95.5195 116.509 93.5796 109.069ZM181.062 174.242C181.492 168.17 180.983 155.883 170.332 153.178C156.048 149.552 144.443 141.389 144.443 141.389L133.688 175.363L132.215 179.971L127.396 166.336C139.468 149.512 124.198 150.166 124.198 150.166C124.198 150.166 108.929 149.512 121.001 166.336L116.226 179.863L114.738 175.301L114.711 175.375L113.006 169.992L103.951 141.392C103.951 141.392 92.3465 149.552 78.0627 153.18C67.4165 155.883 66.9025 168.158 67.33 174.232C67.33 174.232 67.2065 182.674 68.5681 186.1C68.5681 186.1 89.3637 199.601 124.196 199.601L124.263 198.817L124.243 199.601C159.075 199.601 179.871 186.1 179.871 186.1C181.23 182.674 181.109 174.232 181.109 174.232L181.062 174.242ZM74.3261 147.535C65.9387 149.665 62.5927 156.554 61.399 163.253C56.7976 163.747 53.6764 163.883 53.4688 163.893C53.4614 163.893 53.449 163.893 53.449 163.893C53.4466 163.893 17.4801 162.454 6.43359 149.809V139.109C6.43359 139.109 6.77463 132.501 13.2443 129.462C19.7141 126.424 23.0058 125.814 23.2331 125.693C23.4605 125.572 32.5547 123.625 35.5819 120.626L27.1673 140.083L36.2492 138.746L53.4515 163.895L36.2467 138.743L50.9358 155.17L41.1348 121.152V113.576C24.2859 113.725 19.3211 106.512 19.3211 106.512C19.3211 106.512 28.9491 106.364 28.3535 80.9802C27.758 55.5963 39.4742 51.4051 43.8408 49.7464C56.5579 44.916 62.9485 52.5973 62.9485 52.5973C77.6895 51.2348 81.7572 67.3207 79.9482 85.6403C78.1368 103.96 88.2121 106.811 88.2121 106.811C81.2901 113.875 66.6974 113.428 66.6974 113.428V121.152L56.2416 154.876L70.5822 138.837L70.6464 138.743L70.6637 138.746L70.6662 138.743L70.6637 138.746L79.7258 140.081L71.8944 120.586C71.9982 120.69 72.1119 120.794 72.2305 120.895C72.2701 120.927 72.3096 120.962 72.3491 120.994C72.4307 121.063 72.5147 121.129 72.6037 121.196C72.6531 121.233 72.7025 121.27 72.7544 121.307C72.8384 121.369 72.9249 121.431 73.0139 121.492C73.0658 121.529 73.1202 121.566 73.1745 121.601C73.2709 121.665 73.3698 121.727 73.4686 121.791C73.518 121.823 73.5675 121.853 73.6169 121.885C73.7553 121.969 73.8961 122.053 74.0395 122.134C74.0543 122.141 74.0691 122.151 74.0839 122.159C74.2421 122.248 74.4052 122.336 74.5708 122.423C74.6251 122.452 74.682 122.48 74.7364 122.507C74.85 122.566 74.9637 122.623 75.0799 122.68C75.1441 122.712 75.2084 122.741 75.2751 122.773C75.3863 122.828 75.5 122.879 75.6112 122.931C75.6754 122.961 75.7397 122.991 75.8064 123.02C75.9275 123.074 76.0486 123.129 76.1721 123.183C76.229 123.208 76.2834 123.232 76.3402 123.257C76.5107 123.329 76.6812 123.4 76.8517 123.472C76.8592 123.474 76.869 123.479 76.8764 123.482C77.0618 123.556 77.2471 123.63 77.43 123.701C77.472 123.719 77.5165 123.734 77.5585 123.751C77.6994 123.805 77.8402 123.859 77.9811 123.911C78.0355 123.931 78.0898 123.951 78.1417 123.97C78.2727 124.02 78.4037 124.067 78.5347 124.114C78.5866 124.131 78.6385 124.151 78.6879 124.168C78.8287 124.217 78.9696 124.267 79.1105 124.314C79.1451 124.326 79.1821 124.338 79.2167 124.351C79.5775 124.474 79.9309 124.59 80.2695 124.696C82.1427 125.291 83.5711 125.642 83.6625 125.691C83.8898 125.812 87.1815 126.421 93.6513 129.46C94.3309 129.778 94.9363 130.139 95.4849 130.524C95.4998 130.534 95.5146 130.544 95.5269 130.553C95.6802 130.662 95.8284 130.773 95.9718 130.887C96.0014 130.909 96.0311 130.934 96.0607 130.956C96.1966 131.064 96.3301 131.175 96.4586 131.286C96.4907 131.314 96.5204 131.341 96.5525 131.368C96.6785 131.481 96.7996 131.593 96.9183 131.709C96.9454 131.736 96.9726 131.76 96.9973 131.788C97.116 131.906 97.2321 132.025 97.3433 132.145C97.3606 132.163 97.3754 132.182 97.3927 132.2C97.8672 132.721 98.2676 133.256 98.6086 133.792C98.6333 133.831 98.6605 133.873 98.6877 133.913C98.747 134.007 98.8013 134.103 98.8557 134.197C98.8928 134.261 98.9299 134.325 98.9669 134.387C99.0114 134.468 99.0559 134.55 99.0979 134.629C99.1399 134.708 99.1794 134.784 99.219 134.863C99.2536 134.932 99.2882 135.001 99.3203 135.068C99.3648 135.162 99.4068 135.253 99.4488 135.344C99.4735 135.396 99.4958 135.451 99.5205 135.502C99.5699 135.618 99.6169 135.732 99.6613 135.845C99.6712 135.873 99.6836 135.9 99.6935 135.927C99.8047 136.213 99.901 136.49 99.9851 136.754C99.9851 136.754 99.9851 136.754 99.9826 136.754C99.9851 136.761 99.9875 136.769 99.99 136.776L98.6605 137.477H98.6555C98.5962 137.509 98.5394 137.539 98.4801 137.571C91.909 141.11 82.9335 145.351 74.3261 147.535ZM53.4762 163.853L53.4985 163.735L53.449 163.893L53.4762 163.853ZM149.917 137.573C149.857 137.541 149.8 137.512 149.741 137.479H149.736L148.407 136.778C148.409 136.771 148.412 136.764 148.414 136.756C148.414 136.756 148.414 136.756 148.412 136.756C148.493 136.495 148.59 136.218 148.703 135.929C148.713 135.902 148.725 135.875 148.735 135.848C148.78 135.734 148.827 135.621 148.876 135.505C148.898 135.453 148.923 135.399 148.948 135.347C148.99 135.256 149.032 135.164 149.076 135.07C149.109 135.001 149.143 134.935 149.178 134.866C149.217 134.789 149.257 134.71 149.299 134.631C149.341 134.55 149.385 134.471 149.43 134.389C149.464 134.325 149.504 134.261 149.541 134.199C149.595 134.105 149.65 134.011 149.709 133.915C149.734 133.876 149.761 133.834 149.788 133.794C150.127 133.261 150.529 132.723 151.004 132.202C151.021 132.185 151.036 132.165 151.053 132.148C151.165 132.027 151.281 131.909 151.399 131.79C151.427 131.763 151.451 131.738 151.478 131.711C151.597 131.595 151.718 131.484 151.844 131.37C151.874 131.343 151.906 131.316 151.938 131.289C152.067 131.178 152.198 131.067 152.336 130.958C152.366 130.936 152.395 130.911 152.425 130.889C152.568 130.776 152.717 130.664 152.87 130.556C152.885 130.546 152.899 130.536 152.912 130.526C153.463 130.141 154.068 129.781 154.745 129.462C161.215 126.421 164.507 125.814 164.734 125.693C164.826 125.644 166.254 125.293 168.127 124.699C168.466 124.59 168.817 124.476 169.18 124.353C169.215 124.341 169.252 124.328 169.286 124.316C169.425 124.269 169.565 124.22 169.709 124.17C169.761 124.153 169.813 124.133 169.862 124.116C169.993 124.069 170.124 124.022 170.255 123.973C170.309 123.953 170.361 123.933 170.416 123.914C170.556 123.862 170.697 123.808 170.838 123.753C170.88 123.736 170.925 123.721 170.967 123.704C171.152 123.632 171.337 123.558 171.52 123.484C171.528 123.482 171.538 123.477 171.545 123.474C171.715 123.405 171.886 123.334 172.056 123.26C172.113 123.235 172.17 123.21 172.225 123.186C172.348 123.131 172.469 123.079 172.59 123.023C172.655 122.993 172.719 122.963 172.786 122.934C172.899 122.882 173.01 122.828 173.122 122.776C173.186 122.744 173.253 122.714 173.317 122.682C173.433 122.625 173.547 122.566 173.66 122.509C173.715 122.482 173.772 122.452 173.826 122.425C173.991 122.339 174.155 122.25 174.313 122.161C174.328 122.154 174.342 122.144 174.357 122.137C174.501 122.055 174.641 121.971 174.78 121.887C174.832 121.858 174.879 121.826 174.928 121.793C175.027 121.732 175.126 121.668 175.222 121.603C175.277 121.566 175.328 121.532 175.383 121.495C175.472 121.433 175.558 121.371 175.642 121.31C175.692 121.273 175.744 121.236 175.793 121.199C175.88 121.132 175.964 121.063 176.048 120.996C176.087 120.964 176.129 120.93 176.166 120.897C176.285 120.796 176.396 120.693 176.502 120.589L168.671 140.083L177.733 138.748L177.73 138.746L177.733 138.748L177.75 138.746L177.814 138.839L192.155 154.878L181.699 121.154V113.431C181.699 113.431 167.107 113.878 160.185 106.813C160.185 106.813 170.26 103.962 168.448 85.6428C166.637 67.3231 170.707 51.2397 185.448 52.5998C185.448 52.5998 191.839 44.9184 204.556 49.7489C208.923 51.4076 220.639 55.5987 220.043 80.9827C219.448 106.367 229.076 106.515 229.076 106.515C229.076 106.515 224.113 113.727 207.262 113.579V121.154L197.461 155.172L212.15 138.746L194.95 163.893L212.152 138.743L221.234 140.081L212.82 120.623C215.847 123.622 224.941 125.57 225.169 125.691C225.396 125.812 228.688 126.421 235.157 129.46C241.627 132.498 241.968 139.106 241.968 139.106V149.806C230.919 162.451 194.953 163.89 194.953 163.89C194.953 163.89 194.94 163.89 194.933 163.89C194.723 163.88 191.604 163.747 187.003 163.251C185.809 156.552 182.46 149.663 174.075 147.533C165.463 145.351 156.488 141.11 149.917 137.573ZM194.948 163.893L194.898 163.735L194.92 163.853L194.948 163.893Z" fill="#423F40"/>
</g>
<defs>
<clipPath id="clip0">
<rect width="247.125" height="199.294" fill="white" transform="translate(0.640625 0.462891)"/>
</clipPath>
</defs>
</svg>
