<svg width="294" height="96" viewBox="0 0 294 96" fill="none" xmlns="http://www.w3.org/2000/svg">
<g filter="url(#filter0_d)">
<rect x="10" y="8" width="265" height="66" rx="7.37693" fill="#F5F5F5"/>
<rect x="10.2305" y="8.23053" width="264.539" height="65.5389" rx="7.1464" stroke="#B5B5B5" stroke-width="0.461058"/>
</g>
<path d="M92.402 43.435V49H90.785V34.468H96.161C97.701 34.468 98.856 34.825 99.626 35.539C100.41 36.253 100.802 37.366 100.802 38.878C100.802 41.118 99.913 42.525 98.135 43.099L100.928 49H99.143L96.518 43.435H92.402ZM96.182 42.007C98.156 42.007 99.143 40.992 99.143 38.962C99.143 36.918 98.149 35.896 96.161 35.896H92.402V42.007H96.182ZM110.408 47.698L111.017 47.635L111.059 48.874C109.463 49.098 108.098 49.21 106.964 49.21C105.452 49.21 104.381 48.776 103.751 47.908C103.121 47.026 102.806 45.661 102.806 43.813C102.806 40.131 104.269 38.29 107.195 38.29C108.609 38.29 109.666 38.689 110.366 39.487C111.066 40.271 111.416 41.51 111.416 43.204L111.332 44.401H104.402C104.402 45.563 104.612 46.424 105.032 46.984C105.452 47.544 106.18 47.824 107.216 47.824C108.266 47.824 109.33 47.782 110.408 47.698ZM109.841 43.141C109.841 41.853 109.631 40.943 109.211 40.411C108.805 39.879 108.133 39.613 107.195 39.613C106.271 39.613 105.571 39.893 105.095 40.453C104.633 41.013 104.395 41.909 104.381 43.141H109.841ZM121.283 41.671V47.047C121.325 47.565 121.731 47.873 122.501 47.971L122.438 49.21C121.332 49.21 120.499 48.93 119.939 48.37C118.679 48.93 117.419 49.21 116.159 49.21C115.193 49.21 114.458 48.937 113.954 48.391C113.45 47.845 113.198 47.061 113.198 46.039C113.198 45.017 113.457 44.268 113.975 43.792C114.493 43.302 115.305 43.001 116.411 42.889L119.708 42.574V41.671C119.708 40.957 119.554 40.446 119.246 40.138C118.938 39.83 118.518 39.676 117.986 39.676C116.866 39.676 115.704 39.746 114.5 39.886L113.849 39.949L113.786 38.752C115.326 38.444 116.691 38.29 117.881 38.29C119.071 38.29 119.932 38.563 120.464 39.109C121.01 39.655 121.283 40.509 121.283 41.671ZM114.815 45.955C114.815 47.243 115.347 47.887 116.411 47.887C117.363 47.887 118.301 47.726 119.225 47.404L119.708 47.236V43.771L116.6 44.065C115.97 44.121 115.515 44.303 115.235 44.611C114.955 44.919 114.815 45.367 114.815 45.955ZM124.517 49V33.922H126.092V49H124.517ZM129.251 49V38.5H130.826V49H129.251ZM129.251 36.127V34.3H130.826V36.127H129.251ZM133.215 39.907V38.5H141.006V39.907L135.126 47.593H141.006V49H133.215V47.593L139.095 39.907H133.215ZM150.48 47.698L151.089 47.635L151.131 48.874C149.535 49.098 148.17 49.21 147.036 49.21C145.524 49.21 144.453 48.776 143.823 47.908C143.193 47.026 142.878 45.661 142.878 43.813C142.878 40.131 144.341 38.29 147.267 38.29C148.681 38.29 149.738 38.689 150.438 39.487C151.138 40.271 151.488 41.51 151.488 43.204L151.404 44.401H144.474C144.474 45.563 144.684 46.424 145.104 46.984C145.524 47.544 146.252 47.824 147.288 47.824C148.338 47.824 149.402 47.782 150.48 47.698ZM149.913 43.141C149.913 41.853 149.703 40.943 149.283 40.411C148.877 39.879 148.205 39.613 147.267 39.613C146.343 39.613 145.643 39.893 145.167 40.453C144.705 41.013 144.467 41.909 144.453 43.141H149.913ZM157.549 49L161.539 34.468H165.067L169.057 49H167.461L166.411 45.262H160.195L159.145 49H157.549ZM162.757 35.854L160.552 43.813H166.054L163.849 35.854H162.757ZM176.198 39.865H172.859V44.884C172.859 46.088 172.943 46.879 173.111 47.257C173.293 47.635 173.713 47.824 174.371 47.824L176.24 47.698L176.345 49C175.407 49.154 174.693 49.231 174.203 49.231C173.111 49.231 172.355 48.965 171.935 48.433C171.515 47.901 171.305 46.886 171.305 45.388V39.865H169.814V38.5H171.305V35.287H172.859V38.5H176.198V39.865ZM178.121 49V38.5H179.696V49H178.121ZM178.121 36.127V34.3H179.696V36.127H178.121ZM181.728 38.5H183.408L185.865 47.635H186.642L189.183 38.5H190.8L187.839 49H184.689L181.728 38.5ZM192.825 49V38.5H194.4V49H192.825ZM192.825 36.127V34.3H194.4V36.127H192.825ZM205.483 33.922V49H203.929V48.286C202.851 48.902 201.787 49.21 200.737 49.21C200.177 49.21 199.687 49.14 199.267 49C198.847 48.86 198.455 48.608 198.091 48.244C197.335 47.488 196.957 46.095 196.957 44.065C196.957 42.021 197.293 40.551 197.965 39.655C198.651 38.745 199.778 38.29 201.346 38.29C202.158 38.29 203.019 38.381 203.929 38.563V33.922H205.483ZM199.309 47.11C199.533 47.376 199.771 47.558 200.023 47.656C200.275 47.754 200.597 47.803 200.989 47.803C201.395 47.803 201.843 47.74 202.333 47.614C202.837 47.474 203.229 47.341 203.509 47.215L203.929 47.026V39.907C203.033 39.739 202.2 39.655 201.43 39.655C200.366 39.655 199.624 39.998 199.204 40.684C198.784 41.356 198.574 42.406 198.574 43.834C198.574 45.458 198.819 46.55 199.309 47.11ZM215.947 41.671V47.047C215.989 47.565 216.395 47.873 217.165 47.971L217.102 49.21C215.996 49.21 215.163 48.93 214.603 48.37C213.343 48.93 212.083 49.21 210.823 49.21C209.857 49.21 209.122 48.937 208.618 48.391C208.114 47.845 207.862 47.061 207.862 46.039C207.862 45.017 208.121 44.268 208.639 43.792C209.157 43.302 209.969 43.001 211.075 42.889L214.372 42.574V41.671C214.372 40.957 214.218 40.446 213.91 40.138C213.602 39.83 213.182 39.676 212.65 39.676C211.53 39.676 210.368 39.746 209.164 39.886L208.513 39.949L208.45 38.752C209.99 38.444 211.355 38.29 212.545 38.29C213.735 38.29 214.596 38.563 215.128 39.109C215.674 39.655 215.947 40.509 215.947 41.671ZM209.479 45.955C209.479 47.243 210.011 47.887 211.075 47.887C212.027 47.887 212.965 47.726 213.889 47.404L214.372 47.236V43.771L211.264 44.065C210.634 44.121 210.179 44.303 209.899 44.611C209.619 44.919 209.479 45.367 209.479 45.955ZM227.119 33.922V49H225.565V48.286C224.487 48.902 223.423 49.21 222.373 49.21C221.813 49.21 221.323 49.14 220.903 49C220.483 48.86 220.091 48.608 219.727 48.244C218.971 47.488 218.593 46.095 218.593 44.065C218.593 42.021 218.929 40.551 219.601 39.655C220.287 38.745 221.414 38.29 222.982 38.29C223.794 38.29 224.655 38.381 225.565 38.563V33.922H227.119ZM220.945 47.11C221.169 47.376 221.407 47.558 221.659 47.656C221.911 47.754 222.233 47.803 222.625 47.803C223.031 47.803 223.479 47.74 223.969 47.614C224.473 47.474 224.865 47.341 225.145 47.215L225.565 47.026V39.907C224.669 39.739 223.836 39.655 223.066 39.655C222.002 39.655 221.26 39.998 220.84 40.684C220.42 41.356 220.21 42.406 220.21 43.834C220.21 45.458 220.455 46.55 220.945 47.11ZM237.31 47.698L237.919 47.635L237.961 48.874C236.365 49.098 235 49.21 233.866 49.21C232.354 49.21 231.283 48.776 230.653 47.908C230.023 47.026 229.708 45.661 229.708 43.813C229.708 40.131 231.171 38.29 234.097 38.29C235.511 38.29 236.568 38.689 237.268 39.487C237.968 40.271 238.318 41.51 238.318 43.204L238.234 44.401H231.304C231.304 45.563 231.514 46.424 231.934 46.984C232.354 47.544 233.082 47.824 234.118 47.824C235.168 47.824 236.232 47.782 237.31 47.698ZM236.743 43.141C236.743 41.853 236.533 40.943 236.113 40.411C235.707 39.879 235.035 39.613 234.097 39.613C233.173 39.613 232.473 39.893 231.997 40.453C231.535 41.013 231.297 41.909 231.283 43.141H236.743ZM244.07 39.697C242.544 39.697 241.781 40.229 241.781 41.293C241.781 41.783 241.956 42.133 242.306 42.343C242.656 42.539 243.454 42.749 244.7 42.973C245.946 43.183 246.828 43.484 247.346 43.876C247.864 44.268 248.123 45.003 248.123 46.081C248.123 47.159 247.773 47.95 247.073 48.454C246.387 48.958 245.379 49.21 244.049 49.21C243.181 49.21 242.159 49.112 240.983 48.916L240.353 48.811L240.437 47.446C242.033 47.684 243.237 47.803 244.049 47.803C244.861 47.803 245.477 47.677 245.897 47.425C246.331 47.159 246.548 46.725 246.548 46.123C246.548 45.507 246.366 45.094 246.002 44.884C245.638 44.66 244.84 44.45 243.608 44.254C242.376 44.058 241.501 43.771 240.983 43.393C240.465 43.015 240.206 42.315 240.206 41.293C240.206 40.271 240.563 39.515 241.277 39.025C242.005 38.535 242.908 38.29 243.986 38.29C244.84 38.29 245.911 38.388 247.199 38.584L247.787 38.689L247.745 40.033C246.191 39.809 244.966 39.697 244.07 39.697Z" fill="black"/>
<defs>
<filter id="filter0_d" x="0.317785" y="0.623075" width="293.586" height="94.5856" filterUnits="userSpaceOnUse" color-interpolation-filters="sRGB">
<feFlood flood-opacity="0" result="BackgroundImageFix"/>
<feColorMatrix in="SourceAlpha" type="matrix" values="0 0 0 0 0 0 0 0 0 0 0 0 0 0 0 0 0 0 127 0" result="hardAlpha"/>
<feMorphology radius="1.84423" operator="dilate" in="SourceAlpha" result="effect1_dropShadow"/>
<feOffset dx="4.61058" dy="6.91587"/>
<feGaussianBlur stdDeviation="6.22428"/>
<feColorMatrix type="matrix" values="0 0 0 0 0.737255 0 0 0 0 0.0470588 0 0 0 0 0.141176 0 0 0 0.13 0"/>
<feBlend mode="normal" in2="BackgroundImageFix" result="effect1_dropShadow"/>
<feBlend mode="normal" in="SourceGraphic" in2="effect1_dropShadow" result="shape"/>
</filter>
</defs>
</svg>
