<svg width="294" height="96" viewBox="0 0 294 96" fill="none" xmlns="http://www.w3.org/2000/svg">
<g filter="url(#filter0_d)">
<rect x="10" y="8" width="265" height="66" rx="7.37693" fill="#F5F5F5"/>
<rect x="10.2305" y="8.23053" width="264.539" height="65.5389" rx="7.1464" stroke="#B5B5B5" stroke-width="0.461058"/>
</g>
<path d="M90.785 34.468H96.056C97.498 34.468 98.576 34.769 99.29 35.371C100.018 35.959 100.382 36.89 100.382 38.164C100.382 39.074 100.221 39.788 99.899 40.306C99.591 40.81 99.129 41.209 98.513 41.503C100.053 42.035 100.823 43.176 100.823 44.926C100.823 46.382 100.438 47.425 99.668 48.055C98.898 48.685 97.785 49 96.329 49H90.785V34.468ZM96.161 42.322H92.402V47.572H96.266C97.218 47.572 97.939 47.376 98.429 46.984C98.933 46.578 99.185 45.871 99.185 44.863C99.185 44.331 99.08 43.883 98.87 43.519C98.674 43.155 98.408 42.896 98.072 42.742C97.456 42.462 96.819 42.322 96.161 42.322ZM95.993 35.896H92.402V40.915H96.14C97.036 40.915 97.687 40.705 98.093 40.285C98.513 39.851 98.723 39.207 98.723 38.353C98.723 37.485 98.499 36.862 98.051 36.484C97.617 36.092 96.931 35.896 95.993 35.896ZM103.452 49V38.5H105.027V49H103.452ZM103.452 36.127V34.3H105.027V36.127H103.452ZM112.687 38.29C114.101 38.29 115.088 38.696 115.648 39.508C116.222 40.306 116.509 41.713 116.509 43.729C116.509 45.745 116.152 47.166 115.438 47.992C114.738 48.804 113.443 49.21 111.553 49.21C110.965 49.21 109.992 49.154 108.634 49.042L108.046 48.979V33.922H109.6V39.025C110.664 38.535 111.693 38.29 112.687 38.29ZM111.532 47.803C112.904 47.803 113.807 47.495 114.241 46.879C114.689 46.249 114.913 45.192 114.913 43.708C114.913 42.224 114.738 41.188 114.388 40.6C114.038 39.998 113.415 39.697 112.519 39.697C111.707 39.697 110.874 39.851 110.02 40.159L109.6 40.306V47.698C110.51 47.768 111.154 47.803 111.532 47.803ZM119.226 49V33.922H120.801V49H119.226ZM123.96 49V38.5H125.535V49H123.96ZM123.96 36.127V34.3H125.535V36.127H123.96ZM128.092 43.729C128.092 41.811 128.435 40.425 129.121 39.571C129.807 38.717 130.962 38.29 132.586 38.29C134.224 38.29 135.379 38.717 136.051 39.571C136.737 40.425 137.08 41.811 137.08 43.729C137.08 45.647 136.758 47.04 136.114 47.908C135.47 48.776 134.294 49.21 132.586 49.21C130.878 49.21 129.702 48.776 129.058 47.908C128.414 47.04 128.092 45.647 128.092 43.729ZM129.709 43.708C129.709 45.234 129.891 46.305 130.255 46.921C130.633 47.537 131.41 47.845 132.586 47.845C133.776 47.845 134.553 47.544 134.917 46.942C135.281 46.326 135.463 45.248 135.463 43.708C135.463 42.168 135.26 41.111 134.854 40.537C134.448 39.949 133.692 39.655 132.586 39.655C131.494 39.655 130.738 39.949 130.318 40.537C129.912 41.111 129.709 42.168 129.709 43.708ZM145.006 39.865H141.667V44.884C141.667 46.088 141.751 46.879 141.919 47.257C142.101 47.635 142.521 47.824 143.179 47.824L145.048 47.698L145.153 49C144.215 49.154 143.501 49.231 143.011 49.231C141.919 49.231 141.163 48.965 140.743 48.433C140.323 47.901 140.113 46.886 140.113 45.388V39.865H138.622V38.5H140.113V35.287H141.667V38.5H145.006V39.865ZM154.069 47.698L154.678 47.635L154.72 48.874C153.124 49.098 151.759 49.21 150.625 49.21C149.113 49.21 148.042 48.776 147.412 47.908C146.782 47.026 146.467 45.661 146.467 43.813C146.467 40.131 147.93 38.29 150.856 38.29C152.27 38.29 153.327 38.689 154.027 39.487C154.727 40.271 155.077 41.51 155.077 43.204L154.993 44.401H148.063C148.063 45.563 148.273 46.424 148.693 46.984C149.113 47.544 149.841 47.824 150.877 47.824C151.927 47.824 152.991 47.782 154.069 47.698ZM153.502 43.141C153.502 41.853 153.292 40.943 152.872 40.411C152.466 39.879 151.794 39.613 150.856 39.613C149.932 39.613 149.232 39.893 148.756 40.453C148.294 41.013 148.056 41.909 148.042 43.141H153.502ZM161.459 38.29C161.921 38.29 162.705 38.374 163.811 38.542L164.315 38.605L164.252 39.886C163.132 39.76 162.306 39.697 161.774 39.697C160.584 39.697 159.772 39.984 159.338 40.558C158.918 41.118 158.708 42.168 158.708 43.708C158.708 45.234 158.904 46.298 159.296 46.9C159.702 47.502 160.535 47.803 161.795 47.803L164.273 47.614L164.336 48.916C163.034 49.112 162.061 49.21 161.417 49.21C159.779 49.21 158.645 48.79 158.015 47.95C157.399 47.11 157.091 45.696 157.091 43.708C157.091 41.706 157.427 40.306 158.099 39.508C158.771 38.696 159.891 38.29 161.459 38.29ZM174.091 41.671V47.047C174.133 47.565 174.539 47.873 175.309 47.971L175.246 49.21C174.14 49.21 173.307 48.93 172.747 48.37C171.487 48.93 170.227 49.21 168.967 49.21C168.001 49.21 167.266 48.937 166.762 48.391C166.258 47.845 166.006 47.061 166.006 46.039C166.006 45.017 166.265 44.268 166.783 43.792C167.301 43.302 168.113 43.001 169.219 42.889L172.516 42.574V41.671C172.516 40.957 172.362 40.446 172.054 40.138C171.746 39.83 171.326 39.676 170.794 39.676C169.674 39.676 168.512 39.746 167.308 39.886L166.657 39.949L166.594 38.752C168.134 38.444 169.499 38.29 170.689 38.29C171.879 38.29 172.74 38.563 173.272 39.109C173.818 39.655 174.091 40.509 174.091 41.671ZM167.623 45.955C167.623 47.243 168.155 47.887 169.219 47.887C170.171 47.887 171.109 47.726 172.033 47.404L172.516 47.236V43.771L169.408 44.065C168.778 44.121 168.323 44.303 168.043 44.611C167.763 44.919 167.623 45.367 167.623 45.955Z" fill="black"/>
<defs>
<filter id="filter0_d" x="0.317785" y="0.623075" width="293.586" height="94.5856" filterUnits="userSpaceOnUse" color-interpolation-filters="sRGB">
<feFlood flood-opacity="0" result="BackgroundImageFix"/>
<feColorMatrix in="SourceAlpha" type="matrix" values="0 0 0 0 0 0 0 0 0 0 0 0 0 0 0 0 0 0 127 0" result="hardAlpha"/>
<feMorphology radius="1.84423" operator="dilate" in="SourceAlpha" result="effect1_dropShadow"/>
<feOffset dx="4.61058" dy="6.91587"/>
<feGaussianBlur stdDeviation="6.22428"/>
<feColorMatrix type="matrix" values="0 0 0 0 0.737255 0 0 0 0 0.0470588 0 0 0 0 0.141176 0 0 0 0.13 0"/>
<feBlend mode="normal" in2="BackgroundImageFix" result="effect1_dropShadow"/>
<feBlend mode="normal" in="SourceGraphic" in2="effect1_dropShadow" result="shape"/>
</filter>
</defs>
</svg>
