<svg width="294" height="96" viewBox="0 0 294 96" fill="none" xmlns="http://www.w3.org/2000/svg">
<g filter="url(#filter0_d)">
<rect x="10" y="8" width="265" height="66" rx="7.37693" fill="#F5F5F5"/>
<rect x="10.2305" y="8.23053" width="264.539" height="65.5389" rx="7.1464" stroke="#B5B5B5" stroke-width="0.461058"/>
</g>
<path d="M89.504 49L93.494 34.468H97.022L101.012 49H99.416L98.366 45.262H92.15L91.1 49H89.504ZM94.712 35.854L92.507 43.813H98.009L95.804 35.854H94.712ZM106.826 38.29C107.288 38.29 108.072 38.374 109.178 38.542L109.682 38.605L109.619 39.886C108.499 39.76 107.673 39.697 107.141 39.697C105.951 39.697 105.139 39.984 104.705 40.558C104.285 41.118 104.075 42.168 104.075 43.708C104.075 45.234 104.271 46.298 104.663 46.9C105.069 47.502 105.902 47.803 107.162 47.803L109.64 47.614L109.703 48.916C108.401 49.112 107.428 49.21 106.784 49.21C105.146 49.21 104.012 48.79 103.382 47.95C102.766 47.11 102.458 45.696 102.458 43.708C102.458 41.706 102.794 40.306 103.466 39.508C104.138 38.696 105.258 38.29 106.826 38.29ZM119.062 47.698L119.671 47.635L119.713 48.874C118.117 49.098 116.752 49.21 115.618 49.21C114.106 49.21 113.035 48.776 112.405 47.908C111.775 47.026 111.46 45.661 111.46 43.813C111.46 40.131 112.923 38.29 115.849 38.29C117.263 38.29 118.32 38.689 119.02 39.487C119.72 40.271 120.07 41.51 120.07 43.204L119.986 44.401H113.056C113.056 45.563 113.266 46.424 113.686 46.984C114.106 47.544 114.834 47.824 115.87 47.824C116.92 47.824 117.984 47.782 119.062 47.698ZM118.495 43.141C118.495 41.853 118.285 40.943 117.865 40.411C117.459 39.879 116.787 39.613 115.849 39.613C114.925 39.613 114.225 39.893 113.749 40.453C113.287 41.013 113.049 41.909 113.035 43.141H118.495ZM125.822 39.697C124.296 39.697 123.533 40.229 123.533 41.293C123.533 41.783 123.708 42.133 124.058 42.343C124.408 42.539 125.206 42.749 126.452 42.973C127.698 43.183 128.58 43.484 129.098 43.876C129.616 44.268 129.875 45.003 129.875 46.081C129.875 47.159 129.525 47.95 128.825 48.454C128.139 48.958 127.131 49.21 125.801 49.21C124.933 49.21 123.911 49.112 122.735 48.916L122.105 48.811L122.189 47.446C123.785 47.684 124.989 47.803 125.801 47.803C126.613 47.803 127.229 47.677 127.649 47.425C128.083 47.159 128.3 46.725 128.3 46.123C128.3 45.507 128.118 45.094 127.754 44.884C127.39 44.66 126.592 44.45 125.36 44.254C124.128 44.058 123.253 43.771 122.735 43.393C122.217 43.015 121.958 42.315 121.958 41.293C121.958 40.271 122.315 39.515 123.029 39.025C123.757 38.535 124.66 38.29 125.738 38.29C126.592 38.29 127.663 38.388 128.951 38.584L129.539 38.689L129.497 40.033C127.943 39.809 126.718 39.697 125.822 39.697ZM135.583 39.697C134.057 39.697 133.294 40.229 133.294 41.293C133.294 41.783 133.469 42.133 133.819 42.343C134.169 42.539 134.967 42.749 136.213 42.973C137.459 43.183 138.341 43.484 138.859 43.876C139.377 44.268 139.636 45.003 139.636 46.081C139.636 47.159 139.286 47.95 138.586 48.454C137.9 48.958 136.892 49.21 135.562 49.21C134.694 49.21 133.672 49.112 132.496 48.916L131.866 48.811L131.95 47.446C133.546 47.684 134.75 47.803 135.562 47.803C136.374 47.803 136.99 47.677 137.41 47.425C137.844 47.159 138.061 46.725 138.061 46.123C138.061 45.507 137.879 45.094 137.515 44.884C137.151 44.66 136.353 44.45 135.121 44.254C133.889 44.058 133.014 43.771 132.496 43.393C131.978 43.015 131.719 42.315 131.719 41.293C131.719 40.271 132.076 39.515 132.79 39.025C133.518 38.535 134.421 38.29 135.499 38.29C136.353 38.29 137.424 38.388 138.712 38.584L139.3 38.689L139.258 40.033C137.704 39.809 136.479 39.697 135.583 39.697ZM149.188 47.698L149.797 47.635L149.839 48.874C148.243 49.098 146.878 49.21 145.744 49.21C144.232 49.21 143.161 48.776 142.531 47.908C141.901 47.026 141.586 45.661 141.586 43.813C141.586 40.131 143.049 38.29 145.975 38.29C147.389 38.29 148.446 38.689 149.146 39.487C149.846 40.271 150.196 41.51 150.196 43.204L150.112 44.401H143.182C143.182 45.563 143.392 46.424 143.812 46.984C144.232 47.544 144.96 47.824 145.996 47.824C147.046 47.824 148.11 47.782 149.188 47.698ZM148.621 43.141C148.621 41.853 148.411 40.943 147.991 40.411C147.585 39.879 146.913 39.613 145.975 39.613C145.051 39.613 144.351 39.893 143.875 40.453C143.413 41.013 143.175 41.909 143.161 43.141H148.621ZM157.538 49V34.468H166.379V35.896H159.155V40.915H165.119V42.322H159.155V47.572H166.379V49H157.538ZM173.513 38.29C174.927 38.29 175.914 38.696 176.474 39.508C177.048 40.306 177.335 41.713 177.335 43.729C177.335 45.745 176.978 47.166 176.264 47.992C175.564 48.804 174.269 49.21 172.379 49.21C171.791 49.21 170.818 49.154 169.46 49.042L168.872 48.979V33.922H170.426V39.025C171.49 38.535 172.519 38.29 173.513 38.29ZM172.358 47.803C173.73 47.803 174.633 47.495 175.067 46.879C175.515 46.249 175.739 45.192 175.739 43.708C175.739 42.224 175.564 41.188 175.214 40.6C174.864 39.998 174.241 39.697 173.345 39.697C172.533 39.697 171.7 39.851 170.846 40.159L170.426 40.306V47.698C171.336 47.768 171.98 47.803 172.358 47.803ZM179.464 43.729C179.464 41.811 179.807 40.425 180.493 39.571C181.179 38.717 182.334 38.29 183.958 38.29C185.596 38.29 186.751 38.717 187.423 39.571C188.109 40.425 188.452 41.811 188.452 43.729C188.452 45.647 188.13 47.04 187.486 47.908C186.842 48.776 185.666 49.21 183.958 49.21C182.25 49.21 181.074 48.776 180.43 47.908C179.786 47.04 179.464 45.647 179.464 43.729ZM181.081 43.708C181.081 45.234 181.263 46.305 181.627 46.921C182.005 47.537 182.782 47.845 183.958 47.845C185.148 47.845 185.925 47.544 186.289 46.942C186.653 46.326 186.835 45.248 186.835 43.708C186.835 42.168 186.632 41.111 186.226 40.537C185.82 39.949 185.064 39.655 183.958 39.655C182.866 39.655 182.11 39.949 181.69 40.537C181.284 41.111 181.081 42.168 181.081 43.708ZM190.559 43.729C190.559 41.811 190.902 40.425 191.588 39.571C192.274 38.717 193.429 38.29 195.053 38.29C196.691 38.29 197.846 38.717 198.518 39.571C199.204 40.425 199.547 41.811 199.547 43.729C199.547 45.647 199.225 47.04 198.581 47.908C197.937 48.776 196.761 49.21 195.053 49.21C193.345 49.21 192.169 48.776 191.525 47.908C190.881 47.04 190.559 45.647 190.559 43.729ZM192.176 43.708C192.176 45.234 192.358 46.305 192.722 46.921C193.1 47.537 193.877 47.845 195.053 47.845C196.243 47.845 197.02 47.544 197.384 46.942C197.748 46.326 197.93 45.248 197.93 43.708C197.93 42.168 197.727 41.111 197.321 40.537C196.915 39.949 196.159 39.655 195.053 39.655C193.961 39.655 193.205 39.949 192.785 40.537C192.379 41.111 192.176 42.168 192.176 43.708ZM203.691 49H202.116V33.922H203.691V42.826L205.329 42.742L208.332 38.5H210.117L206.694 43.33L210.264 49H208.479L205.35 44.128L203.691 44.191V49Z" fill="black"/>
<defs>
<filter id="filter0_d" x="0.317785" y="0.623075" width="293.586" height="94.5856" filterUnits="userSpaceOnUse" color-interpolation-filters="sRGB">
<feFlood flood-opacity="0" result="BackgroundImageFix"/>
<feColorMatrix in="SourceAlpha" type="matrix" values="0 0 0 0 0 0 0 0 0 0 0 0 0 0 0 0 0 0 127 0" result="hardAlpha"/>
<feMorphology radius="1.84423" operator="dilate" in="SourceAlpha" result="effect1_dropShadow"/>
<feOffset dx="4.61058" dy="6.91587"/>
<feGaussianBlur stdDeviation="6.22428"/>
<feColorMatrix type="matrix" values="0 0 0 0 0.737255 0 0 0 0 0.0470588 0 0 0 0 0.141176 0 0 0 0.13 0"/>
<feBlend mode="normal" in2="BackgroundImageFix" result="effect1_dropShadow"/>
<feBlend mode="normal" in="SourceGraphic" in2="effect1_dropShadow" result="shape"/>
</filter>
</defs>
</svg>
