<svg width="38" height="38" viewBox="0 0 38 38" fill="none" xmlns="http://www.w3.org/2000/svg">
<g clip-path="url(#clip0)">
<path fill-rule="evenodd" clip-rule="evenodd" d="M0 18.9097C0 28.1876 6.73834 35.9025 15.5512 37.467V23.9887H10.8859V18.8055H15.5512V14.658C15.5512 9.99263 18.5573 7.4018 22.809 7.4018C24.1557 7.4018 25.6082 7.60863 26.9549 7.81546V12.585H24.5709C22.2896 12.585 21.7717 13.7249 21.7717 15.1774V18.8055H26.7481L25.9192 23.9887H21.7717V37.467C30.5846 35.9025 37.3229 28.1891 37.3229 18.9097C37.3229 8.58836 28.9253 0.144043 18.6615 0.144043C8.39766 0.144043 0 8.58836 0 18.9097Z" fill="#1E7AE7"/>
</g>
<defs>
<clipPath id="clip0">
<rect width="37.3229" height="37.3229" fill="white" transform="translate(0 0.143799)"/>
</clipPath>
</defs>
</svg>
