<svg width="294" height="260" viewBox="0 0 294 260" fill="none" xmlns="http://www.w3.org/2000/svg">
<g filter="url(#filter0_d)">
<rect x="10" y="8" width="265" height="230" rx="7.37693" fill="#F5F5F5"/>
<rect x="10.2305" y="8.23053" width="264.539" height="229.539" rx="7.1464" stroke="#B5B5B5" stroke-width="0.461058"/>
</g>
<path d="M31.8509 57V42.468H40.6919V43.896H33.4679V48.915H39.4319V50.322H33.4679V55.572H40.6919V57H31.8509ZM46.4823 47.697C44.9563 47.697 44.1933 48.229 44.1933 49.293C44.1933 49.783 44.3683 50.133 44.7183 50.343C45.0683 50.539 45.8663 50.749 47.1123 50.973C48.3583 51.183 49.2403 51.484 49.7583 51.876C50.2763 52.268 50.5353 53.003 50.5353 54.081C50.5353 55.159 50.1853 55.95 49.4853 56.454C48.7993 56.958 47.7913 57.21 46.4613 57.21C45.5933 57.21 44.5713 57.112 43.3953 56.916L42.7653 56.811L42.8493 55.446C44.4453 55.684 45.6493 55.803 46.4613 55.803C47.2733 55.803 47.8893 55.677 48.3093 55.425C48.7433 55.159 48.9603 54.725 48.9603 54.123C48.9603 53.507 48.7783 53.094 48.4143 52.884C48.0503 52.66 47.2523 52.45 46.0203 52.254C44.7883 52.058 43.9133 51.771 43.3953 51.393C42.8773 51.015 42.6183 50.315 42.6183 49.293C42.6183 48.271 42.9753 47.515 43.6893 47.025C44.4173 46.535 45.3203 46.29 46.3983 46.29C47.2523 46.29 48.3233 46.388 49.6113 46.584L50.1993 46.689L50.1573 48.033C48.6033 47.809 47.3783 47.697 46.4823 47.697ZM58.3861 47.865H55.0471V52.884C55.0471 54.088 55.1311 54.879 55.2991 55.257C55.4811 55.635 55.9011 55.824 56.5591 55.824L58.4281 55.698L58.5331 57C57.5951 57.154 56.8811 57.231 56.3911 57.231C55.2991 57.231 54.5431 56.965 54.1231 56.433C53.7031 55.901 53.4931 54.886 53.4931 53.388V47.865H52.0021V46.5H53.4931V43.287H55.0471V46.5H58.3861V47.865ZM67.7224 49.671V55.047C67.7644 55.565 68.1704 55.873 68.9404 55.971L68.8774 57.21C67.7714 57.21 66.9384 56.93 66.3784 56.37C65.1184 56.93 63.8584 57.21 62.5984 57.21C61.6324 57.21 60.8974 56.937 60.3934 56.391C59.8894 55.845 59.6374 55.061 59.6374 54.039C59.6374 53.017 59.8964 52.268 60.4144 51.792C60.9324 51.302 61.7444 51.001 62.8504 50.889L66.1474 50.574V49.671C66.1474 48.957 65.9934 48.446 65.6854 48.138C65.3774 47.83 64.9574 47.676 64.4254 47.676C63.3054 47.676 62.1434 47.746 60.9394 47.886L60.2884 47.949L60.2254 46.752C61.7654 46.444 63.1304 46.29 64.3204 46.29C65.5104 46.29 66.3714 46.563 66.9034 47.109C67.4494 47.655 67.7224 48.509 67.7224 49.671ZM61.2544 53.955C61.2544 55.243 61.7864 55.887 62.8504 55.887C63.8024 55.887 64.7404 55.726 65.6644 55.404L66.1474 55.236V51.771L63.0394 52.065C62.4094 52.121 61.9544 52.303 61.6744 52.611C61.3944 52.919 61.2544 53.367 61.2544 53.955ZM61.2754 43.518L65.8114 41.46L66.3574 42.804L61.7164 44.589L61.2754 43.518ZM79.4971 61.935C77.8171 61.935 76.6411 61.704 75.9691 61.242C75.3111 60.794 74.9821 59.968 74.9821 58.764C74.9821 58.19 75.1081 57.721 75.3601 57.357C75.6121 57.007 76.0391 56.608 76.6411 56.16C76.2491 55.894 76.0531 55.411 76.0531 54.711C76.0531 54.473 76.2281 54.032 76.5781 53.388L76.7671 53.052C75.6611 52.548 75.1081 51.491 75.1081 49.881C75.1081 47.487 76.4171 46.29 79.0351 46.29C79.7071 46.29 80.3301 46.36 80.9041 46.5L81.2191 46.563L84.3271 46.479V47.823L82.3321 47.781C82.7941 48.243 83.0251 48.943 83.0251 49.881C83.0251 51.197 82.6961 52.121 82.0381 52.653C81.3941 53.171 80.3721 53.43 78.9721 53.43C78.5941 53.43 78.2511 53.402 77.9431 53.346C77.6911 53.962 77.5651 54.361 77.5651 54.543C77.5651 54.977 77.6981 55.25 77.9641 55.362C78.2301 55.46 79.0351 55.509 80.3791 55.509C81.7231 55.509 82.6891 55.719 83.2771 56.139C83.8651 56.559 84.1591 57.378 84.1591 58.596C84.1591 60.822 82.6051 61.935 79.4971 61.935ZM76.5361 58.638C76.5361 59.38 76.7391 59.891 77.1451 60.171C77.5651 60.465 78.3281 60.612 79.4341 60.612C80.5541 60.612 81.3521 60.458 81.8281 60.15C82.3181 59.842 82.5631 59.324 82.5631 58.596C82.5631 57.882 82.3881 57.42 82.0381 57.21C81.6881 57 81.0021 56.895 79.9801 56.895L77.7121 56.79C77.2501 57.126 76.9351 57.42 76.7671 57.672C76.6131 57.924 76.5361 58.246 76.5361 58.638ZM76.6831 49.881C76.6831 50.707 76.8651 51.295 77.2291 51.645C77.6071 51.995 78.2231 52.17 79.0771 52.17C79.9311 52.17 80.5401 51.995 80.9041 51.645C81.2681 51.295 81.4501 50.707 81.4501 49.881C81.4501 49.041 81.2681 48.446 80.9041 48.096C80.5401 47.746 79.9311 47.571 79.0771 47.571C78.2231 47.571 77.6071 47.753 77.2291 48.117C76.8651 48.467 76.6831 49.055 76.6831 49.881ZM85.7692 51.729C85.7692 49.811 86.1122 48.425 86.7982 47.571C87.4842 46.717 88.6392 46.29 90.2632 46.29C91.9012 46.29 93.0562 46.717 93.7282 47.571C94.4142 48.425 94.7572 49.811 94.7572 51.729C94.7572 53.647 94.4352 55.04 93.7912 55.908C93.1472 56.776 91.9712 57.21 90.2632 57.21C88.5552 57.21 87.3792 56.776 86.7352 55.908C86.0912 55.04 85.7692 53.647 85.7692 51.729ZM87.3862 51.708C87.3862 53.234 87.5682 54.305 87.9322 54.921C88.3102 55.537 89.0872 55.845 90.2632 55.845C91.4532 55.845 92.2302 55.544 92.5942 54.942C92.9582 54.326 93.1402 53.248 93.1402 51.708C93.1402 50.168 92.9372 49.111 92.5312 48.537C92.1252 47.949 91.3692 47.655 90.2632 47.655C89.1712 47.655 88.4152 47.949 87.9952 48.537C87.5892 49.111 87.3862 50.168 87.3862 51.708ZM100.623 47.697C99.097 47.697 98.334 48.229 98.334 49.293C98.334 49.783 98.509 50.133 98.859 50.343C99.209 50.539 100.007 50.749 101.253 50.973C102.499 51.183 103.381 51.484 103.899 51.876C104.417 52.268 104.676 53.003 104.676 54.081C104.676 55.159 104.326 55.95 103.626 56.454C102.94 56.958 101.932 57.21 100.602 57.21C99.734 57.21 98.712 57.112 97.536 56.916L96.906 56.811L96.99 55.446C98.586 55.684 99.79 55.803 100.602 55.803C101.414 55.803 102.03 55.677 102.45 55.425C102.884 55.159 103.101 54.725 103.101 54.123C103.101 53.507 102.919 53.094 102.555 52.884C102.191 52.66 101.393 52.45 100.161 52.254C98.929 52.058 98.054 51.771 97.536 51.393C97.018 51.015 96.759 50.315 96.759 49.293C96.759 48.271 97.116 47.515 97.83 47.025C98.558 46.535 99.461 46.29 100.539 46.29C101.393 46.29 102.464 46.388 103.752 46.584L104.34 46.689L104.298 48.033C102.744 47.809 101.519 47.697 100.623 47.697ZM112.527 47.865H109.188V52.884C109.188 54.088 109.272 54.879 109.44 55.257C109.622 55.635 110.042 55.824 110.7 55.824L112.569 55.698L112.674 57C111.736 57.154 111.022 57.231 110.532 57.231C109.44 57.231 108.684 56.965 108.264 56.433C107.844 55.901 107.634 54.886 107.634 53.388V47.865H106.143V46.5H107.634V43.287H109.188V46.5H112.527V47.865ZM121.863 49.671V55.047C121.905 55.565 122.311 55.873 123.081 55.971L123.018 57.21C121.912 57.21 121.079 56.93 120.519 56.37C119.259 56.93 117.999 57.21 116.739 57.21C115.773 57.21 115.038 56.937 114.534 56.391C114.03 55.845 113.778 55.061 113.778 54.039C113.778 53.017 114.037 52.268 114.555 51.792C115.073 51.302 115.885 51.001 116.991 50.889L120.288 50.574V49.671C120.288 48.957 120.134 48.446 119.826 48.138C119.518 47.83 119.098 47.676 118.566 47.676C117.446 47.676 116.284 47.746 115.08 47.886L114.429 47.949L114.366 46.752C115.906 46.444 117.271 46.29 118.461 46.29C119.651 46.29 120.512 46.563 121.044 47.109C121.59 47.655 121.863 48.509 121.863 49.671ZM115.395 53.955C115.395 55.243 115.927 55.887 116.991 55.887C117.943 55.887 118.881 55.726 119.805 55.404L120.288 55.236V51.771L117.18 52.065C116.55 52.121 116.095 52.303 115.815 52.611C115.535 52.919 115.395 53.367 115.395 53.955ZM126.545 57H124.97V46.5H126.524V47.235C127.658 46.605 128.743 46.29 129.779 46.29C131.179 46.29 132.117 46.668 132.593 47.424C133.083 48.18 133.328 49.524 133.328 51.456V57H131.774V51.498C131.774 50.042 131.627 49.048 131.333 48.516C131.053 47.97 130.444 47.697 129.506 47.697C129.058 47.697 128.582 47.767 128.078 47.907C127.588 48.033 127.21 48.159 126.944 48.285L126.545 48.474V57ZM144.314 41.922V57H142.76V56.286C141.682 56.902 140.618 57.21 139.568 57.21C139.008 57.21 138.518 57.14 138.098 57C137.678 56.86 137.286 56.608 136.922 56.244C136.166 55.488 135.788 54.095 135.788 52.065C135.788 50.021 136.124 48.551 136.796 47.655C137.482 46.745 138.609 46.29 140.177 46.29C140.989 46.29 141.85 46.381 142.76 46.563V41.922H144.314ZM138.14 55.11C138.364 55.376 138.602 55.558 138.854 55.656C139.106 55.754 139.428 55.803 139.82 55.803C140.226 55.803 140.674 55.74 141.164 55.614C141.668 55.474 142.06 55.341 142.34 55.215L142.76 55.026V47.907C141.864 47.739 141.031 47.655 140.261 47.655C139.197 47.655 138.455 47.998 138.035 48.684C137.615 49.356 137.405 50.406 137.405 51.834C137.405 53.458 137.65 54.55 138.14 55.11ZM146.903 51.729C146.903 49.811 147.246 48.425 147.932 47.571C148.618 46.717 149.773 46.29 151.397 46.29C153.035 46.29 154.19 46.717 154.862 47.571C155.548 48.425 155.891 49.811 155.891 51.729C155.891 53.647 155.569 55.04 154.925 55.908C154.281 56.776 153.105 57.21 151.397 57.21C149.689 57.21 148.513 56.776 147.869 55.908C147.225 55.04 146.903 53.647 146.903 51.729ZM148.52 51.708C148.52 53.234 148.702 54.305 149.066 54.921C149.444 55.537 150.221 55.845 151.397 55.845C152.587 55.845 153.364 55.544 153.728 54.942C154.092 54.326 154.274 53.248 154.274 51.708C154.274 50.168 154.071 49.111 153.665 48.537C153.259 47.949 152.503 47.655 151.397 47.655C150.305 47.655 149.549 47.949 149.129 48.537C148.723 49.111 148.52 50.168 148.52 51.708ZM171.138 41.922V57H169.584V56.286C168.506 56.902 167.442 57.21 166.392 57.21C165.832 57.21 165.342 57.14 164.922 57C164.502 56.86 164.11 56.608 163.746 56.244C162.99 55.488 162.612 54.095 162.612 52.065C162.612 50.021 162.948 48.551 163.62 47.655C164.306 46.745 165.433 46.29 167.001 46.29C167.813 46.29 168.674 46.381 169.584 46.563V41.922H171.138ZM164.964 55.11C165.188 55.376 165.426 55.558 165.678 55.656C165.93 55.754 166.252 55.803 166.644 55.803C167.05 55.803 167.498 55.74 167.988 55.614C168.492 55.474 168.884 55.341 169.164 55.215L169.584 55.026V47.907C168.688 47.739 167.855 47.655 167.085 47.655C166.021 47.655 165.279 47.998 164.859 48.684C164.439 49.356 164.229 50.406 164.229 51.834C164.229 53.458 164.474 54.55 164.964 55.11ZM173.727 51.729C173.727 49.811 174.07 48.425 174.756 47.571C175.442 46.717 176.597 46.29 178.221 46.29C179.859 46.29 181.014 46.717 181.686 47.571C182.372 48.425 182.715 49.811 182.715 51.729C182.715 53.647 182.393 55.04 181.749 55.908C181.105 56.776 179.929 57.21 178.221 57.21C176.513 57.21 175.337 56.776 174.693 55.908C174.049 55.04 173.727 53.647 173.727 51.729ZM175.344 51.708C175.344 53.234 175.526 54.305 175.89 54.921C176.268 55.537 177.045 55.845 178.221 55.845C179.411 55.845 180.188 55.544 180.552 54.942C180.916 54.326 181.098 53.248 181.098 51.708C181.098 50.168 180.895 49.111 180.489 48.537C180.083 47.949 179.327 47.655 178.221 47.655C177.129 47.655 176.373 47.949 175.953 48.537C175.547 49.111 175.344 50.168 175.344 51.708ZM193.825 46.29C194.287 46.29 195.071 46.374 196.177 46.542L196.681 46.605L196.618 47.886C195.498 47.76 194.672 47.697 194.14 47.697C192.95 47.697 192.138 47.984 191.704 48.558C191.284 49.118 191.074 50.168 191.074 51.708C191.074 53.234 191.27 54.298 191.662 54.9C192.068 55.502 192.901 55.803 194.161 55.803L196.639 55.614L196.702 56.916C195.4 57.112 194.427 57.21 193.783 57.21C192.145 57.21 191.011 56.79 190.381 55.95C189.765 55.11 189.457 53.696 189.457 51.708C189.457 49.706 189.793 48.306 190.465 47.508C191.137 46.696 192.257 46.29 193.825 46.29ZM205.597 46.5H207.172V57H205.597V56.265C204.547 56.895 203.511 57.21 202.489 57.21C201.061 57.21 200.109 56.839 199.633 56.097C199.171 55.355 198.94 53.983 198.94 51.981V46.5H200.515V51.96C200.515 53.486 200.648 54.508 200.914 55.026C201.18 55.544 201.782 55.803 202.72 55.803C203.182 55.803 203.651 55.74 204.127 55.614C204.603 55.474 204.967 55.341 205.219 55.215L205.597 55.026V46.5ZM210.201 57V46.5H211.755V47.928C212.973 47.088 214.254 46.535 215.598 46.269V47.865C215.01 47.977 214.394 48.152 213.75 48.39C213.12 48.628 212.637 48.838 212.301 49.02L211.776 49.293V57H210.201ZM220.758 47.697C219.232 47.697 218.469 48.229 218.469 49.293C218.469 49.783 218.644 50.133 218.994 50.343C219.344 50.539 220.142 50.749 221.388 50.973C222.634 51.183 223.516 51.484 224.034 51.876C224.552 52.268 224.811 53.003 224.811 54.081C224.811 55.159 224.461 55.95 223.761 56.454C223.075 56.958 222.067 57.21 220.737 57.21C219.869 57.21 218.847 57.112 217.671 56.916L217.041 56.811L217.125 55.446C218.721 55.684 219.925 55.803 220.737 55.803C221.549 55.803 222.165 55.677 222.585 55.425C223.019 55.159 223.236 54.725 223.236 54.123C223.236 53.507 223.054 53.094 222.69 52.884C222.326 52.66 221.528 52.45 220.296 52.254C219.064 52.058 218.189 51.771 217.671 51.393C217.153 51.015 216.894 50.315 216.894 49.293C216.894 48.271 217.251 47.515 217.965 47.025C218.693 46.535 219.596 46.29 220.674 46.29C221.528 46.29 222.599 46.388 223.887 46.584L224.475 46.689L224.433 48.033C222.879 47.809 221.654 47.697 220.758 47.697ZM226.76 51.729C226.76 49.811 227.103 48.425 227.789 47.571C228.475 46.717 229.63 46.29 231.254 46.29C232.892 46.29 234.047 46.717 234.719 47.571C235.405 48.425 235.748 49.811 235.748 51.729C235.748 53.647 235.426 55.04 234.782 55.908C234.138 56.776 232.962 57.21 231.254 57.21C229.546 57.21 228.37 56.776 227.726 55.908C227.082 55.04 226.76 53.647 226.76 51.729ZM228.377 51.708C228.377 53.234 228.559 54.305 228.923 54.921C229.301 55.537 230.078 55.845 231.254 55.845C232.444 55.845 233.221 55.544 233.585 54.942C233.949 54.326 234.131 53.248 234.131 51.708C234.131 50.168 233.928 49.111 233.522 48.537C233.116 47.949 232.36 47.655 231.254 47.655C230.162 47.655 229.406 47.949 228.986 48.537C228.58 49.111 228.377 50.168 228.377 51.708ZM244.839 45.618C244.839 46.528 244.713 47.221 244.461 47.697C244.223 48.159 243.726 48.705 242.97 49.335C242.228 49.951 241.717 50.448 241.437 50.826C241.157 51.19 241.017 51.596 241.017 52.044V52.779H239.694C239.512 52.401 239.421 51.974 239.421 51.498C239.421 51.022 239.582 50.581 239.904 50.175C240.226 49.755 240.744 49.237 241.458 48.621C242.172 48.005 242.648 47.515 242.886 47.151C243.124 46.787 243.243 46.283 243.243 45.639C243.243 44.981 243.019 44.491 242.571 44.169C242.123 43.847 241.416 43.686 240.45 43.686C239.834 43.686 238.931 43.812 237.741 44.064L237.195 44.169L237.09 42.888C238.504 42.468 239.673 42.258 240.597 42.258C242.039 42.258 243.103 42.524 243.789 43.056C244.489 43.574 244.839 44.428 244.839 45.618ZM239.463 56.979V54.627H241.185V56.979H239.463ZM43.0379 82V67.468H51.8789V68.896H44.6549V73.915H50.6189V75.322H44.6549V80.572H51.8789V82H43.0379ZM55.9474 82H54.3724V71.5H55.9264V72.235C57.0604 71.605 58.1454 71.29 59.1814 71.29C60.5814 71.29 61.5194 71.668 61.9954 72.424C62.4854 73.18 62.7304 74.524 62.7304 76.456V82H61.1764V76.498C61.1764 75.042 61.0294 74.048 60.7354 73.516C60.4554 72.97 59.8464 72.697 58.9084 72.697C58.4604 72.697 57.9844 72.767 57.4804 72.907C56.9904 73.033 56.6124 73.159 56.3464 73.285L55.9474 73.474V82ZM71.0291 72.865H67.6901V77.884C67.6901 79.088 67.7741 79.879 67.9421 80.257C68.1241 80.635 68.5441 80.824 69.2021 80.824L71.0711 80.698L71.1761 82C70.2381 82.154 69.5241 82.231 69.0341 82.231C67.9421 82.231 67.1861 81.965 66.7661 81.433C66.3461 80.901 66.1361 79.886 66.1361 78.388V72.865H64.6451V71.5H66.1361V68.287H67.6901V71.5H71.0291V72.865ZM80.3654 74.671V80.047C80.4074 80.565 80.8134 80.873 81.5834 80.971L81.5204 82.21C80.4144 82.21 79.5814 81.93 79.0214 81.37C77.7614 81.93 76.5014 82.21 75.2414 82.21C74.2754 82.21 73.5404 81.937 73.0364 81.391C72.5324 80.845 72.2804 80.061 72.2804 79.039C72.2804 78.017 72.5394 77.268 73.0574 76.792C73.5754 76.302 74.3874 76.001 75.4934 75.889L78.7904 75.574V74.671C78.7904 73.957 78.6364 73.446 78.3284 73.138C78.0204 72.83 77.6004 72.676 77.0684 72.676C75.9484 72.676 74.7864 72.746 73.5824 72.886L72.9314 72.949L72.8684 71.752C74.4084 71.444 75.7734 71.29 76.9634 71.29C78.1534 71.29 79.0144 71.563 79.5464 72.109C80.0924 72.655 80.3654 73.509 80.3654 74.671ZM73.8974 78.955C73.8974 80.243 74.4294 80.887 75.4934 80.887C76.4454 80.887 77.3834 80.726 78.3074 80.404L78.7904 80.236V76.771L75.6824 77.065C75.0524 77.121 74.5974 77.303 74.3174 77.611C74.0374 77.919 73.8974 78.367 73.8974 78.955ZM77.8874 69.148C77.5934 69.148 77.0824 68.987 76.3544 68.665C75.6404 68.329 75.1924 68.161 75.0104 68.161C74.6884 68.161 74.2544 68.371 73.7084 68.791L73.4354 69.001L73.0574 67.993C73.7574 67.265 74.3944 66.901 74.9684 66.901C75.2624 66.901 75.7734 67.062 76.5014 67.384C77.2294 67.706 77.6704 67.867 77.8244 67.867C78.1324 67.867 78.5524 67.664 79.0844 67.258L79.3364 67.069L79.6934 68.077C79.0494 68.791 78.4474 69.148 77.8874 69.148ZM83.0109 76.729C83.0109 74.811 83.3539 73.425 84.0399 72.571C84.7259 71.717 85.8809 71.29 87.5049 71.29C89.1429 71.29 90.2979 71.717 90.9699 72.571C91.6559 73.425 91.9989 74.811 91.9989 76.729C91.9989 78.647 91.6769 80.04 91.0329 80.908C90.3889 81.776 89.2129 82.21 87.5049 82.21C85.7969 82.21 84.6209 81.776 83.9769 80.908C83.3329 80.04 83.0109 78.647 83.0109 76.729ZM84.6279 76.708C84.6279 78.234 84.8099 79.305 85.1739 79.921C85.5519 80.537 86.3289 80.845 87.5049 80.845C88.6949 80.845 89.4719 80.544 89.8359 79.942C90.1999 79.326 90.3819 78.248 90.3819 76.708C90.3819 75.168 90.1789 74.111 89.7729 73.537C89.3669 72.949 88.6109 72.655 87.5049 72.655C86.4129 72.655 85.6569 72.949 85.2369 73.537C84.8309 74.111 84.6279 75.168 84.6279 76.708ZM93.7697 84.583L94.7357 79.753H96.4787L95.0717 84.583H93.7697ZM107.785 71.29C108.247 71.29 109.031 71.374 110.137 71.542L110.641 71.605L110.578 72.886C109.458 72.76 108.632 72.697 108.1 72.697C106.91 72.697 106.098 72.984 105.664 73.558C105.244 74.118 105.034 75.168 105.034 76.708C105.034 78.234 105.23 79.298 105.622 79.9C106.028 80.502 106.861 80.803 108.121 80.803L110.599 80.614L110.662 81.916C109.36 82.112 108.387 82.21 107.743 82.21C106.105 82.21 104.971 81.79 104.341 80.95C103.725 80.11 103.417 78.696 103.417 76.708C103.417 74.706 103.753 73.306 104.425 72.508C105.097 71.696 106.217 71.29 107.785 71.29ZM112.419 76.729C112.419 74.811 112.762 73.425 113.448 72.571C114.134 71.717 115.289 71.29 116.913 71.29C118.551 71.29 119.706 71.717 120.378 72.571C121.064 73.425 121.407 74.811 121.407 76.729C121.407 78.647 121.085 80.04 120.441 80.908C119.797 81.776 118.621 82.21 116.913 82.21C115.205 82.21 114.029 81.776 113.385 80.908C112.741 80.04 112.419 78.647 112.419 76.729ZM114.036 76.708C114.036 78.234 114.218 79.305 114.582 79.921C114.96 80.537 115.737 80.845 116.913 80.845C118.103 80.845 118.88 80.544 119.244 79.942C119.608 79.326 119.79 78.248 119.79 76.708C119.79 75.168 119.587 74.111 119.181 73.537C118.775 72.949 118.019 72.655 116.913 72.655C115.821 72.655 115.065 72.949 114.645 73.537C114.239 74.111 114.036 75.168 114.036 76.708ZM125.551 82H123.976V71.5H125.53V72.235C126.58 71.605 127.602 71.29 128.596 71.29C129.898 71.29 130.808 71.647 131.326 72.361C131.788 72.081 132.383 71.836 133.111 71.626C133.853 71.402 134.504 71.29 135.064 71.29C136.464 71.29 137.402 71.668 137.878 72.424C138.368 73.166 138.613 74.51 138.613 76.456V82H137.038V76.498C137.038 75.042 136.898 74.048 136.618 73.516C136.338 72.97 135.743 72.697 134.833 72.697C134.371 72.697 133.895 72.767 133.405 72.907C132.915 73.033 132.537 73.159 132.271 73.285L131.872 73.474C132.054 73.936 132.145 74.958 132.145 76.54V82H130.57V76.582C130.57 75.07 130.43 74.048 130.15 73.516C129.884 72.97 129.289 72.697 128.365 72.697C127.917 72.697 127.455 72.767 126.979 72.907C126.517 73.033 126.16 73.159 125.908 73.285L125.551 73.474V82ZM141.531 86.662V71.5H143.085V72.256C144.149 71.612 145.199 71.29 146.235 71.29C147.565 71.29 148.531 71.717 149.133 72.571C149.735 73.411 150.036 74.804 150.036 76.75C150.036 78.696 149.679 80.096 148.965 80.95C148.265 81.79 147.096 82.21 145.458 82.21C144.604 82.21 143.82 82.133 143.106 81.979V86.662H141.531ZM146.004 72.697C145.584 72.697 145.129 72.767 144.639 72.907C144.163 73.047 143.785 73.187 143.505 73.327L143.106 73.537V80.614C144.1 80.768 144.856 80.845 145.374 80.845C146.508 80.845 147.299 80.523 147.747 79.879C148.209 79.235 148.44 78.185 148.44 76.729C148.44 75.273 148.23 74.237 147.81 73.621C147.404 73.005 146.802 72.697 146.004 72.697ZM160.018 74.671V80.047C160.06 80.565 160.466 80.873 161.236 80.971L161.173 82.21C160.067 82.21 159.234 81.93 158.674 81.37C157.414 81.93 156.154 82.21 154.894 82.21C153.928 82.21 153.193 81.937 152.689 81.391C152.185 80.845 151.933 80.061 151.933 79.039C151.933 78.017 152.192 77.268 152.71 76.792C153.228 76.302 154.04 76.001 155.146 75.889L158.443 75.574V74.671C158.443 73.957 158.289 73.446 157.981 73.138C157.673 72.83 157.253 72.676 156.721 72.676C155.601 72.676 154.439 72.746 153.235 72.886L152.584 72.949L152.521 71.752C154.061 71.444 155.426 71.29 156.616 71.29C157.806 71.29 158.667 71.563 159.199 72.109C159.745 72.655 160.018 73.509 160.018 74.671ZM153.55 78.955C153.55 80.243 154.082 80.887 155.146 80.887C156.098 80.887 157.036 80.726 157.96 80.404L158.443 80.236V76.771L155.335 77.065C154.705 77.121 154.25 77.303 153.97 77.611C153.69 77.919 153.55 78.367 153.55 78.955ZM163.125 82V71.5H164.679V72.928C165.897 72.088 167.178 71.535 168.522 71.269V72.865C167.934 72.977 167.318 73.152 166.674 73.39C166.044 73.628 165.561 73.838 165.225 74.02L164.7 74.293V82H163.125ZM175.824 72.865H172.485V77.884C172.485 79.088 172.569 79.879 172.737 80.257C172.919 80.635 173.339 80.824 173.997 80.824L175.866 80.698L175.971 82C175.033 82.154 174.319 82.231 173.829 82.231C172.737 82.231 171.981 81.965 171.561 81.433C171.141 80.901 170.931 79.886 170.931 78.388V72.865H169.44V71.5H170.931V68.287H172.485V71.5H175.824V72.865ZM177.747 82V71.5H179.322V82H177.747ZM177.747 69.127V67.3H179.322V69.127H177.747ZM182.467 82V66.922H184.042V82H182.467ZM188.776 82H187.201V66.922H188.776V72.088C189.896 71.556 190.974 71.29 192.01 71.29C193.41 71.29 194.348 71.668 194.824 72.424C195.314 73.18 195.559 74.524 195.559 76.456V82H193.984V76.498C193.984 75.042 193.837 74.048 193.543 73.516C193.263 72.97 192.661 72.697 191.737 72.697C190.855 72.697 190.001 72.858 189.175 73.18L188.776 73.327V82ZM205.621 80.698L206.23 80.635L206.272 81.874C204.676 82.098 203.311 82.21 202.177 82.21C200.665 82.21 199.594 81.776 198.964 80.908C198.334 80.026 198.019 78.661 198.019 76.813C198.019 73.131 199.482 71.29 202.408 71.29C203.822 71.29 204.879 71.689 205.579 72.487C206.279 73.271 206.629 74.51 206.629 76.204L206.545 77.401H199.615C199.615 78.563 199.825 79.424 200.245 79.984C200.665 80.544 201.393 80.824 202.429 80.824C203.479 80.824 204.543 80.782 205.621 80.698ZM205.054 76.141C205.054 74.853 204.844 73.943 204.424 73.411C204.018 72.879 203.346 72.613 202.408 72.613C201.484 72.613 200.784 72.893 200.308 73.453C199.846 74.013 199.608 74.909 199.594 76.141H205.054ZM215.273 82H213.698V71.5H215.252V72.235C216.386 71.605 217.471 71.29 218.507 71.29C219.907 71.29 220.845 71.668 221.321 72.424C221.811 73.18 222.056 74.524 222.056 76.456V82H220.502V76.498C220.502 75.042 220.355 74.048 220.061 73.516C219.781 72.97 219.172 72.697 218.234 72.697C217.786 72.697 217.31 72.767 216.806 72.907C216.316 73.033 215.938 73.159 215.672 73.285L215.273 73.474V82ZM232.39 74.671V80.047C232.432 80.565 232.838 80.873 233.608 80.971L233.545 82.21C232.439 82.21 231.606 81.93 231.046 81.37C229.786 81.93 228.526 82.21 227.266 82.21C226.3 82.21 225.565 81.937 225.061 81.391C224.557 80.845 224.305 80.061 224.305 79.039C224.305 78.017 224.564 77.268 225.082 76.792C225.6 76.302 226.412 76.001 227.518 75.889L230.815 75.574V74.671C230.815 73.957 230.661 73.446 230.353 73.138C230.045 72.83 229.625 72.676 229.093 72.676C227.973 72.676 226.811 72.746 225.607 72.886L224.956 72.949L224.893 71.752C226.433 71.444 227.798 71.29 228.988 71.29C230.178 71.29 231.039 71.563 231.571 72.109C232.117 72.655 232.39 73.509 232.39 74.671ZM225.922 78.955C225.922 80.243 226.454 80.887 227.518 80.887C228.47 80.887 229.408 80.726 230.332 80.404L230.815 80.236V76.771L227.707 77.065C227.077 77.121 226.622 77.303 226.342 77.611C226.062 77.919 225.922 78.367 225.922 78.955ZM238.794 72.697C237.268 72.697 236.505 73.229 236.505 74.293C236.505 74.783 236.68 75.133 237.03 75.343C237.38 75.539 238.178 75.749 239.424 75.973C240.67 76.183 241.552 76.484 242.07 76.876C242.588 77.268 242.847 78.003 242.847 79.081C242.847 80.159 242.497 80.95 241.797 81.454C241.111 81.958 240.103 82.21 238.773 82.21C237.905 82.21 236.883 82.112 235.707 81.916L235.077 81.811L235.161 80.446C236.757 80.684 237.961 80.803 238.773 80.803C239.585 80.803 240.201 80.677 240.621 80.425C241.055 80.159 241.272 79.725 241.272 79.123C241.272 78.507 241.09 78.094 240.726 77.884C240.362 77.66 239.564 77.45 238.332 77.254C237.1 77.058 236.225 76.771 235.707 76.393C235.189 76.015 234.93 75.315 234.93 74.293C234.93 73.271 235.287 72.515 236.001 72.025C236.729 71.535 237.632 71.29 238.71 71.29C239.564 71.29 240.635 71.388 241.923 71.584L242.511 71.689L242.469 73.033C240.915 72.809 239.69 72.697 238.794 72.697ZM65.1957 97.697C63.6697 97.697 62.9067 98.229 62.9067 99.293C62.9067 99.783 63.0817 100.133 63.4317 100.343C63.7817 100.539 64.5797 100.749 65.8257 100.973C67.0717 101.183 67.9537 101.484 68.4717 101.876C68.9897 102.268 69.2487 103.003 69.2487 104.081C69.2487 105.159 68.8987 105.95 68.1987 106.454C67.5127 106.958 66.5047 107.21 65.1747 107.21C64.3067 107.21 63.2847 107.112 62.1087 106.916L61.4787 106.811L61.5627 105.446C63.1587 105.684 64.3627 105.803 65.1747 105.803C65.9867 105.803 66.6027 105.677 67.0227 105.425C67.4567 105.159 67.6737 104.725 67.6737 104.123C67.6737 103.507 67.4917 103.094 67.1277 102.884C66.7637 102.66 65.9657 102.45 64.7337 102.254C63.5017 102.058 62.6267 101.771 62.1087 101.393C61.5907 101.015 61.3317 100.315 61.3317 99.293C61.3317 98.271 61.6887 97.515 62.4027 97.025C63.1307 96.535 64.0337 96.29 65.1117 96.29C65.9657 96.29 67.0367 96.388 68.3247 96.584L68.9127 96.689L68.8707 98.033C67.3167 97.809 66.0917 97.697 65.1957 97.697ZM78.2124 96.5H79.7874V107H78.2124V106.265C77.1624 106.895 76.1264 107.21 75.1044 107.21C73.6764 107.21 72.7244 106.839 72.2484 106.097C71.7864 105.355 71.5554 103.983 71.5554 101.981V96.5H73.1304V101.96C73.1304 103.486 73.2634 104.508 73.5294 105.026C73.7954 105.544 74.3974 105.803 75.3354 105.803C75.7974 105.803 76.2664 105.74 76.7424 105.614C77.2184 105.474 77.5824 105.341 77.8344 105.215L78.2124 105.026V96.5ZM90.2297 99.671V105.047C90.2717 105.565 90.6777 105.873 91.4477 105.971L91.3847 107.21C90.2787 107.21 89.4457 106.93 88.8857 106.37C87.6257 106.93 86.3657 107.21 85.1057 107.21C84.1397 107.21 83.4047 106.937 82.9007 106.391C82.3967 105.845 82.1447 105.061 82.1447 104.039C82.1447 103.017 82.4037 102.268 82.9217 101.792C83.4397 101.302 84.2517 101.001 85.3577 100.889L88.6547 100.574V99.671C88.6547 98.957 88.5007 98.446 88.1927 98.138C87.8847 97.83 87.4647 97.676 86.9327 97.676C85.8127 97.676 84.6507 97.746 83.4467 97.886L82.7957 97.949L82.7327 96.752C84.2727 96.444 85.6377 96.29 86.8277 96.29C88.0177 96.29 88.8787 96.563 89.4107 97.109C89.9567 97.655 90.2297 98.509 90.2297 99.671ZM83.7617 103.955C83.7617 105.243 84.2937 105.887 85.3577 105.887C86.3097 105.887 87.2477 105.726 88.1717 105.404L88.6547 105.236V101.771L85.5467 102.065C84.9167 102.121 84.4617 102.303 84.1817 102.611C83.9017 102.919 83.7617 103.367 83.7617 103.955ZM96.6342 97.697C95.1082 97.697 94.3452 98.229 94.3452 99.293C94.3452 99.783 94.5202 100.133 94.8702 100.343C95.2202 100.539 96.0182 100.749 97.2642 100.973C98.5102 101.183 99.3922 101.484 99.9102 101.876C100.428 102.268 100.687 103.003 100.687 104.081C100.687 105.159 100.337 105.95 99.6372 106.454C98.9512 106.958 97.9432 107.21 96.6132 107.21C95.7452 107.21 94.7232 107.112 93.5472 106.916L92.9172 106.811L93.0012 105.446C94.5972 105.684 95.8012 105.803 96.6132 105.803C97.4252 105.803 98.0412 105.677 98.4612 105.425C98.8952 105.159 99.1122 104.725 99.1122 104.123C99.1122 103.507 98.9302 103.094 98.5662 102.884C98.2022 102.66 97.4042 102.45 96.1722 102.254C94.9402 102.058 94.0652 101.771 93.5472 101.393C93.0292 101.015 92.7702 100.315 92.7702 99.293C92.7702 98.271 93.1272 97.515 93.8412 97.025C94.5692 96.535 95.4722 96.29 96.5502 96.29C97.4042 96.29 98.4752 96.388 99.7632 96.584L100.351 96.689L100.309 98.033C98.7552 97.809 97.5302 97.697 96.6342 97.697ZM107.713 107V96.5H109.267V97.928C110.485 97.088 111.766 96.535 113.11 96.269V97.865C112.522 97.977 111.906 98.152 111.262 98.39C110.632 98.628 110.149 98.838 109.813 99.02L109.288 99.293V107H107.713ZM121.908 105.698L122.517 105.635L122.559 106.874C120.963 107.098 119.598 107.21 118.464 107.21C116.952 107.21 115.881 106.776 115.251 105.908C114.621 105.026 114.306 103.661 114.306 101.813C114.306 98.131 115.769 96.29 118.695 96.29C120.109 96.29 121.166 96.689 121.866 97.487C122.566 98.271 122.916 99.51 122.916 101.204L122.832 102.401H115.902C115.902 103.563 116.112 104.424 116.532 104.984C116.952 105.544 117.68 105.824 118.716 105.824C119.766 105.824 120.83 105.782 121.908 105.698ZM121.341 101.141C121.341 99.853 121.131 98.943 120.711 98.411C120.305 97.879 119.633 97.613 118.695 97.613C117.771 97.613 117.071 97.893 116.595 98.453C116.133 99.013 115.895 99.909 115.881 101.141H121.341ZM133.434 91.922V107H131.88V106.286C130.802 106.902 129.738 107.21 128.688 107.21C128.128 107.21 127.638 107.14 127.218 107C126.798 106.86 126.406 106.608 126.042 106.244C125.286 105.488 124.908 104.095 124.908 102.065C124.908 100.021 125.244 98.551 125.916 97.655C126.602 96.745 127.729 96.29 129.297 96.29C130.109 96.29 130.97 96.381 131.88 96.563V91.922H133.434ZM127.26 105.11C127.484 105.376 127.722 105.558 127.974 105.656C128.226 105.754 128.548 105.803 128.94 105.803C129.346 105.803 129.794 105.74 130.284 105.614C130.788 105.474 131.18 105.341 131.46 105.215L131.88 105.026V97.907C130.984 97.739 130.151 97.655 129.381 97.655C128.317 97.655 127.575 97.998 127.155 98.684C126.735 99.356 126.525 100.406 126.525 101.834C126.525 103.458 126.77 104.55 127.26 105.11ZM143.626 105.698L144.235 105.635L144.277 106.874C142.681 107.098 141.316 107.21 140.182 107.21C138.67 107.21 137.599 106.776 136.969 105.908C136.339 105.026 136.024 103.661 136.024 101.813C136.024 98.131 137.487 96.29 140.413 96.29C141.827 96.29 142.884 96.689 143.584 97.487C144.284 98.271 144.634 99.51 144.634 101.204L144.55 102.401H137.62C137.62 103.563 137.83 104.424 138.25 104.984C138.67 105.544 139.398 105.824 140.434 105.824C141.484 105.824 142.548 105.782 143.626 105.698ZM143.059 101.141C143.059 99.853 142.849 98.943 142.429 98.411C142.023 97.879 141.351 97.613 140.413 97.613C139.489 97.613 138.789 97.893 138.313 98.453C137.851 99.013 137.613 99.909 137.599 101.141H143.059ZM150.385 97.697C148.859 97.697 148.096 98.229 148.096 99.293C148.096 99.783 148.271 100.133 148.621 100.343C148.971 100.539 149.769 100.749 151.015 100.973C152.261 101.183 153.143 101.484 153.661 101.876C154.179 102.268 154.438 103.003 154.438 104.081C154.438 105.159 154.088 105.95 153.388 106.454C152.702 106.958 151.694 107.21 150.364 107.21C149.496 107.21 148.474 107.112 147.298 106.916L146.668 106.811L146.752 105.446C148.348 105.684 149.552 105.803 150.364 105.803C151.176 105.803 151.792 105.677 152.212 105.425C152.646 105.159 152.863 104.725 152.863 104.123C152.863 103.507 152.681 103.094 152.317 102.884C151.953 102.66 151.155 102.45 149.923 102.254C148.691 102.058 147.816 101.771 147.298 101.393C146.78 101.015 146.521 100.315 146.521 99.293C146.521 98.271 146.878 97.515 147.592 97.025C148.32 96.535 149.223 96.29 150.301 96.29C151.155 96.29 152.226 96.388 153.514 96.584L154.102 96.689L154.06 98.033C152.506 97.809 151.281 97.697 150.385 97.697ZM164.761 97.697C163.235 97.697 162.472 98.229 162.472 99.293C162.472 99.783 162.647 100.133 162.997 100.343C163.347 100.539 164.145 100.749 165.391 100.973C166.637 101.183 167.519 101.484 168.037 101.876C168.555 102.268 168.814 103.003 168.814 104.081C168.814 105.159 168.464 105.95 167.764 106.454C167.078 106.958 166.07 107.21 164.74 107.21C163.872 107.21 162.85 107.112 161.674 106.916L161.044 106.811L161.128 105.446C162.724 105.684 163.928 105.803 164.74 105.803C165.552 105.803 166.168 105.677 166.588 105.425C167.022 105.159 167.239 104.725 167.239 104.123C167.239 103.507 167.057 103.094 166.693 102.884C166.329 102.66 165.531 102.45 164.299 102.254C163.067 102.058 162.192 101.771 161.674 101.393C161.156 101.015 160.897 100.315 160.897 99.293C160.897 98.271 161.254 97.515 161.968 97.025C162.696 96.535 163.599 96.29 164.677 96.29C165.531 96.29 166.602 96.388 167.89 96.584L168.478 96.689L168.436 98.033C166.882 97.809 165.657 97.697 164.761 97.697ZM170.764 101.729C170.764 99.811 171.107 98.425 171.793 97.571C172.479 96.717 173.634 96.29 175.258 96.29C176.896 96.29 178.051 96.717 178.723 97.571C179.409 98.425 179.752 99.811 179.752 101.729C179.752 103.647 179.43 105.04 178.786 105.908C178.142 106.776 176.966 107.21 175.258 107.21C173.55 107.21 172.374 106.776 171.73 105.908C171.086 105.04 170.764 103.647 170.764 101.729ZM172.381 101.708C172.381 103.234 172.563 104.305 172.927 104.921C173.305 105.537 174.082 105.845 175.258 105.845C176.448 105.845 177.225 105.544 177.589 104.942C177.953 104.326 178.135 103.248 178.135 101.708C178.135 100.168 177.932 99.111 177.526 98.537C177.12 97.949 176.364 97.655 175.258 97.655C174.166 97.655 173.41 97.949 172.99 98.537C172.584 99.111 172.381 100.168 172.381 101.708ZM186.248 96.29C186.71 96.29 187.494 96.374 188.6 96.542L189.104 96.605L189.041 97.886C187.921 97.76 187.095 97.697 186.563 97.697C185.373 97.697 184.561 97.984 184.127 98.558C183.707 99.118 183.497 100.168 183.497 101.708C183.497 103.234 183.693 104.298 184.085 104.9C184.491 105.502 185.324 105.803 186.584 105.803L189.062 105.614L189.125 106.916C187.823 107.112 186.85 107.21 186.206 107.21C184.568 107.21 183.434 106.79 182.804 105.95C182.188 105.11 181.88 103.696 181.88 101.708C181.88 99.706 182.216 98.306 182.888 97.508C183.56 96.696 184.68 96.29 186.248 96.29ZM191.467 107V96.5H193.042V107H191.467ZM191.467 94.127V92.3H193.042V94.127H191.467ZM203.474 99.671V105.047C203.516 105.565 203.922 105.873 204.692 105.971L204.629 107.21C203.523 107.21 202.69 106.93 202.13 106.37C200.87 106.93 199.61 107.21 198.35 107.21C197.384 107.21 196.649 106.937 196.145 106.391C195.641 105.845 195.389 105.061 195.389 104.039C195.389 103.017 195.648 102.268 196.166 101.792C196.684 101.302 197.496 101.001 198.602 100.889L201.899 100.574V99.671C201.899 98.957 201.745 98.446 201.437 98.138C201.129 97.83 200.709 97.676 200.177 97.676C199.057 97.676 197.895 97.746 196.691 97.886L196.04 97.949L195.977 96.752C197.517 96.444 198.882 96.29 200.072 96.29C201.262 96.29 202.123 96.563 202.655 97.109C203.201 97.655 203.474 98.509 203.474 99.671ZM197.006 103.955C197.006 105.243 197.538 105.887 198.602 105.887C199.554 105.887 200.492 105.726 201.416 105.404L201.899 105.236V101.771L198.791 102.065C198.161 102.121 197.706 102.303 197.426 102.611C197.146 102.919 197.006 103.367 197.006 103.955ZM206.581 107V96.5H208.156V107H206.581ZM206.581 94.127V92.3H208.156V94.127H206.581ZM214.472 97.697C212.946 97.697 212.183 98.229 212.183 99.293C212.183 99.783 212.358 100.133 212.708 100.343C213.058 100.539 213.856 100.749 215.102 100.973C216.348 101.183 217.23 101.484 217.748 101.876C218.266 102.268 218.525 103.003 218.525 104.081C218.525 105.159 218.175 105.95 217.475 106.454C216.789 106.958 215.781 107.21 214.451 107.21C213.583 107.21 212.561 107.112 211.385 106.916L210.755 106.811L210.839 105.446C212.435 105.684 213.639 105.803 214.451 105.803C215.263 105.803 215.879 105.677 216.299 105.425C216.733 105.159 216.95 104.725 216.95 104.123C216.95 103.507 216.768 103.094 216.404 102.884C216.04 102.66 215.242 102.45 214.01 102.254C212.778 102.058 211.903 101.771 211.385 101.393C210.867 101.015 210.608 100.315 210.608 99.293C210.608 98.271 210.965 97.515 211.679 97.025C212.407 96.535 213.31 96.29 214.388 96.29C215.242 96.29 216.313 96.388 217.601 96.584L218.189 96.689L218.147 98.033C216.593 97.809 215.368 97.697 214.472 97.697ZM221.168 107V104.648H222.89V107H221.168ZM221.294 102.212L221.189 92.468H222.848L222.743 102.212H221.294Z" fill="black"/>
<defs>
<filter id="filter0_d" x="0.317785" y="0.623075" width="293.586" height="258.586" filterUnits="userSpaceOnUse" color-interpolation-filters="sRGB">
<feFlood flood-opacity="0" result="BackgroundImageFix"/>
<feColorMatrix in="SourceAlpha" type="matrix" values="0 0 0 0 0 0 0 0 0 0 0 0 0 0 0 0 0 0 127 0"/>
<feMorphology radius="1.84423" operator="dilate" in="SourceAlpha" result="effect1_dropShadow"/>
<feOffset dx="4.61058" dy="6.91587"/>
<feGaussianBlur stdDeviation="6.22428"/>
<feColorMatrix type="matrix" values="0 0 0 0 0.737255 0 0 0 0 0.0470588 0 0 0 0 0.141176 0 0 0 0.13 0"/>
<feBlend mode="normal" in2="BackgroundImageFix" result="effect1_dropShadow"/>
<feBlend mode="normal" in="SourceGraphic" in2="effect1_dropShadow" result="shape"/>
</filter>
</defs>
</svg>
