<svg width="38" height="38" viewBox="0 0 38 38" fill="none" xmlns="http://www.w3.org/2000/svg">
<path d="M19.2599 12.487C15.82 12.487 13.0128 15.2942 13.0128 18.7342C13.0128 22.1741 15.82 24.9814 19.2599 24.9814C22.6998 24.9814 25.507 22.1741 25.507 18.7342C25.507 15.2942 22.6998 12.487 19.2599 12.487ZM37.9965 18.7342C37.9965 16.1472 38.02 13.5836 37.8747 11.0013C37.7294 8.00189 37.0452 5.33991 34.8519 3.14658C32.6539 0.948573 29.9967 0.269018 26.9973 0.123734C24.4104 -0.0215507 21.8469 0.00188228 19.2646 0.00188228C16.6776 0.00188228 14.1141 -0.0215507 11.5319 0.123734C8.5325 0.269018 5.87057 0.95326 3.67729 3.14658C1.47932 5.34459 0.799774 8.00189 0.654493 11.0013C0.509211 13.5883 0.532644 16.1519 0.532644 18.7342C0.532644 21.3165 0.509211 23.8847 0.654493 26.4671C0.799774 29.4665 1.484 32.1284 3.67729 34.3218C5.87526 36.5198 8.5325 37.1993 11.5319 37.3446C14.1188 37.4899 16.6823 37.4665 19.2646 37.4665C21.8515 37.4665 24.4151 37.4899 26.9973 37.3446C29.9967 37.1993 32.6586 36.5151 34.8519 34.3218C37.0499 32.1238 37.7294 29.4665 37.8747 26.4671C38.0247 23.8847 37.9965 21.3212 37.9965 18.7342ZM19.2599 28.3464C13.9407 28.3464 9.64789 24.0535 9.64789 18.7342C9.64789 13.4149 13.9407 9.12198 19.2599 9.12198C24.5791 9.12198 28.8719 13.4149 28.8719 18.7342C28.8719 24.0535 24.5791 28.3464 19.2599 28.3464ZM29.2656 10.9732C28.0237 10.9732 27.0208 9.97026 27.0208 8.72831C27.0208 7.48636 28.0237 6.48344 29.2656 6.48344C30.5075 6.48344 31.5104 7.48636 31.5104 8.72831C31.5108 9.02322 31.453 9.3153 31.3403 9.58783C31.2276 9.86035 31.0623 10.108 30.8537 10.3165C30.6452 10.525 30.3976 10.6904 30.1251 10.8031C29.8526 10.9157 29.5605 10.9736 29.2656 10.9732Z" fill="#BC0C24"/>
</svg>
