<svg width="294" height="96" viewBox="0 0 294 96" fill="none" xmlns="http://www.w3.org/2000/svg">
<g filter="url(#filter0_d)">
<rect x="10" y="8" width="265" height="66" rx="7.37693" fill="#BB0823"/>
<rect x="10.2305" y="8.23053" width="264.539" height="65.5389" rx="7.1464" stroke="#B5B5B5" stroke-width="0.461058"/>
</g>
<path d="M99.563 48.769C98.121 49.063 96.826 49.21 95.678 49.21C94.53 49.21 93.599 49.056 92.885 48.748C92.185 48.426 91.639 47.936 91.247 47.278C90.869 46.606 90.603 45.843 90.449 44.989C90.309 44.121 90.239 43.043 90.239 41.755C90.239 40.467 90.309 39.389 90.449 38.521C90.603 37.639 90.869 36.862 91.247 36.19C91.639 35.518 92.185 35.028 92.885 34.72C93.585 34.412 94.495 34.258 95.615 34.258C96.735 34.258 98.051 34.412 99.563 34.72L99.5 36.085C98.086 35.833 96.826 35.707 95.72 35.707C94.18 35.707 93.158 36.169 92.654 37.093C92.164 38.003 91.919 39.564 91.919 41.776C91.919 42.882 91.961 43.771 92.045 44.443C92.143 45.115 92.325 45.724 92.591 46.27C92.857 46.802 93.242 47.187 93.746 47.425C94.264 47.649 95.013 47.761 95.993 47.761C96.987 47.761 98.156 47.635 99.5 47.383L99.563 48.769ZM108.87 47.698L109.479 47.635L109.521 48.874C107.925 49.098 106.56 49.21 105.426 49.21C103.914 49.21 102.843 48.776 102.213 47.908C101.583 47.026 101.268 45.661 101.268 43.813C101.268 40.131 102.731 38.29 105.657 38.29C107.071 38.29 108.128 38.689 108.828 39.487C109.528 40.271 109.878 41.51 109.878 43.204L109.794 44.401H102.864C102.864 45.563 103.074 46.424 103.494 46.984C103.914 47.544 104.642 47.824 105.678 47.824C106.728 47.824 107.792 47.782 108.87 47.698ZM108.303 43.141C108.303 41.853 108.093 40.943 107.673 40.411C107.267 39.879 106.595 39.613 105.657 39.613C104.733 39.613 104.033 39.893 103.557 40.453C103.095 41.013 102.857 41.909 102.843 43.141H108.303ZM112.332 49V38.5H113.886V39.928C115.104 39.088 116.385 38.535 117.729 38.269V39.865C117.141 39.977 116.525 40.152 115.881 40.39C115.251 40.628 114.768 40.838 114.432 41.02L113.907 41.293V49H112.332ZM125.031 39.865H121.692V44.884C121.692 46.088 121.776 46.879 121.944 47.257C122.126 47.635 122.546 47.824 123.204 47.824L125.073 47.698L125.178 49C124.24 49.154 123.526 49.231 123.036 49.231C121.944 49.231 121.188 48.965 120.768 48.433C120.348 47.901 120.138 46.886 120.138 45.388V39.865H118.647V38.5H120.138V35.287H121.692V38.5H125.031V39.865ZM126.954 49V38.5H128.529V49H126.954ZM126.954 36.127V34.3H128.529V36.127H126.954ZM133.564 39.865V49H131.989V39.865H130.666V38.5H131.989V37.555C131.989 36.071 132.199 35.063 132.619 34.531C133.039 33.985 133.774 33.712 134.824 33.712L136.945 33.859L136.924 35.161C136.14 35.133 135.489 35.119 134.971 35.119C134.467 35.119 134.103 35.287 133.879 35.623C133.669 35.959 133.564 36.61 133.564 37.576V38.5H136.609V39.865H133.564ZM138.5 49V38.5H140.075V49H138.5ZM138.5 36.127V34.3H140.075V36.127H138.5ZM147.021 38.29C147.483 38.29 148.267 38.374 149.373 38.542L149.877 38.605L149.814 39.886C148.694 39.76 147.868 39.697 147.336 39.697C146.146 39.697 145.334 39.984 144.9 40.558C144.48 41.118 144.27 42.168 144.27 43.708C144.27 45.234 144.466 46.298 144.858 46.9C145.264 47.502 146.097 47.803 147.357 47.803L149.835 47.614L149.898 48.916C148.596 49.112 147.623 49.21 146.979 49.21C145.341 49.21 144.207 48.79 143.577 47.95C142.961 47.11 142.653 45.696 142.653 43.708C142.653 41.706 142.989 40.306 143.661 39.508C144.333 38.696 145.453 38.29 147.021 38.29ZM159.654 41.671V47.047C159.696 47.565 160.102 47.873 160.872 47.971L160.809 49.21C159.703 49.21 158.87 48.93 158.31 48.37C157.05 48.93 155.79 49.21 154.53 49.21C153.564 49.21 152.829 48.937 152.325 48.391C151.821 47.845 151.569 47.061 151.569 46.039C151.569 45.017 151.828 44.268 152.346 43.792C152.864 43.302 153.676 43.001 154.782 42.889L158.079 42.574V41.671C158.079 40.957 157.925 40.446 157.617 40.138C157.309 39.83 156.889 39.676 156.357 39.676C155.237 39.676 154.075 39.746 152.871 39.886L152.22 39.949L152.157 38.752C153.697 38.444 155.062 38.29 156.252 38.29C157.442 38.29 158.303 38.563 158.835 39.109C159.381 39.655 159.654 40.509 159.654 41.671ZM153.186 45.955C153.186 47.243 153.718 47.887 154.782 47.887C155.734 47.887 156.672 47.726 157.596 47.404L158.079 47.236V43.771L154.971 44.065C154.341 44.121 153.886 44.303 153.606 44.611C153.326 44.919 153.186 45.367 153.186 45.955ZM168.809 51.667C168.809 52.927 168.158 53.557 166.856 53.557C166.212 53.557 165.687 53.522 165.281 53.452L165.05 53.41L165.113 52.402C165.659 52.444 166.121 52.465 166.499 52.465C167.115 52.465 167.423 52.199 167.423 51.667C167.423 51.191 167.115 50.953 166.499 50.953H165.617V49.147C164.385 49.007 163.524 48.51 163.034 47.656C162.558 46.802 162.32 45.43 162.32 43.54C162.32 41.65 162.656 40.306 163.328 39.508C164 38.696 165.12 38.29 166.688 38.29C167.15 38.29 167.934 38.374 169.04 38.542L169.544 38.605L169.481 39.886C168.361 39.76 167.535 39.697 167.003 39.697C165.813 39.697 165.001 39.984 164.567 40.558C164.147 41.118 163.937 42.168 163.937 43.708C163.937 45.234 164.133 46.298 164.525 46.9C164.931 47.502 165.764 47.803 167.024 47.803L169.502 47.614L169.565 48.916C168.263 49.112 167.29 49.21 166.646 49.21H166.478V50.029C167.304 50.029 167.899 50.141 168.263 50.365C168.627 50.589 168.809 51.023 168.809 51.667ZM179.321 41.671V47.047C179.363 47.565 179.769 47.873 180.539 47.971L180.476 49.21C179.37 49.21 178.537 48.93 177.977 48.37C176.717 48.93 175.457 49.21 174.197 49.21C173.231 49.21 172.496 48.937 171.992 48.391C171.488 47.845 171.236 47.061 171.236 46.039C171.236 45.017 171.495 44.268 172.013 43.792C172.531 43.302 173.343 43.001 174.449 42.889L177.746 42.574V41.671C177.746 40.957 177.592 40.446 177.284 40.138C176.976 39.83 176.556 39.676 176.024 39.676C174.904 39.676 173.742 39.746 172.538 39.886L171.887 39.949L171.824 38.752C173.364 38.444 174.729 38.29 175.919 38.29C177.109 38.29 177.97 38.563 178.502 39.109C179.048 39.655 179.321 40.509 179.321 41.671ZM172.853 45.955C172.853 47.243 173.385 47.887 174.449 47.887C175.401 47.887 176.339 47.726 177.263 47.404L177.746 47.236V43.771L174.638 44.065C174.008 44.121 173.553 44.303 173.273 44.611C172.993 44.919 172.853 45.367 172.853 45.955ZM176.843 36.148C176.549 36.148 176.038 35.987 175.31 35.665C174.596 35.329 174.148 35.161 173.966 35.161C173.644 35.161 173.21 35.371 172.664 35.791L172.391 36.001L172.013 34.993C172.713 34.265 173.35 33.901 173.924 33.901C174.218 33.901 174.729 34.062 175.457 34.384C176.185 34.706 176.626 34.867 176.78 34.867C177.088 34.867 177.508 34.664 178.04 34.258L178.292 34.069L178.649 35.077C178.005 35.791 177.403 36.148 176.843 36.148ZM181.966 43.729C181.966 41.811 182.309 40.425 182.995 39.571C183.681 38.717 184.836 38.29 186.46 38.29C188.098 38.29 189.253 38.717 189.925 39.571C190.611 40.425 190.954 41.811 190.954 43.729C190.954 45.647 190.632 47.04 189.988 47.908C189.344 48.776 188.168 49.21 186.46 49.21C184.752 49.21 183.576 48.776 182.932 47.908C182.288 47.04 181.966 45.647 181.966 43.729ZM183.583 43.708C183.583 45.234 183.765 46.305 184.129 46.921C184.507 47.537 185.284 47.845 186.46 47.845C187.65 47.845 188.427 47.544 188.791 46.942C189.155 46.326 189.337 45.248 189.337 43.708C189.337 42.168 189.134 41.111 188.728 40.537C188.322 39.949 187.566 39.655 186.46 39.655C185.368 39.655 184.612 39.949 184.192 40.537C183.786 41.111 183.583 42.168 183.583 43.708ZM198.137 53.662V38.5H199.691V39.256C200.755 38.612 201.805 38.29 202.841 38.29C204.171 38.29 205.137 38.717 205.739 39.571C206.341 40.411 206.642 41.804 206.642 43.75C206.642 45.696 206.285 47.096 205.571 47.95C204.871 48.79 203.702 49.21 202.064 49.21C201.21 49.21 200.426 49.133 199.712 48.979V53.662H198.137ZM202.61 39.697C202.19 39.697 201.735 39.767 201.245 39.907C200.769 40.047 200.391 40.187 200.111 40.327L199.712 40.537V47.614C200.706 47.768 201.462 47.845 201.98 47.845C203.114 47.845 203.905 47.523 204.353 46.879C204.815 46.235 205.046 45.185 205.046 43.729C205.046 42.273 204.836 41.237 204.416 40.621C204.01 40.005 203.408 39.697 202.61 39.697ZM216.624 41.671V47.047C216.666 47.565 217.072 47.873 217.842 47.971L217.779 49.21C216.673 49.21 215.84 48.93 215.28 48.37C214.02 48.93 212.76 49.21 211.5 49.21C210.534 49.21 209.799 48.937 209.295 48.391C208.791 47.845 208.539 47.061 208.539 46.039C208.539 45.017 208.798 44.268 209.316 43.792C209.834 43.302 210.646 43.001 211.752 42.889L215.049 42.574V41.671C215.049 40.957 214.895 40.446 214.587 40.138C214.279 39.83 213.859 39.676 213.327 39.676C212.207 39.676 211.045 39.746 209.841 39.886L209.19 39.949L209.127 38.752C210.667 38.444 212.032 38.29 213.222 38.29C214.412 38.29 215.273 38.563 215.805 39.109C216.351 39.655 216.624 40.509 216.624 41.671ZM210.156 45.955C210.156 47.243 210.688 47.887 211.752 47.887C212.704 47.887 213.642 47.726 214.566 47.404L215.049 47.236V43.771L211.941 44.065C211.311 44.121 210.856 44.303 210.576 44.611C210.296 44.919 210.156 45.367 210.156 45.955ZM219.732 49V38.5H221.286V39.928C222.504 39.088 223.785 38.535 225.129 38.269V39.865C224.541 39.977 223.925 40.152 223.281 40.39C222.651 40.628 222.168 40.838 221.832 41.02L221.307 41.293V49H219.732ZM230.713 38.29C231.175 38.29 231.959 38.374 233.065 38.542L233.569 38.605L233.506 39.886C232.386 39.76 231.56 39.697 231.028 39.697C229.838 39.697 229.026 39.984 228.592 40.558C228.172 41.118 227.962 42.168 227.962 43.708C227.962 45.234 228.158 46.298 228.55 46.9C228.956 47.502 229.789 47.803 231.049 47.803L233.527 47.614L233.59 48.916C232.288 49.112 231.315 49.21 230.671 49.21C229.033 49.21 227.899 48.79 227.269 47.95C226.653 47.11 226.345 45.696 226.345 43.708C226.345 41.706 226.681 40.306 227.353 39.508C228.025 38.696 229.145 38.29 230.713 38.29ZM235.933 49V38.5H237.508V49H235.933ZM235.933 36.127V34.3H237.508V36.127H235.933ZM247.94 41.671V47.047C247.982 47.565 248.388 47.873 249.158 47.971L249.095 49.21C247.989 49.21 247.156 48.93 246.596 48.37C245.336 48.93 244.076 49.21 242.816 49.21C241.85 49.21 241.115 48.937 240.611 48.391C240.107 47.845 239.855 47.061 239.855 46.039C239.855 45.017 240.114 44.268 240.632 43.792C241.15 43.302 241.962 43.001 243.068 42.889L246.365 42.574V41.671C246.365 40.957 246.211 40.446 245.903 40.138C245.595 39.83 245.175 39.676 244.643 39.676C243.523 39.676 242.361 39.746 241.157 39.886L240.506 39.949L240.443 38.752C241.983 38.444 243.348 38.29 244.538 38.29C245.728 38.29 246.589 38.563 247.121 39.109C247.667 39.655 247.94 40.509 247.94 41.671ZM241.472 45.955C241.472 47.243 242.004 47.887 243.068 47.887C244.02 47.887 244.958 47.726 245.882 47.404L246.365 47.236V43.771L243.257 44.065C242.627 44.121 242.172 44.303 241.892 44.611C241.612 44.919 241.472 45.367 241.472 45.955ZM251.173 49V33.922H252.748V49H251.173Z" fill="#F5F5F5"/>
<defs>
<filter id="filter0_d" x="0.317785" y="0.623075" width="293.586" height="94.5856" filterUnits="userSpaceOnUse" color-interpolation-filters="sRGB">
<feFlood flood-opacity="0" result="BackgroundImageFix"/>
<feColorMatrix in="SourceAlpha" type="matrix" values="0 0 0 0 0 0 0 0 0 0 0 0 0 0 0 0 0 0 127 0"/>
<feMorphology radius="1.84423" operator="dilate" in="SourceAlpha" result="effect1_dropShadow"/>
<feOffset dx="4.61058" dy="6.91587"/>
<feGaussianBlur stdDeviation="6.22428"/>
<feColorMatrix type="matrix" values="0 0 0 0 0.737255 0 0 0 0 0.0470588 0 0 0 0 0.141176 0 0 0 0.13 0"/>
<feBlend mode="normal" in2="BackgroundImageFix" result="effect1_dropShadow"/>
<feBlend mode="normal" in="SourceGraphic" in2="effect1_dropShadow" result="shape"/>
</filter>
</defs>
</svg>
