<svg width="160" height="129" viewBox="0 0 160 129" fill="none" xmlns="http://www.w3.org/2000/svg">
<g opacity="0.4" clip-path="url(#clip0)">
<path d="M60.1763 70.3C58.5955 64.2383 60.0787 63.0433 61.5139 63.0544C61.8451 63.0576 61.8979 63.0513 62.1859 63.1375L62.1891 63.0049C62.1891 63.0049 57.9379 48.8398 68.1635 42.6104C68.1635 42.6104 66.3667 41.1565 66.5059 39.0619C66.5059 39.0619 71.1939 39.594 75.6867 39.6036C77.7283 39.6084 79.7299 39.5045 81.2323 39.1946C81.8339 39.0699 82.4403 39.0204 83.0419 39.0364C87.2611 39.1434 91.3043 42.4267 92.0147 45.5965C92.0147 45.5965 92.0771 45.5917 92.1907 45.5917C93.5235 45.5885 101.903 46.2292 97.8819 63.0624C97.8819 63.0624 97.8787 63.0848 97.8723 63.1263C98.0659 63.0848 98.2707 63.0576 98.4755 63.056C99.9139 63.0385 101.41 64.2239 99.8259 70.3016C98.5603 75.1569 97.3859 76.4079 96.5155 76.4063C96.2259 76.4047 95.9683 76.2657 95.7539 76.0724C95.1443 79.8909 93.5411 84.5402 89.5715 87.8426C79.7699 95.3581 70.4659 87.9912 70.4659 87.9912C66.4019 84.7111 64.7539 80.0315 64.1219 76.1763C63.9299 76.3169 63.7091 76.4095 63.4659 76.4047C62.5955 76.3856 61.4323 75.1154 60.1763 70.3ZM116.816 112.485C117.095 108.555 116.765 100.602 109.869 98.8507C100.621 96.5037 93.1075 91.2201 93.1075 91.2201L86.1443 113.211L85.1907 116.194L82.0707 107.368C89.8867 96.4781 80.0003 96.9015 80.0003 96.9015C80.0003 96.9015 70.1139 96.4781 77.9299 107.368L74.8387 116.123L73.8755 113.171L73.8579 113.219L72.7539 109.734L66.8915 91.2217C66.8915 91.2217 59.3779 96.5037 50.1299 98.8523C43.2371 100.602 42.9043 108.547 43.1811 112.479C43.1811 112.479 43.1011 117.943 43.9827 120.161C43.9827 120.161 57.4467 128.9 79.9987 128.9L80.0419 128.392L80.0291 128.9C102.581 128.9 116.045 120.161 116.045 120.161C116.925 117.943 116.847 112.479 116.847 112.479L116.816 112.485ZM47.7107 95.1983C42.2803 96.5771 40.1139 101.036 39.3411 105.372C36.3619 105.692 34.3411 105.78 34.2067 105.786C34.2019 105.786 34.1939 105.786 34.1939 105.786C34.1923 105.786 10.9059 104.855 3.75391 96.6698V89.7438C3.75391 89.7438 3.97471 85.4668 8.16351 83.5001C12.3523 81.5333 14.4835 81.1387 14.6307 81.0604C14.7779 80.9821 20.6659 79.7215 22.6259 77.7803L17.1779 90.3749L23.0579 89.509L34.1955 105.788L23.0563 89.5074L32.5667 100.14L26.2211 78.1206V73.2173C15.3123 73.3132 12.0979 68.6448 12.0979 68.6448C12.0979 68.6448 18.3315 68.5489 17.9459 52.1183C17.5603 35.6876 25.1459 32.9748 27.9731 31.9011C36.2067 28.7744 40.3443 33.7464 40.3443 33.7464C49.8883 32.8645 52.5219 43.2766 51.3507 55.1347C50.1779 66.9927 56.7011 68.8381 56.7011 68.8381C52.2195 73.4107 42.7715 73.1215 42.7715 73.1215V78.1206L36.0019 99.9499L45.2867 89.5681L45.3283 89.5074L45.3395 89.509L45.3411 89.5074L45.3395 89.509L51.2067 90.3733L46.1363 77.7548C46.2035 77.8219 46.2771 77.889 46.3539 77.9545C46.3795 77.9753 46.4051 77.9976 46.4307 78.0184C46.4835 78.0631 46.5379 78.1063 46.5955 78.1494C46.6275 78.1734 46.6595 78.1973 46.6931 78.2213C46.7475 78.2612 46.8035 78.3012 46.8611 78.3411C46.8947 78.3651 46.9299 78.3891 46.9651 78.4114C47.0275 78.453 47.0915 78.4929 47.1555 78.5344C47.1875 78.5552 47.2195 78.5744 47.2515 78.5952C47.3411 78.6495 47.4323 78.7038 47.5251 78.7565C47.5347 78.7613 47.5443 78.7677 47.5539 78.7725C47.6563 78.83 47.7619 78.8875 47.8691 78.9435C47.9043 78.9626 47.9411 78.9802 47.9763 78.9978C48.0499 79.0361 48.1235 79.0729 48.1987 79.1096C48.2403 79.1304 48.2819 79.1496 48.3251 79.1703C48.3971 79.2055 48.4707 79.239 48.5427 79.2726C48.5843 79.2918 48.6259 79.3109 48.6691 79.3301C48.7475 79.3652 48.8259 79.4004 48.9059 79.4355C48.9427 79.4515 48.9779 79.4675 49.0147 79.4835C49.1251 79.5298 49.2355 79.5761 49.3459 79.6225C49.3507 79.6241 49.3571 79.6273 49.3619 79.6289C49.4819 79.6768 49.6019 79.7247 49.7203 79.7711C49.7475 79.7822 49.7763 79.7918 49.8035 79.803C49.8947 79.8382 49.9859 79.8733 50.0771 79.9069C50.1123 79.9196 50.1475 79.9324 50.1811 79.9452C50.2659 79.9772 50.3507 80.0075 50.4355 80.0379C50.4691 80.0491 50.5027 80.0618 50.5347 80.073C50.6259 80.105 50.7171 80.1369 50.8083 80.1673C50.8307 80.1753 50.8547 80.1833 50.8771 80.1913C51.1107 80.2711 51.3395 80.3462 51.5587 80.4149C52.7715 80.8 53.6963 81.0268 53.7555 81.0588C53.9027 81.1371 56.0339 81.5317 60.2227 83.4985C60.6627 83.7046 61.0547 83.9378 61.4099 84.1871C61.4195 84.1935 61.4291 84.1999 61.4371 84.2062C61.5363 84.2765 61.6323 84.3484 61.7251 84.4219C61.7443 84.4363 61.7635 84.4523 61.7827 84.4667C61.8707 84.537 61.9571 84.6089 62.0403 84.6808C62.0611 84.6983 62.0803 84.7159 62.1011 84.7335C62.1827 84.807 62.2611 84.8789 62.3379 84.954C62.3555 84.9715 62.3731 84.9875 62.3891 85.0051C62.4659 85.0818 62.5411 85.1585 62.6131 85.2368C62.6243 85.2479 62.6339 85.2607 62.6451 85.2719C62.9523 85.609 63.2115 85.9557 63.4323 86.3024C63.4483 86.328 63.4659 86.3551 63.4835 86.3807C63.5219 86.4414 63.5571 86.5037 63.5923 86.5644C63.6163 86.606 63.6403 86.6475 63.6643 86.6875C63.6931 86.7402 63.7219 86.7929 63.7491 86.844C63.7763 86.8952 63.8019 86.9447 63.8275 86.9958C63.8499 87.0405 63.8723 87.0853 63.8931 87.1284C63.9219 87.1891 63.9491 87.2482 63.9763 87.3074C63.9923 87.3409 64.0067 87.3761 64.0227 87.4096C64.0547 87.4847 64.0851 87.5582 64.1139 87.6317C64.1203 87.6493 64.1283 87.6668 64.1347 87.6844C64.2067 87.8697 64.2691 88.0487 64.3235 88.2196C64.3235 88.2196 64.3235 88.2196 64.3219 88.2196C64.3235 88.2244 64.3251 88.2292 64.3267 88.234L63.4659 88.6878H63.4627C63.4243 88.7085 63.3875 88.7277 63.3491 88.7485C59.0947 91.0396 53.2835 93.7844 47.7107 95.1983ZM34.2115 105.761L34.2259 105.684L34.1939 105.786L34.2115 105.761ZM96.6515 88.7501C96.6131 88.7293 96.5763 88.7101 96.5379 88.6894H96.5347L95.6739 88.2356C95.6755 88.2308 95.6771 88.226 95.6787 88.2212C95.6787 88.2212 95.6787 88.2212 95.6771 88.2212C95.7299 88.0519 95.7923 87.8729 95.8659 87.686C95.8723 87.6684 95.8803 87.6509 95.8867 87.6333C95.9155 87.5598 95.9459 87.4863 95.9779 87.4112C95.9923 87.3777 96.0083 87.3425 96.0243 87.309C96.0515 87.2498 96.0787 87.1907 96.1075 87.13C96.1283 87.0853 96.1507 87.0421 96.1731 86.9974C96.1987 86.9479 96.2243 86.8967 96.2515 86.8456C96.2787 86.7929 96.3075 86.7418 96.3363 86.689C96.3587 86.6475 96.3843 86.606 96.4083 86.566C96.4435 86.5053 96.4787 86.4446 96.5171 86.3823C96.5331 86.3567 96.5507 86.3296 96.5683 86.304C96.7875 85.9589 97.0483 85.6106 97.3555 85.2735C97.3667 85.2623 97.3763 85.2495 97.3875 85.2384C97.4595 85.1601 97.5347 85.0834 97.6115 85.0067C97.6291 84.9891 97.6451 84.9731 97.6627 84.9556C97.7395 84.8805 97.8179 84.8086 97.8995 84.7351C97.9187 84.7175 97.9395 84.6999 97.9603 84.6824C98.0435 84.6105 98.1283 84.5386 98.2179 84.4683C98.2371 84.4539 98.2563 84.4379 98.2755 84.4235C98.3683 84.35 98.4643 84.2781 98.5635 84.2078C98.5731 84.2015 98.5827 84.1951 98.5907 84.1887C98.9475 83.9394 99.3395 83.7062 99.7779 83.5001C103.967 81.5317 106.098 81.1387 106.245 81.0604C106.304 81.0284 107.229 80.8016 108.442 80.4165C108.661 80.3462 108.888 80.2727 109.124 80.1929C109.146 80.1849 109.17 80.1769 109.192 80.1689C109.282 80.1385 109.373 80.1066 109.466 80.0746C109.5 80.0634 109.533 80.0507 109.565 80.0395C109.65 80.0091 109.735 79.9788 109.82 79.9468C109.855 79.934 109.888 79.9212 109.924 79.9085C110.015 79.8749 110.106 79.8398 110.197 79.8046C110.224 79.7934 110.253 79.7838 110.28 79.7727C110.4 79.7263 110.52 79.6784 110.639 79.6305C110.644 79.6289 110.65 79.6257 110.655 79.6241C110.765 79.5793 110.876 79.533 110.986 79.4851C111.023 79.4691 111.06 79.4531 111.095 79.4371C111.175 79.402 111.253 79.3684 111.332 79.3317C111.373 79.3125 111.415 79.2934 111.458 79.2742C111.532 79.2406 111.604 79.2055 111.675 79.1719C111.717 79.1512 111.76 79.132 111.802 79.1112C111.877 79.0745 111.951 79.0361 112.024 78.9994C112.06 78.9818 112.096 78.9626 112.132 78.9451C112.239 78.8891 112.344 78.8316 112.447 78.7741C112.456 78.7693 112.466 78.7629 112.476 78.7581C112.568 78.7054 112.66 78.6511 112.749 78.5968C112.783 78.5776 112.813 78.5568 112.845 78.536C112.909 78.4961 112.973 78.4546 113.036 78.413C113.071 78.3891 113.104 78.3667 113.14 78.3427C113.197 78.3028 113.253 78.2628 113.308 78.2229C113.34 78.1989 113.373 78.175 113.405 78.151C113.461 78.1079 113.516 78.0631 113.57 78.02C113.596 77.9992 113.623 77.9769 113.647 77.9561C113.724 77.8906 113.796 77.8235 113.864 77.7564L108.794 90.3749L114.661 89.5106L114.66 89.509L114.661 89.5106L114.672 89.509L114.714 89.5697L123.999 99.9515L117.229 78.1222V73.1231C117.229 73.1231 107.781 73.4123 103.299 68.8397C103.299 68.8397 109.823 66.9943 108.65 55.1363C107.477 43.2782 110.112 32.8677 119.656 33.748C119.656 33.748 123.794 28.776 132.028 31.9027C134.855 32.9764 142.44 35.6892 142.055 52.1199C141.669 68.5505 147.903 68.6464 147.903 68.6464C147.903 68.6464 144.69 73.3148 133.78 73.2189V78.1222L127.434 100.142L136.944 89.509L125.808 105.786L136.946 89.5074L142.826 90.3733L137.378 77.7787C139.338 79.7199 145.226 80.9805 145.373 81.0588C145.52 81.1371 147.652 81.5317 151.84 83.4985C156.029 85.4652 156.25 89.7422 156.25 89.7422V96.6682C149.096 104.853 125.81 105.785 125.81 105.785C125.81 105.785 125.802 105.785 125.797 105.785C125.661 105.778 123.642 105.692 120.663 105.371C119.89 101.035 117.722 96.5755 112.293 95.1967C106.717 93.7844 100.906 91.0396 96.6515 88.7501ZM125.807 105.786L125.775 105.684L125.789 105.761L125.807 105.786Z" fill="#BB0823"/>
</g>
<defs>
<clipPath id="clip0">
<rect width="160" height="129" fill="white"/>
</clipPath>
</defs>
</svg>
