<svg width="294" height="96" viewBox="0 0 294 96" fill="none" xmlns="http://www.w3.org/2000/svg">
<g filter="url(#filter0_d)">
<rect x="10" y="8" width="265" height="66" rx="7.37693" fill="#F5F5F5"/>
<rect x="10.2305" y="8.23053" width="264.539" height="65.5389" rx="7.1464" stroke="#B5B5B5" stroke-width="0.461058"/>
</g>
<path d="M89.504 49L93.494 34.468H97.022L101.012 49H99.416L98.366 45.262H92.15L91.1 49H89.504ZM94.712 35.854L92.507 43.813H98.009L95.804 35.854H94.712ZM106.319 39.697C104.793 39.697 104.03 40.229 104.03 41.293C104.03 41.783 104.205 42.133 104.555 42.343C104.905 42.539 105.703 42.749 106.949 42.973C108.195 43.183 109.077 43.484 109.595 43.876C110.113 44.268 110.372 45.003 110.372 46.081C110.372 47.159 110.022 47.95 109.322 48.454C108.636 48.958 107.628 49.21 106.298 49.21C105.43 49.21 104.408 49.112 103.232 48.916L102.602 48.811L102.686 47.446C104.282 47.684 105.486 47.803 106.298 47.803C107.11 47.803 107.726 47.677 108.146 47.425C108.58 47.159 108.797 46.725 108.797 46.123C108.797 45.507 108.615 45.094 108.251 44.884C107.887 44.66 107.089 44.45 105.857 44.254C104.625 44.058 103.75 43.771 103.232 43.393C102.714 43.015 102.455 42.315 102.455 41.293C102.455 40.271 102.812 39.515 103.526 39.025C104.254 38.535 105.157 38.29 106.235 38.29C107.089 38.29 108.16 38.388 109.448 38.584L110.036 38.689L109.994 40.033C108.44 39.809 107.215 39.697 106.319 39.697ZM116.08 39.697C114.554 39.697 113.791 40.229 113.791 41.293C113.791 41.783 113.966 42.133 114.316 42.343C114.666 42.539 115.464 42.749 116.71 42.973C117.956 43.183 118.838 43.484 119.356 43.876C119.874 44.268 120.133 45.003 120.133 46.081C120.133 47.159 119.783 47.95 119.083 48.454C118.397 48.958 117.389 49.21 116.059 49.21C115.191 49.21 114.169 49.112 112.993 48.916L112.363 48.811L112.447 47.446C114.043 47.684 115.247 47.803 116.059 47.803C116.871 47.803 117.487 47.677 117.907 47.425C118.341 47.159 118.558 46.725 118.558 46.123C118.558 45.507 118.376 45.094 118.012 44.884C117.648 44.66 116.85 44.45 115.618 44.254C114.386 44.058 113.511 43.771 112.993 43.393C112.475 43.015 112.216 42.315 112.216 41.293C112.216 40.271 112.573 39.515 113.287 39.025C114.015 38.535 114.918 38.29 115.996 38.29C116.85 38.29 117.921 38.388 119.209 38.584L119.797 38.689L119.755 40.033C118.201 39.809 116.976 39.697 116.08 39.697ZM122.545 49V38.5H124.12V49H122.545ZM122.545 36.127V34.3H124.12V36.127H122.545ZM130.436 39.697C128.91 39.697 128.147 40.229 128.147 41.293C128.147 41.783 128.322 42.133 128.672 42.343C129.022 42.539 129.82 42.749 131.066 42.973C132.312 43.183 133.194 43.484 133.712 43.876C134.23 44.268 134.489 45.003 134.489 46.081C134.489 47.159 134.139 47.95 133.439 48.454C132.753 48.958 131.745 49.21 130.415 49.21C129.547 49.21 128.525 49.112 127.349 48.916L126.719 48.811L126.803 47.446C128.399 47.684 129.603 47.803 130.415 47.803C131.227 47.803 131.843 47.677 132.263 47.425C132.697 47.159 132.914 46.725 132.914 46.123C132.914 45.507 132.732 45.094 132.368 44.884C132.004 44.66 131.206 44.45 129.974 44.254C128.742 44.058 127.867 43.771 127.349 43.393C126.831 43.015 126.572 42.315 126.572 41.293C126.572 40.271 126.929 39.515 127.643 39.025C128.371 38.535 129.274 38.29 130.352 38.29C131.206 38.29 132.277 38.388 133.565 38.584L134.153 38.689L134.111 40.033C132.557 39.809 131.332 39.697 130.436 39.697ZM142.34 39.865H139.001V44.884C139.001 46.088 139.085 46.879 139.253 47.257C139.435 47.635 139.855 47.824 140.513 47.824L142.382 47.698L142.487 49C141.549 49.154 140.835 49.231 140.345 49.231C139.253 49.231 138.497 48.965 138.077 48.433C137.657 47.901 137.447 46.886 137.447 45.388V39.865H135.956V38.5H137.447V35.287H139.001V38.5H142.34V39.865ZM151.676 41.671V47.047C151.718 47.565 152.124 47.873 152.894 47.971L152.831 49.21C151.725 49.21 150.892 48.93 150.332 48.37C149.072 48.93 147.812 49.21 146.552 49.21C145.586 49.21 144.851 48.937 144.347 48.391C143.843 47.845 143.591 47.061 143.591 46.039C143.591 45.017 143.85 44.268 144.368 43.792C144.886 43.302 145.698 43.001 146.804 42.889L150.101 42.574V41.671C150.101 40.957 149.947 40.446 149.639 40.138C149.331 39.83 148.911 39.676 148.379 39.676C147.259 39.676 146.097 39.746 144.893 39.886L144.242 39.949L144.179 38.752C145.719 38.444 147.084 38.29 148.274 38.29C149.464 38.29 150.325 38.563 150.857 39.109C151.403 39.655 151.676 40.509 151.676 41.671ZM145.208 45.955C145.208 47.243 145.74 47.887 146.804 47.887C147.756 47.887 148.694 47.726 149.618 47.404L150.101 47.236V43.771L146.993 44.065C146.363 44.121 145.908 44.303 145.628 44.611C145.348 44.919 145.208 45.367 145.208 45.955ZM158.936 43.729C158.936 41.811 159.279 40.425 159.965 39.571C160.651 38.717 161.806 38.29 163.43 38.29C165.068 38.29 166.223 38.717 166.895 39.571C167.581 40.425 167.924 41.811 167.924 43.729C167.924 45.647 167.602 47.04 166.958 47.908C166.314 48.776 165.138 49.21 163.43 49.21C161.722 49.21 160.546 48.776 159.902 47.908C159.258 47.04 158.936 45.647 158.936 43.729ZM160.553 43.708C160.553 45.234 160.735 46.305 161.099 46.921C161.477 47.537 162.254 47.845 163.43 47.845C164.62 47.845 165.397 47.544 165.761 46.942C166.125 46.326 166.307 45.248 166.307 43.708C166.307 42.168 166.104 41.111 165.698 40.537C165.292 39.949 164.536 39.655 163.43 39.655C162.338 39.655 161.582 39.949 161.162 40.537C160.756 41.111 160.553 42.168 160.553 43.708ZM173.789 39.697C172.263 39.697 171.5 40.229 171.5 41.293C171.5 41.783 171.675 42.133 172.025 42.343C172.375 42.539 173.173 42.749 174.419 42.973C175.665 43.183 176.547 43.484 177.065 43.876C177.583 44.268 177.842 45.003 177.842 46.081C177.842 47.159 177.492 47.95 176.792 48.454C176.106 48.958 175.098 49.21 173.768 49.21C172.9 49.21 171.878 49.112 170.702 48.916L170.072 48.811L170.156 47.446C171.752 47.684 172.956 47.803 173.768 47.803C174.58 47.803 175.196 47.677 175.616 47.425C176.05 47.159 176.267 46.725 176.267 46.123C176.267 45.507 176.085 45.094 175.721 44.884C175.357 44.66 174.559 44.45 173.327 44.254C172.095 44.058 171.22 43.771 170.702 43.393C170.184 43.015 169.925 42.315 169.925 41.293C169.925 40.271 170.282 39.515 170.996 39.025C171.724 38.535 172.627 38.29 173.705 38.29C174.559 38.29 175.63 38.388 176.918 38.584L177.506 38.689L177.464 40.033C175.91 39.809 174.685 39.697 173.789 39.697ZM183.881 38.5H185.561L188.018 47.635H188.795L191.336 38.5H192.953L189.992 49H186.842L183.881 38.5ZM194.265 35.518L198.801 33.46L199.347 34.804L194.706 36.589L194.265 35.518ZM194.979 38.5H196.554V49H194.979V38.5ZM207.637 33.922V49H206.083V48.286C205.005 48.902 203.941 49.21 202.891 49.21C202.331 49.21 201.841 49.14 201.421 49C201.001 48.86 200.609 48.608 200.245 48.244C199.489 47.488 199.111 46.095 199.111 44.065C199.111 42.021 199.447 40.551 200.119 39.655C200.805 38.745 201.932 38.29 203.5 38.29C204.312 38.29 205.173 38.381 206.083 38.563V33.922H207.637ZM201.463 47.11C201.687 47.376 201.925 47.558 202.177 47.656C202.429 47.754 202.751 47.803 203.143 47.803C203.549 47.803 203.997 47.74 204.487 47.614C204.991 47.474 205.383 47.341 205.663 47.215L206.083 47.026V39.907C205.187 39.739 204.354 39.655 203.584 39.655C202.52 39.655 201.778 39.998 201.358 40.684C200.938 41.356 200.728 42.406 200.728 43.834C200.728 45.458 200.973 46.55 201.463 47.11ZM217.828 47.698L218.437 47.635L218.479 48.874C216.883 49.098 215.518 49.21 214.384 49.21C212.872 49.21 211.801 48.776 211.171 47.908C210.541 47.026 210.226 45.661 210.226 43.813C210.226 40.131 211.689 38.29 214.615 38.29C216.029 38.29 217.086 38.689 217.786 39.487C218.486 40.271 218.836 41.51 218.836 43.204L218.752 44.401H211.822C211.822 45.563 212.032 46.424 212.452 46.984C212.872 47.544 213.6 47.824 214.636 47.824C215.686 47.824 216.75 47.782 217.828 47.698ZM217.261 43.141C217.261 41.853 217.051 40.943 216.631 40.411C216.225 39.879 215.553 39.613 214.615 39.613C213.691 39.613 212.991 39.893 212.515 40.453C212.053 41.013 211.815 41.909 211.801 43.141H217.261ZM220.828 43.729C220.828 41.811 221.171 40.425 221.857 39.571C222.543 38.717 223.698 38.29 225.322 38.29C226.96 38.29 228.115 38.717 228.787 39.571C229.473 40.425 229.816 41.811 229.816 43.729C229.816 45.647 229.494 47.04 228.85 47.908C228.206 48.776 227.03 49.21 225.322 49.21C223.614 49.21 222.438 48.776 221.794 47.908C221.15 47.04 220.828 45.647 220.828 43.729ZM222.445 43.708C222.445 45.234 222.627 46.305 222.991 46.921C223.369 47.537 224.146 47.845 225.322 47.845C226.512 47.845 227.289 47.544 227.653 46.942C228.017 46.326 228.199 45.248 228.199 43.708C228.199 42.168 227.996 41.111 227.59 40.537C227.184 39.949 226.428 39.655 225.322 39.655C224.23 39.655 223.474 39.949 223.054 40.537C222.648 41.111 222.445 42.168 222.445 43.708ZM235.682 39.697C234.156 39.697 233.393 40.229 233.393 41.293C233.393 41.783 233.568 42.133 233.918 42.343C234.268 42.539 235.066 42.749 236.312 42.973C237.558 43.183 238.44 43.484 238.958 43.876C239.476 44.268 239.735 45.003 239.735 46.081C239.735 47.159 239.385 47.95 238.685 48.454C237.999 48.958 236.991 49.21 235.661 49.21C234.793 49.21 233.771 49.112 232.595 48.916L231.965 48.811L232.049 47.446C233.645 47.684 234.849 47.803 235.661 47.803C236.473 47.803 237.089 47.677 237.509 47.425C237.943 47.159 238.16 46.725 238.16 46.123C238.16 45.507 237.978 45.094 237.614 44.884C237.25 44.66 236.452 44.45 235.22 44.254C233.988 44.058 233.113 43.771 232.595 43.393C232.077 43.015 231.818 42.315 231.818 41.293C231.818 40.271 232.175 39.515 232.889 39.025C233.617 38.535 234.52 38.29 235.598 38.29C236.452 38.29 237.523 38.388 238.811 38.584L239.399 38.689L239.357 40.033C237.803 39.809 236.578 39.697 235.682 39.697Z" fill="black"/>
<defs>
<filter id="filter0_d" x="0.317785" y="0.623075" width="293.586" height="94.5856" filterUnits="userSpaceOnUse" color-interpolation-filters="sRGB">
<feFlood flood-opacity="0" result="BackgroundImageFix"/>
<feColorMatrix in="SourceAlpha" type="matrix" values="0 0 0 0 0 0 0 0 0 0 0 0 0 0 0 0 0 0 127 0" result="hardAlpha"/>
<feMorphology radius="1.84423" operator="dilate" in="SourceAlpha" result="effect1_dropShadow"/>
<feOffset dx="4.61058" dy="6.91587"/>
<feGaussianBlur stdDeviation="6.22428"/>
<feColorMatrix type="matrix" values="0 0 0 0 0.737255 0 0 0 0 0.0470588 0 0 0 0 0.141176 0 0 0 0.13 0"/>
<feBlend mode="normal" in2="BackgroundImageFix" result="effect1_dropShadow"/>
<feBlend mode="normal" in="SourceGraphic" in2="effect1_dropShadow" result="shape"/>
</filter>
</defs>
</svg>
