<svg width="38" height="38" viewBox="0 0 38 38" fill="none" xmlns="http://www.w3.org/2000/svg">
<path d="M34.8567 8.66411C29.2521 -0.000286414 17.8092 -2.57619 8.93518 2.80979C0.294656 8.19577 -2.50767 19.9044 3.09699 28.5688L3.56404 29.2713L1.69582 36.2965L8.70165 34.4231L9.40223 34.8915C12.4381 36.5307 15.7075 37.4674 18.9769 37.4674C22.4798 37.4674 25.9827 36.5307 29.0186 34.6573C37.6591 29.0372 40.2279 17.5627 34.8567 8.66411ZM29.9527 26.6954C29.0186 28.1005 27.8509 29.0372 26.2162 29.2713C25.2821 29.2713 24.1145 29.7397 19.4439 27.8663C15.474 25.9929 12.2046 22.9487 9.86929 19.4361C8.46812 17.7969 7.76754 15.6893 7.53401 13.5817C7.53401 11.7084 8.2346 10.0691 9.40223 8.89829C9.86929 8.42994 10.3363 8.19577 10.8034 8.19577H11.971C12.4381 8.19577 12.9051 8.19577 13.1387 9.13246C13.6057 10.3033 14.7734 13.1134 14.7734 13.3476C15.0069 13.5817 15.0069 14.0501 14.7734 14.2843C15.0069 14.7526 14.7734 15.221 14.5398 15.4551C14.3063 15.6893 14.0728 16.1576 13.8393 16.3918C13.3722 16.626 13.1387 17.0943 13.3722 17.5627C14.3063 18.9677 15.474 20.3728 16.6416 21.5436C18.0428 22.7145 19.4439 23.6512 21.0786 24.3537C21.5457 24.5879 22.0127 24.5879 22.2463 24.1195C22.4798 23.6512 23.6474 22.4803 24.1145 22.012C24.5815 21.5436 24.8151 21.5436 25.2821 21.7778L29.0186 23.6512C29.4856 23.8854 29.9527 24.1195 30.1862 24.3537C30.4197 25.0562 30.4197 25.9929 29.9527 26.6954Z" fill="#59CB00"/>
</svg>
