<svg width="91" height="89" viewBox="0 0 91 89" fill="none" xmlns="http://www.w3.org/2000/svg">
<path d="M80.2488 27.1228H71.3922V15.2381C71.3922 14.7384 70.9889 14.334 70.4905 14.334H58.8919V9.94511C58.8919 9.44538 58.4886 9.04102 57.9902 9.04102H39.0486C38.5502 9.04102 38.1469 9.44538 38.1469 9.94511V18.3239L25.0848 18.3247V9.94511C25.0848 9.44538 24.6815 9.04102 24.1831 9.04102H9.91731C9.41892 9.04102 9.01562 9.44538 9.01562 9.94511V80.4641C9.01562 80.9638 9.41892 81.3682 9.91731 81.3682H80.2488C80.7472 81.3682 81.1505 80.9638 81.1505 80.4641V28.0269C81.1505 27.5272 80.7472 27.1228 80.2488 27.1228ZM71.3922 43.1342H79.3471V65.3568H71.3922V43.1342ZM71.3922 41.326V36.7049H79.3471V41.326H71.3922ZM71.3922 67.165H79.3471V71.7861H71.3922V67.165ZM79.3471 28.931V34.8968H71.3922V28.931H79.3471ZM69.5888 16.1422V28.0269V79.56H58.8919V16.1422H69.5888ZM57.0885 29.4122H39.9503V23.2531H57.0885V29.4122ZM39.9503 31.2204H57.0885V79.56H39.9503V31.2204ZM39.9503 10.8492H57.0885V15.2381V21.4449H39.9503V19.2279V10.8492ZM23.2815 59.1889H10.819V31.2212H23.2815V59.1889ZM23.2815 29.4131H10.819V23.2539H23.2815V29.4131ZM10.819 60.9971H23.2815V67.1562H10.819V60.9971ZM23.2815 10.8492V19.2288V21.4458H10.819V10.8492H23.2815ZM10.819 68.9643H23.2815V79.56H10.819V68.9643ZM25.0848 20.1329L38.1469 20.132V79.56H25.0848V20.1329ZM71.3922 79.56V73.5943H79.3471V79.56H71.3922Z" fill="#BB0823"/>
<path d="M52.935 59.188H44.1048C43.6064 59.188 43.2031 59.5924 43.2031 60.0921C43.2031 60.5918 43.6064 60.9962 44.1048 60.9962H52.935C53.4334 60.9962 53.8367 60.5918 53.8367 60.0921C53.8367 59.5924 53.4334 59.188 52.935 59.188Z" fill="#BB0823"/>
<path d="M52.935 67.1553H44.1048C43.6064 67.1553 43.2031 67.5596 43.2031 68.0594C43.2031 68.5591 43.6064 68.9635 44.1048 68.9635H52.935C53.4334 68.9635 53.8367 68.5591 53.8367 68.0594C53.8367 67.5596 53.4334 67.1553 52.935 67.1553Z" fill="#BB0823"/>
<path d="M61.9915 63.643H66.0896C66.588 63.643 66.9913 63.2386 66.9913 62.7389C66.9913 62.2391 66.588 61.8348 66.0896 61.8348H61.9915C61.4931 61.8348 61.0898 62.2391 61.0898 62.7389C61.0898 63.2386 61.4931 63.643 61.9915 63.643Z" fill="#BB0823"/>
<path d="M61.9915 71.6102H66.0896C66.588 71.6102 66.9913 71.2059 66.9913 70.7062C66.9913 70.2064 66.588 69.8021 66.0896 69.8021H61.9915C61.4931 69.8021 61.0898 70.2064 61.0898 70.7062C61.0898 71.2059 61.4931 71.6102 61.9915 71.6102Z" fill="#BB0823"/>
<path d="M48.52 53.7531C51.7464 53.7531 54.2744 49.9982 54.2744 45.2049C54.2744 40.4107 51.7464 36.6558 48.52 36.6558C45.2937 36.6558 42.7656 40.4107 42.7656 45.2049C42.7656 49.9982 45.2937 53.7531 48.52 53.7531ZM48.52 38.4639C50.6615 38.4639 52.4711 41.5506 52.4711 45.2049C52.4711 48.8583 50.6615 51.9449 48.52 51.9449C46.3785 51.9449 44.569 48.8583 44.569 45.2049C44.569 41.5506 46.3785 38.4639 48.52 38.4639Z" fill="#BB0823"/>
<path d="M33.8665 43.2915C33.3681 43.2915 32.9648 43.6959 32.9648 44.1956V57.4921C32.9648 57.9918 33.3681 58.3962 33.8665 58.3962C34.3649 58.3962 34.7682 57.9918 34.7682 57.4921V44.1956C34.7682 43.6959 34.3649 43.2915 33.8665 43.2915Z" fill="#BB0823"/>
<path d="M29.3704 43.2913C28.872 43.2913 28.4688 43.6956 28.4688 44.1953V57.4918C28.4688 57.9916 28.872 58.3959 29.3704 58.3959C29.8688 58.3959 30.2721 57.9916 30.2721 57.4918V44.1953C30.2721 43.6956 29.8688 43.2913 29.3704 43.2913Z" fill="#BB0823"/>
</svg>
