<svg width="98" height="121" viewBox="0 0 98 121" fill="none" xmlns="http://www.w3.org/2000/svg">
<path d="M22.1278 23.7384C19.8628 23.6476 17.7208 22.6876 16.1505 21.0592C14.5801 19.4308 13.7031 17.2604 13.7031 15.0025C13.7031 12.7445 14.5801 10.5742 16.1505 8.94578C17.7208 7.31741 19.8628 6.35734 22.1278 6.2666C24.3928 6.35734 26.5347 7.31741 28.1051 8.94578C29.6754 10.5742 30.5524 12.7445 30.5524 15.0025C30.5524 17.2604 29.6754 19.4308 28.1051 21.0592C26.5347 22.6876 24.3928 23.6476 22.1278 23.7384ZM22.1278 9.09147C20.6041 9.16568 19.1674 9.82084 18.1154 10.9212C17.0633 12.0216 16.4766 13.483 16.4766 15.0025C16.4766 16.522 17.0633 17.9833 18.1154 19.0837C19.1674 20.1841 20.6041 20.8393 22.1278 20.9135C23.6829 20.9064 25.1736 20.2937 26.2812 19.2063C27.3888 18.1189 28.0254 16.6431 28.055 15.0943C28.0488 13.538 27.4388 12.0444 26.3527 10.9257C25.2666 9.80698 23.7883 9.14977 22.227 9.09147H22.1278Z" fill="#BB0823"/>
<path d="M22.1237 46.4364C16.0263 46.3963 10.0216 44.9457 4.58314 42.1991C4.34449 42.0826 4.1435 41.9017 4.0031 41.6769C3.8627 41.4522 3.78853 41.1926 3.78907 40.9279C3.78907 32.2132 12.0134 25.1369 22.1237 25.1369C26.8133 25.076 31.3719 26.678 34.9849 29.6567C36.6756 31.0221 38.042 32.7434 38.9859 34.697C39.9297 36.6506 40.4277 38.7882 40.4442 40.9562C40.4447 41.2209 40.3705 41.4804 40.2301 41.7052C40.0897 41.9299 39.8887 42.1109 39.6501 42.2274C34.2118 44.9572 28.2134 46.3977 22.1237 46.4364ZM6.62505 40.024C11.4391 42.3801 16.7315 43.6052 22.0953 43.6052C27.4592 43.6052 32.7515 42.3801 37.5656 40.024C37.4161 38.4291 36.9476 36.8801 36.1878 35.4683C35.428 34.0566 34.3922 32.8105 33.1415 31.8036C30.035 29.2525 26.1211 27.8813 22.0953 27.9335C13.9277 27.9335 7.19225 33.2867 6.62505 40.024Z" fill="#BB0823"/>
<path d="M53.8586 39.4164C53.2884 39.4252 52.7298 39.2554 52.2617 38.931C51.7935 38.6066 51.4395 38.144 51.2494 37.6085L47.9739 27.9333H43.8617C42.2094 27.9296 40.6261 27.2732 39.4591 26.1081C38.2921 24.943 37.6367 23.3644 37.6367 21.7186V12.4813C37.6367 10.8355 38.2921 9.25691 39.4591 8.09183C40.6261 6.92675 42.2094 6.27034 43.8617 6.2666H88.3016C89.9552 6.27033 91.54 6.92629 92.7092 8.09097C93.8785 9.25564 94.537 10.8342 94.5408 12.4813V21.7186C94.537 23.3657 93.8785 24.9443 92.7092 26.1089C91.54 27.2736 89.9552 27.9296 88.3016 27.9333H59.6581L56.4677 37.6085C56.2776 38.144 55.9236 38.6066 55.4555 38.931C54.9873 39.2554 54.4288 39.4252 53.8586 39.4164ZM43.9326 9.09147C43.0325 9.0952 42.1705 9.45399 41.5354 10.0893C40.9002 10.7246 40.5436 11.5847 40.5436 12.4813V21.7186C40.5436 22.6152 40.9002 23.4753 41.5354 24.1106C42.1705 24.7459 43.0325 25.1047 43.9326 25.1084H48.1157C48.6923 25.1058 49.2551 25.2846 49.7236 25.6194C50.1921 25.9542 50.5425 26.4279 50.7248 26.9729L53.9295 36.422L57.1199 26.9729C57.3147 26.4358 57.6683 25.9702 58.1341 25.6374C58.5998 25.3046 59.1559 25.1201 59.729 25.1084H88.3016C89.203 25.1047 90.0665 24.7464 90.7039 24.1115C91.3413 23.4766 91.701 22.6165 91.7048 21.7186V12.4813C91.701 11.5834 91.3413 10.7233 90.7039 10.0884C90.0665 9.45352 89.203 9.09518 88.3016 9.09147H43.9326Z" fill="#BB0823"/>
<path d="M85.7619 15.151H49.2344C48.8583 15.151 48.4977 15.0022 48.2317 14.7373C47.9658 14.4725 47.8164 14.1132 47.8164 13.7386C47.8164 13.364 47.9658 13.0047 48.2317 12.7399C48.4977 12.475 48.8583 12.3262 49.2344 12.3262H85.7619C86.138 12.3262 86.4986 12.475 86.7646 12.7399C87.0305 13.0047 87.1799 13.364 87.1799 13.7386C87.1799 14.1132 87.0305 14.4725 86.7646 14.7373C86.4986 15.0022 86.138 15.151 85.7619 15.151Z" fill="#BB0823"/>
<path d="M67.4981 21.8742H49.2344C48.8583 21.8742 48.4977 21.7254 48.2317 21.4605C47.9658 21.1956 47.8164 20.8363 47.8164 20.4617C47.8164 20.0871 47.9658 19.7279 48.2317 19.463C48.4977 19.1981 48.8583 19.0493 49.2344 19.0493H67.4981C67.8742 19.0493 68.2349 19.1981 68.5008 19.463C68.7667 19.7279 68.9161 20.0871 68.9161 20.4617C68.9161 20.8363 68.7667 21.1956 68.5008 21.4605C68.2349 21.7254 67.8742 21.8742 67.4981 21.8742Z" fill="#BB0823"/>
<path d="M76.2086 68.8375C73.9037 68.8303 71.6939 67.9219 70.0549 66.3078C68.4159 64.6937 67.4788 62.503 67.4454 60.2075C67.4377 57.8832 68.3505 55.6497 69.9859 53.9917C71.6212 52.3337 73.847 51.385 76.1802 51.3516C78.5043 51.3516 80.7333 52.2712 82.3767 53.9082C84.0201 55.5452 84.9434 57.7654 84.9434 60.0804C84.9434 62.3954 84.0201 64.6156 82.3767 66.2526C80.7333 67.8896 78.5043 68.8092 76.1802 68.8092L76.2086 68.8375ZM76.2086 54.2047C74.6275 54.2306 73.12 54.8745 72.0112 55.9974C70.9024 57.1204 70.2811 58.6324 70.2813 60.2075C70.2857 61.1794 70.531 62.1353 70.9953 62.9901C71.4596 63.845 72.1286 64.5725 72.9429 65.108C73.7572 65.6435 74.6917 65.9704 75.6633 66.0598C76.6349 66.1492 77.6137 65.9983 78.5127 65.6205C79.4117 65.2426 80.2032 64.6495 80.8168 63.8939C81.4305 63.1382 81.8474 62.2433 82.0304 61.2886C82.2135 60.3339 82.1571 59.349 81.8663 58.4212C81.5755 57.4934 81.0592 56.6515 80.3633 55.9702C79.8216 55.4179 79.1757 54.9775 78.4627 54.6746C77.7498 54.3716 76.9837 54.2119 76.2086 54.2047Z" fill="#BB0823"/>
<path d="M76.2082 91.5495C70.1067 91.5054 64.0983 90.0551 58.6535 87.3122C58.4148 87.1957 58.2138 87.0148 58.0734 86.79C57.933 86.5652 57.8588 86.3057 57.8594 86.041C57.8778 83.8733 58.3767 81.7364 59.3204 79.7831C60.2641 77.8298 61.6294 76.1083 63.3186 74.7415C66.9351 71.7464 71.5053 70.1338 76.2082 70.1935C86.3185 70.1935 94.5428 77.2557 94.5428 85.9845C94.5434 86.2492 94.4692 86.5087 94.3288 86.7335C94.1884 86.9583 93.9874 87.1392 93.7488 87.2557C88.3142 90.0194 82.3098 91.4892 76.2082 91.5495ZM60.7379 85.1229C65.552 87.479 70.8444 88.7041 76.2082 88.7041C81.572 88.7041 86.8644 87.479 91.6785 85.1229C91.1397 78.3856 84.4042 73.0325 76.2082 73.0325C72.1824 72.9802 68.2685 74.3515 65.162 76.9025C63.9113 77.9095 62.8756 79.1555 62.1158 80.5673C61.356 81.9791 60.8875 83.528 60.7379 85.1229Z" fill="#BB0823"/>
<path d="M44.4713 84.5155C43.8941 84.5204 43.3304 84.3424 42.8614 84.0073C42.3924 83.6721 42.0425 83.1972 41.8622 82.6511L38.5866 72.9195H10.0282C8.39297 72.9197 6.82296 72.2805 5.6561 71.1394C4.48924 69.9982 3.81879 68.4463 3.78906 66.8178V57.5805C3.79282 55.9347 4.45181 54.3576 5.62148 53.1951C6.79114 52.0327 8.37595 51.3799 10.0282 51.3799H54.4681C56.1179 51.3836 57.6991 52.0381 58.8657 53.2001C60.0323 54.3621 60.6894 55.9371 60.6931 57.5805V66.8178C60.6931 68.4636 60.0377 70.0422 58.8707 71.2072C57.7037 72.3723 56.1204 73.0287 54.4681 73.0325H50.2141L47.0095 82.6511C46.8291 83.1972 46.4792 83.6721 46.0103 84.0073C45.5413 84.3424 44.9775 84.5204 44.4004 84.5155H44.4713ZM10.0282 54.2047C9.1281 54.2047 8.26463 54.5599 7.62682 55.1926C6.989 55.8253 6.6288 56.6839 6.62505 57.5805V66.8178C6.62878 67.7157 6.98853 68.5757 7.62594 69.2106C8.26335 69.8456 9.1268 70.2039 10.0282 70.2076H38.6717C39.2448 70.2193 39.8009 70.4037 40.2667 70.7366C40.7324 71.0694 41.086 71.535 41.2808 72.072L44.4713 81.5212L47.7468 72.072C47.9291 71.5271 48.2795 71.0534 48.748 70.7186C49.2166 70.3838 49.7793 70.205 50.3559 70.2076H54.6099C55.51 70.2039 56.372 69.8451 57.0072 69.2098C57.6423 68.5745 57.9989 67.7144 57.9989 66.8178V57.5805C57.9989 57.1372 57.9113 56.6982 57.741 56.2886C57.5706 55.8791 57.321 55.5069 57.0063 55.1935C56.6916 54.88 56.318 54.6314 55.9068 54.4617C55.4957 54.2921 55.055 54.2047 54.6099 54.2047H10.0282Z" fill="#BB0823"/>
<path d="M49.1687 60.2077H12.5703C12.1943 60.2077 11.8336 60.0589 11.5677 59.794C11.3017 59.5291 11.1523 59.1698 11.1523 58.7952C11.1523 58.4206 11.3017 58.0614 11.5677 57.7965C11.8336 57.5316 12.1943 57.3828 12.5703 57.3828H49.1687C49.5448 57.3828 49.9055 57.5316 50.1714 57.7965C50.4373 58.0614 50.5867 58.4206 50.5867 58.7952C50.5867 59.1698 50.4373 59.5291 50.1714 59.794C49.9055 60.0589 49.5448 60.2077 49.1687 60.2077Z" fill="#BB0823"/>
<path d="M49.1667 66.9733H30.8321C30.456 66.9733 30.0953 66.8245 29.8294 66.5596C29.5635 66.2947 29.4141 65.9355 29.4141 65.5609C29.4141 65.1863 29.5635 64.827 29.8294 64.5621C30.0953 64.2972 30.456 64.1484 30.8321 64.1484H49.1667C49.5428 64.1484 49.9035 64.2972 50.1694 64.5621C50.4353 64.827 50.5847 65.1863 50.5847 65.5609C50.5847 65.9355 50.4353 66.2947 50.1694 66.5596C49.9035 66.8245 49.5428 66.9733 49.1667 66.9733Z" fill="#BB0823"/>
</svg>
