<svg width="265" height="221" viewBox="0 0 265 221" fill="none" xmlns="http://www.w3.org/2000/svg">
<g filter="url(#filter0_d)">
<rect x="10" y="8" width="235.567" height="191" rx="7.37693" fill="#F5F5F5"/>
<rect x="10.2305" y="8.23053" width="235.106" height="190.539" rx="7.1464" stroke="#B5B5B5" stroke-width="0.461058"/>
</g>
<path d="M151.343 52.0558H145.286C145.706 51.3485 145.931 50.5427 145.939 49.7203C145.946 48.8978 145.735 48.0881 145.328 47.3734C144.921 46.6587 144.332 46.0645 143.621 45.6511C142.91 45.2378 142.103 45.02 141.28 45.02C140.458 45.02 139.65 45.2378 138.939 45.6511C138.228 46.0645 137.639 46.6587 137.232 47.3734C136.825 48.0881 136.614 48.8978 136.622 49.7203C136.629 50.5427 136.854 51.3485 137.274 52.0558H108.018C108.438 51.3485 108.663 50.5427 108.67 49.7203C108.677 48.8978 108.467 48.0881 108.06 47.3734C107.653 46.6587 107.064 46.0645 106.353 45.6511C105.642 45.2378 104.834 45.02 104.011 45.02C103.189 45.02 102.381 45.2378 101.67 45.6511C100.959 46.0645 100.37 46.6587 99.9632 47.3734C99.5562 48.0881 99.3457 48.8978 99.3531 49.7203C99.3604 50.5427 99.5854 51.3485 100.005 52.0558H93.9489C92.6591 52.0053 91.4016 52.4665 90.4504 53.3392C89.4993 54.2118 88.9316 55.425 88.8711 56.7144V107.959C88.9316 109.248 89.4993 110.461 90.4504 111.334C91.4016 112.207 92.6591 112.668 93.9489 112.617H151.343C152.632 112.668 153.89 112.207 154.841 111.334C155.792 110.461 156.36 109.248 156.421 107.959V56.7144C156.36 55.425 155.792 54.2118 154.841 53.3392C153.89 52.4665 152.632 52.0053 151.343 52.0558ZM138.951 49.7266C138.951 49.1088 139.196 48.5163 139.633 48.0795C140.07 47.6427 140.662 47.3973 141.28 47.3973C141.898 47.3973 142.49 47.6427 142.927 48.0795C143.364 48.5163 143.609 49.1088 143.609 49.7266C143.609 50.3443 143.364 50.9368 142.927 51.3736C142.49 51.8104 141.898 52.0558 141.28 52.0558C140.662 52.0558 140.07 51.8104 139.633 51.3736C139.196 50.9368 138.951 50.3443 138.951 49.7266ZM101.682 49.7266C101.682 49.1088 101.928 48.5163 102.364 48.0795C102.801 47.6427 103.394 47.3973 104.011 47.3973C104.629 47.3973 105.222 47.6427 105.659 48.0795C106.095 48.5163 106.341 49.1088 106.341 49.7266C106.341 50.3443 106.095 50.9368 105.659 51.3736C105.222 51.8104 104.629 52.0558 104.011 52.0558C103.394 52.0558 102.801 51.8104 102.364 51.3736C101.928 50.9368 101.682 50.3443 101.682 49.7266ZM91.2004 56.7144C91.2626 56.0437 91.5853 55.4242 92.0992 54.9887C92.613 54.5532 93.2771 54.3365 93.9489 54.3851H151.343C152.014 54.3365 152.679 54.5532 153.192 54.9887C153.706 55.4242 154.029 56.0437 154.091 56.7144V63.7023H91.2004V56.7144ZM154.091 107.959C154.029 108.629 153.706 109.249 153.192 109.685C152.679 110.12 152.014 110.337 151.343 110.288H93.9489C93.2771 110.337 92.613 110.12 92.0992 109.685C91.5853 109.249 91.2626 108.629 91.2004 107.959V66.0316H154.091V107.959Z" fill="#BB0823"/>
<path d="M111.001 85.831H120.318C120.627 85.831 120.923 85.7083 121.141 85.4899C121.36 85.2715 121.482 84.9753 121.482 84.6664V75.3492C121.482 75.0403 121.36 74.7441 121.141 74.5257C120.923 74.3073 120.627 74.1846 120.318 74.1846H111.001C110.692 74.1846 110.395 74.3073 110.177 74.5257C109.959 74.7441 109.836 75.0403 109.836 75.3492V84.6664C109.836 84.9753 109.959 85.2715 110.177 85.4899C110.395 85.7083 110.692 85.831 111.001 85.831ZM112.165 76.5139H119.153V83.5017H112.165V76.5139Z" fill="#BB0823"/>
<path d="M138.95 85.8308H148.267C148.576 85.8308 148.872 85.7081 149.09 85.4897C149.309 85.2712 149.432 84.975 149.432 84.6661V75.349C149.432 75.0401 149.309 74.7439 149.09 74.5254C148.872 74.307 148.576 74.1843 148.267 74.1843H138.95C138.641 74.1843 138.345 74.307 138.126 74.5254C137.908 74.7439 137.785 75.0401 137.785 75.349V84.6661C137.785 84.975 137.908 85.2712 138.126 85.4897C138.345 85.7081 138.641 85.8308 138.95 85.8308ZM140.114 76.5136H147.102V83.5015H140.114V76.5136Z" fill="#BB0823"/>
<path d="M97.0201 102.136H106.337C106.646 102.136 106.942 102.013 107.161 101.795C107.379 101.576 107.502 101.28 107.502 100.971V91.6541C107.502 91.3453 107.379 91.049 107.161 90.8306C106.942 90.6122 106.646 90.4895 106.337 90.4895H97.0201C96.7112 90.4895 96.415 90.6122 96.1966 90.8306C95.9782 91.049 95.8555 91.3453 95.8555 91.6541V100.971C95.8555 101.28 95.9782 101.576 96.1966 101.795C96.415 102.013 96.7112 102.136 97.0201 102.136ZM98.1848 92.8188H105.173V99.8067H98.1848V92.8188Z" fill="#BB0823"/>
<path d="M124.977 102.136H134.294C134.603 102.136 134.899 102.013 135.118 101.795C135.336 101.576 135.459 101.28 135.459 100.971V91.6541C135.459 91.3453 135.336 91.049 135.118 90.8306C134.899 90.6122 134.603 90.4895 134.294 90.4895H124.977C124.668 90.4895 124.372 90.6122 124.154 90.8306C123.935 91.049 123.812 91.3453 123.812 91.6541V100.971C123.812 101.28 123.935 101.576 124.154 101.795C124.372 102.013 124.668 102.136 124.977 102.136ZM126.142 92.8188H133.13V99.8067H126.142V92.8188Z" fill="#BB0823"/>
<path d="M138.95 102.136H148.267C148.576 102.136 148.872 102.013 149.09 101.795C149.309 101.576 149.432 101.28 149.432 100.971V91.6541C149.432 91.3453 149.309 91.049 149.09 90.8306C148.872 90.6122 148.576 90.4895 148.267 90.4895H138.95C138.641 90.4895 138.345 90.6122 138.126 90.8306C137.908 91.049 137.785 91.3453 137.785 91.6541V100.971C137.785 101.28 137.908 101.576 138.126 101.795C138.345 102.013 138.641 102.136 138.95 102.136ZM140.114 92.8188H147.102V99.8067H140.114V92.8188Z" fill="#BB0823"/>
<path d="M99.6879 83.7463C99.9061 83.9632 100.201 84.085 100.509 84.085C100.817 84.085 101.112 83.9632 101.33 83.7463L107.153 77.9231C107.373 77.7038 107.496 77.4063 107.496 77.0962C107.496 76.786 107.373 76.4886 107.153 76.2693C106.934 76.05 106.637 75.9268 106.326 75.9268C106.016 75.9268 105.719 76.05 105.499 76.2693L100.515 81.2772L97.8594 78.6219C97.7516 78.5133 97.6234 78.427 97.4822 78.3679C97.3411 78.3089 97.1896 78.2782 97.0366 78.2776C96.8836 78.2771 96.7319 78.3067 96.5904 78.3648C96.4488 78.4228 96.32 78.5082 96.2114 78.616C96.1028 78.7239 96.0165 78.852 95.9575 78.9932C95.8984 79.1344 95.8677 79.2858 95.8672 79.4388C95.8667 79.5918 95.8963 79.7435 95.9543 79.8851C96.0124 80.0266 96.0978 80.1554 96.2056 80.264L99.6879 83.7463Z" fill="#BB0823"/>
<path d="M127.641 83.746C127.859 83.963 128.154 84.0847 128.462 84.0847C128.77 84.0847 129.065 83.963 129.283 83.746L135.106 77.9228C135.326 77.7035 135.449 77.4061 135.449 77.0959C135.449 76.7858 135.326 76.4883 135.106 76.269C134.887 76.0497 134.59 75.9265 134.279 75.9265C133.969 75.9265 133.672 76.0497 133.453 76.269L128.468 81.277L125.813 78.6216C125.595 78.4023 125.299 78.2785 124.99 78.2774C124.681 78.2763 124.384 78.398 124.165 78.6158C123.945 78.8335 123.821 79.1295 123.82 79.4386C123.819 79.7476 123.941 80.0445 124.159 80.2638L127.641 83.746Z" fill="#BB0823"/>
<path d="M113.668 100.051C113.887 100.268 114.182 100.39 114.489 100.39C114.797 100.39 115.092 100.268 115.31 100.051L121.134 94.2278C121.353 94.0084 121.476 93.711 121.476 93.4009C121.476 93.0907 121.353 92.7933 121.134 92.574C120.914 92.3547 120.617 92.2314 120.307 92.2314C119.997 92.2314 119.699 92.3547 119.48 92.574L114.495 97.5819L111.84 94.9265C111.622 94.7072 111.326 94.5834 111.017 94.5823C110.708 94.5812 110.411 94.703 110.192 94.9207C109.973 95.1385 109.849 95.4344 109.848 95.7435C109.847 96.0526 109.968 96.3494 110.186 96.5687L113.668 100.051Z" fill="#BB0823"/>
<path d="M95.5197 107.622C95.7391 107.402 95.8623 107.105 95.8623 106.795C95.8623 106.485 95.7391 106.187 95.5197 105.968C95.3004 105.749 95.003 105.625 94.6928 105.625C94.3827 105.625 94.0853 105.749 93.8659 105.968C93.6466 106.187 93.5234 106.485 93.5234 106.795C93.5234 107.105 93.6466 107.402 93.8659 107.622C94.0853 107.841 94.3827 107.964 94.6928 107.964C95.003 107.964 95.3004 107.841 95.5197 107.622Z" fill="#BB0823"/>
<path d="M98.5222 105.968C98.3029 106.187 98.1797 106.485 98.1797 106.795C98.1797 107.105 98.3029 107.402 98.5222 107.622C98.7415 107.841 99.039 107.964 99.3491 107.964C99.6592 107.964 99.9567 107.841 100.176 107.622C100.395 107.402 100.519 107.105 100.519 106.795C100.519 106.485 100.395 106.187 100.176 105.968C99.9567 105.749 99.6592 105.625 99.3491 105.625C99.039 105.625 98.7415 105.749 98.5222 105.968Z" fill="#BB0823"/>
<path d="M103.186 105.968C102.967 106.187 102.844 106.485 102.844 106.795C102.844 107.105 102.967 107.402 103.186 107.622C103.406 107.841 103.703 107.964 104.013 107.964C104.323 107.964 104.621 107.841 104.84 107.622C105.059 107.402 105.183 107.105 105.183 106.795C105.183 106.485 105.059 106.187 104.84 105.968C104.621 105.749 104.323 105.625 104.013 105.625C103.703 105.625 103.406 105.749 103.186 105.968Z" fill="#BB0823"/>
<path d="M81.0318 169.074C79.3151 169.424 77.7735 169.599 76.4068 169.599C75.0401 169.599 73.9318 169.415 73.0818 169.049C72.2485 168.665 71.5985 168.082 71.1318 167.299C70.6818 166.499 70.3651 165.59 70.1818 164.574C70.0151 163.54 69.9318 162.257 69.9318 160.724C69.9318 159.19 70.0151 157.907 70.1818 156.874C70.3651 155.824 70.6818 154.899 71.1318 154.099C71.5985 153.299 72.2485 152.715 73.0818 152.349C73.9151 151.982 74.9985 151.799 76.3318 151.799C77.6651 151.799 79.2318 151.982 81.0318 152.349L80.9568 153.974C79.2735 153.674 77.7735 153.524 76.4568 153.524C74.6235 153.524 73.4068 154.074 72.8068 155.174C72.2235 156.257 71.9318 158.115 71.9318 160.749C71.9318 162.065 71.9818 163.124 72.0818 163.924C72.1985 164.724 72.4151 165.449 72.7318 166.099C73.0485 166.732 73.5068 167.19 74.1068 167.474C74.7235 167.74 75.6151 167.874 76.7818 167.874C77.9651 167.874 79.3568 167.724 80.9568 167.424L81.0318 169.074ZM92.6804 160.624V167.024C92.7304 167.64 93.2138 168.007 94.1304 168.124L94.0554 169.599C92.7388 169.599 91.7471 169.265 91.0804 168.599C89.5804 169.265 88.0804 169.599 86.5804 169.599C85.4304 169.599 84.5554 169.274 83.9554 168.624C83.3554 167.974 83.0554 167.04 83.0554 165.824C83.0554 164.607 83.3638 163.715 83.9804 163.149C84.5971 162.565 85.5638 162.207 86.8804 162.074L90.8054 161.699V160.624C90.8054 159.774 90.6221 159.165 90.2554 158.799C89.8888 158.432 89.3888 158.249 88.7554 158.249C87.4221 158.249 86.0388 158.332 84.6054 158.499L83.8304 158.574L83.7554 157.149C85.5888 156.782 87.2138 156.599 88.6304 156.599C90.0471 156.599 91.0721 156.924 91.7054 157.574C92.3554 158.224 92.6804 159.24 92.6804 160.624ZM84.9804 165.724C84.9804 167.257 85.6138 168.024 86.8804 168.024C88.0138 168.024 89.1304 167.832 90.2304 167.449L90.8054 167.249V163.124L87.1054 163.474C86.3554 163.54 85.8138 163.757 85.4804 164.124C85.1471 164.49 84.9804 165.024 84.9804 165.724ZM96.5298 169.349V151.399H98.4048V169.349H96.5298ZM110.666 167.799L111.391 167.724L111.441 169.199C109.541 169.465 107.916 169.599 106.566 169.599C104.766 169.599 103.491 169.082 102.741 168.049C101.991 166.999 101.616 165.374 101.616 163.174C101.616 158.79 103.358 156.599 106.841 156.599C108.524 156.599 109.783 157.074 110.616 158.024C111.449 158.957 111.866 160.432 111.866 162.449L111.766 163.874H103.516C103.516 165.257 103.766 166.282 104.266 166.949C104.766 167.615 105.633 167.949 106.866 167.949C108.116 167.949 109.383 167.899 110.666 167.799ZM109.991 162.374C109.991 160.84 109.741 159.757 109.241 159.124C108.758 158.49 107.958 158.174 106.841 158.174C105.741 158.174 104.908 158.507 104.341 159.174C103.791 159.84 103.508 160.907 103.491 162.374H109.991ZM116.663 169.349H114.788V156.849H116.638V157.724C117.988 156.974 119.28 156.599 120.513 156.599C122.18 156.599 123.296 157.049 123.863 157.949C124.446 158.849 124.738 160.449 124.738 162.749V169.349H122.888V162.799C122.888 161.065 122.713 159.882 122.363 159.249C122.03 158.599 121.305 158.274 120.188 158.274C119.655 158.274 119.088 158.357 118.488 158.524C117.905 158.674 117.455 158.824 117.138 158.974L116.663 159.199V169.349ZM137.816 151.399V169.349H135.966V168.499C134.682 169.232 133.416 169.599 132.166 169.599C131.499 169.599 130.916 169.515 130.416 169.349C129.916 169.182 129.449 168.882 129.016 168.449C128.116 167.549 127.666 165.89 127.666 163.474C127.666 161.04 128.066 159.29 128.866 158.224C129.682 157.14 131.024 156.599 132.891 156.599C133.857 156.599 134.882 156.707 135.966 156.924V151.399H137.816ZM130.466 167.099C130.732 167.415 131.016 167.632 131.316 167.749C131.616 167.865 131.999 167.924 132.466 167.924C132.949 167.924 133.482 167.849 134.066 167.699C134.666 167.532 135.132 167.374 135.466 167.224L135.966 166.999V158.524C134.899 158.324 133.907 158.224 132.991 158.224C131.724 158.224 130.841 158.632 130.341 159.449C129.841 160.249 129.591 161.499 129.591 163.199C129.591 165.132 129.882 166.432 130.466 167.099ZM150.273 160.624V167.024C150.323 167.64 150.807 168.007 151.723 168.124L151.648 169.599C150.332 169.599 149.34 169.265 148.673 168.599C147.173 169.265 145.673 169.599 144.173 169.599C143.023 169.599 142.148 169.274 141.548 168.624C140.948 167.974 140.648 167.04 140.648 165.824C140.648 164.607 140.957 163.715 141.573 163.149C142.19 162.565 143.157 162.207 144.473 162.074L148.398 161.699V160.624C148.398 159.774 148.215 159.165 147.848 158.799C147.482 158.432 146.982 158.249 146.348 158.249C145.015 158.249 143.632 158.332 142.198 158.499L141.423 158.574L141.348 157.149C143.182 156.782 144.807 156.599 146.223 156.599C147.64 156.599 148.665 156.924 149.298 157.574C149.948 158.224 150.273 159.24 150.273 160.624ZM142.573 165.724C142.573 167.257 143.207 168.024 144.473 168.024C145.607 168.024 146.723 167.832 147.823 167.449L148.398 167.249V163.124L144.698 163.474C143.948 163.54 143.407 163.757 143.073 164.124C142.74 164.49 142.573 165.024 142.573 165.724ZM142.598 153.299L147.998 150.849L148.648 152.449L143.123 154.574L142.598 153.299ZM153.973 169.349V156.849H155.823V158.549C157.273 157.549 158.798 156.89 160.398 156.574V158.474C159.698 158.607 158.964 158.815 158.198 159.099C157.448 159.382 156.873 159.632 156.473 159.849L155.848 160.174V169.349H153.973ZM162.615 169.349V156.849H164.49V169.349H162.615ZM162.615 154.024V151.849H164.49V154.024H162.615ZM167.534 163.074C167.534 160.79 167.942 159.14 168.759 158.124C169.576 157.107 170.951 156.599 172.884 156.599C174.834 156.599 176.209 157.107 177.009 158.124C177.826 159.14 178.234 160.79 178.234 163.074C178.234 165.357 177.851 167.015 177.084 168.049C176.317 169.082 174.917 169.599 172.884 169.599C170.851 169.599 169.451 169.082 168.684 168.049C167.917 167.015 167.534 165.357 167.534 163.074ZM169.459 163.049C169.459 164.865 169.676 166.14 170.109 166.874C170.559 167.607 171.484 167.974 172.884 167.974C174.301 167.974 175.226 167.615 175.659 166.899C176.092 166.165 176.309 164.882 176.309 163.049C176.309 161.215 176.067 159.957 175.584 159.274C175.101 158.574 174.201 158.224 172.884 158.224C171.584 158.224 170.684 158.574 170.184 159.274C169.701 159.957 169.459 161.215 169.459 163.049Z" fill="#423F40"/>
<defs>
<filter id="filter0_d" x="0.317785" y="0.623075" width="264.152" height="219.586" filterUnits="userSpaceOnUse" color-interpolation-filters="sRGB">
<feFlood flood-opacity="0" result="BackgroundImageFix"/>
<feColorMatrix in="SourceAlpha" type="matrix" values="0 0 0 0 0 0 0 0 0 0 0 0 0 0 0 0 0 0 127 0"/>
<feMorphology radius="1.84423" operator="dilate" in="SourceAlpha" result="effect1_dropShadow"/>
<feOffset dx="4.61058" dy="6.91587"/>
<feGaussianBlur stdDeviation="6.22428"/>
<feColorMatrix type="matrix" values="0 0 0 0 0.737255 0 0 0 0 0.0470588 0 0 0 0 0.141176 0 0 0 0.13 0"/>
<feBlend mode="normal" in2="BackgroundImageFix" result="effect1_dropShadow"/>
<feBlend mode="normal" in="SourceGraphic" in2="effect1_dropShadow" result="shape"/>
</filter>
</defs>
</svg>
