<svg width="60" height="60" viewBox="0 0 60 60" fill="none" xmlns="http://www.w3.org/2000/svg">
<path d="M48.174 15.5179C48.156 15.4794 48.1335 15.4428 48.1024 15.4116L48.1018 15.4109L38.5639 6.00463C38.5602 6.00439 38.5567 6.00336 38.5533 6.00234C38.5493 6.00117 38.5453 6 38.541 6H12.3721C12.1666 6 12 6.1666 12 6.37208V53.9986C12 54.204 12.1666 54.3706 12.3721 54.3706H47.8389C48.0443 54.3706 48.2109 54.204 48.2109 53.9986V15.6741C48.2109 15.6698 48.2098 15.6658 48.2086 15.6618C48.2076 15.6584 48.2066 15.6549 48.2063 15.6511C48.2042 15.6174 48.1976 15.5849 48.1865 15.5529C48.1852 15.5493 48.184 15.5456 48.1828 15.5419C48.1802 15.5338 48.1776 15.5257 48.174 15.5179ZM48.174 15.5179L48.4162 15.4043L48.174 15.5179ZM38.6059 5.73966C38.6043 5.7393 38.6027 5.73894 38.601 5.73859C38.5863 5.73557 38.5657 5.73242 38.541 5.73242H12.3721C12.0188 5.73242 11.7324 6.01882 11.7324 6.37208V53.9986C11.7324 54.3518 12.0188 54.6382 12.3721 54.6382H47.8389C48.1921 54.6382 48.4785 54.3518 48.4785 53.9986V15.6741C48.4785 15.6495 48.4754 15.6289 48.4724 15.6143C48.472 15.6125 48.4716 15.6108 48.4713 15.6092C48.4662 15.5598 48.4555 15.5118 48.4392 15.4649C48.4391 15.4647 48.4388 15.464 48.4383 15.4623L48.4347 15.4511C48.4315 15.4416 48.4257 15.4244 48.4165 15.4048L38.6059 5.73966ZM38.6059 5.73966C38.6553 5.74473 38.7035 5.75547 38.7505 5.77188L38.7506 5.77189C38.7506 5.77191 38.7508 5.77196 38.751 5.77204L38.7531 5.77272L38.7641 5.77627C38.7735 5.77938 38.7906 5.78524 38.8101 5.79434C38.8103 5.79441 38.8104 5.79448 38.8106 5.79455L38.6972 6.03693L38.6059 5.73966ZM48.2919 15.2228L48.2918 15.2227C48.2919 15.2227 48.2919 15.2228 48.2919 15.2228ZM39.1807 15.0345V7.91688L46.295 15.0345H39.1807ZM13.0117 7.01175H37.9013V15.6741C37.9013 16.0274 38.1877 16.3138 38.541 16.3138H47.1992V53.3589H13.0117V7.01175Z" fill="#F5F5F5" stroke="#F5F5F5" stroke-width="0.535163"/>
<path d="M17.4072 11.663H31.7625C32.1158 11.663 32.4022 11.3766 32.4022 11.0233C32.4022 10.6701 32.1158 10.3837 31.7625 10.3837H17.4072C17.054 10.3837 16.7676 10.6701 16.7676 11.0233C16.7676 11.3766 17.054 11.663 17.4072 11.663Z" fill="#F5F5F5" stroke="#F5F5F5" stroke-width="0.535163"/>
<path d="M17.4072 17.6389H34.3671C34.7204 17.6389 35.0068 17.3525 35.0068 16.9993C35.0068 16.646 34.7204 16.3596 34.3671 16.3596H17.4072C17.054 16.3596 16.7676 16.646 16.7676 16.9993C16.7676 17.3525 17.054 17.6389 17.4072 17.6389Z" fill="#F5F5F5" stroke="#F5F5F5" stroke-width="0.535163"/>
<path d="M17.4072 23.6161H42.1514C42.5047 23.6161 42.7911 23.3297 42.7911 22.9765C42.7911 22.6232 42.5047 22.3368 42.1514 22.3368H17.4072C17.054 22.3368 16.7676 22.6232 16.7676 22.9765C16.7676 23.3297 17.054 23.6161 17.4072 23.6161Z" fill="#F5F5F5" stroke="#F5F5F5" stroke-width="0.535163"/>
<path d="M17.4072 29.5924H37.3438C37.697 29.5924 37.9834 29.306 37.9834 28.9528C37.9834 28.5995 37.697 28.3131 37.3438 28.3131H17.4072C17.054 28.3131 16.7676 28.5995 16.7676 28.9528C16.7676 29.306 17.054 29.5924 17.4072 29.5924Z" fill="#F5F5F5" stroke="#F5F5F5" stroke-width="0.535163"/>
<path d="M42.7911 34.9296C42.7911 34.5763 42.5047 34.2899 42.1514 34.2899H17.4072C17.054 34.2899 16.7676 34.5763 16.7676 34.9296C16.7676 35.2828 17.054 35.5692 17.4072 35.5692H42.1514C42.5047 35.5692 42.7911 35.2828 42.7911 34.9296Z" fill="#F5F5F5" stroke="#F5F5F5" stroke-width="0.535163"/>
<path d="M42.8165 42.71L42.8165 42.71C42.8354 42.7682 42.8773 42.8443 42.9481 42.9431C43.0178 43.0405 43.1035 43.1437 43.1999 43.2596L43.2 43.2596C43.2069 43.268 43.214 43.2765 43.2211 43.2851C43.5128 43.6353 43.9153 44.1187 43.9153 44.743C43.9153 45.3667 43.5132 45.8498 43.2217 46.2C43.2144 46.2088 43.2072 46.2175 43.2 46.2262L43.1999 46.2262C43.1035 46.3421 43.0178 46.4453 42.9481 46.5427C42.8774 46.6415 42.8354 46.7176 42.8166 46.7759L42.8165 46.7761C42.7946 46.8432 42.7828 46.9369 42.7812 47.0633C42.7797 47.1886 42.7881 47.3275 42.7977 47.4834L42.7977 47.4835C42.7984 47.4948 42.7991 47.5062 42.7998 47.5178C42.8273 47.9624 42.8654 48.5795 42.5106 49.0671L42.5105 49.0672C42.1527 49.5587 41.5511 49.7127 41.1169 49.8238L42.8165 42.71ZM42.8165 42.71C42.7946 42.6427 42.7828 42.5489 42.7812 42.4224M42.8165 42.71L42.7812 42.4224M37.2554 37.9623L37.2555 37.9623C37.2671 37.9577 37.2789 37.9531 37.2907 37.9484C37.7 37.7868 38.2689 37.5623 38.8338 37.7462C39.4185 37.9363 39.752 38.4649 39.993 38.8468C39.9991 38.8565 40.0051 38.866 40.0111 38.8755L37.2554 37.9623ZM37.2554 37.9623C37.1146 38.0178 36.9828 38.0696 36.8589 38.1081M37.2554 37.9623L36.8589 38.1081M33.1091 38.8755L33.1092 38.8754C33.1154 38.8657 33.1216 38.8558 33.1279 38.8458C33.3689 38.4641 33.7022 37.9361 34.2866 37.7462L33.1091 38.8755ZM33.1091 38.8755C33.0273 39.005 32.9543 39.1203 32.8817 39.2186C32.8082 39.3181 32.7466 39.3839 32.694 39.4222C32.6392 39.462 32.5557 39.5013 32.4371 39.5412C32.3197 39.5807 32.1861 39.6152 32.0362 39.6536L32.0361 39.6537M33.1091 38.8755L32.0361 39.6537M32.0361 39.6537C32.0251 39.6565 32.014 39.6593 32.0028 39.6622C31.5688 39.7735 30.9675 39.9276 30.6098 40.4189L30.6098 40.4189M32.0361 39.6537L30.6098 40.4189M30.6098 40.4189C30.255 40.9065 30.2931 41.5234 30.3206 41.968C30.3213 41.9796 30.322 41.991 30.3227 42.0023L30.3227 42.0024M30.6098 40.4189L30.3227 42.0024M30.3227 42.0024C30.3323 42.1583 30.3407 42.2972 30.3392 42.4225C30.3376 42.549 30.3258 42.6427 30.3039 42.71L30.3038 42.7101M30.3227 42.0024L30.3038 42.7101M30.3038 42.7101C30.285 42.7684 30.2431 42.8444 30.1723 42.9432M30.3038 42.7101L30.1723 42.9432M29.9205 46.2262L29.9204 46.2262C29.9132 46.2175 29.906 46.2088 29.8987 46.2C29.6072 45.8498 29.2051 45.3667 29.2051 44.743C29.2051 44.1189 29.6074 43.6357 29.899 43.2855C29.9062 43.2769 29.9133 43.2683 29.9204 43.2598L29.9205 46.2262ZM29.9205 46.2262C30.0169 46.3421 30.1026 46.4453 30.1723 46.5427C30.243 46.6415 30.285 46.7176 30.3038 46.7759L30.3039 46.776M29.9205 46.2262L30.3039 46.776M30.3039 46.776C30.3258 46.8433 30.3376 46.9371 30.3392 47.0636M30.3039 46.776L30.3392 47.0636M32.0364 49.8324L32.0363 49.8323C32.0253 49.8295 32.0143 49.8267 32.0031 49.8238C31.5689 49.7126 30.9675 49.5585 30.6098 49.0672C30.2551 48.5799 30.2933 47.963 30.3208 47.5187C30.3215 47.507 30.3222 47.4954 30.3229 47.4839L32.0364 49.8324ZM32.0364 49.8324C32.1863 49.8708 32.3199 49.9053 32.4373 49.9448M32.0364 49.8324L32.4373 49.9448M34.2872 51.7399L34.287 51.7398C33.702 51.5498 33.3684 51.0211 33.1274 50.6392L34.2872 51.7399ZM34.2872 51.7399C34.438 51.7887 34.5884 51.8089 34.7354 51.8089C35.1414 51.8089 35.5356 51.6534 35.8446 51.5315L35.8646 51.5236C36.0057 51.4681 36.1375 51.4163 36.2615 51.3777C36.3872 51.3387 36.486 51.3194 36.5602 51.3194C36.6345 51.3194 36.7334 51.3387 36.859 51.3777C36.983 51.4163 37.1148 51.4682 37.2558 51.5237L37.2559 51.5237M34.2872 51.7399L37.2559 51.5237M37.2559 51.5237C37.2658 51.5276 37.2758 51.5316 37.2859 51.5356C37.6962 51.6975 38.2666 51.9226 38.8331 51.74L38.8338 51.7398M37.2559 51.5237L38.8338 51.7398M38.8338 51.7398C39.4181 51.5499 39.7515 51.0219 39.9925 50.6402C39.9988 50.6302 40.005 50.6203 40.0112 50.6106L40.0112 50.6105M38.8338 51.7398L40.0112 50.6105M40.0112 50.6105C40.0931 50.481 40.1661 50.3657 40.2387 50.2674M40.0112 50.6105L40.2387 50.2674M42.9942 46.0551C42.8044 46.2833 42.6251 46.4989 42.562 46.6933L42.9942 46.0551ZM42.9942 46.0551L42.9948 46.0545C43.3009 45.6862 43.6477 45.269 43.6477 44.743C43.6477 44.2165 43.3005 43.799 42.9942 43.4307V46.0551ZM41.8542 46.4635L41.5997 46.3808C41.7231 46.001 41.9857 45.6854 42.2024 45.425L42.2164 45.4082C42.3431 45.2559 42.4517 45.1246 42.5303 45.0017C42.6109 44.8759 42.636 44.7944 42.636 44.743C42.636 44.6915 42.6108 44.6099 42.5303 44.4842C42.4517 44.3613 42.343 44.23 42.2163 44.0777L42.2162 44.0776L42.2018 44.0603C41.9852 43.7998 41.7231 43.4846 41.5997 43.1054L41.5997 43.1053C41.472 42.7118 41.4979 42.2927 41.5194 41.9437L41.5206 41.9239C41.5324 41.731 41.5422 41.5645 41.5341 41.4232C41.5257 41.2765 41.4996 41.2037 41.4761 41.1714C41.4517 41.138 41.3861 41.0884 41.2445 41.0336C41.1091 40.9812 40.9462 40.939 40.7662 40.8928C40.7661 40.8928 40.7661 40.8928 40.7661 40.8927L40.7467 40.8878C40.4103 40.8016 40.005 40.6979 39.6734 40.4566L39.6734 40.4566C39.346 40.2184 39.1246 39.8678 38.9412 39.5774L38.9295 39.5589L38.9294 39.5588C38.8247 39.3929 38.7341 39.2502 38.643 39.1386C38.5491 39.0237 38.4821 38.9772 38.4384 38.963L38.4383 38.963C38.405 38.9522 38.3312 38.9494 38.1905 38.9867C38.0557 39.0225 37.9023 39.0826 37.7246 39.1525C37.7246 39.1526 37.7246 39.1526 37.7245 39.1526L37.7057 39.16C37.3762 39.2899 36.9812 39.4457 36.5602 39.4457C36.1394 39.4457 35.7448 39.2902 35.4154 39.1604C35.4088 39.1578 35.4022 39.1552 35.3957 39.1526L35.3956 39.1525C35.2538 39.0966 35.1266 39.0466 35.0098 39.01C34.8913 38.9727 34.8032 38.9559 34.7399 38.9559C34.7105 38.9559 34.6925 38.9595 34.6823 38.9629L34.6819 38.963C34.6383 38.9772 34.5713 39.0236 34.4774 39.1386C34.3862 39.2502 34.2956 39.3929 34.1908 39.5588L34.1907 39.5589C34.1868 39.565 34.1829 39.5712 34.179 39.5774C33.9956 39.8678 33.7742 40.2184 33.4469 40.4566L33.4468 40.4566C33.1157 40.6975 32.7111 40.8013 32.3753 40.8875C32.3683 40.8893 32.3613 40.8911 32.3544 40.8929L32.3543 40.8929C32.1742 40.9392 32.0113 40.9813 31.8759 41.0338C31.7341 41.0887 31.6686 41.1382 31.6442 41.1717L31.6442 41.1717C31.6207 41.2039 31.5946 41.2766 31.5862 41.4233C31.5781 41.5647 31.588 41.7312 31.5998 41.9242L31.5998 41.9243C31.6002 41.9317 31.6007 41.9392 31.6012 41.9467C31.6225 42.2947 31.6481 42.7128 31.5207 43.1051L31.5207 43.1052C31.3974 43.4846 31.1351 43.7999 30.9185 44.0603C30.9137 44.0662 30.9089 44.072 30.904 44.0778L30.904 44.0778C30.7773 44.2302 30.6687 44.3614 30.59 44.4843C30.5096 44.61 30.4844 44.6915 30.4844 44.743C30.4844 44.7944 30.5095 44.8759 30.5901 45.0017C30.6687 45.1246 30.7773 45.2559 30.904 45.4082L41.8542 46.4635ZM41.8542 46.4635L41.5997 46.3808C41.4723 46.7731 41.4979 47.1914 41.5192 47.5393L41.5206 47.5616C41.5324 47.7547 41.5423 47.9212 41.5342 48.0626C41.5258 48.2094 41.4996 48.2821 41.4762 48.3143L41.4762 48.3143M41.8542 46.4635L41.4762 48.3143M41.4762 48.3143C41.4518 48.3478 41.3863 48.3974 41.2446 48.4522C41.1092 48.5047 40.9463 48.5468 40.7663 48.5931L40.7662 48.5931M41.4762 48.3143L40.7662 48.5931M40.7662 48.5931L40.7444 48.5987C40.4087 48.6848 40.0044 48.7885 39.6735 49.0294M40.7662 48.5931L38.9296 49.9272M38.9296 49.9272L38.9297 49.9271L38.9414 49.9086C39.1248 49.6182 39.3462 49.2676 39.6735 49.0294M38.9296 49.9272C38.8248 50.0932 38.7342 50.2358 38.6431 50.3474C38.5491 50.4624 38.4822 50.5089 38.4386 50.523L38.4381 50.5232M38.9296 49.9272L38.4381 50.5232M39.6735 49.0294L39.831 49.2458L39.6735 49.0295C39.6735 49.0295 39.6735 49.0294 39.6735 49.0294ZM38.4381 50.5232C38.4054 50.5339 38.332 50.5369 38.1911 50.4995C38.0562 50.4637 37.9027 50.4035 37.725 50.3335L37.7249 50.3334M38.4381 50.5232L37.7249 50.3334M37.7249 50.3334L37.7045 50.3254C37.3753 50.1956 36.9808 50.0401 36.5602 50.0401C36.1398 50.0401 35.7453 50.1956 35.4161 50.3254L35.3957 50.3334C35.3957 50.3334 35.3957 50.3334 35.3957 50.3334C35.2177 50.4035 35.0644 50.4637 34.9296 50.4996C34.7888 50.537 34.7157 50.534 34.6829 50.5233L34.682 50.523M37.7249 50.3334L34.682 50.523M34.682 50.523C34.6383 50.5088 34.5713 50.4623 34.4774 50.3474C34.3863 50.2358 34.2957 50.0931 34.191 49.9272L34.1909 49.9271M34.682 50.523L34.1909 49.9271M34.1909 49.9271L34.1792 49.9086C33.9958 49.6182 33.7744 49.2676 33.447 49.0294L33.447 49.0294M34.1909 49.9271L33.447 49.0294M33.447 49.0294C33.1158 48.7884 32.7111 48.6846 32.375 48.5984L32.3543 48.5931L32.3543 48.5931M33.447 49.0294L32.3543 48.5931M32.3543 48.5931C32.1742 48.5468 32.0113 48.5047 31.8759 48.4522C31.7343 48.3974 31.6687 48.3479 31.6443 48.3144C31.6208 48.2821 31.5947 48.2094 31.5863 48.0627C31.5782 47.9214 31.588 47.755 31.5998 47.5619L31.601 47.5422C31.6225 47.1934 31.6484 46.7742 31.5207 46.3807L31.5207 46.3806M32.3543 48.5931L31.5207 46.3806M31.5207 46.3806C31.3973 46.0009 31.1347 45.6854 30.918 45.425M31.5207 46.3806L30.918 45.425M42.7812 42.4224C42.7796 42.297 42.788 42.1581 42.7975 42.0022M42.7812 42.4224L42.7975 42.0022M42.7975 42.0022C42.7982 41.9906 42.7989 41.979 42.7996 41.9672M42.7975 42.0022L42.7996 41.9672M42.7996 41.9672C42.8271 41.5228 42.8652 40.9059 42.5105 40.4187M42.7996 41.9672L42.5105 40.4187M42.5105 40.4187C42.1527 39.9271 41.5509 39.7731 41.1165 39.662M42.5105 40.4187L41.1165 39.662M41.1165 39.662C41.1056 39.6592 41.0947 39.6564 41.084 39.6536M41.1165 39.662L41.084 39.6536M41.084 39.6536C40.9341 39.6152 40.8005 39.5807 40.6831 39.5412M41.084 39.6536L40.6831 39.5412M40.6831 39.5412C40.5646 39.5013 40.481 39.462 40.4262 39.4222M40.6831 39.5412L40.4262 39.4222M40.4262 39.4222C40.3736 39.3839 40.312 39.3181 40.2385 39.2186C40.1659 39.1203 40.0929 39.005 40.0111 38.8755L40.4262 39.4222ZM36.8589 38.1081C36.7333 38.1472 36.6345 38.1664 36.5602 38.1664M36.8589 38.1081L36.5602 38.1664M36.5602 38.1664C36.4858 38.1664 36.387 38.1472 36.2614 38.1081M36.5602 38.1664L36.2614 38.1081M36.2614 38.1081C36.1375 38.0696 36.0058 38.0179 35.8648 37.9623L36.2614 38.1081ZM30.1723 42.9432C30.1026 43.0406 30.0169 43.1438 29.9204 43.2598L30.1723 42.9432ZM30.3392 47.0636C30.3408 47.189 30.3324 47.3279 30.3229 47.4838L30.3392 47.0636ZM32.4373 49.9448C32.556 49.9847 32.6395 50.024 32.6944 50.0639M32.4373 49.9448L32.6944 50.0639M32.6944 50.0639L32.8517 49.8475M32.6944 50.0639L32.8517 49.8475M32.8517 49.8475L32.6942 50.0638C32.7468 50.1021 32.8084 50.1679 32.8819 50.2674M32.8517 49.8475L32.8819 50.2674M32.8517 49.8475C33.0222 49.9716 33.1744 50.2125 33.3355 50.4676L32.8517 49.8475ZM32.8819 50.2674C32.9545 50.3657 33.0275 50.481 33.1093 50.6105L32.8819 50.2674ZM40.2387 50.2674C40.3122 50.1679 40.3738 50.1021 40.4264 50.0638M40.2387 50.2674L40.4264 50.0638M40.4264 50.0638C40.4811 50.0239 40.5646 49.9847 40.6833 49.9447M40.4264 50.0638L40.6833 49.9447M40.6833 49.9447C40.8007 49.9052 40.9343 49.8707 41.0844 49.8322L40.6833 49.9447ZM30.918 45.425C30.9133 45.4193 30.9086 45.4138 30.904 45.4082L30.918 45.425ZM35.8647 37.9623C35.8543 37.9582 35.8438 37.954 35.8332 37.9498C35.4232 37.7878 34.8518 37.562 34.2866 37.7462L35.8647 37.9623Z" fill="#F5F5F5" stroke="#F5F5F5" stroke-width="0.535163"/>
<path d="M36.5606 40.368C34.1479 40.368 32.1855 42.3304 32.1855 44.7431C32.1855 47.1557 34.1479 49.1181 36.5606 49.1181C38.9732 49.1181 40.9356 47.1557 40.9356 44.7431C40.9356 42.3304 38.9732 40.368 36.5606 40.368ZM36.5606 47.8387C34.8537 47.8387 33.4649 46.4499 33.4649 44.7431C33.4649 43.0362 34.8537 41.6474 36.5606 41.6474C38.2674 41.6474 39.6562 43.0362 39.6562 44.7431C39.6562 46.4499 38.2674 47.8387 36.5606 47.8387Z" fill="#F5F5F5" stroke="#F5F5F5" stroke-width="0.535163"/>
<path d="M37.5596 43.2151L35.8608 44.9139L35.5587 44.6118C35.3089 44.362 34.904 44.362 34.6542 44.6118C34.4043 44.8617 34.4043 45.2666 34.6542 45.5164L35.4085 46.2708C35.5333 46.3956 35.6975 46.4581 35.8608 46.4581C36.0241 46.4581 36.1882 46.3956 36.3131 46.2708L38.4642 44.1197C38.714 43.8698 38.714 43.4649 38.4642 43.2151C38.2143 42.9652 37.8095 42.9652 37.5596 43.2151Z" fill="#F5F5F5" stroke="#F5F5F5" stroke-width="0.535163"/>
</svg>
