<svg width="265" height="221" viewBox="0 0 265 221" fill="none" xmlns="http://www.w3.org/2000/svg">
<g filter="url(#filter0_d)">
<rect x="10" y="8" width="235.567" height="191" rx="7.37693" fill="#F5F5F5"/>
<rect x="10.2305" y="8.23053" width="235.106" height="190.539" rx="7.1464" stroke="#B5B5B5" stroke-width="0.461058"/>
</g>
<path d="M81.6123 169.349V152.049H85.0873L89.9873 166.674L94.8873 152.049H98.3623V169.349H96.4373V154.099H96.0873L91.0623 168.724H88.9123L83.8873 154.099H83.5373V169.349H81.6123ZM102.283 169.349V156.849H104.158V169.349H102.283ZM102.283 154.024V151.849H104.158V154.024H102.283ZM112.577 175.224C110.577 175.224 109.177 174.949 108.377 174.399C107.594 173.865 107.202 172.882 107.202 171.449C107.202 170.765 107.352 170.207 107.652 169.774C107.952 169.357 108.46 168.882 109.177 168.349C108.71 168.032 108.477 167.457 108.477 166.624C108.477 166.34 108.685 165.815 109.102 165.049L109.327 164.649C108.01 164.049 107.352 162.79 107.352 160.874C107.352 158.024 108.91 156.599 112.027 156.599C112.827 156.599 113.569 156.682 114.252 156.849L114.627 156.924L118.327 156.824V158.424L115.952 158.374C116.502 158.924 116.777 159.757 116.777 160.874C116.777 162.44 116.385 163.54 115.602 164.174C114.835 164.79 113.619 165.099 111.952 165.099C111.502 165.099 111.094 165.065 110.727 164.999C110.427 165.732 110.277 166.207 110.277 166.424C110.277 166.94 110.435 167.265 110.752 167.399C111.069 167.515 112.027 167.574 113.627 167.574C115.227 167.574 116.377 167.824 117.077 168.324C117.777 168.824 118.127 169.799 118.127 171.249C118.127 173.899 116.277 175.224 112.577 175.224ZM109.052 171.299C109.052 172.182 109.294 172.79 109.777 173.124C110.277 173.474 111.185 173.649 112.502 173.649C113.835 173.649 114.785 173.465 115.352 173.099C115.935 172.732 116.227 172.115 116.227 171.249C116.227 170.399 116.019 169.849 115.602 169.599C115.185 169.349 114.369 169.224 113.152 169.224L110.452 169.099C109.902 169.499 109.527 169.849 109.327 170.149C109.144 170.449 109.052 170.832 109.052 171.299ZM109.227 160.874C109.227 161.857 109.444 162.557 109.877 162.974C110.327 163.39 111.06 163.599 112.077 163.599C113.094 163.599 113.819 163.39 114.252 162.974C114.685 162.557 114.902 161.857 114.902 160.874C114.902 159.874 114.685 159.165 114.252 158.749C113.819 158.332 113.094 158.124 112.077 158.124C111.06 158.124 110.327 158.34 109.877 158.774C109.444 159.19 109.227 159.89 109.227 160.874ZM120.594 169.349V156.849H122.444V158.549C123.894 157.549 125.419 156.89 127.019 156.574V158.474C126.319 158.607 125.586 158.815 124.819 159.099C124.069 159.382 123.494 159.632 123.094 159.849L122.469 160.174V169.349H120.594ZM138.061 160.624V167.024C138.111 167.64 138.595 168.007 139.511 168.124L139.436 169.599C138.12 169.599 137.128 169.265 136.461 168.599C134.961 169.265 133.461 169.599 131.961 169.599C130.811 169.599 129.936 169.274 129.336 168.624C128.736 167.974 128.436 167.04 128.436 165.824C128.436 164.607 128.745 163.715 129.361 163.149C129.978 162.565 130.945 162.207 132.261 162.074L136.186 161.699V160.624C136.186 159.774 136.003 159.165 135.636 158.799C135.27 158.432 134.77 158.249 134.136 158.249C132.803 158.249 131.42 158.332 129.986 158.499L129.211 158.574L129.136 157.149C130.97 156.782 132.595 156.599 134.011 156.599C135.428 156.599 136.453 156.924 137.086 157.574C137.736 158.224 138.061 159.24 138.061 160.624ZM130.361 165.724C130.361 167.257 130.995 168.024 132.261 168.024C133.395 168.024 134.511 167.832 135.611 167.449L136.186 167.249V163.124L132.486 163.474C131.736 163.54 131.195 163.757 130.861 164.124C130.528 164.49 130.361 165.024 130.361 165.724ZM148.961 172.524C148.961 174.024 148.186 174.774 146.636 174.774C145.869 174.774 145.244 174.732 144.761 174.649L144.486 174.599L144.561 173.399C145.211 173.449 145.761 173.474 146.211 173.474C146.944 173.474 147.311 173.157 147.311 172.524C147.311 171.957 146.944 171.674 146.211 171.674H145.161V169.524C143.694 169.357 142.669 168.765 142.086 167.749C141.519 166.732 141.236 165.099 141.236 162.849C141.236 160.599 141.636 158.999 142.436 158.049C143.236 157.082 144.569 156.599 146.436 156.599C146.986 156.599 147.919 156.699 149.236 156.899L149.836 156.974L149.761 158.499C148.428 158.349 147.444 158.274 146.811 158.274C145.394 158.274 144.428 158.615 143.911 159.299C143.411 159.965 143.161 161.215 143.161 163.049C143.161 164.865 143.394 166.132 143.861 166.849C144.344 167.565 145.336 167.924 146.836 167.924L149.786 167.699L149.861 169.249C148.311 169.482 147.153 169.599 146.386 169.599H146.186V170.574C147.169 170.574 147.878 170.707 148.311 170.974C148.744 171.24 148.961 171.757 148.961 172.524ZM161.475 160.624V167.024C161.525 167.64 162.008 168.007 162.925 168.124L162.85 169.599C161.533 169.599 160.541 169.265 159.875 168.599C158.375 169.265 156.875 169.599 155.375 169.599C154.225 169.599 153.35 169.274 152.75 168.624C152.15 167.974 151.85 167.04 151.85 165.824C151.85 164.607 152.158 163.715 152.775 163.149C153.391 162.565 154.358 162.207 155.675 162.074L159.6 161.699V160.624C159.6 159.774 159.416 159.165 159.05 158.799C158.683 158.432 158.183 158.249 157.55 158.249C156.216 158.249 154.833 158.332 153.4 158.499L152.625 158.574L152.55 157.149C154.383 156.782 156.008 156.599 157.425 156.599C158.841 156.599 159.866 156.924 160.5 157.574C161.15 158.224 161.475 159.24 161.475 160.624ZM153.775 165.724C153.775 167.257 154.408 168.024 155.675 168.024C156.808 168.024 157.925 167.832 159.025 167.449L159.6 167.249V163.124L155.9 163.474C155.15 163.54 154.608 163.757 154.275 164.124C153.941 164.49 153.775 165.024 153.775 165.724ZM158.525 154.049C158.175 154.049 157.566 153.857 156.7 153.474C155.85 153.074 155.316 152.874 155.1 152.874C154.716 152.874 154.2 153.124 153.55 153.624L153.225 153.874L152.775 152.674C153.608 151.807 154.366 151.374 155.05 151.374C155.4 151.374 156.008 151.565 156.875 151.949C157.741 152.332 158.266 152.524 158.45 152.524C158.816 152.524 159.316 152.282 159.95 151.799L160.25 151.574L160.675 152.774C159.908 153.624 159.191 154.049 158.525 154.049ZM164.624 163.074C164.624 160.79 165.032 159.14 165.849 158.124C166.666 157.107 168.041 156.599 169.974 156.599C171.924 156.599 173.299 157.107 174.099 158.124C174.916 159.14 175.324 160.79 175.324 163.074C175.324 165.357 174.941 167.015 174.174 168.049C173.407 169.082 172.007 169.599 169.974 169.599C167.941 169.599 166.541 169.082 165.774 168.049C165.007 167.015 164.624 165.357 164.624 163.074ZM166.549 163.049C166.549 164.865 166.766 166.14 167.199 166.874C167.649 167.607 168.574 167.974 169.974 167.974C171.391 167.974 172.316 167.615 172.749 166.899C173.182 166.165 173.399 164.882 173.399 163.049C173.399 161.215 173.157 159.957 172.674 159.274C172.191 158.574 171.291 158.224 169.974 158.224C168.674 158.224 167.774 158.574 167.274 159.274C166.791 159.957 166.549 161.215 166.549 163.049Z" fill="#423F40"/>
<path d="M121.318 52.5311H64.1487C63.3067 52.5321 62.4994 52.867 61.9039 53.4624C61.3085 54.0578 60.9736 54.8651 60.9727 55.7072V102.29C60.9736 103.132 61.3085 103.939 61.9039 104.534C62.4994 105.13 63.3067 105.465 64.1487 105.466H121.318C122.16 105.465 122.967 105.13 123.563 104.534C124.158 103.939 124.493 103.132 124.494 102.29V55.7072C124.493 54.8651 124.158 54.0578 123.563 53.4624C122.967 52.867 122.16 52.5321 121.318 52.5311ZM64.1487 54.6485H121.318C121.599 54.6489 121.868 54.7605 122.066 54.959C122.265 55.1575 122.376 55.4265 122.377 55.7072V61.0007H63.09V55.7072C63.0904 55.4265 63.2021 55.1575 63.4005 54.959C63.599 54.7605 63.8681 54.6489 64.1487 54.6485ZM121.318 103.348H64.1487C63.8681 103.348 63.599 103.236 63.4005 103.038C63.2021 102.839 63.0904 102.57 63.09 102.29V63.118H122.377V102.29C122.376 102.57 122.265 102.839 122.066 103.038C121.868 103.236 121.599 103.348 121.318 103.348ZM114.966 57.8246C114.966 57.4058 115.09 56.9964 115.323 56.6482C115.555 56.3 115.886 56.0286 116.273 55.8684C116.66 55.7081 117.086 55.6662 117.496 55.7479C117.907 55.8296 118.284 56.0312 118.581 56.3274C118.877 56.6235 119.078 57.0008 119.16 57.4115C119.242 57.8222 119.2 58.248 119.04 58.6349C118.879 59.0218 118.608 59.3525 118.26 59.5851C117.911 59.8178 117.502 59.942 117.083 59.942C116.522 59.942 115.983 59.7189 115.586 59.3218C115.189 58.9247 114.966 58.3862 114.966 57.8246ZM109.672 57.8246C109.672 57.4058 109.797 56.9964 110.029 56.6482C110.262 56.3 110.593 56.0286 110.98 55.8684C111.366 55.7081 111.792 55.6662 112.203 55.7479C112.614 55.8296 112.991 56.0312 113.287 56.3274C113.583 56.6235 113.785 57.0008 113.867 57.4115C113.948 57.8222 113.906 58.248 113.746 58.6349C113.586 59.0218 113.314 59.3525 112.966 59.5851C112.618 59.8178 112.209 59.942 111.79 59.942C111.228 59.942 110.69 59.7189 110.293 59.3218C109.896 58.9247 109.672 58.3862 109.672 57.8246ZM67.3248 57.8246C67.3248 57.5438 67.4363 57.2745 67.6349 57.076C67.8334 56.8774 68.1027 56.7659 68.3835 56.7659H102.262C102.542 56.7659 102.812 56.8774 103.01 57.076C103.209 57.2745 103.32 57.5438 103.32 57.8246C103.32 58.1054 103.209 58.3747 103.01 58.5732C102.812 58.7717 102.542 58.8833 102.262 58.8833H68.3835C68.1027 58.8833 67.8334 58.7717 67.6349 58.5732C67.4363 58.3747 67.3248 58.1054 67.3248 57.8246ZM95.7017 74.7848C99.3407 74.1379 103.065 74.1379 106.704 74.7848C106.976 74.8438 107.213 75.007 107.365 75.2393C107.517 75.4716 107.572 75.7544 107.518 76.0267C107.463 76.299 107.304 76.5391 107.074 76.6951C106.845 76.8512 106.563 76.9107 106.29 76.8609C102.853 76.282 99.3429 76.2888 95.9084 76.881C95.6501 76.8738 95.4033 76.7726 95.2143 76.5964C95.0253 76.4202 94.907 76.1812 94.8817 75.924C94.8563 75.6669 94.9256 75.4093 95.0765 75.1996C95.2275 74.9899 95.4498 74.8424 95.7017 74.7848ZM89.5584 87.468C86.1239 86.8758 82.614 86.8687 79.1772 87.4468C78.904 87.4966 78.6221 87.437 78.3924 87.281C78.1627 87.125 78.0035 86.8849 77.9491 86.6126C77.8947 86.3402 77.9495 86.0575 78.1017 85.8251C78.2539 85.5928 78.4912 85.4296 78.7626 85.3707C82.4015 84.7225 86.1263 84.7225 89.7652 85.3707C90.018 85.4274 90.2414 85.5746 90.3932 85.7846C90.545 85.9946 90.6148 86.2529 90.5893 86.5108C90.5639 86.7686 90.4451 87.0083 90.2552 87.1846C90.0653 87.3609 89.8174 87.4617 89.5584 87.468ZM78.7626 80.1046C82.4014 79.4558 86.1263 79.4558 89.7652 80.1046C90.0171 80.1622 90.2393 80.3097 90.3903 80.5194C90.5412 80.7291 90.6105 80.9867 90.5851 81.2438C90.5598 81.501 90.4415 81.74 90.2525 81.9162C90.0635 82.0924 89.8167 82.1936 89.5584 82.2009C86.1239 81.6087 82.614 81.6015 79.1772 82.1797C78.9065 82.2238 78.6292 82.1612 78.4038 82.005C78.1783 81.8488 78.0223 81.6112 77.9686 81.3422C77.9149 81.0733 77.9676 80.7939 78.1157 80.5631C78.2638 80.3323 78.4957 80.1679 78.7626 80.1046ZM95.7017 80.1046C99.3406 79.4571 103.065 79.4571 106.704 80.1046C106.976 80.1636 107.213 80.3268 107.365 80.5591C107.517 80.7914 107.572 81.0742 107.518 81.3465C107.463 81.6189 107.304 81.8589 107.074 82.015C106.845 82.171 106.563 82.2305 106.29 82.1807C102.853 81.6027 99.3429 81.6099 95.9084 82.2019C95.6494 82.1957 95.4015 82.0949 95.2116 81.9186C95.0218 81.7423 94.9029 81.5026 94.8775 81.2447C94.852 80.9868 94.9218 80.7286 95.0736 80.5186C95.2254 80.3086 95.4488 80.1614 95.7017 80.1046ZM110.711 69.9815C110.664 69.2723 110.38 68.5996 109.903 68.0718C109.427 67.544 108.787 67.1919 108.087 67.0722C102.989 66.2697 97.7898 66.3854 92.7334 67.4136C87.6771 66.3843 82.4773 66.2686 77.3802 67.0722C76.6795 67.192 76.0396 67.5441 75.5635 68.0719C75.0874 68.5996 74.8027 69.2722 74.7553 69.9814C74.3356 69.9808 73.9199 70.063 73.532 70.2233C73.1441 70.3836 72.7916 70.6188 72.4948 70.9155C72.1979 71.2122 71.9625 71.5646 71.802 71.9524C71.6415 72.3402 71.5592 72.7559 71.5596 73.1756V95.5458C71.5627 95.9852 71.6563 96.4193 71.8346 96.8209C72.0129 97.2225 72.272 97.5831 72.5959 97.8801C72.9197 98.1772 73.3013 98.4043 73.7168 98.5473C74.1323 98.6903 74.5729 98.7461 75.0109 98.7113C79.7219 98.2538 84.4611 98.1582 89.1868 98.4254C89.4532 98.9494 89.8591 99.3898 90.3597 99.698C90.8603 100.006 91.4362 100.17 92.0241 100.172H93.4427C94.0306 100.17 94.6065 100.006 95.1071 99.698C95.6077 99.3898 96.0136 98.9494 96.28 98.4254C101.006 98.1582 105.745 98.2538 110.456 98.7113C110.894 98.7461 111.334 98.6903 111.75 98.5473C112.166 98.4043 112.547 98.1772 112.871 97.8801C113.195 97.5831 113.454 97.2225 113.632 96.8209C113.811 96.4193 113.904 95.9852 113.907 95.5458V73.1756C113.908 72.7559 113.825 72.3402 113.665 71.9523C113.504 71.5645 113.269 71.2121 112.972 70.9154C112.675 70.6187 112.323 70.3835 111.935 70.2232C111.547 70.063 111.131 69.9808 110.711 69.9815ZM93.7921 69.3663C98.3909 68.4992 103.105 68.4289 107.727 69.1585C107.975 69.1999 108.2 69.3276 108.362 69.5189C108.524 69.7103 108.613 69.9529 108.614 70.2038L108.619 93.0307C105.368 92.6726 97.8885 92.1955 93.7921 92.918V69.3663ZM76.853 70.2038C76.8533 69.9529 76.9425 69.7103 77.1047 69.5189C77.2669 69.3276 77.4916 69.1999 77.739 69.1585C82.3631 68.4459 87.074 68.5161 91.6747 69.3663V92.918C86.9499 92.1519 79.8683 92.7252 76.853 93.0302V70.2038ZM111.79 95.5458C111.789 95.6915 111.759 95.8356 111.7 95.9689C111.641 96.1023 111.555 96.222 111.448 96.3204C111.34 96.4189 111.214 96.4941 111.076 96.5411C110.938 96.5882 110.792 96.6061 110.646 96.5939C105.585 96.0894 100.49 96.0174 95.416 96.3786C95.1949 96.397 94.985 96.4838 94.8155 96.6269C94.646 96.7701 94.5254 96.9626 94.4704 97.1775C94.4446 97.3646 94.3661 97.5404 94.2441 97.6845C94.1222 97.8286 93.9617 97.935 93.7815 97.9913C93.0869 98.0984 92.3799 98.0984 91.6853 97.9913C91.5051 97.935 91.3446 97.8285 91.2226 97.6844C91.1006 97.5403 91.0222 97.3644 90.9964 97.1773C90.9413 96.9621 90.8206 96.7693 90.6512 96.6256C90.4817 96.4819 90.2718 96.3944 90.0505 96.3751C84.9768 96.0145 79.8816 96.0877 74.8203 96.5939C74.6749 96.607 74.5284 96.5897 74.3901 96.5429C74.2518 96.4962 74.1247 96.4211 74.0171 96.3224C73.9095 96.2238 73.8236 96.1037 73.7651 95.97C73.7065 95.8363 73.6765 95.6918 73.677 95.5458V73.1756C73.6761 73.0359 73.7028 72.8974 73.7556 72.7681C73.8084 72.6387 73.8862 72.5211 73.9846 72.4219C74.0829 72.3226 74.1999 72.2438 74.3288 72.1899C74.4577 72.136 74.5959 72.1081 74.7356 72.1077V93.0302C74.7373 93.3253 74.8003 93.6168 74.9206 93.8863C75.041 94.1557 75.216 94.3972 75.4347 94.5954C75.6534 94.7936 75.9108 94.9441 76.1908 95.0375C76.4707 95.1309 76.767 95.165 77.0609 95.1377C79.5618 94.8837 88.0665 94.1411 92.478 95.2381C92.6927 95.2917 92.919 95.2738 93.1226 95.1871C97.6733 94.2117 105.893 94.8598 108.406 95.1377C108.7 95.1651 108.996 95.131 109.276 95.0377C109.556 94.9444 109.814 94.7938 110.032 94.5956C110.251 94.3974 110.426 94.1559 110.546 93.8864C110.667 93.6169 110.73 93.3253 110.731 93.0302V72.1078C110.871 72.1082 111.009 72.1361 111.138 72.19C111.267 72.2438 111.384 72.3227 111.482 72.4219C111.581 72.5211 111.658 72.6387 111.711 72.7681C111.764 72.8974 111.791 73.0359 111.79 73.1756V95.5458ZM95.9084 87.468C95.6501 87.4607 95.4033 87.3595 95.2143 87.1833C95.0253 87.0071 94.907 86.7681 94.8817 86.5109C94.8563 86.2538 94.9256 85.9962 95.0765 85.7865C95.2275 85.5768 95.4498 85.4293 95.7017 85.3717C99.3406 84.7245 103.065 84.7245 106.704 85.3717C106.976 85.4307 107.213 85.5939 107.365 85.8262C107.517 86.0585 107.572 86.3413 107.518 86.6136C107.463 86.886 107.304 87.126 107.074 87.2821C106.845 87.4381 106.563 87.4976 106.29 87.4478C102.853 86.8695 99.343 86.8763 95.9084 87.468ZM78.7626 74.7848C82.4014 74.136 86.1263 74.136 89.7652 74.7848C90.0171 74.8424 90.2393 74.9899 90.3903 75.1996C90.5412 75.4093 90.6105 75.6669 90.5851 75.924C90.5598 76.1812 90.4415 76.4202 90.2525 76.5964C90.0635 76.7726 89.8167 76.8738 89.5584 76.881C86.1239 76.2886 82.614 76.2814 79.1772 76.8599C78.9065 76.904 78.6292 76.8414 78.4038 76.6852C78.1783 76.529 78.0223 76.2914 77.9686 76.0224C77.9149 75.7534 77.9676 75.4741 78.1157 75.2433C78.2638 75.0124 78.4957 74.8481 78.7626 74.7848Z" fill="#BB0823"/>
<path d="M192.459 52.5311H135.289C134.447 52.5321 133.64 52.867 133.045 53.4624C132.449 54.0578 132.114 54.8651 132.113 55.7072V102.29C132.114 103.132 132.449 103.939 133.045 104.534C133.64 105.13 134.447 105.465 135.289 105.466H192.459C193.301 105.465 194.108 105.13 194.704 104.534C195.299 103.939 195.634 103.132 195.635 102.29V55.7072C195.634 54.8651 195.299 54.0578 194.704 53.4624C194.108 52.867 193.301 52.5321 192.459 52.5311ZM135.289 54.6485H192.459C192.739 54.6489 193.008 54.7605 193.207 54.959C193.405 55.1575 193.517 55.4265 193.517 55.7072V61.0007H134.231V55.7072C134.231 55.4265 134.343 55.1575 134.541 54.959C134.74 54.7605 135.009 54.6489 135.289 54.6485ZM192.459 103.348H135.289C135.009 103.348 134.74 103.236 134.541 103.038C134.343 102.839 134.231 102.57 134.231 102.29V63.118H193.517V102.29C193.517 102.57 193.405 102.839 193.207 103.038C193.008 103.236 192.739 103.348 192.459 103.348ZM186.107 57.8246C186.107 57.4058 186.231 56.9964 186.463 56.6482C186.696 56.3 187.027 56.0286 187.414 55.8684C187.801 55.7081 188.226 55.6662 188.637 55.7479C189.048 55.8296 189.425 56.0312 189.721 56.3274C190.017 56.6235 190.219 57.0008 190.301 57.4115C190.382 57.8222 190.34 58.248 190.18 58.6349C190.02 59.0218 189.748 59.3525 189.4 59.5851C189.052 59.8178 188.643 59.942 188.224 59.942C187.662 59.942 187.124 59.7189 186.727 59.3218C186.33 58.9247 186.107 58.3862 186.107 57.8246ZM180.813 57.8246C180.813 57.4058 180.937 56.9964 181.17 56.6482C181.403 56.3 181.733 56.0286 182.12 55.8684C182.507 55.7081 182.933 55.6662 183.344 55.7479C183.754 55.8296 184.132 56.0312 184.428 56.3274C184.724 56.6235 184.925 57.0008 185.007 57.4115C185.089 57.8222 185.047 58.248 184.887 58.6349C184.726 59.0218 184.455 59.3525 184.107 59.5851C183.759 59.8178 183.349 59.942 182.93 59.942C182.369 59.942 181.83 59.7189 181.433 59.3218C181.036 58.9247 180.813 58.3862 180.813 57.8246ZM138.465 57.8246C138.465 57.5438 138.577 57.2745 138.776 57.076C138.974 56.8774 139.243 56.7659 139.524 56.7659H173.402C173.683 56.7659 173.952 56.8774 174.151 57.076C174.349 57.2745 174.461 57.5438 174.461 57.8246C174.461 58.1054 174.349 58.3747 174.151 58.5732C173.952 58.7717 173.683 58.8833 173.402 58.8833H139.524C139.243 58.8833 138.974 58.7717 138.776 58.5732C138.577 58.3747 138.465 58.1054 138.465 57.8246ZM166.842 74.7848C170.481 74.1379 174.206 74.1379 177.845 74.7848C178.116 74.8438 178.354 75.007 178.506 75.2393C178.658 75.4716 178.713 75.7544 178.658 76.0267C178.604 76.299 178.445 76.5391 178.215 76.6951C177.985 76.8512 177.703 76.9107 177.43 76.8609C173.993 76.282 170.484 76.2888 167.049 76.881C166.791 76.8738 166.544 76.7726 166.355 76.5964C166.166 76.4202 166.048 76.1812 166.022 75.924C165.997 75.6669 166.066 75.4093 166.217 75.1996C166.368 74.9899 166.59 74.8424 166.842 74.7848ZM160.699 87.468C157.265 86.8758 153.755 86.8687 150.318 87.4468C150.045 87.4966 149.763 87.437 149.533 87.281C149.303 87.125 149.144 86.8849 149.09 86.6126C149.035 86.3402 149.09 86.0575 149.242 85.8251C149.394 85.5928 149.632 85.4296 149.903 85.3707C153.542 84.7225 157.267 84.7225 160.906 85.3707C161.159 85.4274 161.382 85.5746 161.534 85.7846C161.686 85.9946 161.755 86.2529 161.73 86.5108C161.705 86.7686 161.586 87.0083 161.396 87.1846C161.206 87.3609 160.958 87.4617 160.699 87.468ZM149.903 80.1046C153.542 79.4558 157.267 79.4558 160.906 80.1046C161.158 80.1622 161.38 80.3097 161.531 80.5194C161.682 80.7291 161.751 80.9867 161.726 81.2438C161.7 81.501 161.582 81.74 161.393 81.9162C161.204 82.0924 160.957 82.1936 160.699 82.2009C157.265 81.6087 153.755 81.6015 150.318 82.1797C150.047 82.2238 149.77 82.1612 149.544 82.005C149.319 81.8488 149.163 81.6112 149.109 81.3422C149.055 81.0733 149.108 80.7939 149.256 80.5631C149.404 80.3323 149.636 80.1679 149.903 80.1046ZM166.842 80.1046C170.481 79.4571 174.206 79.4571 177.845 80.1046C178.116 80.1636 178.354 80.3268 178.506 80.5591C178.658 80.7914 178.713 81.0742 178.658 81.3465C178.604 81.6189 178.445 81.8589 178.215 82.015C177.985 82.171 177.703 82.2305 177.43 82.1807C173.993 81.6027 170.484 81.6099 167.049 82.2019C166.79 82.1957 166.542 82.0949 166.352 81.9186C166.162 81.7423 166.044 81.5026 166.018 81.2447C165.993 80.9868 166.062 80.7286 166.214 80.5186C166.366 80.3086 166.589 80.1614 166.842 80.1046ZM181.852 69.9815C181.805 69.2723 181.52 68.5996 181.044 68.0718C180.568 67.544 179.928 67.1919 179.227 67.0722C174.13 66.2697 168.93 66.3854 163.874 67.4136C158.818 66.3843 153.618 66.2686 148.521 67.0722C147.82 67.192 147.18 67.5441 146.704 68.0719C146.228 68.5996 145.943 69.2722 145.896 69.9814C145.476 69.9808 145.061 70.063 144.673 70.2233C144.285 70.3836 143.932 70.6188 143.635 70.9155C143.339 71.2122 143.103 71.5646 142.943 71.9524C142.782 72.3402 142.7 72.7559 142.7 73.1756V95.5458C142.703 95.9852 142.797 96.4193 142.975 96.8209C143.153 97.2225 143.413 97.5831 143.736 97.8801C144.06 98.1772 144.442 98.4043 144.857 98.5473C145.273 98.6903 145.713 98.7461 146.152 98.7113C150.863 98.2538 155.602 98.1582 160.327 98.4254C160.594 98.9494 161 99.3898 161.5 99.698C162.001 100.006 162.577 100.17 163.165 100.172H164.583C165.171 100.17 165.747 100.006 166.248 99.698C166.748 99.3898 167.154 98.9494 167.421 98.4254C172.146 98.1582 176.885 98.2538 181.597 98.7113C182.035 98.7461 182.475 98.6903 182.891 98.5473C183.306 98.4043 183.688 98.1772 184.012 97.8801C184.335 97.5831 184.595 97.2225 184.773 96.8209C184.951 96.4193 185.045 95.9852 185.048 95.5458V73.1756C185.048 72.7559 184.966 72.3402 184.805 71.9523C184.645 71.5645 184.41 71.2121 184.113 70.9154C183.816 70.6187 183.463 70.3835 183.075 70.2232C182.687 70.063 182.272 69.9808 181.852 69.9815ZM164.933 69.3663C169.532 68.4992 174.245 68.4289 178.868 69.1585C179.115 69.1999 179.341 69.3276 179.503 69.5189C179.665 69.7103 179.754 69.9529 179.754 70.2038L179.76 93.0307C176.509 92.6726 169.029 92.1955 164.933 92.918V69.3663ZM147.994 70.2038C147.994 69.9529 148.083 69.7103 148.245 69.5189C148.408 69.3276 148.632 69.1999 148.88 69.1585C153.504 68.4459 158.215 68.5161 162.815 69.3663V92.918C158.091 92.1519 151.009 92.7252 147.994 93.0302V70.2038ZM182.93 95.5458C182.93 95.6915 182.9 95.8356 182.841 95.9689C182.782 96.1023 182.696 96.222 182.589 96.3204C182.481 96.4189 182.354 96.4941 182.216 96.5411C182.079 96.5882 181.932 96.6061 181.787 96.5939C176.726 96.0894 171.63 96.0174 166.557 96.3786C166.336 96.397 166.126 96.4838 165.956 96.6269C165.787 96.7701 165.666 96.9626 165.611 97.1775C165.585 97.3646 165.507 97.5404 165.385 97.6845C165.263 97.8286 165.102 97.935 164.922 97.9913C164.227 98.0984 163.521 98.0984 162.826 97.9913C162.646 97.935 162.485 97.8285 162.363 97.6844C162.241 97.5403 162.163 97.3644 162.137 97.1773C162.082 96.9621 161.961 96.7693 161.792 96.6256C161.622 96.4819 161.412 96.3944 161.191 96.3751C156.117 96.0145 151.022 96.0877 145.961 96.5939C145.816 96.607 145.669 96.5897 145.531 96.5429C145.392 96.4962 145.265 96.4211 145.158 96.3224C145.05 96.2238 144.964 96.1037 144.906 95.97C144.847 95.8363 144.817 95.6918 144.818 95.5458V73.1756C144.817 73.0359 144.843 72.8974 144.896 72.7681C144.949 72.6387 145.027 72.5211 145.125 72.4219C145.224 72.3226 145.341 72.2438 145.469 72.1899C145.598 72.136 145.737 72.1081 145.876 72.1077V93.0302C145.878 93.3253 145.941 93.6168 146.061 93.8863C146.182 94.1557 146.357 94.3972 146.575 94.5954C146.794 94.7936 147.051 94.9441 147.331 95.0375C147.611 95.1309 147.908 95.165 148.201 95.1377C150.702 94.8837 159.207 94.1411 163.619 95.2381C163.833 95.2917 164.06 95.2738 164.263 95.1871C168.814 94.2117 177.034 94.8598 179.547 95.1377C179.84 95.1651 180.137 95.131 180.417 95.0377C180.697 94.9444 180.954 94.7938 181.173 94.5956C181.392 94.3974 181.567 94.1559 181.687 93.8864C181.807 93.6169 181.87 93.3253 181.872 93.0302V72.1078C182.011 72.1082 182.15 72.1361 182.279 72.19C182.408 72.2438 182.525 72.3227 182.623 72.4219C182.721 72.5211 182.799 72.6387 182.852 72.7681C182.905 72.8974 182.931 73.0359 182.93 73.1756V95.5458ZM167.049 87.468C166.791 87.4607 166.544 87.3595 166.355 87.1833C166.166 87.0071 166.048 86.7681 166.022 86.5109C165.997 86.2538 166.066 85.9962 166.217 85.7865C166.368 85.5768 166.59 85.4293 166.842 85.3717C170.481 84.7245 174.206 84.7245 177.845 85.3717C178.116 85.4307 178.354 85.5939 178.506 85.8262C178.658 86.0585 178.713 86.3413 178.658 86.6136C178.604 86.886 178.445 87.126 178.215 87.2821C177.985 87.4381 177.703 87.4976 177.43 87.4478C173.993 86.8695 170.484 86.8763 167.049 87.468ZM149.903 74.7848C153.542 74.136 157.267 74.136 160.906 74.7848C161.158 74.8424 161.38 74.9899 161.531 75.1996C161.682 75.4093 161.751 75.6669 161.726 75.924C161.7 76.1812 161.582 76.4202 161.393 76.5964C161.204 76.7726 160.957 76.8738 160.699 76.881C157.265 76.2886 153.755 76.2814 150.318 76.8599C150.047 76.904 149.77 76.8414 149.544 76.6852C149.319 76.529 149.163 76.2914 149.109 76.0224C149.055 75.7534 149.108 75.4741 149.256 75.2433C149.404 75.0124 149.636 74.8481 149.903 74.7848Z" fill="#BB0823"/>
<circle cx="128.034" cy="98.6718" r="24.6798" fill="white" stroke="#BB0823" stroke-width="2.14607"/>
<path d="M145.773 98.7042C146.088 98.3899 146.088 97.8804 145.773 97.5661L140.652 92.4445C140.337 92.1302 139.828 92.1302 139.514 92.4445C139.199 92.7588 139.199 93.2684 139.514 93.5826L144.066 98.1351L139.514 102.688C139.199 103.002 139.199 103.511 139.514 103.826C139.828 104.14 140.337 104.14 140.652 103.826L145.773 98.7042ZM110.867 98.9399H145.204V97.3304H110.867V98.9399Z" fill="#BB0823"/>
<defs>
<filter id="filter0_d" x="0.317785" y="0.623075" width="264.152" height="219.586" filterUnits="userSpaceOnUse" color-interpolation-filters="sRGB">
<feFlood flood-opacity="0" result="BackgroundImageFix"/>
<feColorMatrix in="SourceAlpha" type="matrix" values="0 0 0 0 0 0 0 0 0 0 0 0 0 0 0 0 0 0 127 0"/>
<feMorphology radius="1.84423" operator="dilate" in="SourceAlpha" result="effect1_dropShadow"/>
<feOffset dx="4.61058" dy="6.91587"/>
<feGaussianBlur stdDeviation="6.22428"/>
<feColorMatrix type="matrix" values="0 0 0 0 0.737255 0 0 0 0 0.0470588 0 0 0 0 0.141176 0 0 0 0.13 0"/>
<feBlend mode="normal" in2="BackgroundImageFix" result="effect1_dropShadow"/>
<feBlend mode="normal" in="SourceGraphic" in2="effect1_dropShadow" result="shape"/>
</filter>
</defs>
</svg>
