<svg width="197" height="164" viewBox="0 0 197 164" fill="none" xmlns="http://www.w3.org/2000/svg">
<g filter="url(#filter0_d)">
<rect x="7.56641" y="6.16772" width="175.185" height="142.042" rx="5.48602" fill="#F5F5F5"/>
<rect x="7.73784" y="6.33916" width="174.842" height="141.699" rx="5.31459" stroke="#B5B5B5" stroke-width="0.342877"/>
</g>
<path d="M57.2044 113L60.6354 100.504H63.6692L67.1003 113H65.7279L64.8249 109.786H59.4797L58.5768 113H57.2044ZM61.6828 101.696L59.7867 108.54H64.518L62.6218 101.696H61.6828ZM71.6637 105C70.3514 105 69.6953 105.458 69.6953 106.373C69.6953 106.794 69.8458 107.095 70.1468 107.276C70.4477 107.444 71.134 107.625 72.2054 107.817C73.2769 107.998 74.0353 108.257 74.4808 108.594C74.9262 108.931 75.1489 109.563 75.1489 110.49C75.1489 111.417 74.8479 112.097 74.246 112.53C73.6561 112.964 72.7893 113.181 71.6456 113.181C70.8992 113.181 70.0204 113.096 69.0091 112.928L68.4674 112.837L68.5396 111.664C69.912 111.868 70.9474 111.971 71.6456 111.971C72.3439 111.971 72.8736 111.862 73.2347 111.646C73.6079 111.417 73.7945 111.044 73.7945 110.526C73.7945 109.996 73.638 109.641 73.325 109.461C73.012 109.268 72.3258 109.087 71.2664 108.919C70.207 108.75 69.4545 108.503 69.0091 108.178C68.5637 107.853 68.3409 107.251 68.3409 106.373C68.3409 105.494 68.6479 104.844 69.2619 104.422C69.8879 104.001 70.6644 103.79 71.5914 103.79C72.3258 103.79 73.2468 103.875 74.3543 104.043L74.86 104.133L74.8239 105.289C73.4875 105.097 72.4341 105 71.6637 105ZM80.0579 105C78.7457 105 78.0896 105.458 78.0896 106.373C78.0896 106.794 78.2401 107.095 78.541 107.276C78.842 107.444 79.5282 107.625 80.5997 107.817C81.6711 107.998 82.4296 108.257 82.875 108.594C83.3205 108.931 83.5432 109.563 83.5432 110.49C83.5432 111.417 83.2422 112.097 82.6403 112.53C82.0504 112.964 81.1836 113.181 80.0399 113.181C79.2935 113.181 78.4146 113.096 77.4034 112.928L76.8616 112.837L76.9339 111.664C78.3063 111.868 79.3416 111.971 80.0399 111.971C80.7381 111.971 81.2678 111.862 81.629 111.646C82.0022 111.417 82.1888 111.044 82.1888 110.526C82.1888 109.996 82.0323 109.641 81.7193 109.461C81.4063 109.268 80.7201 109.087 79.6606 108.919C78.6012 108.75 77.8488 108.503 77.4034 108.178C76.9579 107.853 76.7352 107.251 76.7352 106.373C76.7352 105.494 77.0422 104.844 77.6562 104.422C78.2822 104.001 79.0587 103.79 79.9857 103.79C80.7201 103.79 81.641 103.875 82.7486 104.043L83.2542 104.133L83.2181 105.289C81.8818 105.097 80.8284 105 80.0579 105ZM85.6171 113V103.971H86.9714V113H85.6171ZM85.6171 101.93V100.359H86.9714V101.93H85.6171ZM92.4024 105C91.0902 105 90.4341 105.458 90.4341 106.373C90.4341 106.794 90.5846 107.095 90.8855 107.276C91.1865 107.444 91.8727 107.625 92.9442 107.817C94.0156 107.998 94.7741 108.257 95.2195 108.594C95.665 108.931 95.8877 109.563 95.8877 110.49C95.8877 111.417 95.5867 112.097 94.9848 112.53C94.3949 112.964 93.5281 113.181 92.3844 113.181C91.638 113.181 90.7591 113.096 89.7479 112.928L89.2061 112.837L89.2784 111.664C90.6508 111.868 91.6861 111.971 92.3844 111.971C93.0826 111.971 93.6123 111.862 93.9735 111.646C94.3467 111.417 94.5333 111.044 94.5333 110.526C94.5333 109.996 94.3768 109.641 94.0638 109.461C93.7508 109.268 93.0646 109.087 92.0052 108.919C90.9457 108.75 90.1933 108.503 89.7479 108.178C89.3024 107.853 89.0797 107.251 89.0797 106.373C89.0797 105.494 89.3867 104.844 90.0007 104.422C90.6267 104.001 91.4032 103.79 92.3302 103.79C93.0646 103.79 93.9855 103.875 95.0931 104.043L95.5987 104.133L95.5626 105.289C94.2263 105.097 93.1729 105 92.4024 105ZM102.639 105.145H99.7674V109.461C99.7674 110.496 99.8396 111.176 99.9841 111.501C100.141 111.826 100.502 111.989 101.068 111.989L102.675 111.88L102.765 113C101.958 113.132 101.344 113.199 100.923 113.199C99.9841 113.199 99.334 112.97 98.9728 112.512C98.6117 112.055 98.4311 111.182 98.4311 109.894V105.145H97.1489V103.971H98.4311V101.208H99.7674V103.971H102.639V105.145ZM110.667 106.698V111.321C110.703 111.766 111.052 112.031 111.714 112.115L111.66 113.181C110.709 113.181 109.993 112.94 109.511 112.458C108.428 112.94 107.344 113.181 106.261 113.181C105.43 113.181 104.798 112.946 104.365 112.476C103.931 112.007 103.715 111.333 103.715 110.454C103.715 109.575 103.937 108.931 104.383 108.522C104.828 108.1 105.527 107.841 106.478 107.745L109.313 107.474V106.698C109.313 106.084 109.18 105.644 108.915 105.379C108.651 105.115 108.289 104.982 107.832 104.982C106.869 104.982 105.87 105.042 104.834 105.163L104.274 105.217L104.22 104.188C105.545 103.923 106.718 103.79 107.742 103.79C108.765 103.79 109.505 104.025 109.963 104.495C110.432 104.964 110.667 105.698 110.667 106.698ZM105.105 110.382C105.105 111.489 105.563 112.043 106.478 112.043C107.296 112.043 108.103 111.904 108.897 111.628L109.313 111.483V108.503L106.64 108.756C106.098 108.804 105.707 108.961 105.466 109.226C105.226 109.491 105.105 109.876 105.105 110.382ZM123.682 106.698V111.321C123.718 111.766 124.067 112.031 124.729 112.115L124.675 113.181C123.724 113.181 123.008 112.94 122.526 112.458C121.443 112.94 120.359 113.181 119.276 113.181C118.445 113.181 117.813 112.946 117.379 112.476C116.946 112.007 116.729 111.333 116.729 110.454C116.729 109.575 116.952 108.931 117.397 108.522C117.843 108.1 118.541 107.841 119.492 107.745L122.327 107.474V106.698C122.327 106.084 122.195 105.644 121.93 105.379C121.665 105.115 121.304 104.982 120.847 104.982C119.883 104.982 118.884 105.042 117.849 105.163L117.289 105.217L117.235 104.188C118.559 103.923 119.733 103.79 120.756 103.79C121.78 103.79 122.52 104.025 122.977 104.495C123.447 104.964 123.682 105.698 123.682 106.698ZM118.12 110.382C118.12 111.489 118.577 112.043 119.492 112.043C120.311 112.043 121.117 111.904 121.912 111.628L122.327 111.483V108.503L119.655 108.756C119.113 108.804 118.722 108.961 118.481 109.226C118.24 109.491 118.12 109.876 118.12 110.382ZM129.189 105C127.877 105 127.221 105.458 127.221 106.373C127.221 106.794 127.371 107.095 127.672 107.276C127.973 107.444 128.659 107.625 129.731 107.817C130.802 107.998 131.561 108.257 132.006 108.594C132.452 108.931 132.674 109.563 132.674 110.49C132.674 111.417 132.373 112.097 131.771 112.53C131.182 112.964 130.315 113.181 129.171 113.181C128.425 113.181 127.546 113.096 126.535 112.928L125.993 112.837L126.065 111.664C127.437 111.868 128.473 111.971 129.171 111.971C129.869 111.971 130.399 111.862 130.76 111.646C131.133 111.417 131.32 111.044 131.32 110.526C131.32 109.996 131.163 109.641 130.85 109.461C130.537 109.268 129.851 109.087 128.792 108.919C127.732 108.75 126.98 108.503 126.535 108.178C126.089 107.853 125.866 107.251 125.866 106.373C125.866 105.494 126.173 104.844 126.787 104.422C127.413 104.001 128.19 103.79 129.117 103.79C129.851 103.79 130.772 103.875 131.88 104.043L132.385 104.133L132.349 105.289C131.013 105.097 129.96 105 129.189 105ZM55.0004 125.971H56.4451L58.5579 133.826H59.226L61.4111 125.971H62.8016L60.2554 135H57.5466L55.0004 125.971ZM64.5432 135V125.971H65.8976V135H64.5432ZM64.5432 123.93V122.359H65.8976V123.93H64.5432ZM75.4278 122.034V135H74.0915V134.386C73.1645 134.916 72.2496 135.181 71.3467 135.181C70.8651 135.181 70.4437 135.12 70.0826 135C69.7214 134.88 69.3843 134.663 69.0713 134.35C68.4212 133.7 68.0962 132.502 68.0962 130.756C68.0962 128.999 68.3851 127.735 68.963 126.964C69.5529 126.182 70.522 125.79 71.8703 125.79C72.5686 125.79 73.309 125.869 74.0915 126.025V122.034H75.4278ZM70.1187 133.375C70.3113 133.603 70.516 133.76 70.7327 133.844C70.9494 133.929 71.2263 133.971 71.5634 133.971C71.9125 133.971 72.2977 133.917 72.7191 133.808C73.1525 133.688 73.4896 133.573 73.7303 133.465L74.0915 133.303V127.181C73.321 127.036 72.6047 126.964 71.9426 126.964C71.0276 126.964 70.3896 127.259 70.0284 127.849C69.6672 128.427 69.4867 129.33 69.4867 130.558C69.4867 131.954 69.6973 132.893 70.1187 133.375ZM84.1914 133.88L84.7151 133.826L84.7512 134.892C83.3788 135.084 82.205 135.181 81.2299 135.181C79.9297 135.181 79.0087 134.807 78.467 134.061C77.9252 133.303 77.6543 132.129 77.6543 130.54C77.6543 127.373 78.9124 125.79 81.4285 125.79C82.6444 125.79 83.5534 126.133 84.1553 126.82C84.7573 127.494 85.0582 128.559 85.0582 130.016L84.986 131.045H79.0268C79.0268 132.044 79.2074 132.785 79.5685 133.266C79.9297 133.748 80.5557 133.989 81.4466 133.989C82.3495 133.989 83.2644 133.953 84.1914 133.88ZM83.7039 129.962C83.7039 128.854 83.5233 128.072 83.1621 127.614C82.813 127.157 82.2351 126.928 81.4285 126.928C80.634 126.928 80.032 127.169 79.6227 127.65C79.2254 128.132 79.0208 128.902 79.0087 129.962H83.7039ZM86.7716 130.467C86.7716 128.818 87.0666 127.626 87.6565 126.892C88.2464 126.157 89.2396 125.79 90.6361 125.79C92.0447 125.79 93.0379 126.157 93.6157 126.892C94.2056 127.626 94.5006 128.818 94.5006 130.467C94.5006 132.117 94.2237 133.315 93.6699 134.061C93.1161 134.807 92.1049 135.181 90.6361 135.181C89.1674 135.181 88.1561 134.807 87.6023 134.061C87.0485 133.315 86.7716 132.117 86.7716 130.467ZM88.1621 130.449C88.1621 131.762 88.3186 132.683 88.6316 133.212C88.9567 133.742 89.6249 134.007 90.6361 134.007C91.6594 134.007 92.3276 133.748 92.6406 133.23C92.9536 132.701 93.1101 131.774 93.1101 130.449C93.1101 129.125 92.9355 128.216 92.5864 127.723C92.2373 127.217 91.5872 126.964 90.6361 126.964C89.6971 126.964 89.047 127.217 88.6858 127.723C88.3367 128.216 88.1621 129.125 88.1621 130.449ZM103.084 128.698V133.321C103.12 133.766 103.469 134.031 104.131 134.115L104.077 135.181C103.126 135.181 102.41 134.94 101.928 134.458C100.845 134.94 99.7613 135.181 98.6778 135.181C97.8471 135.181 97.2151 134.946 96.7817 134.476C96.3483 134.007 96.1316 133.333 96.1316 132.454C96.1316 131.575 96.3543 130.931 96.7998 130.522C97.2452 130.1 97.9435 129.841 98.8945 129.745L101.73 129.474V128.698C101.73 128.084 101.597 127.644 101.332 127.379C101.068 127.115 100.706 126.982 100.249 126.982C99.2858 126.982 98.2866 127.042 97.2512 127.163L96.6914 127.217L96.6372 126.188C97.9615 125.923 99.1353 125.79 100.159 125.79C101.182 125.79 101.922 126.025 102.38 126.495C102.849 126.964 103.084 127.698 103.084 128.698ZM97.5221 132.382C97.5221 133.489 97.9796 134.043 98.8945 134.043C99.7132 134.043 100.52 133.904 101.314 133.628L101.73 133.483V130.503L99.057 130.756C98.5153 130.804 98.124 130.961 97.8833 131.226C97.6425 131.491 97.5221 131.876 97.5221 132.382ZM111.39 125.971H112.745V135H111.39V134.368C110.487 134.91 109.597 135.181 108.718 135.181C107.49 135.181 106.671 134.862 106.262 134.223C105.865 133.585 105.666 132.406 105.666 130.684V125.971H107.02V130.666C107.02 131.978 107.135 132.857 107.363 133.303C107.592 133.748 108.11 133.971 108.916 133.971C109.314 133.971 109.717 133.917 110.126 133.808C110.536 133.688 110.849 133.573 111.065 133.465L111.39 133.303V125.971ZM115.458 135V122.034H116.812V135H115.458ZM125.904 128.698V133.321C125.94 133.766 126.289 134.031 126.951 134.115L126.897 135.181C125.946 135.181 125.23 134.94 124.748 134.458C123.665 134.94 122.581 135.181 121.498 135.181C120.667 135.181 120.035 134.946 119.601 134.476C119.168 134.007 118.951 133.333 118.951 132.454C118.951 131.575 119.174 130.931 119.619 130.522C120.065 130.1 120.763 129.841 121.714 129.745L124.549 129.474V128.698C124.549 128.084 124.417 127.644 124.152 127.379C123.887 127.115 123.526 126.982 123.069 126.982C122.105 126.982 121.106 127.042 120.071 127.163L119.511 127.217L119.457 126.188C120.781 125.923 121.955 125.79 122.978 125.79C124.002 125.79 124.742 126.025 125.199 126.495C125.669 126.964 125.904 127.698 125.904 128.698ZM120.342 132.382C120.342 133.489 120.799 134.043 121.714 134.043C122.533 134.043 123.339 133.904 124.134 133.628L124.549 133.483V130.503L121.877 130.756C121.335 130.804 120.944 130.961 120.703 131.226C120.462 131.491 120.342 131.876 120.342 132.382ZM131.411 127C130.099 127 129.443 127.458 129.443 128.373C129.443 128.794 129.593 129.095 129.894 129.276C130.195 129.444 130.881 129.625 131.953 129.817C133.024 129.998 133.783 130.257 134.228 130.594C134.674 130.931 134.896 131.563 134.896 132.49C134.896 133.417 134.595 134.097 133.993 134.53C133.404 134.964 132.537 135.181 131.393 135.181C130.647 135.181 129.768 135.096 128.757 134.928L128.215 134.837L128.287 133.664C129.659 133.868 130.695 133.971 131.393 133.971C132.091 133.971 132.621 133.862 132.982 133.646C133.355 133.417 133.542 133.044 133.542 132.526C133.542 131.996 133.385 131.641 133.072 131.461C132.759 131.268 132.073 131.087 131.014 130.919C129.954 130.75 129.202 130.503 128.757 130.178C128.311 129.853 128.088 129.251 128.088 128.373C128.088 127.494 128.395 126.844 129.009 126.422C129.635 126.001 130.412 125.79 131.339 125.79C132.073 125.79 132.994 125.875 134.102 126.043L134.607 126.133L134.571 127.289C133.235 127.097 132.182 127 131.411 127Z" fill="#BB0823"/>
<g clip-path="url(#clip0)">
<path d="M121.231 33.5H69.314C68.5493 33.5009 67.8162 33.8007 67.2755 34.3337C66.7347 34.8667 66.4306 35.5893 66.4297 36.3431V85.6228C66.4306 86.3765 66.7347 87.0992 67.2755 87.6322C67.8162 88.1651 68.5493 88.465 69.314 88.4658H121.231C121.995 88.465 122.729 88.1651 123.269 87.6322C123.81 87.0992 124.114 86.3765 124.115 85.6228V36.3431C124.114 35.5893 123.81 34.8667 123.269 34.3337C122.729 33.8007 121.995 33.5009 121.231 33.5ZM69.314 35.3954H121.231C121.486 35.3957 121.73 35.4956 121.91 35.6733C122.09 35.8509 122.192 36.0918 122.192 36.3431V41.0815H68.3525V36.3431C68.3528 36.0918 68.4542 35.8509 68.6344 35.6733C68.8147 35.4956 69.0591 35.3957 69.314 35.3954ZM121.231 86.5705H69.314C69.0591 86.5702 68.8147 86.4702 68.6344 86.2926C68.4542 86.1149 68.3528 85.874 68.3525 85.6228V42.9769H122.192V85.6228C122.192 85.874 122.09 86.1149 121.91 86.2926C121.73 86.4702 121.486 86.5702 121.231 86.5705Z" fill="#BB0823"/>
<path d="M103.926 46.7676H73.1606C72.9057 46.7676 72.6611 46.8674 72.4808 47.0451C72.3005 47.2229 72.1992 47.4639 72.1992 47.7153V66.669C72.1992 66.9203 72.3005 67.1614 72.4808 67.3391C72.6611 67.5168 72.9057 67.6167 73.1606 67.6167H103.926C104.181 67.6167 104.426 67.5168 104.606 67.3391C104.786 67.1614 104.888 66.9203 104.888 66.669V47.7153C104.888 47.4639 104.786 47.2229 104.606 47.0451C104.426 46.8674 104.181 46.7676 103.926 46.7676ZM102.965 65.7213H74.1221V48.663H102.965V65.7213Z" fill="#BB0823"/>
<path d="M117.11 39.1859C117.641 39.1859 118.071 38.7616 118.071 38.2382C118.071 37.7148 117.641 37.2905 117.11 37.2905C116.579 37.2905 116.148 37.7148 116.148 38.2382C116.148 38.7616 116.579 39.1859 117.11 39.1859Z" fill="#BB0823"/>
<path d="M113.27 39.1869C113.801 39.1869 114.231 38.7626 114.231 38.2392C114.231 37.7158 113.801 37.2915 113.27 37.2915C112.739 37.2915 112.309 37.7158 112.309 38.2392C112.309 38.7626 112.739 39.1869 113.27 39.1869Z" fill="#BB0823"/>
<path d="M109.422 39.1859C109.953 39.1859 110.384 38.7616 110.384 38.2382C110.384 37.7148 109.953 37.2905 109.422 37.2905C108.891 37.2905 108.461 37.7148 108.461 38.2382C108.461 38.7616 108.891 39.1859 109.422 39.1859Z" fill="#BB0823"/>
<path d="M117.384 46.7676H107.77C107.515 46.7676 107.27 46.8674 107.09 47.0451C106.91 47.2229 106.809 47.4639 106.809 47.7153V55.2968C106.809 55.5481 106.91 55.7892 107.09 55.9669C107.27 56.1446 107.515 56.2444 107.77 56.2444H117.384C117.639 56.2444 117.884 56.1446 118.064 55.9669C118.244 55.7892 118.346 55.5481 118.346 55.2968V47.7153C118.346 47.4639 118.244 47.2229 118.064 47.0451C117.884 46.8674 117.639 46.7676 117.384 46.7676ZM116.423 54.3491H108.731V48.663H116.423V54.3491Z" fill="#BB0823"/>
<path d="M86.12 60.8416C86.2594 60.9265 86.4186 60.9749 86.5823 60.9822C86.746 60.9894 86.9089 60.9553 87.0555 60.883L92.824 58.0399C92.9837 57.9612 93.118 57.8402 93.2118 57.6905C93.3057 57.5408 93.3554 57.3683 93.3554 57.1923C93.3554 57.0164 93.3057 56.8438 93.2118 56.6941C93.118 56.5444 92.9837 56.4235 92.824 56.3447L87.0555 53.5017C86.9089 53.4294 86.746 53.3953 86.5823 53.4026C86.4186 53.4098 86.2595 53.4582 86.1201 53.5431C85.9807 53.6281 85.8656 53.7467 85.7858 53.8878C85.706 54.0289 85.6641 54.1877 85.6641 54.3493V60.0354C85.664 60.1969 85.7059 60.3558 85.7857 60.4969C85.8655 60.638 85.9806 60.7567 86.12 60.8416ZM87.5869 55.8826L90.2442 57.1923L87.5869 58.502V55.8826Z" fill="#BB0823"/>
<path d="M80.852 69.5117H73.1606C72.9057 69.5117 72.6611 69.6116 72.4808 69.7893C72.3005 69.967 72.1992 70.2081 72.1992 70.4594C72.1992 70.7107 72.3005 70.9518 72.4808 71.1295C72.6611 71.3072 72.9057 71.4071 73.1606 71.4071H80.852C81.107 71.4071 81.3515 71.3072 81.5318 71.1295C81.7121 70.9518 81.8134 70.7107 81.8134 70.4594C81.8134 70.2081 81.7121 69.967 81.5318 69.7893C81.3515 69.6116 81.107 69.5117 80.852 69.5117Z" fill="#BB0823"/>
<path d="M80.852 37.25H73.1606C72.9057 37.25 72.6611 37.3498 72.4808 37.5276C72.3005 37.7053 72.1992 37.9463 72.1992 38.1977C72.1992 38.449 72.3005 38.6901 72.4808 38.8678C72.6611 39.0455 72.9057 39.1454 73.1606 39.1454H80.852C81.107 39.1454 81.3515 39.0455 81.5318 38.8678C81.7121 38.6901 81.8134 38.449 81.8134 38.1977C81.8134 37.9463 81.7121 37.7053 81.5318 37.5276C81.3515 37.3498 81.107 37.25 80.852 37.25Z" fill="#BB0823"/>
<path d="M91.4296 74.2504C91.4296 73.9991 91.3283 73.758 91.148 73.5803C90.9677 73.4026 90.7232 73.3027 90.4682 73.3027H77.0083C76.7533 73.3027 76.5088 73.4026 76.3285 73.5803C76.1482 73.758 76.0469 73.9991 76.0469 74.2504C76.0469 74.5018 76.1482 74.7428 76.3285 74.9205C76.5088 75.0983 76.7533 75.1981 77.0083 75.1981H90.4682C90.7232 75.1981 90.9677 75.0983 91.148 74.9205C91.3283 74.7428 91.4296 74.5018 91.4296 74.2504Z" fill="#BB0823"/>
<path d="M77.0083 77.0938C76.7533 77.0938 76.5088 77.1936 76.3285 77.3713C76.1482 77.549 76.0469 77.7901 76.0469 78.0414C76.0469 78.2928 76.1482 78.5338 76.3285 78.7115C76.5088 78.8893 76.7533 78.9891 77.0083 78.9891H87.5839C87.8389 78.9891 88.0835 78.8893 88.2638 78.7115C88.4441 78.5338 88.5454 78.2928 88.5454 78.0414C88.5454 77.7901 88.4441 77.549 88.2638 77.3713C88.0835 77.1936 87.8389 77.0938 87.5839 77.0938H77.0083Z" fill="#BB0823"/>
<path d="M73.1606 75.1981C73.6916 75.1981 74.1221 74.7738 74.1221 74.2504C74.1221 73.727 73.6916 73.3027 73.1606 73.3027C72.6297 73.3027 72.1992 73.727 72.1992 74.2504C72.1992 74.7738 72.6297 75.1981 73.1606 75.1981Z" fill="#BB0823"/>
<path d="M73.1606 78.9891C73.6916 78.9891 74.1221 78.5648 74.1221 78.0414C74.1221 77.518 73.6916 77.0938 73.1606 77.0938C72.6297 77.0938 72.1992 77.518 72.1992 78.0414C72.1992 78.5648 72.6297 78.9891 73.1606 78.9891Z" fill="#BB0823"/>
<path d="M96.2367 80.8838H77.0083C76.7533 80.8838 76.5088 80.9836 76.3285 81.1614C76.1482 81.3391 76.0469 81.5801 76.0469 81.8315C76.0469 82.0828 76.1482 82.3239 76.3285 82.5016C76.5088 82.6793 76.7533 82.7792 77.0083 82.7792H96.2367C96.4917 82.7792 96.7363 82.6793 96.9166 82.5016C97.0969 82.3239 97.1982 82.0828 97.1982 81.8315C97.1982 81.5801 97.0969 81.3391 96.9166 81.1614C96.7363 80.9836 96.4917 80.8838 96.2367 80.8838Z" fill="#BB0823"/>
<path d="M98.9828 37.25H79.7544C79.4994 37.25 79.2549 37.3498 79.0746 37.5276C78.8943 37.7053 78.793 37.9463 78.793 38.1977C78.793 38.449 78.8943 38.6901 79.0746 38.8678C79.2549 39.0455 79.4994 39.1454 79.7544 39.1454H98.9828C99.2378 39.1454 99.4823 39.0455 99.6627 38.8678C99.843 38.6901 99.9442 38.449 99.9442 38.1977C99.9442 37.9463 99.843 37.7053 99.6627 37.5276C99.4823 37.3498 99.2378 37.25 98.9828 37.25Z" fill="#BB0823"/>
<path d="M73.1606 82.7792C73.6916 82.7792 74.1221 82.3549 74.1221 81.8315C74.1221 81.3081 73.6916 80.8838 73.1606 80.8838C72.6297 80.8838 72.1992 81.3081 72.1992 81.8315C72.1992 82.3549 72.6297 82.7792 73.1606 82.7792Z" fill="#BB0823"/>
<path d="M111.617 50.5586V52.454L113.54 51.5063L111.617 50.5586Z" fill="#BB0823"/>
<path d="M117.384 58.1396H107.77C107.515 58.1396 107.27 58.2395 107.09 58.4172C106.91 58.5949 106.809 58.836 106.809 59.0873V66.6688C106.809 66.9202 106.91 67.1612 107.09 67.3389C107.27 67.5167 107.515 67.6165 107.77 67.6165H117.384C117.639 67.6165 117.884 67.5167 118.064 67.3389C118.244 67.1612 118.346 66.9202 118.346 66.6688V59.0873C118.346 58.836 118.244 58.5949 118.064 58.4172C117.884 58.2395 117.639 58.1396 117.384 58.1396ZM116.423 65.7211H108.731V60.035H116.423V65.7211Z" fill="#BB0823"/>
<path d="M111.617 61.9307V63.826L113.54 62.8784L111.617 61.9307Z" fill="#BB0823"/>
<path d="M117.384 69.5117H107.77C107.515 69.5117 107.27 69.6116 107.09 69.7893C106.91 69.967 106.809 70.2081 106.809 70.4594V78.0409C106.809 78.2922 106.91 78.5333 107.09 78.711C107.27 78.8887 107.515 78.9886 107.77 78.9886H117.384C117.639 78.9886 117.884 78.8887 118.064 78.711C118.244 78.5333 118.346 78.2922 118.346 78.0409V70.4594C118.346 70.2081 118.244 69.967 118.064 69.7893C117.884 69.6116 117.639 69.5117 117.384 69.5117ZM116.423 77.0932H108.731V71.4071H116.423V77.0932Z" fill="#BB0823"/>
<path d="M111.617 73.3027V75.1981L113.54 74.2504L111.617 73.3027Z" fill="#BB0823"/>
<path d="M108.735 82.7792C109.266 82.7792 109.696 82.3549 109.696 81.8315C109.696 81.3081 109.266 80.8838 108.735 80.8838C108.204 80.8838 107.773 81.3081 107.773 81.8315C107.773 82.3549 108.204 82.7792 108.735 82.7792Z" fill="#BB0823"/>
<path d="M112.579 82.7792C113.11 82.7792 113.54 82.3549 113.54 81.8315C113.54 81.3081 113.11 80.8838 112.579 80.8838C112.048 80.8838 111.617 81.3081 111.617 81.8315C111.617 82.3549 112.048 82.7792 112.579 82.7792Z" fill="#BB0823"/>
<path d="M116.426 82.7792C116.957 82.7792 117.388 82.3549 117.388 81.8315C117.388 81.3081 116.957 80.8838 116.426 80.8838C115.895 80.8838 115.465 81.3081 115.465 81.8315C115.465 82.3549 115.895 82.7792 116.426 82.7792Z" fill="#BB0823"/>
</g>
<defs>
<filter id="filter0_d" x="0.365999" y="0.681699" width="196.443" height="163.3" filterUnits="userSpaceOnUse" color-interpolation-filters="sRGB">
<feFlood flood-opacity="0" result="BackgroundImageFix"/>
<feColorMatrix in="SourceAlpha" type="matrix" values="0 0 0 0 0 0 0 0 0 0 0 0 0 0 0 0 0 0 127 0" result="hardAlpha"/>
<feMorphology radius="1.37151" operator="dilate" in="SourceAlpha" result="effect1_dropShadow"/>
<feOffset dx="3.42877" dy="5.14315"/>
<feGaussianBlur stdDeviation="4.62883"/>
<feColorMatrix type="matrix" values="0 0 0 0 0.737255 0 0 0 0 0.0470588 0 0 0 0 0.141176 0 0 0 0.13 0"/>
<feBlend mode="normal" in2="BackgroundImageFix" result="effect1_dropShadow"/>
<feBlend mode="normal" in="SourceGraphic" in2="effect1_dropShadow" result="shape"/>
</filter>
<clipPath id="clip0">
<rect width="61.531" height="57.7528" fill="white" transform="translate(64.5078 30.6572)"/>
</clipPath>
</defs>
</svg>
