<svg width="205" height="205" viewBox="0 0 205 205" fill="none" xmlns="http://www.w3.org/2000/svg">
<path d="M190.522 51.2336L102.217 0.251126L13.9132 51.2336V153.199L102.217 204.181L190.522 153.199V51.2336Z" fill="#423F40" stroke="#B5B5B5" stroke-width="0.434962"/>
<path d="M63.2311 142.769C61.7891 143.063 60.4941 143.21 59.3461 143.21C58.1981 143.21 57.2671 143.056 56.5531 142.748C55.8531 142.426 55.3071 141.936 54.9151 141.278C54.5371 140.606 54.2711 139.843 54.1171 138.989C53.9771 138.121 53.9071 137.043 53.9071 135.755C53.9071 134.467 53.9771 133.389 54.1171 132.521C54.2711 131.639 54.5371 130.862 54.9151 130.19C55.3071 129.518 55.8531 129.028 56.5531 128.72C57.2531 128.412 58.1631 128.258 59.2831 128.258C60.4031 128.258 61.7191 128.412 63.2311 128.72L63.1681 130.085C61.7541 129.833 60.4941 129.707 59.3881 129.707C57.8481 129.707 56.8261 130.169 56.3221 131.093C55.8321 132.003 55.5871 133.564 55.5871 135.776C55.5871 136.882 55.6291 137.771 55.7131 138.443C55.8111 139.115 55.9931 139.724 56.2591 140.27C56.5251 140.802 56.9101 141.187 57.4141 141.425C57.9321 141.649 58.6811 141.761 59.6611 141.761C60.6551 141.761 61.8241 141.635 63.1681 141.383L63.2311 142.769ZM72.5379 141.698L73.1469 141.635L73.1889 142.874C71.5929 143.098 70.2279 143.21 69.0939 143.21C67.5819 143.21 66.5109 142.776 65.8809 141.908C65.2509 141.026 64.9359 139.661 64.9359 137.813C64.9359 134.131 66.3989 132.29 69.3249 132.29C70.7389 132.29 71.7959 132.689 72.4959 133.487C73.1959 134.271 73.5459 135.51 73.5459 137.204L73.4619 138.401H66.5319C66.5319 139.563 66.7419 140.424 67.1619 140.984C67.5819 141.544 68.3099 141.824 69.3459 141.824C70.3959 141.824 71.4599 141.782 72.5379 141.698ZM71.9709 137.141C71.9709 135.853 71.7609 134.943 71.3409 134.411C70.9349 133.879 70.2629 133.613 69.3249 133.613C68.4009 133.613 67.7009 133.893 67.2249 134.453C66.7629 135.013 66.5249 135.909 66.5109 137.141H71.9709ZM76.0004 143V132.5H77.5544V133.928C78.7724 133.088 80.0534 132.535 81.3974 132.269V133.865C80.8094 133.977 80.1934 134.152 79.5494 134.39C78.9194 134.628 78.4364 134.838 78.1004 135.02L77.5754 135.293V143H76.0004ZM88.6992 133.865H85.3602V138.884C85.3602 140.088 85.4442 140.879 85.6122 141.257C85.7942 141.635 86.2142 141.824 86.8722 141.824L88.7412 141.698L88.8462 143C87.9082 143.154 87.1942 143.231 86.7042 143.231C85.6122 143.231 84.8562 142.965 84.4362 142.433C84.0162 141.901 83.8062 140.886 83.8062 139.388V133.865H82.3152V132.5H83.8062V129.287H85.3602V132.5H88.6992V133.865ZM90.6225 143V132.5H92.1975V143H90.6225ZM90.6225 130.127V128.3H92.1975V130.127H90.6225ZM97.2323 133.865V143H95.6573V133.865H94.3343V132.5H95.6573V131.555C95.6573 130.071 95.8673 129.063 96.2873 128.531C96.7073 127.985 97.4423 127.712 98.4923 127.712L100.613 127.859L100.592 129.161C99.8083 129.133 99.1573 129.119 98.6393 129.119C98.1353 129.119 97.7713 129.287 97.5473 129.623C97.3373 129.959 97.2323 130.61 97.2323 131.576V132.5H100.277V133.865H97.2323ZM102.168 143V132.5H103.743V143H102.168ZM102.168 130.127V128.3H103.743V130.127H102.168ZM110.689 132.29C111.151 132.29 111.935 132.374 113.041 132.542L113.545 132.605L113.482 133.886C112.362 133.76 111.536 133.697 111.004 133.697C109.814 133.697 109.002 133.984 108.568 134.558C108.148 135.118 107.938 136.168 107.938 137.708C107.938 139.234 108.134 140.298 108.526 140.9C108.932 141.502 109.765 141.803 111.025 141.803L113.503 141.614L113.566 142.916C112.264 143.112 111.291 143.21 110.647 143.21C109.009 143.21 107.875 142.79 107.245 141.95C106.629 141.11 106.321 139.696 106.321 137.708C106.321 135.706 106.657 134.306 107.329 133.508C108.001 132.696 109.121 132.29 110.689 132.29ZM123.322 135.671V141.047C123.364 141.565 123.77 141.873 124.54 141.971L124.477 143.21C123.371 143.21 122.538 142.93 121.978 142.37C120.718 142.93 119.458 143.21 118.198 143.21C117.232 143.21 116.497 142.937 115.993 142.391C115.489 141.845 115.237 141.061 115.237 140.039C115.237 139.017 115.496 138.268 116.014 137.792C116.532 137.302 117.344 137.001 118.45 136.889L121.747 136.574V135.671C121.747 134.957 121.593 134.446 121.285 134.138C120.977 133.83 120.557 133.676 120.025 133.676C118.905 133.676 117.743 133.746 116.539 133.886L115.888 133.949L115.825 132.752C117.365 132.444 118.73 132.29 119.92 132.29C121.11 132.29 121.971 132.563 122.503 133.109C123.049 133.655 123.322 134.509 123.322 135.671ZM116.854 139.955C116.854 141.243 117.386 141.887 118.45 141.887C119.402 141.887 120.34 141.726 121.264 141.404L121.747 141.236V137.771L118.639 138.065C118.009 138.121 117.554 138.303 117.274 138.611C116.994 138.919 116.854 139.367 116.854 139.955ZM132.477 145.667C132.477 146.927 131.826 147.557 130.524 147.557C129.88 147.557 129.355 147.522 128.949 147.452L128.718 147.41L128.781 146.402C129.327 146.444 129.789 146.465 130.167 146.465C130.783 146.465 131.091 146.199 131.091 145.667C131.091 145.191 130.783 144.953 130.167 144.953H129.285V143.147C128.053 143.007 127.192 142.51 126.702 141.656C126.226 140.802 125.988 139.43 125.988 137.54C125.988 135.65 126.324 134.306 126.996 133.508C127.668 132.696 128.788 132.29 130.356 132.29C130.818 132.29 131.602 132.374 132.708 132.542L133.212 132.605L133.149 133.886C132.029 133.76 131.203 133.697 130.671 133.697C129.481 133.697 128.669 133.984 128.235 134.558C127.815 135.118 127.605 136.168 127.605 137.708C127.605 139.234 127.801 140.298 128.193 140.9C128.599 141.502 129.432 141.803 130.692 141.803L133.17 141.614L133.233 142.916C131.931 143.112 130.958 143.21 130.314 143.21H130.146V144.029C130.972 144.029 131.567 144.141 131.931 144.365C132.295 144.589 132.477 145.023 132.477 145.667ZM142.989 135.671V141.047C143.031 141.565 143.437 141.873 144.207 141.971L144.144 143.21C143.038 143.21 142.205 142.93 141.645 142.37C140.385 142.93 139.125 143.21 137.865 143.21C136.899 143.21 136.164 142.937 135.66 142.391C135.156 141.845 134.904 141.061 134.904 140.039C134.904 139.017 135.163 138.268 135.681 137.792C136.199 137.302 137.011 137.001 138.117 136.889L141.414 136.574V135.671C141.414 134.957 141.26 134.446 140.952 134.138C140.644 133.83 140.224 133.676 139.692 133.676C138.572 133.676 137.41 133.746 136.206 133.886L135.555 133.949L135.492 132.752C137.032 132.444 138.397 132.29 139.587 132.29C140.777 132.29 141.638 132.563 142.17 133.109C142.716 133.655 142.989 134.509 142.989 135.671ZM136.521 139.955C136.521 141.243 137.053 141.887 138.117 141.887C139.069 141.887 140.007 141.726 140.931 141.404L141.414 141.236V137.771L138.306 138.065C137.676 138.121 137.221 138.303 136.941 138.611C136.661 138.919 136.521 139.367 136.521 139.955ZM140.511 130.148C140.217 130.148 139.706 129.987 138.978 129.665C138.264 129.329 137.816 129.161 137.634 129.161C137.312 129.161 136.878 129.371 136.332 129.791L136.059 130.001L135.681 128.993C136.381 128.265 137.018 127.901 137.592 127.901C137.886 127.901 138.397 128.062 139.125 128.384C139.853 128.706 140.294 128.867 140.448 128.867C140.756 128.867 141.176 128.664 141.708 128.258L141.96 128.069L142.317 129.077C141.673 129.791 141.071 130.148 140.511 130.148ZM145.634 137.729C145.634 135.811 145.977 134.425 146.663 133.571C147.349 132.717 148.504 132.29 150.128 132.29C151.766 132.29 152.921 132.717 153.593 133.571C154.279 134.425 154.622 135.811 154.622 137.729C154.622 139.647 154.3 141.04 153.656 141.908C153.012 142.776 151.836 143.21 150.128 143.21C148.42 143.21 147.244 142.776 146.6 141.908C145.956 141.04 145.634 139.647 145.634 137.729ZM147.251 137.708C147.251 139.234 147.433 140.305 147.797 140.921C148.175 141.537 148.952 141.845 150.128 141.845C151.318 141.845 152.095 141.544 152.459 140.942C152.823 140.326 153.005 139.248 153.005 137.708C153.005 136.168 152.802 135.111 152.396 134.537C151.99 133.949 151.234 133.655 150.128 133.655C149.036 133.655 148.28 133.949 147.86 134.537C147.454 135.111 147.251 136.168 147.251 137.708ZM76.8002 172.662V157.5H78.3542V158.256C79.4182 157.612 80.4682 157.29 81.5042 157.29C82.8342 157.29 83.8002 157.717 84.4022 158.571C85.0042 159.411 85.3052 160.804 85.3052 162.75C85.3052 164.696 84.9482 166.096 84.2342 166.95C83.5342 167.79 82.3652 168.21 80.7272 168.21C79.8732 168.21 79.0892 168.133 78.3752 167.979V172.662H76.8002ZM81.2732 158.697C80.8532 158.697 80.3982 158.767 79.9082 158.907C79.4322 159.047 79.0542 159.187 78.7742 159.327L78.3752 159.537V166.614C79.3692 166.768 80.1252 166.845 80.6432 166.845C81.7772 166.845 82.5682 166.523 83.0162 165.879C83.4782 165.235 83.7092 164.185 83.7092 162.729C83.7092 161.273 83.4992 160.237 83.0792 159.621C82.6732 159.005 82.0712 158.697 81.2732 158.697ZM95.2875 160.671V166.047C95.3295 166.565 95.7355 166.873 96.5055 166.971L96.4425 168.21C95.3365 168.21 94.5035 167.93 93.9435 167.37C92.6835 167.93 91.4235 168.21 90.1635 168.21C89.1975 168.21 88.4625 167.937 87.9585 167.391C87.4545 166.845 87.2025 166.061 87.2025 165.039C87.2025 164.017 87.4615 163.268 87.9795 162.792C88.4975 162.302 89.3095 162.001 90.4155 161.889L93.7125 161.574V160.671C93.7125 159.957 93.5585 159.446 93.2505 159.138C92.9425 158.83 92.5225 158.676 91.9905 158.676C90.8705 158.676 89.7085 158.746 88.5045 158.886L87.8535 158.949L87.7905 157.752C89.3305 157.444 90.6955 157.29 91.8855 157.29C93.0755 157.29 93.9365 157.563 94.4685 158.109C95.0145 158.655 95.2875 159.509 95.2875 160.671ZM88.8195 164.955C88.8195 166.243 89.3515 166.887 90.4155 166.887C91.3675 166.887 92.3055 166.726 93.2295 166.404L93.7125 166.236V162.771L90.6045 163.065C89.9745 163.121 89.5195 163.303 89.2395 163.611C88.9595 163.919 88.8195 164.367 88.8195 164.955ZM98.395 168V157.5H99.949V158.928C101.167 158.088 102.448 157.535 103.792 157.269V158.865C103.204 158.977 102.588 159.152 101.944 159.39C101.314 159.628 100.831 159.838 100.495 160.02L99.97 160.293V168H98.395ZM109.377 157.29C109.839 157.29 110.623 157.374 111.729 157.542L112.233 157.605L112.17 158.886C111.05 158.76 110.224 158.697 109.692 158.697C108.502 158.697 107.69 158.984 107.256 159.558C106.836 160.118 106.626 161.168 106.626 162.708C106.626 164.234 106.822 165.298 107.214 165.9C107.62 166.502 108.453 166.803 109.713 166.803L112.191 166.614L112.254 167.916C110.952 168.112 109.979 168.21 109.335 168.21C107.697 168.21 106.563 167.79 105.933 166.95C105.317 166.11 105.009 164.696 105.009 162.708C105.009 160.706 105.345 159.306 106.017 158.508C106.689 157.696 107.809 157.29 109.377 157.29ZM114.596 168V157.5H116.171V168H114.596ZM114.596 155.127V153.3H116.171V155.127H114.596ZM126.603 160.671V166.047C126.645 166.565 127.051 166.873 127.821 166.971L127.758 168.21C126.652 168.21 125.819 167.93 125.259 167.37C123.999 167.93 122.739 168.21 121.479 168.21C120.513 168.21 119.778 167.937 119.274 167.391C118.77 166.845 118.518 166.061 118.518 165.039C118.518 164.017 118.777 163.268 119.295 162.792C119.813 162.302 120.625 162.001 121.731 161.889L125.028 161.574V160.671C125.028 159.957 124.874 159.446 124.566 159.138C124.258 158.83 123.838 158.676 123.306 158.676C122.186 158.676 121.024 158.746 119.82 158.886L119.169 158.949L119.106 157.752C120.646 157.444 122.011 157.29 123.201 157.29C124.391 157.29 125.252 157.563 125.784 158.109C126.33 158.655 126.603 159.509 126.603 160.671ZM120.135 164.955C120.135 166.243 120.667 166.887 121.731 166.887C122.683 166.887 123.621 166.726 124.545 166.404L125.028 166.236V162.771L121.92 163.065C121.29 163.121 120.835 163.303 120.555 163.611C120.275 163.919 120.135 164.367 120.135 164.955ZM129.836 168V152.922H131.411V168H129.836Z" fill="#F5F5F5"/>
<path d="M115.288 33.7294L115.289 33.73V33.73L129.079 47.5271C129.08 47.5273 129.08 47.5275 129.08 47.5277C129.083 47.5307 129.086 47.5337 129.089 47.5365C129.159 47.609 129.206 47.6887 129.24 47.7619L115.288 33.7294ZM115.288 33.7294C115.285 33.7269 115.283 33.7246 115.281 33.7225M115.288 33.7294L115.281 33.7225M114.977 33.5411L114.977 33.5411C114.981 33.5423 114.982 33.5426 114.984 33.5432C114.986 33.5438 114.989 33.5449 114.999 33.5482C115.012 33.5523 115.032 33.5592 115.054 33.5697M114.977 33.5411L115.054 33.5697M114.977 33.5411C114.914 33.5192 114.85 33.5052 114.784 33.499C114.78 33.4981 114.776 33.4971 114.772 33.4962C114.756 33.493 114.735 33.4897 114.709 33.4897H75.8918C75.4392 33.4897 75.0723 33.8567 75.0723 34.3092V104.955C75.0723 105.408 75.4392 105.775 75.8918 105.775H128.501C128.953 105.775 129.32 105.408 129.32 104.955V48.1073C129.32 48.0816 129.317 48.0601 129.314 48.0446C129.313 48.0401 129.312 48.0359 129.311 48.032M114.977 33.5411L129.311 48.032M115.054 33.5697C115.128 33.6041 115.208 33.6518 115.281 33.7225M115.054 33.5697L115.281 33.7225M129.311 48.032C129.305 47.9662 129.291 47.9021 129.269 47.8396C129.268 47.8357 129.268 47.8349 129.267 47.8328C129.266 47.8307 129.265 47.8272 129.262 47.8172C129.258 47.8048 129.251 47.7848 129.24 47.7624L129.311 48.032ZM129.113 47.5678C129.113 47.5679 129.113 47.5678 129.113 47.5676L129.113 47.5678ZM115.528 47.2878V36.2884L126.523 47.2878H115.528ZM76.7113 35.1287H113.889V48.1073C113.889 48.5599 114.256 48.9268 114.709 48.9268H127.681V104.136H76.7113V35.1287Z" fill="#F5F5F5" stroke="#F5F5F5" stroke-width="0.535163"/>
<path d="M83.3605 42.0282H104.654C105.107 42.0282 105.474 41.6612 105.474 41.2087C105.474 40.7561 105.107 40.3892 104.654 40.3892H83.3605C82.9079 40.3892 82.541 40.7561 82.541 41.2087C82.541 41.6612 82.9079 42.0282 83.3605 42.0282Z" fill="#F5F5F5" stroke="#F5F5F5" stroke-width="0.535163"/>
<path d="M83.3605 50.8924H108.518C108.97 50.8924 109.337 50.5255 109.337 50.0729C109.337 49.6203 108.97 49.2534 108.518 49.2534H83.3605C82.9079 49.2534 82.541 49.6203 82.541 50.0729C82.541 50.5255 82.9079 50.8924 83.3605 50.8924Z" fill="#F5F5F5" stroke="#F5F5F5" stroke-width="0.535163"/>
<path d="M83.3605 59.7586H120.064C120.517 59.7586 120.884 59.3917 120.884 58.9391C120.884 58.4865 120.517 58.1196 120.064 58.1196H83.3605C82.9079 58.1196 82.541 58.4866 82.541 58.9391C82.541 59.3917 82.9079 59.7586 83.3605 59.7586Z" fill="#F5F5F5" stroke="#F5F5F5" stroke-width="0.535163"/>
<path d="M83.3605 68.6234H112.933C113.386 68.6234 113.753 68.2565 113.753 67.8039C113.753 67.3513 113.386 66.9844 112.933 66.9844H83.3605C82.9079 66.9844 82.541 67.3513 82.541 67.8039C82.541 68.2565 82.9079 68.6234 83.3605 68.6234Z" fill="#F5F5F5" stroke="#F5F5F5" stroke-width="0.535163"/>
<path d="M120.884 76.6696C120.884 76.217 120.517 75.8501 120.064 75.8501H83.3605C82.9079 75.8501 82.541 76.217 82.541 76.6696C82.541 77.1222 82.9079 77.4891 83.3605 77.4891H120.064C120.517 77.4891 120.884 77.1222 120.884 76.6696Z" fill="#F5F5F5" stroke="#F5F5F5" stroke-width="0.535163"/>
<path d="M120.928 88.2504L120.928 88.2505C120.962 88.3556 121.034 88.4812 121.141 88.6316C121.248 88.7805 121.378 88.9374 121.521 89.1084L121.521 89.1084C121.528 89.1176 121.536 89.1269 121.544 89.1362C121.982 89.6627 122.552 90.3476 122.552 91.2261C122.552 92.1038 121.982 92.7882 121.545 93.3147L121.521 93.3434L121.521 93.3435C121.378 93.5146 121.248 93.6714 121.141 93.8203C121.034 93.9707 120.962 94.0964 120.928 94.2017L120.928 94.2019C120.89 94.3196 120.872 94.4736 120.87 94.6663C120.867 94.8579 120.88 95.0689 120.894 95.299L120.894 95.299C120.895 95.3115 120.896 95.324 120.896 95.3366C120.938 96.0055 120.991 96.8791 120.493 97.5641L120.493 97.5641C119.99 98.2551 119.138 98.4734 118.485 98.6407L118.45 98.6497C118.45 98.6497 118.45 98.6498 118.45 98.6498C118.228 98.7067 118.025 98.7589 117.846 98.8194C117.665 98.8802 117.527 98.9435 117.43 99.0141C117.336 99.0824 117.235 99.1923 117.123 99.3438C117.012 99.4941 116.901 99.6693 116.781 99.8605L116.781 99.8605C116.774 99.8714 116.767 99.8824 116.76 99.8934C116.397 100.467 115.925 101.215 115.104 101.482L115.103 101.482C114.307 101.738 113.5 101.42 112.882 101.176C112.872 101.172 112.861 101.168 112.85 101.164L112.85 101.164C112.642 101.082 112.442 101.003 112.253 100.944C112.062 100.885 111.901 100.852 111.771 100.852C111.642 100.852 111.481 100.885 111.29 100.944C111.1 101.003 110.9 101.082 110.692 101.164L110.67 101.172C110.206 101.355 109.642 101.578 109.064 101.578C108.858 101.578 108.649 101.55 108.439 101.482L108.439 101.482C107.616 101.215 107.144 100.466 106.781 99.8918L106.762 99.8605C106.641 99.6693 106.53 99.4941 106.419 99.3438C106.307 99.1923 106.206 99.0825 106.113 99.0142C106.016 98.9437 105.877 98.8804 105.697 98.8195C105.517 98.7591 105.314 98.7068 105.093 98.65L105.093 98.65C105.081 98.6469 105.069 98.6438 105.056 98.6407C104.403 98.4732 103.552 98.2547 103.049 97.5641C102.551 96.8797 102.605 96.0065 102.646 95.3381C102.647 95.3252 102.647 95.3124 102.648 95.2997L120.928 88.2504ZM120.928 88.2504C120.89 88.1325 120.872 87.9783 120.87 87.7855C120.867 87.5938 120.88 87.3827 120.894 87.1526C120.895 87.1398 120.895 87.127 120.896 87.1141C120.937 86.4454 120.991 85.5723 120.493 84.8878C119.99 84.1968 119.138 83.9786 118.484 83.8112C118.473 83.8082 118.461 83.8052 118.449 83.8022C118.228 83.7454 118.025 83.6931 117.845 83.6327C117.665 83.5719 117.526 83.5086 117.429 83.4381C117.336 83.3698 117.235 83.26 117.123 83.1084C117.012 82.9581 116.901 82.7829 116.78 82.5917L120.928 88.2504ZM112.85 81.2884L112.85 81.2883C112.863 81.2831 112.876 81.2778 112.89 81.2725C113.506 81.0297 114.311 80.7123 115.103 80.9705C115.926 81.2378 116.398 81.9862 116.761 82.5604L112.85 81.2884ZM112.85 81.2884C112.642 81.3704 112.442 81.4491 112.252 81.5079M112.85 81.2884L112.252 81.5079M106.761 82.5917L106.761 82.5917C106.768 82.5808 106.775 82.5698 106.782 82.5588C107.145 81.9849 107.617 81.2375 108.438 80.9705L106.761 82.5917ZM106.761 82.5917C106.641 82.7829 106.53 82.9581 106.419 83.1084C106.307 83.2599 106.206 83.3697 106.112 83.438C106.015 83.5086 105.877 83.5718 105.696 83.6327C105.517 83.6931 105.314 83.7454 105.093 83.8022L105.092 83.8022M106.761 82.5917L105.092 83.8022M105.092 83.8022C105.08 83.8053 105.068 83.8084 105.056 83.8116C104.403 83.9791 103.552 84.1976 103.049 84.8881L103.049 84.8881M105.092 83.8022L103.049 84.8881M103.049 84.8881C102.551 85.5731 102.604 86.4464 102.646 87.1153C102.646 87.1279 102.647 87.1404 102.648 87.1529L102.648 87.153M103.049 84.8881L102.648 87.153M102.648 87.153C102.662 87.383 102.675 87.5941 102.672 87.7857C102.67 87.9784 102.652 88.1325 102.614 88.2504L102.614 88.2506M102.648 87.153L102.614 88.2506M102.614 88.2506C102.58 88.3558 102.508 88.4814 102.401 88.6317C102.294 88.7807 102.164 88.9375 102.021 89.1088C102.014 89.1181 102.006 89.1275 101.998 89.1369C101.56 89.6633 100.99 90.3478 100.99 91.2261C100.99 92.1038 101.56 92.7882 101.997 93.3147C102.006 93.3243 102.013 93.3339 102.021 93.3434L102.021 93.3435M102.614 88.2506L102.021 93.3435M102.021 93.3435C102.164 93.5146 102.294 93.6714 102.401 93.8203C102.508 93.9707 102.58 94.0964 102.614 94.2017L102.614 94.2018M102.021 93.3435L102.614 94.2018M102.614 94.2018C102.652 94.3197 102.67 94.4739 102.672 94.6667M102.614 94.2018L102.672 94.6667M119.624 93.7782L119.369 93.6955C119.545 93.156 119.92 92.7046 120.246 92.3135L120.26 92.2955C120.26 92.2955 120.26 92.2955 120.26 92.2955C120.447 92.0712 120.614 91.87 120.736 91.6796C120.859 91.4863 120.913 91.3397 120.913 91.2261C120.913 91.1124 120.859 90.9657 120.736 90.7724C120.614 90.582 120.447 90.3808 120.26 90.1565L120.26 90.1564L120.245 90.1376C119.919 89.7465 119.544 89.2956 119.369 88.757L119.369 88.7569C119.187 88.1969 119.225 87.5963 119.257 87.0729L119.258 87.0523C119.258 87.0523 119.258 87.0522 119.258 87.0522C119.275 86.7682 119.291 86.5131 119.278 86.2943C119.265 86.0701 119.225 85.931 119.168 85.8522C119.109 85.7713 118.982 85.6867 118.766 85.6032C118.557 85.5221 118.307 85.4577 118.042 85.3896L118.022 85.3845C117.517 85.2552 116.937 85.1065 116.465 84.7634L116.465 84.7633C116 84.4248 115.683 83.9229 115.407 83.4871L115.395 83.4672L115.395 83.4672C115.24 83.2229 115.102 83.004 114.961 82.8311C114.817 82.6549 114.698 82.5621 114.597 82.5294L114.597 82.5294C114.511 82.5014 114.371 82.5057 114.156 82.5626C113.947 82.618 113.712 82.7102 113.451 82.8133C113.451 82.8133 113.451 82.8133 113.451 82.8133L113.431 82.8211C112.937 83.0159 112.371 83.2391 111.771 83.2391C111.172 83.2391 110.606 83.0163 110.112 82.8217L110.091 82.8133L110.091 82.8133C109.882 82.7308 109.688 82.6547 109.51 82.5987C109.33 82.5421 109.184 82.5126 109.071 82.5126C109.017 82.5126 108.976 82.5192 108.945 82.5293L108.945 82.5294C108.844 82.5621 108.725 82.6549 108.581 82.8311C108.44 83.0039 108.301 83.2228 108.147 83.4672L108.147 83.4672L108.134 83.4871C107.859 83.9229 107.542 84.4248 107.077 84.7633L107.077 84.7634C106.606 85.106 106.026 85.2547 105.523 85.3841C105.515 85.386 105.508 85.388 105.5 85.3899L105.5 85.3899C105.235 85.458 104.985 85.5224 104.776 85.6035C104.56 85.687 104.433 85.7716 104.374 85.8525L104.374 85.8526C104.317 85.9313 104.277 86.0704 104.264 86.2946C104.251 86.5135 104.267 86.7686 104.284 87.0528L104.284 87.0529L104.285 87.0775C104.317 87.5995 104.354 88.1983 104.173 88.7566L104.173 88.7567C103.998 89.2955 103.622 89.7467 103.297 90.1377L103.282 90.1567L103.282 90.1567C103.095 90.381 102.928 90.5822 102.806 90.7726C102.683 90.9658 102.629 91.1124 102.629 91.2261C102.629 91.3397 102.683 91.4863 102.806 91.6796C102.928 91.87 103.095 92.0712 103.282 92.2955C103.282 92.2955 103.282 92.2955 103.282 92.2955L103.296 92.3134C103.622 92.7045 103.997 93.156 104.173 93.6952L104.173 93.6953C104.355 94.2554 104.317 94.856 104.285 95.3792L104.284 95.3996C104.267 95.6838 104.251 95.9389 104.264 96.1577C104.277 96.3819 104.317 96.521 104.374 96.5998C104.433 96.6807 104.56 96.7652 104.776 96.8487C104.985 96.9298 105.235 96.9942 105.5 97.0623L105.5 97.0623L105.522 97.068C106.026 97.1974 106.606 97.3461 107.077 97.6888L107.077 97.6889C107.542 98.0275 107.859 98.5293 108.135 98.9651L108.147 98.985L108.147 98.9851C108.302 99.2293 108.44 99.4482 108.581 99.6211C108.725 99.7973 108.844 99.8901 108.945 99.9228L108.946 99.9231C109.032 99.9511 109.171 99.9471 109.386 99.89C109.594 99.8345 109.829 99.7421 110.091 99.6389L110.113 99.6301C110.607 99.4356 111.172 99.2128 111.771 99.2128C112.37 99.2128 112.935 99.4356 113.429 99.6301L113.451 99.6389L113.451 99.639C113.713 99.7421 113.948 99.8345 114.157 99.8899C114.372 99.9469 114.511 99.9509 114.597 99.923L114.597 99.9228C114.698 99.8902 114.817 99.7974 114.961 99.6212C115.102 99.4483 115.241 99.2294 115.395 98.985L115.395 98.985L115.408 98.9651C115.683 98.5293 116 98.0275 116.465 97.6889L119.624 93.7782ZM119.624 93.7782L119.369 93.6955C119.188 94.2537 119.225 94.8529 119.257 95.3747L119.258 95.3991C119.275 95.6835 119.291 95.9387 119.278 96.1576C119.265 96.3818 119.225 96.5209 119.168 96.5996L119.168 96.5997M119.624 93.7782L119.168 96.5997M119.168 96.5997C119.109 96.6806 118.982 96.7652 118.766 96.8487C118.557 96.9298 118.307 96.9942 118.042 97.0623L118.109 97.3215M119.168 96.5997L118.109 97.3215M118.109 97.3215L118.042 97.0623L118.018 97.0684M118.109 97.3215L118.018 97.0684M112.252 81.5079C112.062 81.5672 111.9 81.6001 111.771 81.6001M112.252 81.5079L111.771 81.6001M111.771 81.6001C111.641 81.6001 111.48 81.5672 111.289 81.5079M111.771 81.6001L111.289 81.5079M111.289 81.5079C111.1 81.4491 110.9 81.3704 110.692 81.2884M111.289 81.5079L110.692 81.2884M110.692 81.2884C110.681 81.2839 110.669 81.2794 110.658 81.2748M110.692 81.2884L110.658 81.2748M110.658 81.2748C110.041 81.0311 109.232 80.7118 108.438 80.9705L110.658 81.2748ZM102.672 94.6667C102.675 94.8584 102.662 95.0695 102.648 95.2996L102.672 94.6667ZM118.018 97.0684C117.515 97.1977 116.936 97.3462 116.465 97.6889L118.018 97.0684Z" fill="#F5F5F5" stroke="#F5F5F5" stroke-width="0.535163"/>
<path d="M111.768 84.866C108.261 84.866 105.408 87.719 105.408 91.2262C105.408 94.7335 108.261 97.5865 111.768 97.5865C115.276 97.5865 118.129 94.7335 118.129 91.2262C118.129 87.719 115.276 84.866 111.768 84.866ZM111.768 95.9475C109.165 95.9475 107.047 93.8294 107.047 91.2262C107.047 88.623 109.165 86.505 111.768 86.505C114.372 86.505 116.49 88.623 116.49 91.2262C116.49 93.8294 114.372 95.9475 111.768 95.9475Z" fill="#F5F5F5" stroke="#F5F5F5" stroke-width="0.535163"/>
<path d="M113.345 89.0511L110.733 91.6625L110.194 91.123C109.874 90.8029 109.355 90.8029 109.035 91.123C108.715 91.4431 108.715 91.9617 109.035 92.2818L110.154 93.4008C110.314 93.5607 110.524 93.6408 110.733 93.6408C110.943 93.6408 111.153 93.5607 111.313 93.4008L114.504 90.21C114.824 89.8899 114.824 89.3712 114.504 89.0511C114.183 88.731 113.665 88.731 113.345 89.0511Z" fill="#F5F5F5" stroke="#F5F5F5" stroke-width="0.535163"/>
</svg>
