<svg width="205" height="205" viewBox="0 0 205 205" fill="none" xmlns="http://www.w3.org/2000/svg">
<path d="M190.522 51.2336L102.217 0.251126L13.9132 51.2336V153.199L102.217 204.181L190.522 153.199V51.2336Z" fill="#BB0823" stroke="#B5B5B5" stroke-width="0.434962"/>
<path d="M63.2311 142.769C61.7891 143.063 60.4941 143.21 59.3461 143.21C58.1981 143.21 57.2671 143.056 56.5531 142.748C55.8531 142.426 55.3071 141.936 54.9151 141.278C54.5371 140.606 54.2711 139.843 54.1171 138.989C53.9771 138.121 53.9071 137.043 53.9071 135.755C53.9071 134.467 53.9771 133.389 54.1171 132.521C54.2711 131.639 54.5371 130.862 54.9151 130.19C55.3071 129.518 55.8531 129.028 56.5531 128.72C57.2531 128.412 58.1631 128.258 59.2831 128.258C60.4031 128.258 61.7191 128.412 63.2311 128.72L63.1681 130.085C61.7541 129.833 60.4941 129.707 59.3881 129.707C57.8481 129.707 56.8261 130.169 56.3221 131.093C55.8321 132.003 55.5871 133.564 55.5871 135.776C55.5871 136.882 55.6291 137.771 55.7131 138.443C55.8111 139.115 55.9931 139.724 56.2591 140.27C56.5251 140.802 56.9101 141.187 57.4141 141.425C57.9321 141.649 58.6811 141.761 59.6611 141.761C60.6551 141.761 61.8241 141.635 63.1681 141.383L63.2311 142.769ZM72.5379 141.698L73.1469 141.635L73.1889 142.874C71.5929 143.098 70.2279 143.21 69.0939 143.21C67.5819 143.21 66.5109 142.776 65.8809 141.908C65.2509 141.026 64.9359 139.661 64.9359 137.813C64.9359 134.131 66.3989 132.29 69.3249 132.29C70.7389 132.29 71.7959 132.689 72.4959 133.487C73.1959 134.271 73.5459 135.51 73.5459 137.204L73.4619 138.401H66.5319C66.5319 139.563 66.7419 140.424 67.1619 140.984C67.5819 141.544 68.3099 141.824 69.3459 141.824C70.3959 141.824 71.4599 141.782 72.5379 141.698ZM71.9709 137.141C71.9709 135.853 71.7609 134.943 71.3409 134.411C70.9349 133.879 70.2629 133.613 69.3249 133.613C68.4009 133.613 67.7009 133.893 67.2249 134.453C66.7629 135.013 66.5249 135.909 66.5109 137.141H71.9709ZM76.0004 143V132.5H77.5544V133.928C78.7724 133.088 80.0534 132.535 81.3974 132.269V133.865C80.8094 133.977 80.1934 134.152 79.5494 134.39C78.9194 134.628 78.4364 134.838 78.1004 135.02L77.5754 135.293V143H76.0004ZM88.6992 133.865H85.3602V138.884C85.3602 140.088 85.4442 140.879 85.6122 141.257C85.7942 141.635 86.2142 141.824 86.8722 141.824L88.7412 141.698L88.8462 143C87.9082 143.154 87.1942 143.231 86.7042 143.231C85.6122 143.231 84.8562 142.965 84.4362 142.433C84.0162 141.901 83.8062 140.886 83.8062 139.388V133.865H82.3152V132.5H83.8062V129.287H85.3602V132.5H88.6992V133.865ZM90.6225 143V132.5H92.1975V143H90.6225ZM90.6225 130.127V128.3H92.1975V130.127H90.6225ZM97.2323 133.865V143H95.6573V133.865H94.3343V132.5H95.6573V131.555C95.6573 130.071 95.8673 129.063 96.2873 128.531C96.7073 127.985 97.4423 127.712 98.4923 127.712L100.613 127.859L100.592 129.161C99.8083 129.133 99.1573 129.119 98.6393 129.119C98.1353 129.119 97.7713 129.287 97.5473 129.623C97.3373 129.959 97.2323 130.61 97.2323 131.576V132.5H100.277V133.865H97.2323ZM102.168 143V132.5H103.743V143H102.168ZM102.168 130.127V128.3H103.743V130.127H102.168ZM110.689 132.29C111.151 132.29 111.935 132.374 113.041 132.542L113.545 132.605L113.482 133.886C112.362 133.76 111.536 133.697 111.004 133.697C109.814 133.697 109.002 133.984 108.568 134.558C108.148 135.118 107.938 136.168 107.938 137.708C107.938 139.234 108.134 140.298 108.526 140.9C108.932 141.502 109.765 141.803 111.025 141.803L113.503 141.614L113.566 142.916C112.264 143.112 111.291 143.21 110.647 143.21C109.009 143.21 107.875 142.79 107.245 141.95C106.629 141.11 106.321 139.696 106.321 137.708C106.321 135.706 106.657 134.306 107.329 133.508C108.001 132.696 109.121 132.29 110.689 132.29ZM123.322 135.671V141.047C123.364 141.565 123.77 141.873 124.54 141.971L124.477 143.21C123.371 143.21 122.538 142.93 121.978 142.37C120.718 142.93 119.458 143.21 118.198 143.21C117.232 143.21 116.497 142.937 115.993 142.391C115.489 141.845 115.237 141.061 115.237 140.039C115.237 139.017 115.496 138.268 116.014 137.792C116.532 137.302 117.344 137.001 118.45 136.889L121.747 136.574V135.671C121.747 134.957 121.593 134.446 121.285 134.138C120.977 133.83 120.557 133.676 120.025 133.676C118.905 133.676 117.743 133.746 116.539 133.886L115.888 133.949L115.825 132.752C117.365 132.444 118.73 132.29 119.92 132.29C121.11 132.29 121.971 132.563 122.503 133.109C123.049 133.655 123.322 134.509 123.322 135.671ZM116.854 139.955C116.854 141.243 117.386 141.887 118.45 141.887C119.402 141.887 120.34 141.726 121.264 141.404L121.747 141.236V137.771L118.639 138.065C118.009 138.121 117.554 138.303 117.274 138.611C116.994 138.919 116.854 139.367 116.854 139.955ZM132.477 145.667C132.477 146.927 131.826 147.557 130.524 147.557C129.88 147.557 129.355 147.522 128.949 147.452L128.718 147.41L128.781 146.402C129.327 146.444 129.789 146.465 130.167 146.465C130.783 146.465 131.091 146.199 131.091 145.667C131.091 145.191 130.783 144.953 130.167 144.953H129.285V143.147C128.053 143.007 127.192 142.51 126.702 141.656C126.226 140.802 125.988 139.43 125.988 137.54C125.988 135.65 126.324 134.306 126.996 133.508C127.668 132.696 128.788 132.29 130.356 132.29C130.818 132.29 131.602 132.374 132.708 132.542L133.212 132.605L133.149 133.886C132.029 133.76 131.203 133.697 130.671 133.697C129.481 133.697 128.669 133.984 128.235 134.558C127.815 135.118 127.605 136.168 127.605 137.708C127.605 139.234 127.801 140.298 128.193 140.9C128.599 141.502 129.432 141.803 130.692 141.803L133.17 141.614L133.233 142.916C131.931 143.112 130.958 143.21 130.314 143.21H130.146V144.029C130.972 144.029 131.567 144.141 131.931 144.365C132.295 144.589 132.477 145.023 132.477 145.667ZM142.989 135.671V141.047C143.031 141.565 143.437 141.873 144.207 141.971L144.144 143.21C143.038 143.21 142.205 142.93 141.645 142.37C140.385 142.93 139.125 143.21 137.865 143.21C136.899 143.21 136.164 142.937 135.66 142.391C135.156 141.845 134.904 141.061 134.904 140.039C134.904 139.017 135.163 138.268 135.681 137.792C136.199 137.302 137.011 137.001 138.117 136.889L141.414 136.574V135.671C141.414 134.957 141.26 134.446 140.952 134.138C140.644 133.83 140.224 133.676 139.692 133.676C138.572 133.676 137.41 133.746 136.206 133.886L135.555 133.949L135.492 132.752C137.032 132.444 138.397 132.29 139.587 132.29C140.777 132.29 141.638 132.563 142.17 133.109C142.716 133.655 142.989 134.509 142.989 135.671ZM136.521 139.955C136.521 141.243 137.053 141.887 138.117 141.887C139.069 141.887 140.007 141.726 140.931 141.404L141.414 141.236V137.771L138.306 138.065C137.676 138.121 137.221 138.303 136.941 138.611C136.661 138.919 136.521 139.367 136.521 139.955ZM140.511 130.148C140.217 130.148 139.706 129.987 138.978 129.665C138.264 129.329 137.816 129.161 137.634 129.161C137.312 129.161 136.878 129.371 136.332 129.791L136.059 130.001L135.681 128.993C136.381 128.265 137.018 127.901 137.592 127.901C137.886 127.901 138.397 128.062 139.125 128.384C139.853 128.706 140.294 128.867 140.448 128.867C140.756 128.867 141.176 128.664 141.708 128.258L141.96 128.069L142.317 129.077C141.673 129.791 141.071 130.148 140.511 130.148ZM145.634 137.729C145.634 135.811 145.977 134.425 146.663 133.571C147.349 132.717 148.504 132.29 150.128 132.29C151.766 132.29 152.921 132.717 153.593 133.571C154.279 134.425 154.622 135.811 154.622 137.729C154.622 139.647 154.3 141.04 153.656 141.908C153.012 142.776 151.836 143.21 150.128 143.21C148.42 143.21 147.244 142.776 146.6 141.908C145.956 141.04 145.634 139.647 145.634 137.729ZM147.251 137.708C147.251 139.234 147.433 140.305 147.797 140.921C148.175 141.537 148.952 141.845 150.128 141.845C151.318 141.845 152.095 141.544 152.459 140.942C152.823 140.326 153.005 139.248 153.005 137.708C153.005 136.168 152.802 135.111 152.396 134.537C151.99 133.949 151.234 133.655 150.128 133.655C149.036 133.655 148.28 133.949 147.86 134.537C147.454 135.111 147.251 136.168 147.251 137.708ZM76.8002 172.662V157.5H78.3542V158.256C79.4182 157.612 80.4682 157.29 81.5042 157.29C82.8342 157.29 83.8002 157.717 84.4022 158.571C85.0042 159.411 85.3052 160.804 85.3052 162.75C85.3052 164.696 84.9482 166.096 84.2342 166.95C83.5342 167.79 82.3652 168.21 80.7272 168.21C79.8732 168.21 79.0892 168.133 78.3752 167.979V172.662H76.8002ZM81.2732 158.697C80.8532 158.697 80.3982 158.767 79.9082 158.907C79.4322 159.047 79.0542 159.187 78.7742 159.327L78.3752 159.537V166.614C79.3692 166.768 80.1252 166.845 80.6432 166.845C81.7772 166.845 82.5682 166.523 83.0162 165.879C83.4782 165.235 83.7092 164.185 83.7092 162.729C83.7092 161.273 83.4992 160.237 83.0792 159.621C82.6732 159.005 82.0712 158.697 81.2732 158.697ZM95.2875 160.671V166.047C95.3295 166.565 95.7355 166.873 96.5055 166.971L96.4425 168.21C95.3365 168.21 94.5035 167.93 93.9435 167.37C92.6835 167.93 91.4235 168.21 90.1635 168.21C89.1975 168.21 88.4625 167.937 87.9585 167.391C87.4545 166.845 87.2025 166.061 87.2025 165.039C87.2025 164.017 87.4615 163.268 87.9795 162.792C88.4975 162.302 89.3095 162.001 90.4155 161.889L93.7125 161.574V160.671C93.7125 159.957 93.5585 159.446 93.2505 159.138C92.9425 158.83 92.5225 158.676 91.9905 158.676C90.8705 158.676 89.7085 158.746 88.5045 158.886L87.8535 158.949L87.7905 157.752C89.3305 157.444 90.6955 157.29 91.8855 157.29C93.0755 157.29 93.9365 157.563 94.4685 158.109C95.0145 158.655 95.2875 159.509 95.2875 160.671ZM88.8195 164.955C88.8195 166.243 89.3515 166.887 90.4155 166.887C91.3675 166.887 92.3055 166.726 93.2295 166.404L93.7125 166.236V162.771L90.6045 163.065C89.9745 163.121 89.5195 163.303 89.2395 163.611C88.9595 163.919 88.8195 164.367 88.8195 164.955ZM98.395 168V157.5H99.949V158.928C101.167 158.088 102.448 157.535 103.792 157.269V158.865C103.204 158.977 102.588 159.152 101.944 159.39C101.314 159.628 100.831 159.838 100.495 160.02L99.97 160.293V168H98.395ZM109.377 157.29C109.839 157.29 110.623 157.374 111.729 157.542L112.233 157.605L112.17 158.886C111.05 158.76 110.224 158.697 109.692 158.697C108.502 158.697 107.69 158.984 107.256 159.558C106.836 160.118 106.626 161.168 106.626 162.708C106.626 164.234 106.822 165.298 107.214 165.9C107.62 166.502 108.453 166.803 109.713 166.803L112.191 166.614L112.254 167.916C110.952 168.112 109.979 168.21 109.335 168.21C107.697 168.21 106.563 167.79 105.933 166.95C105.317 166.11 105.009 164.696 105.009 162.708C105.009 160.706 105.345 159.306 106.017 158.508C106.689 157.696 107.809 157.29 109.377 157.29ZM114.596 168V157.5H116.171V168H114.596ZM114.596 155.127V153.3H116.171V155.127H114.596ZM126.603 160.671V166.047C126.645 166.565 127.051 166.873 127.821 166.971L127.758 168.21C126.652 168.21 125.819 167.93 125.259 167.37C123.999 167.93 122.739 168.21 121.479 168.21C120.513 168.21 119.778 167.937 119.274 167.391C118.77 166.845 118.518 166.061 118.518 165.039C118.518 164.017 118.777 163.268 119.295 162.792C119.813 162.302 120.625 162.001 121.731 161.889L125.028 161.574V160.671C125.028 159.957 124.874 159.446 124.566 159.138C124.258 158.83 123.838 158.676 123.306 158.676C122.186 158.676 121.024 158.746 119.82 158.886L119.169 158.949L119.106 157.752C120.646 157.444 122.011 157.29 123.201 157.29C124.391 157.29 125.252 157.563 125.784 158.109C126.33 158.655 126.603 159.509 126.603 160.671ZM120.135 164.955C120.135 166.243 120.667 166.887 121.731 166.887C122.683 166.887 123.621 166.726 124.545 166.404L125.028 166.236V162.771L121.92 163.065C121.29 163.121 120.835 163.303 120.555 163.611C120.275 163.919 120.135 164.367 120.135 164.955ZM129.836 168V152.922H131.411V168H129.836Z" fill="#F5F5F5"/>
<path d="M115.288 33.7289L115.289 33.7295V33.7295L129.079 47.5266C129.08 47.5268 129.08 47.527 129.08 47.5272C129.083 47.5303 129.086 47.5332 129.089 47.536C129.159 47.6085 129.206 47.6882 129.24 47.7614L115.288 33.7289ZM115.288 33.7289C115.285 33.7264 115.283 33.7241 115.281 33.722M115.288 33.7289L115.281 33.722M114.977 33.5406L114.977 33.5406C114.981 33.5418 114.982 33.5421 114.984 33.5427C114.986 33.5434 114.989 33.5444 114.999 33.5477C115.012 33.5518 115.032 33.5587 115.054 33.5692M114.977 33.5406L115.054 33.5692M114.977 33.5406C114.914 33.5187 114.85 33.5047 114.784 33.4986C114.78 33.4976 114.776 33.4967 114.772 33.4957C114.756 33.4925 114.735 33.4893 114.709 33.4893H75.8918C75.4392 33.4893 75.0723 33.8562 75.0723 34.3088V104.955C75.0723 105.407 75.4392 105.774 75.8918 105.774H128.501C128.953 105.774 129.32 105.407 129.32 104.955V48.1068C129.32 48.0812 129.317 48.0596 129.314 48.0441C129.313 48.0396 129.312 48.0354 129.311 48.0316M114.977 33.5406L129.311 48.0316M115.054 33.5692C115.128 33.6036 115.208 33.6513 115.281 33.722M115.054 33.5692L115.281 33.722M129.311 48.0316C129.305 47.9657 129.291 47.9016 129.269 47.8391C129.268 47.8353 129.268 47.8344 129.267 47.8323C129.266 47.8302 129.265 47.8267 129.262 47.8167C129.258 47.8043 129.251 47.7843 129.24 47.7619L129.311 48.0316ZM129.113 47.5673C129.113 47.5674 129.113 47.5673 129.113 47.5671L129.113 47.5673ZM115.528 47.2873V36.2879L126.523 47.2873H115.528ZM76.7113 35.1283H113.889V48.1068C113.889 48.5594 114.256 48.9263 114.709 48.9263H127.681V104.135H76.7113V35.1283Z" fill="#F5F5F5" stroke="#F5F5F5" stroke-width="0.535163"/>
<path d="M83.3605 42.0277H104.654C105.107 42.0277 105.474 41.6607 105.474 41.2082C105.474 40.7556 105.107 40.3887 104.654 40.3887H83.3605C82.9079 40.3887 82.541 40.7556 82.541 41.2082C82.541 41.6607 82.9079 42.0277 83.3605 42.0277Z" fill="#F5F5F5" stroke="#F5F5F5" stroke-width="0.535163"/>
<path d="M83.3605 50.8919H108.518C108.97 50.8919 109.337 50.525 109.337 50.0724C109.337 49.6199 108.97 49.2529 108.518 49.2529H83.3605C82.9079 49.2529 82.541 49.6199 82.541 50.0724C82.541 50.525 82.9079 50.8919 83.3605 50.8919Z" fill="#F5F5F5" stroke="#F5F5F5" stroke-width="0.535163"/>
<path d="M83.3605 59.7581H120.064C120.517 59.7581 120.884 59.3912 120.884 58.9386C120.884 58.4861 120.517 58.1191 120.064 58.1191H83.3605C82.9079 58.1191 82.541 58.4861 82.541 58.9386C82.541 59.3912 82.9079 59.7581 83.3605 59.7581Z" fill="#F5F5F5" stroke="#F5F5F5" stroke-width="0.535163"/>
<path d="M83.3605 68.6229H112.933C113.386 68.6229 113.753 68.256 113.753 67.8034C113.753 67.3508 113.386 66.9839 112.933 66.9839H83.3605C82.9079 66.9839 82.541 67.3508 82.541 67.8034C82.541 68.256 82.9079 68.6229 83.3605 68.6229Z" fill="#F5F5F5" stroke="#F5F5F5" stroke-width="0.535163"/>
<path d="M120.884 76.6691C120.884 76.2165 120.517 75.8496 120.064 75.8496H83.3605C82.9079 75.8496 82.541 76.2165 82.541 76.6691C82.541 77.1217 82.9079 77.4886 83.3605 77.4886H120.064C120.517 77.4886 120.884 77.1217 120.884 76.6691Z" fill="#F5F5F5" stroke="#F5F5F5" stroke-width="0.535163"/>
<path d="M120.928 88.2499L120.928 88.25C120.962 88.3551 121.034 88.4807 121.141 88.6311C121.248 88.78 121.378 88.9369 121.521 89.1079L121.521 89.108C121.528 89.1172 121.536 89.1264 121.544 89.1357C121.982 89.6622 122.552 90.3471 122.552 91.2256C122.552 92.1033 121.982 92.7877 121.545 93.3142L121.521 93.343L121.521 93.343C121.378 93.5141 121.248 93.6709 121.141 93.8199C121.034 93.9702 120.962 94.0959 120.928 94.2012L120.928 94.2014C120.89 94.3191 120.872 94.4731 120.87 94.6658C120.867 94.8574 120.88 95.0684 120.894 95.2985L120.894 95.2986C120.895 95.311 120.896 95.3235 120.896 95.3361C120.938 96.005 120.991 96.8786 120.493 97.5636L120.493 97.5637C119.99 98.2546 119.138 98.4729 118.485 98.6402L118.45 98.6493C118.45 98.6493 118.45 98.6493 118.45 98.6493C118.228 98.7062 118.025 98.7585 117.846 98.8189C117.665 98.8798 117.527 98.943 117.43 99.0136C117.336 99.0819 117.235 99.1918 117.123 99.3433C117.012 99.4936 116.901 99.6688 116.781 99.86L116.781 99.8601C116.774 99.8709 116.767 99.8819 116.76 99.8929C116.397 100.467 115.925 101.214 115.104 101.481L115.103 101.481C114.307 101.738 113.5 101.419 112.882 101.176C112.872 101.172 112.861 101.168 112.85 101.163L112.85 101.163C112.642 101.081 112.442 101.003 112.253 100.944C112.062 100.884 111.901 100.851 111.771 100.851C111.642 100.851 111.481 100.884 111.29 100.944C111.1 101.002 110.9 101.081 110.692 101.163L110.67 101.172C110.206 101.355 109.642 101.577 109.064 101.577C108.858 101.577 108.649 101.549 108.439 101.481L108.439 101.481C107.616 101.214 107.144 100.466 106.781 99.8913L106.762 99.86C106.641 99.6688 106.53 99.4936 106.419 99.3433C106.307 99.1919 106.206 99.082 106.113 99.0137C106.016 98.9432 105.877 98.8799 105.697 98.819C105.517 98.7586 105.314 98.7063 105.093 98.6495L105.093 98.6495C105.081 98.6464 105.069 98.6433 105.056 98.6402C104.403 98.4727 103.552 98.2543 103.049 97.5637C102.551 96.8792 102.605 96.006 102.646 95.3376C102.647 95.3247 102.647 95.3119 102.648 95.2992L120.928 88.2499ZM120.928 88.2499C120.89 88.132 120.872 87.9778 120.87 87.785C120.867 87.5933 120.88 87.3822 120.894 87.1521C120.895 87.1394 120.895 87.1265 120.896 87.1136C120.937 86.4449 120.991 85.5718 120.493 84.8873C119.99 84.1963 119.138 83.9781 118.484 83.8107C118.473 83.8077 118.461 83.8047 118.449 83.8017C118.228 83.7449 118.025 83.6927 117.845 83.6322C117.665 83.5714 117.526 83.5081 117.429 83.4376C117.336 83.3693 117.235 83.2595 117.123 83.1079C117.012 82.9576 116.901 82.7824 116.78 82.5913L120.928 88.2499ZM112.85 81.2879L112.85 81.2878C112.863 81.2826 112.876 81.2773 112.89 81.272C113.506 81.0292 114.311 80.7118 115.103 80.97C115.926 81.2373 116.398 81.9857 116.761 82.5599L112.85 81.2879ZM112.85 81.2879C112.642 81.3699 112.442 81.4486 112.252 81.5074M112.85 81.2879L112.252 81.5074M106.761 82.5912L106.761 82.5912C106.768 82.5803 106.775 82.5693 106.782 82.5583C107.145 81.9845 107.617 81.237 108.438 80.97L106.761 82.5912ZM106.761 82.5912C106.641 82.7824 106.53 82.9576 106.419 83.1079C106.307 83.2594 106.206 83.3692 106.112 83.4375C106.015 83.5081 105.877 83.5714 105.696 83.6322C105.517 83.6927 105.314 83.7449 105.093 83.8017L105.092 83.8017M106.761 82.5912L105.092 83.8017M105.092 83.8017C105.08 83.8048 105.068 83.808 105.056 83.8111C104.403 83.9786 103.552 84.1971 103.049 84.8876L103.049 84.8876M105.092 83.8017L103.049 84.8876M103.049 84.8876C102.551 85.5726 102.604 86.4459 102.646 87.1148C102.646 87.1274 102.647 87.1399 102.648 87.1524L102.648 87.1525M103.049 84.8876L102.648 87.1525M102.648 87.1525C102.662 87.3826 102.675 87.5936 102.672 87.7852C102.67 87.9779 102.652 88.132 102.614 88.2499L102.614 88.2501M102.648 87.1525L102.614 88.2501M102.614 88.2501C102.58 88.3553 102.508 88.4809 102.401 88.6313C102.294 88.7802 102.164 88.937 102.021 89.1083C102.014 89.1176 102.006 89.127 101.998 89.1364C101.56 89.6628 100.99 90.3474 100.99 91.2256C100.99 92.1033 101.56 92.7877 101.997 93.3142C102.006 93.3238 102.013 93.3334 102.021 93.343L102.021 93.343M102.614 88.2501L102.021 93.343M102.021 93.343C102.164 93.5141 102.294 93.6709 102.401 93.8199C102.508 93.9702 102.58 94.0959 102.614 94.2012L102.614 94.2013M102.021 93.343L102.614 94.2013M102.614 94.2013C102.652 94.3192 102.67 94.4734 102.672 94.6662M102.614 94.2013L102.672 94.6662M119.624 93.7777L119.369 93.695C119.545 93.1555 119.92 92.7041 120.246 92.313L120.26 92.295C120.26 92.295 120.26 92.295 120.26 92.295C120.447 92.0707 120.614 91.8695 120.736 91.6791C120.859 91.4858 120.913 91.3392 120.913 91.2256C120.913 91.1119 120.859 90.9652 120.736 90.7719C120.614 90.5815 120.447 90.3803 120.26 90.156L120.26 90.1559L120.245 90.1371C119.919 89.746 119.544 89.2951 119.369 88.7566L119.369 88.7564C119.187 88.1964 119.225 87.5958 119.257 87.0724L119.258 87.0518C119.258 87.0518 119.258 87.0517 119.258 87.0517C119.275 86.7677 119.291 86.5127 119.278 86.2938C119.265 86.0696 119.225 85.9305 119.168 85.8517C119.109 85.7708 118.982 85.6862 118.766 85.6027C118.557 85.5217 118.307 85.4572 118.042 85.3891L118.022 85.384C117.517 85.2547 116.937 85.106 116.465 84.7629L116.465 84.7629C116 84.4243 115.683 83.9225 115.407 83.4866L115.395 83.4668L115.395 83.4667C115.24 83.2224 115.102 83.0035 114.961 82.8307C114.817 82.6544 114.698 82.5616 114.597 82.529L114.597 82.5289C114.511 82.5009 114.371 82.5052 114.156 82.5621C113.947 82.6175 113.712 82.7097 113.451 82.8128C113.451 82.8128 113.451 82.8128 113.451 82.8128L113.431 82.8206C112.937 83.0154 112.371 83.2386 111.771 83.2386C111.172 83.2386 110.606 83.0158 110.112 82.8212L110.091 82.8128L110.091 82.8128C109.882 82.7303 109.688 82.6542 109.51 82.5982C109.33 82.5416 109.184 82.5121 109.071 82.5121C109.017 82.5121 108.976 82.5187 108.945 82.5288L108.945 82.5289C108.844 82.5616 108.725 82.6544 108.581 82.8306C108.44 83.0034 108.301 83.2223 108.147 83.4667L108.147 83.4668L108.134 83.4867C107.859 83.9225 107.542 84.4243 107.077 84.7629L107.077 84.7629C106.606 85.1055 106.026 85.2543 105.523 85.3836C105.515 85.3856 105.508 85.3875 105.5 85.3894L105.5 85.3894C105.235 85.4575 104.985 85.5219 104.776 85.603C104.56 85.6865 104.433 85.7711 104.374 85.852L104.374 85.8521C104.317 85.9308 104.277 86.0699 104.264 86.2941C104.251 86.513 104.267 86.7681 104.284 87.0524L104.284 87.0524L104.285 87.077C104.317 87.599 104.354 88.1978 104.173 88.7562L104.173 88.7562C103.998 89.295 103.622 89.7462 103.297 90.1372L103.282 90.1562L103.282 90.1562C103.095 90.3805 102.928 90.5817 102.806 90.7721C102.683 90.9653 102.629 91.1119 102.629 91.2256C102.629 91.3392 102.683 91.4858 102.806 91.6791C102.928 91.8695 103.095 92.0707 103.282 92.295C103.282 92.295 103.282 92.295 103.282 92.295L103.296 92.313C103.622 92.7041 103.997 93.1555 104.173 93.6947L104.173 93.6948C104.355 94.2549 104.317 94.8555 104.285 95.3787L104.284 95.3991C104.267 95.6834 104.251 95.9384 104.264 96.1572C104.277 96.3814 104.317 96.5205 104.374 96.5993C104.433 96.6802 104.56 96.7647 104.776 96.8482C104.985 96.9293 105.235 96.9937 105.5 97.0618L105.5 97.0618L105.522 97.0675C106.026 97.1969 106.606 97.3456 107.077 97.6884L107.077 97.6884C107.542 98.027 107.859 98.5288 108.135 98.9646L108.147 98.9845L108.147 98.9846C108.302 99.2288 108.44 99.4477 108.581 99.6206C108.725 99.7968 108.844 99.8896 108.945 99.9223L108.946 99.9226C109.032 99.9507 109.171 99.9466 109.386 99.8895C109.594 99.834 109.829 99.7416 110.091 99.6384L110.113 99.6296C110.607 99.4351 111.172 99.2123 111.771 99.2123C112.37 99.2123 112.935 99.4351 113.429 99.6297L113.451 99.6384L113.451 99.6385C113.713 99.7416 113.948 99.834 114.157 99.8894C114.372 99.9464 114.511 99.9504 114.597 99.9225L114.597 99.9223C114.698 99.8897 114.817 99.7969 114.961 99.6207C115.102 99.4478 115.241 99.2289 115.395 98.9845L115.395 98.9845L115.408 98.9646C115.683 98.5288 116 98.027 116.465 97.6884L119.624 93.7777ZM119.624 93.7777L119.369 93.695C119.188 94.2532 119.225 94.8524 119.257 95.3742L119.258 95.3986C119.275 95.683 119.291 95.9382 119.278 96.1571C119.265 96.3814 119.225 96.5204 119.168 96.5992L119.168 96.5992M119.624 93.7777L119.168 96.5992M119.168 96.5992C119.109 96.6801 118.982 96.7647 118.766 96.8482C118.557 96.9293 118.307 96.9937 118.042 97.0618L118.109 97.321M119.168 96.5992L118.109 97.321M118.109 97.321L118.042 97.0618L118.018 97.0679M118.109 97.321L118.018 97.0679M112.252 81.5074C112.062 81.5668 111.9 81.5996 111.771 81.5996M112.252 81.5074L111.771 81.5996M111.771 81.5996C111.641 81.5996 111.48 81.5667 111.289 81.5074M111.771 81.5996L111.289 81.5074M111.289 81.5074C111.1 81.4486 110.9 81.3699 110.692 81.2879M111.289 81.5074L110.692 81.2879M110.692 81.2879C110.681 81.2834 110.669 81.2789 110.658 81.2743M110.692 81.2879L110.658 81.2743M110.658 81.2743C110.041 81.0306 109.232 80.7113 108.438 80.97L110.658 81.2743ZM102.672 94.6662C102.675 94.8579 102.662 95.069 102.648 95.2991L102.672 94.6662ZM118.018 97.0679C117.515 97.1972 116.936 97.3458 116.465 97.6884L118.018 97.0679Z" fill="#F5F5F5" stroke="#F5F5F5" stroke-width="0.535163"/>
<path d="M111.768 84.8655C108.261 84.8655 105.408 87.7185 105.408 91.2258C105.408 94.733 108.261 97.586 111.768 97.586C115.276 97.586 118.129 94.733 118.129 91.2258C118.129 87.7185 115.276 84.8655 111.768 84.8655ZM111.768 95.947C109.165 95.947 107.047 93.829 107.047 91.2258C107.047 88.6226 109.165 86.5045 111.768 86.5045C114.372 86.5045 116.49 88.6226 116.49 91.2258C116.49 93.829 114.372 95.947 111.768 95.947Z" fill="#F5F5F5" stroke="#F5F5F5" stroke-width="0.535163"/>
<path d="M113.345 89.0506L110.733 91.662L110.194 91.1225C109.874 90.8024 109.355 90.8024 109.035 91.1225C108.715 91.4426 108.715 91.9613 109.035 92.2813L110.154 93.4003C110.314 93.5602 110.524 93.6403 110.733 93.6403C110.943 93.6403 111.153 93.5602 111.313 93.4003L114.504 90.2095C114.824 89.8894 114.824 89.3707 114.504 89.0506C114.183 88.7305 113.665 88.7305 113.345 89.0506Z" fill="#F5F5F5" stroke="#F5F5F5" stroke-width="0.535163"/>
</svg>
