<svg width="265" height="221" viewBox="0 0 265 221" fill="none" xmlns="http://www.w3.org/2000/svg">
<g filter="url(#filter0_d)">
<rect x="10" y="8" width="235.567" height="191" rx="7.37693" fill="#F5F5F5"/>
<rect x="10.2305" y="8.23053" width="235.106" height="190.539" rx="7.1464" stroke="#B5B5B5" stroke-width="0.461058"/>
</g>
<path d="M92.5625 161.254V143.954H102.912V145.654H94.4875V152.404H101.612V154.104H94.4875V161.254H92.5625ZM109.757 148.504C111.707 148.504 113.082 149.013 113.882 150.029C114.699 151.046 115.107 152.696 115.107 154.979C115.107 157.263 114.724 158.921 113.957 159.954C113.191 160.988 111.791 161.504 109.757 161.504C107.724 161.504 106.324 160.988 105.557 159.954C104.791 158.921 104.407 157.263 104.407 154.979C104.407 152.696 104.816 151.046 105.632 150.029C106.449 149.013 107.824 148.504 109.757 148.504ZM109.757 159.879C111.174 159.879 112.099 159.521 112.532 158.804C112.966 158.071 113.182 156.788 113.182 154.954C113.182 153.121 112.941 151.863 112.457 151.179C111.974 150.479 111.074 150.129 109.757 150.129C108.457 150.129 107.557 150.479 107.057 151.179C106.574 151.863 106.332 153.121 106.332 154.954C106.332 156.771 106.549 158.046 106.982 158.779C107.432 159.513 108.357 159.879 109.757 159.879ZM107.007 145.204L112.407 142.754L113.057 144.354L107.532 146.479L107.007 145.204ZM118.165 161.254V148.754H120.015V150.454C121.465 149.454 122.99 148.796 124.59 148.479V150.379C123.89 150.513 123.157 150.721 122.39 151.004C121.64 151.288 121.065 151.538 120.665 151.754L120.04 152.079V161.254H118.165ZM134.608 148.754H136.483V161.254H134.608V160.379C133.358 161.129 132.124 161.504 130.908 161.504C129.208 161.504 128.074 161.063 127.508 160.179C126.958 159.296 126.683 157.663 126.683 155.279V148.754H128.558V155.254C128.558 157.071 128.716 158.288 129.033 158.904C129.349 159.521 130.066 159.829 131.183 159.829C131.733 159.829 132.291 159.754 132.858 159.604C133.424 159.438 133.858 159.279 134.158 159.129L134.608 158.904V148.754ZM141.964 161.254H140.089V148.754H141.939V149.629C143.189 148.879 144.406 148.504 145.589 148.504C147.139 148.504 148.222 148.929 148.839 149.779C149.389 149.446 150.097 149.154 150.964 148.904C151.847 148.638 152.622 148.504 153.289 148.504C154.956 148.504 156.072 148.954 156.639 149.854C157.222 150.738 157.514 152.338 157.514 154.654V161.254H155.639V154.704C155.639 152.971 155.472 151.788 155.139 151.154C154.806 150.504 154.097 150.179 153.014 150.179C152.464 150.179 151.897 150.263 151.314 150.429C150.731 150.579 150.281 150.729 149.964 150.879L149.489 151.104C149.706 151.654 149.814 152.871 149.814 154.754V161.254H147.939V154.804C147.939 153.004 147.772 151.788 147.439 151.154C147.122 150.504 146.414 150.179 145.314 150.179C144.781 150.179 144.231 150.263 143.664 150.429C143.114 150.579 142.689 150.729 142.389 150.879L141.964 151.104V161.254Z" fill="#423F40"/>
<path d="M101.128 62.7386C98.8628 62.6479 96.7208 61.6878 95.1505 60.0595C93.5801 58.4311 92.7031 56.2607 92.7031 54.0027C92.7031 51.7448 93.5801 49.5744 95.1505 47.946C96.7208 46.3177 98.8628 45.3576 101.128 45.2668C103.393 45.3576 105.535 46.3177 107.105 47.946C108.675 49.5744 109.552 51.7448 109.552 54.0027C109.552 56.2607 108.675 58.4311 107.105 60.0595C105.535 61.6878 103.393 62.6479 101.128 62.7386ZM101.128 48.0917C99.6041 48.1659 98.1674 48.8211 97.1154 49.9215C96.0633 51.0219 95.4766 52.4832 95.4766 54.0027C95.4766 55.5223 96.0633 56.9836 97.1154 58.084C98.1674 59.1844 99.6041 59.8396 101.128 59.9138C102.683 59.9067 104.174 59.2939 105.281 58.2065C106.389 57.1191 107.025 55.6433 107.055 54.0945C107.049 52.5383 106.439 51.0447 105.353 49.9259C104.267 48.8072 102.788 48.15 101.227 48.0917H101.128Z" fill="#BB0823"/>
<path d="M101.124 85.4364C95.0263 85.3963 89.0216 83.9457 83.5831 81.1991C83.3445 81.0826 83.1435 80.9017 83.0031 80.6769C82.8627 80.4522 82.7885 80.1926 82.7891 79.9279C82.7891 71.2132 91.0134 64.1369 101.124 64.1369C105.813 64.076 110.372 65.678 113.985 68.6567C115.676 70.0221 117.042 71.7434 117.986 73.697C118.93 75.6506 119.428 77.7882 119.444 79.9562C119.445 80.2209 119.371 80.4804 119.23 80.7052C119.09 80.9299 118.889 81.1109 118.65 81.2274C113.212 83.9572 107.213 85.3977 101.124 85.4364ZM85.625 79.024C90.4391 81.3801 95.7315 82.6052 101.095 82.6052C106.459 82.6052 111.752 81.3801 116.566 79.024C116.416 77.4291 115.948 75.8801 115.188 74.4683C114.428 73.0566 113.392 71.8105 112.142 70.8036C109.035 68.2525 105.121 66.8813 101.095 66.9335C92.9277 66.9335 86.1922 72.2867 85.625 79.024Z" fill="#BB0823"/>
<path d="M132.859 78.4166C132.288 78.4254 131.73 78.2556 131.262 77.9313C130.794 77.6069 130.439 77.1443 130.249 76.6087L126.974 66.9335H122.862C121.209 66.9298 119.626 66.2734 118.459 65.1083C117.292 63.9432 116.637 62.3646 116.637 60.7189V51.4815C116.637 49.8357 117.292 48.2572 118.459 47.0921C119.626 45.927 121.209 45.2706 122.862 45.2668H167.302C168.955 45.2706 170.54 45.9265 171.709 47.0912C172.878 48.2559 173.537 49.8345 173.541 51.4815V60.7189C173.537 62.3659 172.878 63.9445 171.709 65.1092C170.54 66.2739 168.955 66.9298 167.302 66.9335H138.658L135.468 76.6087C135.278 77.1443 134.924 77.6069 134.455 77.9313C133.987 78.2556 133.429 78.4254 132.859 78.4166ZM122.933 48.0917C122.032 48.0954 121.171 48.4542 120.535 49.0895C119.9 49.7249 119.544 50.5849 119.544 51.4815V60.7189C119.544 61.6154 119.9 62.4755 120.535 63.1108C121.171 63.7462 122.032 64.1049 122.933 64.1087H127.116C127.692 64.106 128.255 64.2849 128.724 64.6197C129.192 64.9545 129.543 65.4282 129.725 65.9731L132.929 75.4223L136.12 65.9731C136.315 65.4361 136.668 64.9705 137.134 64.6376C137.6 64.3048 138.156 64.1204 138.729 64.1087H167.302C168.203 64.105 169.066 63.7466 169.704 63.1117C170.341 62.4768 170.701 61.6167 170.705 60.7189V51.4815C170.701 50.5837 170.341 49.7236 169.704 49.0887C169.066 48.4538 168.203 48.0954 167.302 48.0917H122.933Z" fill="#BB0823"/>
<path d="M164.762 54.151H128.234C127.858 54.151 127.498 54.0022 127.232 53.7373C126.966 53.4725 126.816 53.1132 126.816 52.7386C126.816 52.364 126.966 52.0047 127.232 51.7399C127.498 51.475 127.858 51.3262 128.234 51.3262H164.762C165.138 51.3262 165.499 51.475 165.765 51.7399C166.03 52.0047 166.18 52.364 166.18 52.7386C166.18 53.1132 166.03 53.4725 165.765 53.7373C165.499 54.0022 165.138 54.151 164.762 54.151Z" fill="#BB0823"/>
<path d="M146.498 60.8742H128.234C127.858 60.8742 127.498 60.7254 127.232 60.4605C126.966 60.1956 126.816 59.8363 126.816 59.4617C126.816 59.0871 126.966 58.7279 127.232 58.463C127.498 58.1981 127.858 58.0493 128.234 58.0493H146.498C146.874 58.0493 147.235 58.1981 147.501 58.463C147.767 58.7279 147.916 59.0871 147.916 59.4617C147.916 59.8363 147.767 60.1956 147.501 60.4605C147.235 60.7254 146.874 60.8742 146.498 60.8742Z" fill="#BB0823"/>
<path d="M155.209 107.837C152.904 107.83 150.694 106.922 149.055 105.308C147.416 103.694 146.479 101.503 146.445 99.2075C146.438 96.8832 147.351 94.6497 148.986 92.9917C150.621 91.3337 152.847 90.385 155.18 90.3516C157.504 90.3516 159.733 91.2712 161.377 92.9082C163.02 94.5452 163.943 96.7654 163.943 99.0804C163.943 101.395 163.02 103.616 161.377 105.253C159.733 106.89 157.504 107.809 155.18 107.809L155.209 107.837ZM155.209 93.2047C153.627 93.2306 152.12 93.8745 151.011 94.9974C149.902 96.1204 149.281 97.6324 149.281 99.2075C149.286 100.179 149.531 101.135 149.995 101.99C150.46 102.845 151.129 103.572 151.943 104.108C152.757 104.643 153.692 104.97 154.663 105.06C155.635 105.149 156.614 104.998 157.513 104.62C158.412 104.243 159.203 103.65 159.817 102.894C160.431 102.138 160.847 101.243 161.03 100.289C161.214 99.3339 161.157 98.349 160.866 97.4212C160.575 96.4934 160.059 95.6515 159.363 94.9702C158.822 94.4179 158.176 93.9775 157.463 93.6746C156.75 93.3716 155.984 93.2119 155.209 93.2047Z" fill="#BB0823"/>
<path d="M155.208 130.549C149.107 130.505 143.098 129.055 137.653 126.312C137.415 126.196 137.214 126.015 137.073 125.79C136.933 125.565 136.859 125.306 136.859 125.041C136.878 122.873 137.377 120.736 138.32 118.783C139.264 116.83 140.629 115.108 142.319 113.742C145.935 110.746 150.505 109.134 155.208 109.193C165.318 109.193 173.543 116.256 173.543 124.984C173.543 125.249 173.469 125.509 173.329 125.734C173.188 125.958 172.987 126.139 172.749 126.256C167.314 129.019 161.31 130.489 155.208 130.549ZM139.738 124.123C144.552 126.479 149.844 127.704 155.208 127.704C160.572 127.704 165.864 126.479 170.678 124.123C170.14 117.386 163.404 112.032 155.208 112.032C151.182 111.98 147.268 113.351 144.162 115.903C142.911 116.909 141.876 118.156 141.116 119.567C140.356 120.979 139.887 122.528 139.738 124.123Z" fill="#BB0823"/>
<path d="M123.471 123.516C122.894 123.521 122.33 123.343 121.861 123.008C121.392 122.672 121.043 122.197 120.862 121.651L117.587 111.92H89.0282C87.393 111.92 85.823 111.281 84.6561 110.14C83.4892 108.998 82.8188 107.447 82.7891 105.818V96.5807C82.7928 94.9349 83.4518 93.3578 84.6215 92.1954C85.7911 91.0329 87.376 90.3801 89.0282 90.3801H133.468C135.118 90.3839 136.699 91.0383 137.866 92.2004C139.032 93.3624 139.689 94.9374 139.693 96.5807V105.818C139.693 107.464 139.038 109.042 137.871 110.207C136.704 111.373 135.12 112.029 133.468 112.033H129.214L126.009 121.651C125.829 122.197 125.479 122.672 125.01 123.008C124.541 123.343 123.978 123.521 123.4 123.516H123.471ZM89.0282 93.205C88.1281 93.205 87.2646 93.5602 86.6268 94.1929C85.989 94.8255 85.6288 95.6841 85.625 96.5807V105.818C85.6288 106.716 85.9885 107.576 86.6259 108.211C87.2634 108.846 88.1268 109.204 89.0282 109.208H117.672C118.245 109.22 118.801 109.404 119.267 109.737C119.732 110.07 120.086 110.535 120.281 111.072L123.471 120.521L126.747 111.072C126.929 110.527 127.279 110.054 127.748 109.719C128.217 109.384 128.779 109.205 129.356 109.208H133.61C134.51 109.204 135.372 108.845 136.007 108.21C136.642 107.575 136.999 106.715 136.999 105.818V96.5807C136.999 96.1374 136.911 95.6984 136.741 95.2889C136.571 94.8793 136.321 94.5072 136.006 94.1937C135.692 93.8803 135.318 93.6316 134.907 93.462C134.496 93.2923 134.055 93.205 133.61 93.205H89.0282Z" fill="#BB0823"/>
<path d="M128.169 99.2077H91.5703C91.1943 99.2077 90.8336 99.0589 90.5677 98.794C90.3017 98.5291 90.1523 98.1698 90.1523 97.7952C90.1523 97.4206 90.3017 97.0614 90.5677 96.7965C90.8336 96.5316 91.1943 96.3828 91.5703 96.3828H128.169C128.545 96.3828 128.905 96.5316 129.171 96.7965C129.437 97.0614 129.587 97.4206 129.587 97.7952C129.587 98.1698 129.437 98.5291 129.171 98.794C128.905 99.0589 128.545 99.2077 128.169 99.2077Z" fill="#BB0823"/>
<path d="M128.167 105.973H109.832C109.456 105.973 109.095 105.824 108.829 105.56C108.563 105.295 108.414 104.935 108.414 104.561C108.414 104.186 108.563 103.827 108.829 103.562C109.095 103.297 109.456 103.148 109.832 103.148H128.167C128.543 103.148 128.903 103.297 129.169 103.562C129.435 103.827 129.585 104.186 129.585 104.561C129.585 104.935 129.435 105.295 129.169 105.56C128.903 105.824 128.543 105.973 128.167 105.973Z" fill="#BB0823"/>
<defs>
<filter id="filter0_d" x="0.317785" y="0.623075" width="264.152" height="219.586" filterUnits="userSpaceOnUse" color-interpolation-filters="sRGB">
<feFlood flood-opacity="0" result="BackgroundImageFix"/>
<feColorMatrix in="SourceAlpha" type="matrix" values="0 0 0 0 0 0 0 0 0 0 0 0 0 0 0 0 0 0 127 0"/>
<feMorphology radius="1.84423" operator="dilate" in="SourceAlpha" result="effect1_dropShadow"/>
<feOffset dx="4.61058" dy="6.91587"/>
<feGaussianBlur stdDeviation="6.22428"/>
<feColorMatrix type="matrix" values="0 0 0 0 0.737255 0 0 0 0 0.0470588 0 0 0 0 0.141176 0 0 0 0.13 0"/>
<feBlend mode="normal" in2="BackgroundImageFix" result="effect1_dropShadow"/>
<feBlend mode="normal" in="SourceGraphic" in2="effect1_dropShadow" result="shape"/>
</filter>
</defs>
</svg>
