<svg width="61" height="60" viewBox="0 0 61 60" fill="none" xmlns="http://www.w3.org/2000/svg">
<path d="M30.3909 19.9159C24.9045 19.9159 20.4271 24.3933 20.4271 29.8799C20.4271 35.3665 24.9045 39.844 30.3909 39.844C35.8774 39.844 40.3548 35.3665 40.3548 29.8799C40.3548 24.3933 35.8774 19.9159 30.3909 19.9159ZM60.2751 29.8799C60.2751 25.7538 60.3125 21.665 60.0807 17.5463C59.849 12.7624 58.7577 8.51664 55.2595 5.01838C51.7538 1.51264 47.5156 0.428782 42.7318 0.197059C38.6057 -0.034663 34.517 0.00271165 30.3984 0.00271165C26.2723 0.00271165 22.1836 -0.034663 18.065 0.197059C13.2812 0.428782 9.03552 1.52012 5.53733 5.01838C2.03166 8.52411 0.947816 12.7624 0.716099 17.5463C0.484381 21.6725 0.521755 25.7613 0.521755 29.8799C0.521755 33.9986 0.484381 38.0949 0.716099 42.2135C0.947816 46.9975 2.03913 51.2432 5.53733 54.7415C9.043 58.2472 13.2812 59.3311 18.065 59.5628C22.1911 59.7945 26.2798 59.7572 30.3984 59.7572C34.5245 59.7572 38.6132 59.7945 42.7318 59.5628C47.5156 59.3311 51.7613 58.2397 55.2595 54.7415C58.7652 51.2358 59.849 46.9975 60.0807 42.2135C60.3199 38.0949 60.2751 34.0061 60.2751 29.8799ZM30.3909 45.211C21.9071 45.211 15.0602 38.364 15.0602 29.8799C15.0602 21.3959 21.9071 14.5489 30.3909 14.5489C38.8748 14.5489 45.7217 21.3959 45.7217 29.8799C45.7217 38.364 38.8748 45.211 30.3909 45.211ZM46.3496 17.5015C44.3688 17.5015 42.7692 15.9018 42.7692 13.921C42.7692 11.9401 44.3688 10.3405 46.3496 10.3405C48.3304 10.3405 49.93 11.9401 49.93 13.921C49.9306 14.3914 49.8384 14.8572 49.6587 15.2919C49.4789 15.7266 49.2152 16.1215 48.8826 16.4541C48.55 16.7867 48.1551 17.0504 47.7205 17.2301C47.2858 17.4099 46.8199 17.5021 46.3496 17.5015Z" fill="#BC0C24"/>
</svg>
