<svg width="792" height="727" viewBox="0 0 792 727" fill="none" xmlns="http://www.w3.org/2000/svg">
<path d="M742.509 181.694L429.73 0.209705L116.952 181.694V544.666L429.73 726.15L742.509 544.666V181.694Z" fill="#F5F5F5" stroke="#B5B5B5" stroke-width="0.362761"/>
<mask id="mask0" mask-type="alpha" maskUnits="userSpaceOnUse" x="0" y="298" width="295" height="101">
<rect y="298" width="294.021" height="100.35" fill="#C4C4C4"/>
</mask>
<g mask="url(#mask0)">
<path d="M39.0387 386.929H13.8906V304.607H39.0387V386.929Z" fill="#BC0C24"/>
<path d="M125.353 304.607C136.664 304.607 145.138 306.355 150.776 309.863C157.814 314.245 161.333 321.716 161.333 332.251V360.554C161.333 369.988 158.879 376.812 153.984 381.003C149.411 384.942 142.325 386.917 132.702 386.917H53.1641V304.595H125.353V304.607ZM117.668 324.9H78.2643V366.911H120.816C131.098 366.911 136.233 362.422 136.233 353.419V338.932C136.233 329.582 130.045 324.9 117.668 324.9Z" fill="#BC0C24"/>
<path d="M251.797 334.298V333.472C251.797 327.282 247.38 324.181 238.535 324.181H218.414C210.562 324.181 205.427 324.96 202.997 326.504C199.753 328.599 198.138 333.232 198.138 340.38V351.825C198.138 358.386 199.945 362.756 203.56 364.923C206.289 366.551 211.244 367.354 218.426 367.354H233.017C239.576 367.354 243.981 366.946 246.231 366.132C250.397 364.624 252.48 361.248 252.48 356.016V355.13H277.963C277.963 355.238 277.975 355.441 278.011 355.74C278.118 357.764 278.178 359.56 278.178 361.104C278.178 371.28 275.437 378.368 269.943 382.391C264.928 386.078 254.778 387.922 239.493 387.922H211.412C204.517 387.922 199.442 387.683 196.163 387.204C190.262 386.354 185.57 384.57 182.062 381.84C175.731 376.907 172.559 368.862 172.559 357.74V335.292C172.559 322.649 175.982 313.993 182.84 309.312C188.406 305.517 197.934 303.613 211.412 303.613H239.493C246.567 303.613 251.749 303.793 255.017 304.164C261.54 304.906 266.388 306.486 269.548 308.917C274.635 312.82 277.173 319.74 277.173 329.641V332.406C277.173 332.885 277.113 333.508 277.005 334.286H251.797V334.298Z" fill="#BC0C24"/>
</g>
</svg>
