<svg width="265" height="221" viewBox="0 0 265 221" fill="none" xmlns="http://www.w3.org/2000/svg">
<g filter="url(#filter0_d)">
<rect x="10" y="8" width="235.567" height="191" rx="7.37693" fill="#F5F5F5"/>
<rect x="10.2305" y="8.23053" width="235.106" height="190.539" rx="7.1464" stroke="#B5B5B5" stroke-width="0.461058"/>
</g>
<path d="M67.1978 145.742L71.9478 128.442H76.1478L80.8978 145.742H78.9978L77.7478 141.292H70.3478L69.0978 145.742H67.1978ZM73.3978 130.092L70.7728 139.567H77.3228L74.6978 130.092H73.3978ZM87.8956 151.617C85.8956 151.617 84.4956 151.342 83.6956 150.792C82.9123 150.258 82.5206 149.275 82.5206 147.842C82.5206 147.158 82.6706 146.6 82.9706 146.167C83.2706 145.75 83.779 145.275 84.4956 144.742C84.029 144.425 83.7956 143.85 83.7956 143.017C83.7956 142.733 84.004 142.208 84.4206 141.442L84.6456 141.042C83.329 140.442 82.6706 139.183 82.6706 137.267C82.6706 134.417 84.229 132.992 87.3456 132.992C88.1456 132.992 88.8873 133.075 89.5706 133.242L89.9456 133.317L93.6456 133.217V134.817L91.2706 134.767C91.8206 135.317 92.0956 136.15 92.0956 137.267C92.0956 138.833 91.704 139.933 90.9206 140.567C90.154 141.183 88.9373 141.492 87.2706 141.492C86.8206 141.492 86.4123 141.458 86.0456 141.392C85.7456 142.125 85.5956 142.6 85.5956 142.817C85.5956 143.333 85.754 143.658 86.0706 143.792C86.3873 143.908 87.3456 143.967 88.9456 143.967C90.5456 143.967 91.6956 144.217 92.3956 144.717C93.0956 145.217 93.4456 146.192 93.4456 147.642C93.4456 150.292 91.5956 151.617 87.8956 151.617ZM84.3706 147.692C84.3706 148.575 84.6123 149.183 85.0956 149.517C85.5956 149.867 86.504 150.042 87.8206 150.042C89.154 150.042 90.104 149.858 90.6706 149.492C91.254 149.125 91.5456 148.508 91.5456 147.642C91.5456 146.792 91.3373 146.242 90.9206 145.992C90.504 145.742 89.6873 145.617 88.4706 145.617L85.7706 145.492C85.2206 145.892 84.8456 146.242 84.6456 146.542C84.4623 146.842 84.3706 147.225 84.3706 147.692ZM84.5456 137.267C84.5456 138.25 84.7623 138.95 85.1956 139.367C85.6456 139.783 86.379 139.992 87.3956 139.992C88.4123 139.992 89.1373 139.783 89.5706 139.367C90.004 138.95 90.2206 138.25 90.2206 137.267C90.2206 136.267 90.004 135.558 89.5706 135.142C89.1373 134.725 88.4123 134.517 87.3956 134.517C86.379 134.517 85.6456 134.733 85.1956 135.167C84.7623 135.583 84.5456 136.283 84.5456 137.267ZM104.412 144.192L105.137 144.117L105.187 145.592C103.287 145.858 101.662 145.992 100.312 145.992C98.5124 145.992 97.2374 145.475 96.4874 144.442C95.7374 143.392 95.3624 141.767 95.3624 139.567C95.3624 135.183 97.1041 132.992 100.587 132.992C102.271 132.992 103.529 133.467 104.362 134.417C105.196 135.35 105.612 136.825 105.612 138.842L105.512 140.267H97.2624C97.2624 141.65 97.5124 142.675 98.0124 143.342C98.5124 144.008 99.3791 144.342 100.612 144.342C101.862 144.342 103.129 144.292 104.412 144.192ZM103.737 138.767C103.737 137.233 103.487 136.15 102.987 135.517C102.504 134.883 101.704 134.567 100.587 134.567C99.4874 134.567 98.6541 134.9 98.0874 135.567C97.5374 136.233 97.2541 137.3 97.2374 138.767H103.737ZM110.409 145.742H108.534V133.242H110.384V134.117C111.734 133.367 113.026 132.992 114.259 132.992C115.926 132.992 117.043 133.442 117.609 134.342C118.193 135.242 118.484 136.842 118.484 139.142V145.742H116.634V139.192C116.634 137.458 116.459 136.275 116.109 135.642C115.776 134.992 115.051 134.667 113.934 134.667C113.401 134.667 112.834 134.75 112.234 134.917C111.651 135.067 111.201 135.217 110.884 135.367L110.409 135.592V145.742ZM131.562 127.792V145.742H129.712V144.892C128.429 145.625 127.162 145.992 125.912 145.992C125.246 145.992 124.662 145.908 124.162 145.742C123.662 145.575 123.196 145.275 122.762 144.842C121.862 143.942 121.412 142.283 121.412 139.867C121.412 137.433 121.812 135.683 122.612 134.617C123.429 133.533 124.771 132.992 126.637 132.992C127.604 132.992 128.629 133.1 129.712 133.317V127.792H131.562ZM124.212 143.492C124.479 143.808 124.762 144.025 125.062 144.142C125.362 144.258 125.746 144.317 126.212 144.317C126.696 144.317 127.229 144.242 127.812 144.092C128.412 143.925 128.879 143.767 129.212 143.617L129.712 143.392V134.917C128.646 134.717 127.654 134.617 126.737 134.617C125.471 134.617 124.587 135.025 124.087 135.842C123.587 136.642 123.337 137.892 123.337 139.592C123.337 141.525 123.629 142.825 124.212 143.492ZM143.695 144.192L144.42 144.117L144.47 145.592C142.57 145.858 140.945 145.992 139.595 145.992C137.795 145.992 136.52 145.475 135.77 144.442C135.02 143.392 134.645 141.767 134.645 139.567C134.645 135.183 136.386 132.992 139.87 132.992C141.553 132.992 142.811 133.467 143.645 134.417C144.478 135.35 144.895 136.825 144.895 138.842L144.795 140.267H136.545C136.545 141.65 136.795 142.675 137.295 143.342C137.795 144.008 138.661 144.342 139.895 144.342C141.145 144.342 142.411 144.292 143.695 144.192ZM143.02 138.767C143.02 137.233 142.77 136.15 142.27 135.517C141.786 134.883 140.986 134.567 139.87 134.567C138.77 134.567 137.936 134.9 137.37 135.567C136.82 136.233 136.536 137.3 136.52 138.767H143.02ZM157.235 134.667C155.418 134.667 154.51 135.3 154.51 136.567C154.51 137.15 154.718 137.567 155.135 137.817C155.552 138.05 156.502 138.3 157.985 138.567C159.468 138.817 160.518 139.175 161.135 139.642C161.752 140.108 162.06 140.983 162.06 142.267C162.06 143.55 161.643 144.492 160.81 145.092C159.993 145.692 158.793 145.992 157.21 145.992C156.177 145.992 154.96 145.875 153.56 145.642L152.81 145.517L152.91 143.892C154.81 144.175 156.243 144.317 157.21 144.317C158.177 144.317 158.91 144.167 159.41 143.867C159.927 143.55 160.185 143.033 160.185 142.317C160.185 141.583 159.968 141.092 159.535 140.842C159.102 140.575 158.152 140.325 156.685 140.092C155.218 139.858 154.177 139.517 153.56 139.067C152.943 138.617 152.635 137.783 152.635 136.567C152.635 135.35 153.06 134.45 153.91 133.867C154.777 133.283 155.852 132.992 157.135 132.992C158.152 132.992 159.427 133.108 160.96 133.342L161.66 133.467L161.61 135.067C159.76 134.8 158.302 134.667 157.235 134.667ZM172.731 133.242H174.606V145.742H172.731V144.867C171.481 145.617 170.248 145.992 169.031 145.992C167.331 145.992 166.198 145.55 165.631 144.667C165.081 143.783 164.806 142.15 164.806 139.767V133.242H166.681V139.742C166.681 141.558 166.839 142.775 167.156 143.392C167.473 144.008 168.189 144.317 169.306 144.317C169.856 144.317 170.414 144.242 170.981 144.092C171.548 143.925 171.981 143.767 172.281 143.617L172.731 143.392V133.242ZM187.037 137.017V143.417C187.087 144.033 187.571 144.4 188.487 144.517L188.412 145.992C187.096 145.992 186.104 145.658 185.437 144.992C183.937 145.658 182.437 145.992 180.937 145.992C179.787 145.992 178.912 145.667 178.312 145.017C177.712 144.367 177.412 143.433 177.412 142.217C177.412 141 177.721 140.108 178.337 139.542C178.954 138.958 179.921 138.6 181.237 138.467L185.162 138.092V137.017C185.162 136.167 184.979 135.558 184.612 135.192C184.246 134.825 183.746 134.642 183.112 134.642C181.779 134.642 180.396 134.725 178.962 134.892L178.187 134.967L178.112 133.542C179.946 133.175 181.571 132.992 182.987 132.992C184.404 132.992 185.429 133.317 186.062 133.967C186.712 134.617 187.037 135.633 187.037 137.017ZM179.337 142.117C179.337 143.65 179.971 144.417 181.237 144.417C182.371 144.417 183.487 144.225 184.587 143.842L185.162 143.642V139.517L181.462 139.867C180.712 139.933 180.171 140.15 179.837 140.517C179.504 140.883 179.337 141.417 179.337 142.117ZM75.1361 181.292V163.242H76.9861V164.142C78.2527 163.375 79.5027 162.992 80.7361 162.992C82.3194 162.992 83.4694 163.5 84.1861 164.517C84.9027 165.517 85.2611 167.175 85.2611 169.492C85.2611 171.808 84.8361 173.475 83.9861 174.492C83.1527 175.492 81.7611 175.992 79.8111 175.992C78.7944 175.992 77.8611 175.9 77.0111 175.717V181.292H75.1361ZM80.4611 164.667C79.9611 164.667 79.4194 164.75 78.8361 164.917C78.2694 165.083 77.8194 165.25 77.4861 165.417L77.0111 165.667V174.092C78.1944 174.275 79.0944 174.367 79.7111 174.367C81.0611 174.367 82.0027 173.983 82.5361 173.217C83.0861 172.45 83.3611 171.2 83.3611 169.467C83.3611 167.733 83.1111 166.5 82.6111 165.767C82.1277 165.033 81.4111 164.667 80.4611 164.667ZM88.3196 175.742V163.242H90.1696V164.942C91.6196 163.942 93.1446 163.283 94.7446 162.967V164.867C94.0446 165 93.3113 165.208 92.5446 165.492C91.7946 165.775 91.2196 166.025 90.8196 166.242L90.1946 166.567V175.742H88.3196ZM96.1681 169.467C96.1681 167.183 96.5764 165.533 97.3931 164.517C98.2097 163.5 99.5847 162.992 101.518 162.992C103.468 162.992 104.843 163.5 105.643 164.517C106.46 165.533 106.868 167.183 106.868 169.467C106.868 171.75 106.485 173.408 105.718 174.442C104.951 175.475 103.551 175.992 101.518 175.992C99.4847 175.992 98.0847 175.475 97.3181 174.442C96.5514 173.408 96.1681 171.75 96.1681 169.467ZM98.0931 169.442C98.0931 171.258 98.3098 172.533 98.7431 173.267C99.1931 174 100.118 174.367 101.518 174.367C102.935 174.367 103.86 174.008 104.293 173.292C104.726 172.558 104.943 171.275 104.943 169.442C104.943 167.608 104.701 166.35 104.218 165.667C103.735 164.967 102.835 164.617 101.518 164.617C100.218 164.617 99.3181 164.967 98.8181 165.667C98.3347 166.35 98.0931 167.608 98.0931 169.442ZM108.531 163.242H110.531L113.456 174.117H114.381L117.406 163.242H119.331L115.806 175.742H112.056L108.531 163.242ZM130.372 167.017V173.417C130.422 174.033 130.906 174.4 131.822 174.517L131.747 175.992C130.431 175.992 129.439 175.658 128.772 174.992C127.272 175.658 125.772 175.992 124.272 175.992C123.122 175.992 122.247 175.667 121.647 175.017C121.047 174.367 120.747 173.433 120.747 172.217C120.747 171 121.056 170.108 121.672 169.542C122.289 168.958 123.256 168.6 124.572 168.467L128.497 168.092V167.017C128.497 166.167 128.314 165.558 127.947 165.192C127.581 164.825 127.081 164.642 126.447 164.642C125.114 164.642 123.731 164.725 122.297 164.892L121.522 164.967L121.447 163.542C123.281 163.175 124.906 162.992 126.322 162.992C127.739 162.992 128.764 163.317 129.397 163.967C130.047 164.617 130.372 165.633 130.372 167.017ZM122.672 172.117C122.672 173.65 123.306 174.417 124.572 174.417C125.706 174.417 126.822 174.225 127.922 173.842L128.497 173.642V169.517L124.797 169.867C124.047 169.933 123.506 170.15 123.172 170.517C122.839 170.883 122.672 171.417 122.672 172.117ZM148.39 167.017V173.417C148.44 174.033 148.923 174.4 149.84 174.517L149.765 175.992C148.448 175.992 147.456 175.658 146.79 174.992C145.29 175.658 143.79 175.992 142.29 175.992C141.14 175.992 140.265 175.667 139.665 175.017C139.065 174.367 138.765 173.433 138.765 172.217C138.765 171 139.073 170.108 139.69 169.542C140.306 168.958 141.273 168.6 142.59 168.467L146.515 168.092V167.017C146.515 166.167 146.331 165.558 145.965 165.192C145.598 164.825 145.098 164.642 144.465 164.642C143.131 164.642 141.748 164.725 140.315 164.892L139.54 164.967L139.465 163.542C141.298 163.175 142.923 162.992 144.34 162.992C145.756 162.992 146.781 163.317 147.415 163.967C148.065 164.617 148.39 165.633 148.39 167.017ZM140.69 172.117C140.69 173.65 141.323 174.417 142.59 174.417C143.723 174.417 144.84 174.225 145.94 173.842L146.515 173.642V169.517L142.815 169.867C142.065 169.933 141.523 170.15 141.19 170.517C140.856 170.883 140.69 171.417 140.69 172.117ZM156.239 175.992C154.556 175.992 153.348 175.5 152.614 174.517C151.898 173.533 151.539 171.867 151.539 169.517C151.539 167.167 151.973 165.492 152.839 164.492C153.706 163.492 155.239 162.992 157.439 162.992L161.614 163.242V181.292H159.764V175.167C158.598 175.717 157.423 175.992 156.239 175.992ZM157.464 164.617C155.898 164.617 154.831 165.008 154.264 165.792C153.714 166.575 153.439 167.825 153.439 169.542C153.439 171.242 153.664 172.467 154.114 173.217C154.581 173.95 155.356 174.317 156.439 174.317C157.406 174.317 158.364 174.133 159.314 173.767L159.764 173.592V164.767C158.731 164.667 157.964 164.617 157.464 164.617ZM173.048 163.242H174.923V175.742H173.048V174.867C171.798 175.617 170.565 175.992 169.348 175.992C167.648 175.992 166.515 175.55 165.948 174.667C165.398 173.783 165.123 172.15 165.123 169.767V163.242H166.998V169.742C166.998 171.558 167.157 172.775 167.473 173.392C167.79 174.008 168.507 174.317 169.623 174.317C170.173 174.317 170.732 174.242 171.298 174.092C171.865 173.925 172.298 173.767 172.598 173.617L173.048 173.392V163.242ZM178.53 175.742V163.242H180.405V175.742H178.53ZM178.53 160.417V158.242H180.405V160.417H178.53Z" fill="#423F40"/>
<path d="M129.713 99.7448H95.0663C94.6115 99.7448 94.2422 99.3773 94.2422 98.9257V38.8634C94.2422 38.412 94.6115 38.0454 95.0663 38.0454H144.281C144.736 38.0454 145.105 38.412 145.105 38.8634V84.5742C145.105 85.9107 144.559 87.2191 143.607 88.1621L133.574 98.0987C133.566 98.1067 133.559 98.1128 133.551 98.1208C132.581 99.1215 131.219 99.7448 129.713 99.7448ZM95.8905 98.1067H129.713C131.741 98.1067 133.393 96.4686 133.393 94.455V86.7078C133.393 86.4641 133.502 86.2324 133.692 86.0765C133.881 85.9207 134.135 85.8568 134.373 85.9047C136.202 86.2522 141.246 86.8535 143.289 85.6249C143.398 85.2872 143.457 84.9317 143.457 84.5741V39.6815H95.8905V98.1067ZM135.041 87.6767V94.333L141.595 87.8425C139.259 88.198 136.509 87.8964 135.041 87.6767Z" fill="#BB0823"/>
<path d="M105.258 58.4621C101.428 58.4621 98.3125 55.3697 98.3125 51.568C98.3125 47.7662 101.428 44.6738 105.258 44.6738C109.088 44.6738 112.204 47.7662 112.204 51.568C112.204 55.3697 109.088 58.4621 105.258 58.4621ZM105.258 46.3121C102.338 46.3121 99.9609 48.6694 99.9609 51.5681C99.9609 54.4668 102.338 56.8242 105.258 56.8242C108.178 56.8242 110.555 54.4668 110.555 51.5681C110.555 48.6694 108.178 46.3121 105.258 46.3121Z" fill="#BB0823"/>
<path d="M103.401 53.9833C103.347 53.9833 103.293 53.9772 103.239 53.9673C103.006 53.9194 102.805 53.7776 102.687 53.5738L101.759 51.9776C101.531 51.586 101.667 51.0846 102.062 50.8589C102.457 50.6371 102.96 50.7691 103.188 51.1586L103.647 51.9497L107.599 48.9532C107.962 48.6816 108.479 48.7515 108.755 49.107C109.031 49.4666 108.962 49.9801 108.6 50.2557L103.901 53.8157C103.756 53.9254 103.58 53.9833 103.401 53.9833Z" fill="#BB0823"/>
<path d="M138.717 50.4234H114.851C114.397 50.4234 114.027 50.0559 114.027 49.6043C114.027 49.1528 114.397 48.7852 114.851 48.7852H138.717C139.172 48.7852 139.541 49.1527 139.541 49.6043C139.541 50.0559 139.172 50.4234 138.717 50.4234Z" fill="#BB0823"/>
<path d="M127.835 55.7612H114.851C114.397 55.7612 114.027 55.3936 114.027 54.942C114.027 54.4906 114.397 54.123 114.851 54.123H127.835C128.29 54.123 128.659 54.4906 128.659 54.942C128.659 55.3936 128.29 55.7612 127.835 55.7612Z" fill="#BB0823"/>
<path d="M105.254 75.8601C101.424 75.8601 98.3086 72.7677 98.3086 68.9659C98.3086 65.1643 101.424 62.0718 105.254 62.0718C109.084 62.0718 112.2 65.1642 112.2 68.9659C112.2 72.7677 109.084 75.8601 105.254 75.8601ZM105.254 63.71C102.334 63.71 99.957 66.0674 99.957 68.9661C99.957 71.8647 102.334 74.2221 105.254 74.2221C108.175 74.2221 110.551 71.8647 110.551 68.9661C110.551 66.0674 108.175 63.71 105.254 63.71Z" fill="#BB0823"/>
<path d="M103.401 71.3815C103.347 71.3815 103.293 71.3754 103.239 71.3655C103.006 71.3176 102.805 71.1758 102.687 70.972L101.759 69.3758C101.531 68.9842 101.667 68.4828 102.062 68.2572C102.457 68.0353 102.96 68.1673 103.188 68.5568L103.647 69.3479L107.599 66.3514C107.962 66.0798 108.479 66.1476 108.755 66.5052C109.031 66.8648 108.962 67.3782 108.6 67.6539L103.901 71.2139C103.756 71.3236 103.58 71.3815 103.401 71.3815Z" fill="#BB0823"/>
<path d="M138.717 66.9325H114.851C114.397 66.9325 114.027 66.5649 114.027 66.1133C114.027 65.6617 114.397 65.2942 114.851 65.2942H138.717C139.172 65.2942 139.541 65.6617 139.541 66.1133C139.541 66.5649 139.172 66.9325 138.717 66.9325Z" fill="#BB0823"/>
<path d="M127.835 72.2703H114.851C114.397 72.2703 114.027 71.9028 114.027 71.4512C114.027 70.9997 114.397 70.6322 114.851 70.6322H127.835C128.29 70.6322 128.659 70.9997 128.659 71.4512C128.659 71.9027 128.29 72.2703 127.835 72.2703Z" fill="#BB0823"/>
<path d="M105.254 93.2575C101.424 93.2575 98.3086 90.1651 98.3086 86.3634C98.3086 82.5618 101.424 79.4692 105.254 79.4692C109.084 79.4692 112.2 82.5616 112.2 86.3634C112.2 90.1651 109.084 93.2575 105.254 93.2575ZM105.254 81.1075C102.334 81.1075 99.957 83.4649 99.957 86.3635C99.957 89.2622 102.334 91.6196 105.254 91.6196C108.175 91.6196 110.551 89.2622 110.551 86.3635C110.551 83.4649 108.175 81.1075 105.254 81.1075Z" fill="#BB0823"/>
<path d="M103.401 88.7793C103.347 88.7793 103.293 88.7733 103.239 88.7634C103.006 88.7155 102.805 88.5736 102.687 88.3698L101.759 86.7737C101.531 86.3821 101.667 85.8806 102.062 85.655C102.457 85.4312 102.96 85.5651 103.188 85.9547L103.647 86.7457L107.599 83.7492C107.962 83.4776 108.479 83.5454 108.755 83.9031C109.031 84.2626 108.962 84.7761 108.6 85.0517L103.901 88.6117C103.756 88.7214 103.58 88.7793 103.401 88.7793Z" fill="#BB0823"/>
<path d="M138.717 83.439H114.851C114.397 83.439 114.027 83.0715 114.027 82.6199C114.027 82.1683 114.397 81.8008 114.851 81.8008H138.717C139.172 81.8008 139.541 82.1683 139.541 82.6199C139.541 83.0715 139.172 83.439 138.717 83.439Z" fill="#BB0823"/>
<path d="M127.835 88.7786H114.851C114.397 88.7786 114.027 88.4111 114.027 87.9595C114.027 87.508 114.397 87.1405 114.851 87.1405H127.835C128.29 87.1405 128.659 87.508 128.659 87.9595C128.659 88.4111 128.29 88.7786 127.835 88.7786Z" fill="#BB0823"/>
<circle cx="144.406" cy="93.0384" r="16.4979" fill="#F5F5F5" stroke="#BB0823" stroke-width="1.87781"/>
<path d="M146.466 82.9542C146.877 82.8514 147.268 82.8822 147.638 83.0468C148.193 83.3141 148.44 83.7872 148.378 84.4659C148.358 84.5687 148.337 84.6612 148.317 84.7435C148.09 85.525 147.576 86.0495 146.774 86.3168C146.733 86.3168 146.692 86.3271 146.651 86.3477C146.054 86.5122 145.551 86.3888 145.139 85.9775C144.666 85.4839 144.615 84.8875 144.985 84.1882C145.273 83.5301 145.766 83.1187 146.466 82.9542ZM143.72 89.7103C144.008 89.6486 144.378 89.6383 144.831 89.6795C146.024 89.9057 146.774 90.5535 147.083 91.623C147.186 92.0549 147.186 92.5073 147.083 92.9804L145.694 96.744C144.769 99.1709 144.296 100.436 144.275 100.539C144.029 101.341 144.018 101.855 144.245 102.081C144.306 102.122 144.419 102.143 144.584 102.143C144.81 102.143 144.954 102.132 145.016 102.112C145.9 101.803 146.579 100.888 147.052 99.3663C147.093 99.284 147.124 99.1915 147.144 99.0886C147.247 98.7801 147.35 98.6156 147.453 98.595C147.515 98.5745 147.7 98.5642 148.008 98.5642C148.399 98.5642 148.615 98.5847 148.656 98.6259C148.759 98.7081 148.779 98.883 148.718 99.1503C148.327 100.508 147.71 101.608 146.867 102.451C146.291 102.986 145.705 103.346 145.108 103.531C144.903 103.572 144.625 103.593 144.275 103.593C143.905 103.593 143.638 103.572 143.473 103.531C142.815 103.366 142.322 103.068 141.993 102.636C141.746 102.348 141.581 102.019 141.499 101.649C141.396 101.197 141.396 100.734 141.499 100.261L142.918 96.4664C143.864 93.9367 144.368 92.5485 144.43 92.3017C144.512 91.952 144.512 91.6436 144.43 91.3762C144.327 91.1294 144.101 91.0471 143.751 91.1294C143.134 91.2528 142.579 91.7258 142.085 92.5485C141.777 93.0626 141.53 93.6899 141.345 94.4303C141.283 94.5537 141.242 94.6257 141.221 94.6463C141.18 94.6874 140.964 94.708 140.573 94.708H139.987L139.895 94.6154C139.792 94.5331 139.802 94.3172 139.926 93.9676C140.44 92.24 141.273 90.9957 142.424 90.2347C142.527 90.173 142.64 90.1113 142.764 90.0497C143.134 89.844 143.453 89.7309 143.72 89.7103Z" fill="#BB0823"/>
<defs>
<filter id="filter0_d" x="0.317785" y="0.623075" width="264.152" height="219.586" filterUnits="userSpaceOnUse" color-interpolation-filters="sRGB">
<feFlood flood-opacity="0" result="BackgroundImageFix"/>
<feColorMatrix in="SourceAlpha" type="matrix" values="0 0 0 0 0 0 0 0 0 0 0 0 0 0 0 0 0 0 127 0"/>
<feMorphology radius="1.84423" operator="dilate" in="SourceAlpha" result="effect1_dropShadow"/>
<feOffset dx="4.61058" dy="6.91587"/>
<feGaussianBlur stdDeviation="6.22428"/>
<feColorMatrix type="matrix" values="0 0 0 0 0.737255 0 0 0 0 0.0470588 0 0 0 0 0.141176 0 0 0 0.13 0"/>
<feBlend mode="normal" in2="BackgroundImageFix" result="effect1_dropShadow"/>
<feBlend mode="normal" in="SourceGraphic" in2="effect1_dropShadow" result="shape"/>
</filter>
</defs>
</svg>
