<svg width="265" height="221" viewBox="0 0 265 221" fill="none" xmlns="http://www.w3.org/2000/svg">
<g filter="url(#filter0_d)">
<rect x="10" y="8" width="235.567" height="191" rx="7.37693" fill="#F5F5F5"/>
<rect x="10.2305" y="8.23053" width="235.106" height="190.539" rx="7.1464" stroke="#B5B5B5" stroke-width="0.461058"/>
</g>
<path d="M78.7501 134.158C76.2501 134.158 75.0001 135.1 75.0001 136.983C75.0001 138.033 75.2834 138.758 75.8501 139.158C76.4334 139.542 77.6001 139.933 79.3501 140.333C81.1167 140.717 82.3667 141.225 83.1001 141.858C83.8334 142.475 84.2001 143.5 84.2001 144.933C84.2001 148.483 82.3584 150.258 78.6751 150.258C77.4584 150.258 75.9334 150.117 74.1001 149.833L73.2001 149.708L73.4001 148.108C75.6667 148.408 77.3917 148.558 78.5751 148.558C81.0417 148.558 82.2751 147.4 82.2751 145.083C82.2751 144.15 82.0001 143.483 81.4501 143.083C80.9167 142.667 79.9084 142.317 78.4251 142.033C76.4751 141.617 75.0917 141.083 74.2751 140.433C73.4584 139.767 73.0501 138.658 73.0501 137.108C73.0501 134.008 74.9084 132.458 78.6251 132.458C79.8417 132.458 81.3001 132.583 83.0001 132.833L83.8501 132.958L83.6751 134.583C81.3584 134.3 79.7167 134.158 78.7501 134.158ZM95.6999 148.483L96.4249 148.408L96.4749 149.883C94.5749 150.15 92.9499 150.283 91.5999 150.283C89.7999 150.283 88.5249 149.767 87.7749 148.733C87.0249 147.683 86.6499 146.058 86.6499 143.858C86.6499 139.475 88.3915 137.283 91.8749 137.283C93.5582 137.283 94.8165 137.758 95.6499 138.708C96.4832 139.642 96.8999 141.117 96.8999 143.133L96.7999 144.558H88.5499C88.5499 145.942 88.7999 146.967 89.2999 147.633C89.7999 148.3 90.6665 148.633 91.8999 148.633C93.1499 148.633 94.4165 148.583 95.6999 148.483ZM95.0249 143.058C95.0249 141.525 94.7749 140.442 94.2749 139.808C93.7915 139.175 92.9915 138.858 91.8749 138.858C90.7749 138.858 89.9415 139.192 89.3749 139.858C88.8249 140.525 88.5415 141.592 88.5249 143.058H95.0249ZM104.497 137.283C105.047 137.283 105.98 137.383 107.297 137.583L107.897 137.658L107.822 139.183C106.489 139.033 105.505 138.958 104.872 138.958C103.455 138.958 102.489 139.3 101.972 139.983C101.472 140.65 101.222 141.9 101.222 143.733C101.222 145.55 101.455 146.817 101.922 147.533C102.405 148.25 103.397 148.608 104.897 148.608L107.847 148.383L107.922 149.933C106.372 150.167 105.214 150.283 104.447 150.283C102.497 150.283 101.147 149.783 100.397 148.783C99.6636 147.783 99.2969 146.1 99.2969 143.733C99.2969 141.35 99.6969 139.683 100.497 138.733C101.297 137.767 102.63 137.283 104.497 137.283ZM110.711 150.033V137.533H112.561V139.233C114.011 138.233 115.536 137.575 117.136 137.258V139.158C116.436 139.292 115.702 139.5 114.936 139.783C114.186 140.067 113.611 140.317 113.211 140.533L112.586 140.858V150.033H110.711ZM127.609 148.483L128.334 148.408L128.384 149.883C126.484 150.15 124.859 150.283 123.509 150.283C121.709 150.283 120.434 149.767 119.684 148.733C118.934 147.683 118.559 146.058 118.559 143.858C118.559 139.475 120.301 137.283 123.784 137.283C125.467 137.283 126.726 137.758 127.559 138.708C128.392 139.642 128.809 141.117 128.809 143.133L128.709 144.558H120.459C120.459 145.942 120.709 146.967 121.209 147.633C121.709 148.3 122.576 148.633 123.809 148.633C125.059 148.633 126.326 148.583 127.609 148.483ZM126.934 143.058C126.934 141.525 126.684 140.442 126.184 139.808C125.701 139.175 124.901 138.858 123.784 138.858C122.684 138.858 121.851 139.192 121.284 139.858C120.734 140.525 120.451 141.592 120.434 143.058H126.934ZM138.133 139.158H134.158V145.133C134.158 146.567 134.258 147.508 134.458 147.958C134.675 148.408 135.175 148.633 135.958 148.633L138.183 148.483L138.308 150.033C137.191 150.217 136.341 150.308 135.758 150.308C134.458 150.308 133.558 149.992 133.058 149.358C132.558 148.725 132.308 147.517 132.308 145.733V139.158H130.533V137.533H132.308V133.708H134.158V137.533H138.133V139.158ZM149.248 141.308V147.708C149.298 148.325 149.781 148.692 150.698 148.808L150.623 150.283C149.306 150.283 148.314 149.95 147.648 149.283C146.148 149.95 144.648 150.283 143.148 150.283C141.998 150.283 141.123 149.958 140.523 149.308C139.923 148.658 139.623 147.725 139.623 146.508C139.623 145.292 139.931 144.4 140.548 143.833C141.164 143.25 142.131 142.892 143.448 142.758L147.373 142.383V141.308C147.373 140.458 147.189 139.85 146.823 139.483C146.456 139.117 145.956 138.933 145.323 138.933C143.989 138.933 142.606 139.017 141.173 139.183L140.398 139.258L140.323 137.833C142.156 137.467 143.781 137.283 145.198 137.283C146.614 137.283 147.639 137.608 148.273 138.258C148.923 138.908 149.248 139.925 149.248 141.308ZM141.548 146.408C141.548 147.942 142.181 148.708 143.448 148.708C144.581 148.708 145.698 148.517 146.798 148.133L147.373 147.933V143.808L143.673 144.158C142.923 144.225 142.381 144.442 142.048 144.808C141.714 145.175 141.548 145.708 141.548 146.408ZM152.947 150.033V137.533H154.797V139.233C156.247 138.233 157.772 137.575 159.372 137.258V139.158C158.672 139.292 157.939 139.5 157.172 139.783C156.422 140.067 155.847 140.317 155.447 140.533L154.822 140.858V150.033H152.947ZM161.59 150.033V137.533H163.465V150.033H161.59ZM161.59 134.708V132.533H163.465V134.708H161.59ZM175.883 141.308V147.708C175.933 148.325 176.417 148.692 177.333 148.808L177.258 150.283C175.942 150.283 174.95 149.95 174.283 149.283C172.783 149.95 171.283 150.283 169.783 150.283C168.633 150.283 167.758 149.958 167.158 149.308C166.558 148.658 166.258 147.725 166.258 146.508C166.258 145.292 166.567 144.4 167.183 143.833C167.8 143.25 168.767 142.892 170.083 142.758L174.008 142.383V141.308C174.008 140.458 173.825 139.85 173.458 139.483C173.092 139.117 172.592 138.933 171.958 138.933C170.625 138.933 169.242 139.017 167.808 139.183L167.033 139.258L166.958 137.833C168.792 137.467 170.417 137.283 171.833 137.283C173.25 137.283 174.275 137.608 174.908 138.258C175.558 138.908 175.883 139.925 175.883 141.308ZM168.183 146.408C168.183 147.942 168.817 148.708 170.083 148.708C171.217 148.708 172.333 148.517 173.433 148.133L174.008 147.933V143.808L170.308 144.158C169.558 144.225 169.017 144.442 168.683 144.808C168.35 145.175 168.183 145.708 168.183 146.408ZM94.5982 171.458C94.5982 173.992 94.9315 175.817 95.5982 176.933C96.2649 178.033 97.5482 178.583 99.4482 178.583C101.365 178.583 102.648 178.042 103.298 176.958C103.965 175.875 104.298 174.058 104.298 171.508C104.298 168.958 103.957 167.1 103.273 165.933C102.59 164.767 101.307 164.183 99.4232 164.183C97.5565 164.183 96.2815 164.767 95.5982 165.933C94.9315 167.083 94.5982 168.925 94.5982 171.458ZM106.298 171.508C106.298 174.592 105.807 176.825 104.823 178.208C103.84 179.592 102.048 180.283 99.4482 180.283C96.8649 180.283 95.0815 179.575 94.0982 178.158C93.1149 176.742 92.6232 174.517 92.6232 171.483C92.6232 168.433 93.1232 166.175 94.1232 164.708C95.1232 163.225 96.8982 162.483 99.4482 162.483C101.998 162.483 103.773 163.217 104.773 164.683C105.79 166.15 106.298 168.425 106.298 171.508ZM111.377 180.033H109.502V167.533H111.352V168.408C112.702 167.658 113.994 167.283 115.227 167.283C116.894 167.283 118.01 167.733 118.577 168.633C119.16 169.533 119.452 171.133 119.452 173.433V180.033H117.602V173.483C117.602 171.75 117.427 170.567 117.077 169.933C116.744 169.283 116.019 168.958 114.902 168.958C114.369 168.958 113.802 169.042 113.202 169.208C112.619 169.358 112.169 169.508 111.852 169.658L111.377 169.883V180.033ZM123.08 180.033V162.083H124.955V180.033H123.08ZM128.716 180.033V167.533H130.591V180.033H128.716ZM128.716 164.708V162.533H130.591V164.708H128.716ZM136.06 180.033H134.185V167.533H136.035V168.408C137.385 167.658 138.676 167.283 139.91 167.283C141.576 167.283 142.693 167.733 143.26 168.633C143.843 169.533 144.135 171.133 144.135 173.433V180.033H142.285V173.483C142.285 171.75 142.11 170.567 141.76 169.933C141.426 169.283 140.701 168.958 139.585 168.958C139.051 168.958 138.485 169.042 137.885 169.208C137.301 169.358 136.851 169.508 136.535 169.658L136.06 169.883V180.033ZM156.112 178.483L156.837 178.408L156.887 179.883C154.987 180.15 153.362 180.283 152.012 180.283C150.212 180.283 148.937 179.767 148.187 178.733C147.437 177.683 147.062 176.058 147.062 173.858C147.062 169.475 148.804 167.283 152.287 167.283C153.971 167.283 155.229 167.758 156.062 168.708C156.896 169.642 157.312 171.117 157.312 173.133L157.212 174.558H148.962C148.962 175.942 149.212 176.967 149.712 177.633C150.212 178.3 151.079 178.633 152.312 178.633C153.562 178.633 154.829 178.583 156.112 178.483ZM155.437 173.058C155.437 171.525 155.187 170.442 154.687 169.808C154.204 169.175 153.404 168.858 152.287 168.858C151.187 168.858 150.354 169.192 149.787 169.858C149.237 170.525 148.954 171.592 148.937 173.058H155.437Z" fill="#423F40"/>
<path d="M166.395 108.037C166.274 107.881 166.119 107.756 165.942 107.669C165.765 107.582 165.57 107.537 165.373 107.537H132.952C132.608 107.537 132.278 107.674 132.035 107.917C131.792 108.16 131.655 108.49 131.655 108.834V110.131H123.874V108.834C123.874 108.49 123.737 108.16 123.494 107.917C123.251 107.674 122.921 107.537 122.577 107.537H90.1562C89.9591 107.537 89.7645 107.582 89.5874 107.669C89.4102 107.755 89.2551 107.881 89.1338 108.036C89.0126 108.192 88.9283 108.373 88.8875 108.566C88.8467 108.758 88.8503 108.958 88.8982 109.149L89.7036 112.372C89.9141 113.214 90.4001 113.961 91.0841 114.495C91.7681 115.029 92.611 115.319 93.4787 115.318H162.051C162.918 115.319 163.761 115.029 164.445 114.495C165.129 113.961 165.615 113.214 165.826 112.372L166.631 109.149C166.679 108.958 166.682 108.759 166.642 108.566C166.601 108.373 166.516 108.192 166.395 108.037ZM93.4787 112.725C93.1892 112.725 92.908 112.628 92.6798 112.45C92.4516 112.272 92.2895 112.023 92.2195 111.742L91.8174 110.131H121.28V111.428C121.28 111.772 121.417 112.102 121.66 112.345C121.903 112.588 122.233 112.725 122.577 112.725H93.4787ZM163.31 111.742C163.24 112.023 163.078 112.272 162.85 112.45C162.621 112.628 162.34 112.725 162.051 112.725H132.952C133.296 112.725 133.626 112.588 133.869 112.345C134.112 112.102 134.249 111.772 134.249 111.428V110.131H163.712L163.31 111.742Z" fill="#BB0823"/>
<path d="M160.182 58.2573H149.807V43.992C149.807 42.2723 149.124 40.623 147.908 39.407C146.692 38.191 145.043 37.5078 143.323 37.5078H112.199C110.479 37.5078 108.83 38.191 107.614 39.407C106.398 40.623 105.714 42.2723 105.714 43.992V58.2573H95.3397C94.3089 58.2604 93.3211 58.6713 92.5921 59.4002C91.8632 60.1292 91.4523 61.1169 91.4492 62.1478V101.053C91.4523 102.084 91.8632 103.072 92.5921 103.801C93.3211 104.53 94.3089 104.941 95.3397 104.944H160.182C161.213 104.941 162.201 104.53 162.93 103.801C163.658 103.072 164.069 102.084 164.072 101.053V62.1478C164.069 61.1169 163.658 60.1292 162.93 59.4002C162.201 58.6713 161.213 58.2604 160.182 58.2573ZM108.308 43.992C108.311 42.9611 108.722 41.9734 109.451 41.2444C110.18 40.5155 111.168 40.1046 112.199 40.1015H143.323C144.354 40.1046 145.342 40.5155 146.071 41.2444C146.8 41.9734 147.21 42.9611 147.213 43.992V58.2573H142.96C144.031 56.7388 144.61 54.9282 144.62 53.0699V43.992C144.62 43.6481 144.483 43.3182 144.24 43.075C143.997 42.8318 143.667 42.6952 143.323 42.6952H122.573C119.479 42.7 116.514 43.9312 114.326 46.119C112.138 48.3068 110.907 51.2728 110.902 54.3668V56.9605C110.909 57.3986 110.97 57.8342 111.083 58.2573H108.308V43.992ZM135.853 75.1163C134.509 76.7916 132.678 78.0085 130.613 78.599C128.548 79.1895 126.35 79.1244 124.324 78.4128C122.297 77.7012 120.541 76.3782 119.299 74.6263C118.056 72.8744 117.388 70.7799 117.386 68.6321V59.1132L124.908 55.8971C124.788 56.4336 124.553 56.938 124.22 57.3755C124.009 57.5851 123.784 57.7801 123.546 57.959C123.2 58.1467 122.925 58.4417 122.761 58.7995C122.597 59.1574 122.554 59.5588 122.638 59.9432C122.733 60.2177 122.896 60.4638 123.111 60.6587C123.327 60.8537 123.588 60.9912 123.87 61.0585C125.137 61.2805 126.436 61.2384 127.686 60.9349C128.935 60.6314 130.109 60.073 131.133 59.2948C131.712 58.8539 132.227 58.3345 132.663 57.7515L138.136 59.2429V68.6321C138.136 69.9663 137.876 71.2879 137.37 72.5226H127.761V75.1163H135.853ZM130.873 85.2316L134.478 87.942L127.761 91.7807L121.043 87.942L124.648 85.2316C124.808 85.1099 124.938 84.9531 125.028 84.7732C125.118 84.5933 125.166 84.3953 125.167 84.1942V81.3411C126.879 81.6869 128.643 81.6869 130.355 81.3411V84.1942C130.356 84.3953 130.403 84.5933 130.493 84.7732C130.583 84.9531 130.713 85.1099 130.873 85.2316ZM132.455 55.0152C132.186 54.9391 131.899 54.9538 131.639 55.0569C131.379 55.16 131.16 55.3459 131.016 55.5858C130.641 56.222 130.148 56.781 129.563 57.2328C128.689 57.8816 127.678 58.3209 126.607 58.5167C127.286 57.2745 127.68 55.8968 127.761 54.4835C127.777 54.3036 127.756 54.1224 127.698 53.9513C127.64 53.7802 127.547 53.6231 127.425 53.4901C127.303 53.357 127.154 53.2509 126.989 53.1785C126.823 53.1062 126.645 53.0692 126.464 53.0699H125.167C124.993 53.0705 124.821 53.1058 124.661 53.1737L115.583 57.0642C115.349 57.1635 115.149 57.3296 115.008 57.5417C114.868 57.7539 114.793 58.0027 114.792 58.2573V59.191C114.399 58.9659 114.073 58.6412 113.845 58.2496C113.617 57.8581 113.497 57.4134 113.496 56.9605V54.3668C113.498 51.96 114.456 49.6526 116.157 47.9508C117.859 46.2489 120.167 45.2916 122.573 45.2889H142.026V53.0699C142.023 54.6608 141.432 56.1943 140.366 57.3755C140.207 57.1989 140 57.0727 139.77 57.0123L132.455 55.0152ZM114.792 63.4447V67.3352C114.448 67.3352 114.119 67.1986 113.875 66.9554C113.632 66.7122 113.496 66.3823 113.496 66.0384V64.7415C113.496 64.3976 113.632 64.0677 113.875 63.8245C114.119 63.5813 114.448 63.4447 114.792 63.4447ZM140.729 63.4447C141.073 63.4447 141.403 63.5813 141.646 63.8245C141.889 64.0677 142.026 64.3976 142.026 64.7415V66.0384C142.026 66.3823 141.889 66.7122 141.646 66.9554C141.403 67.1986 141.073 67.3352 140.729 67.3352V63.4447ZM140.664 69.9289H140.729C141.76 69.9258 142.748 69.5149 143.477 68.786C144.206 68.057 144.617 67.0693 144.62 66.0384H147.213V68.6321C147.21 69.6629 146.8 70.6507 146.071 71.3797C145.342 72.1086 144.354 72.5195 143.323 72.5226H140.133C140.397 71.6781 140.575 70.8091 140.664 69.9289ZM144.386 63.4447C144.117 62.689 143.622 62.0345 142.967 61.5704C142.313 61.1063 141.531 60.8551 140.729 60.851H147.213V63.4447H144.386ZM108.308 60.851H112.692C112.847 60.9807 112.99 61.1104 113.145 61.2271C112.681 61.4457 112.264 61.7542 111.919 62.1348C111.574 62.5155 111.307 62.9606 111.135 63.4447H108.308V60.851ZM104.418 93.2721V102.35H95.3397C94.9958 102.35 94.6659 102.213 94.4227 101.97C94.1795 101.727 94.0429 101.397 94.0429 101.053V62.1478C94.0429 61.8039 94.1795 61.474 94.4227 61.2308C94.6659 60.9876 94.9958 60.851 95.3397 60.851H105.714V64.7415C105.714 65.0855 105.851 65.4153 106.094 65.6585C106.338 65.9017 106.667 66.0384 107.011 66.0384H110.902C110.905 67.0693 111.316 68.057 112.045 68.786C112.774 69.5149 113.762 69.9258 114.792 69.9289H114.857C115.092 72.2179 115.93 74.4035 117.285 76.2627C118.641 78.1219 120.466 79.588 122.573 80.5111V83.5457L118.255 86.7879H110.902C109.182 86.7879 107.533 87.471 106.317 88.687C105.101 89.9031 104.418 91.5524 104.418 93.2721ZM148.51 102.35H107.011V93.2721C107.014 92.2412 107.425 91.2534 108.154 90.5245C108.883 89.7955 109.871 89.3846 110.902 89.3815H118.333L127.112 94.4003C127.311 94.5088 127.534 94.5657 127.761 94.5657C127.987 94.5657 128.21 94.5088 128.409 94.4003L137.189 89.3815H144.62C145.651 89.3846 146.638 89.7955 147.367 90.5245C148.096 91.2534 148.507 92.2412 148.51 93.2721V102.35ZM161.479 101.053C161.479 101.397 161.342 101.727 161.099 101.97C160.856 102.213 160.526 102.35 160.182 102.35H151.104V93.2721C151.104 91.5524 150.421 89.9031 149.205 88.687C147.989 87.471 146.34 86.7879 144.62 86.7879H137.267L132.948 83.5457V80.5111C135.477 79.3943 137.588 77.5059 138.979 75.1163H143.323C145.043 75.1163 146.692 74.4331 147.908 73.2171C149.124 72.0011 149.807 70.3518 149.807 68.6321V60.851H160.182C160.526 60.851 160.856 60.9876 161.099 61.2308C161.342 61.474 161.479 61.8039 161.479 62.1478V101.053Z" fill="#BB0823"/>
<path d="M158.891 63.4443H156.297V66.038H158.891V63.4443Z" fill="#BB0823"/>
<path d="M158.891 68.6318H156.297V71.2255H158.891V68.6318Z" fill="#BB0823"/>
<path d="M158.891 73.8198H156.297V76.4135H158.891V73.8198Z" fill="#BB0823"/>
<path d="M99.2343 86.7876H96.6406V89.3813H99.2343V86.7876Z" fill="#BB0823"/>
<path d="M99.2343 91.9753H96.6406V94.569H99.2343V91.9753Z" fill="#BB0823"/>
<path d="M99.2343 97.1628H96.6406V99.7565H99.2343V97.1628Z" fill="#BB0823"/>
<defs>
<filter id="filter0_d" x="0.317785" y="0.623075" width="264.152" height="219.586" filterUnits="userSpaceOnUse" color-interpolation-filters="sRGB">
<feFlood flood-opacity="0" result="BackgroundImageFix"/>
<feColorMatrix in="SourceAlpha" type="matrix" values="0 0 0 0 0 0 0 0 0 0 0 0 0 0 0 0 0 0 127 0"/>
<feMorphology radius="1.84423" operator="dilate" in="SourceAlpha" result="effect1_dropShadow"/>
<feOffset dx="4.61058" dy="6.91587"/>
<feGaussianBlur stdDeviation="6.22428"/>
<feColorMatrix type="matrix" values="0 0 0 0 0.737255 0 0 0 0 0.0470588 0 0 0 0 0.141176 0 0 0 0.13 0"/>
<feBlend mode="normal" in2="BackgroundImageFix" result="effect1_dropShadow"/>
<feBlend mode="normal" in="SourceGraphic" in2="effect1_dropShadow" result="shape"/>
</filter>
</defs>
</svg>
