<svg width="60" height="60" viewBox="0 0 60 60" fill="none" xmlns="http://www.w3.org/2000/svg">
<path d="M55.4304 13.8189C46.4912 -0.000456818 28.2403 -4.10891 14.0866 4.4815C0.305304 13.0719 -4.1643 31.7467 4.77491 45.566L5.51984 46.6865L2.5401 57.8914L13.7141 54.9035L14.8315 55.6504C19.6736 58.2649 24.8881 59.7589 30.1026 59.7589C35.6896 59.7589 41.2766 58.2649 46.1187 55.2769C59.9 46.313 63.9971 28.0117 55.4304 13.8189ZM47.6086 42.5781C46.1187 44.8191 44.2564 46.313 41.6491 46.6865C40.1592 46.6865 38.2969 47.4335 30.8476 44.4456C24.5156 41.4576 19.3011 36.6021 15.5764 30.9997C13.3416 28.3852 12.2242 25.0238 11.8518 21.6623C11.8518 18.6743 12.9692 16.0599 14.8315 14.1924C15.5764 13.4454 16.3214 13.0719 17.0663 13.0719H18.9286C19.6736 13.0719 20.4185 13.0719 20.791 14.5659C21.5359 16.4334 23.3982 20.9153 23.3982 21.2888C23.7707 21.6623 23.7707 22.4093 23.3982 22.7828C23.7707 23.5298 23.3982 24.2768 23.0258 24.6503C22.6533 25.0238 22.2808 25.7708 21.9084 26.1443C21.1634 26.5178 20.791 27.2647 21.1634 28.0117C22.6533 30.2527 24.5156 32.4937 26.378 34.3612C28.6128 36.2286 30.8476 37.7226 33.4548 38.8431C34.1998 39.2166 34.9447 39.2166 35.3172 38.4696C35.6896 37.7226 37.552 35.8552 38.2969 35.1082C39.0418 34.3612 39.4143 34.3612 40.1592 34.7347L46.1187 37.7226C46.8636 38.0961 47.6086 38.4696 47.981 38.8431C48.3535 39.9636 48.3535 41.4576 47.6086 42.5781Z" fill="#59CB00"/>
</svg>
