<svg width="197" height="165" viewBox="0 0 197 165" fill="none" xmlns="http://www.w3.org/2000/svg">
<g filter="url(#filter0_d)">
<rect x="7.40234" y="6.47339" width="175.185" height="142.042" rx="5.48602" fill="#F5F5F5"/>
<rect x="7.57378" y="6.64483" width="174.842" height="141.699" rx="5.31459" stroke="#B5B5B5" stroke-width="0.342877"/>
</g>
<path d="M64.536 109.307V114.093H63.1455V101.596H67.7684C69.0927 101.596 70.0859 101.903 70.748 102.517C71.4222 103.131 71.7593 104.088 71.7593 105.388C71.7593 107.315 70.9948 108.525 69.4659 109.018L71.8676 114.093H70.3327L68.0754 109.307H64.536ZM67.7865 108.079C69.4839 108.079 70.3327 107.206 70.3327 105.461C70.3327 103.703 69.4779 102.824 67.7684 102.824H64.536V108.079H67.7865ZM80.0195 112.973L80.5432 112.919L80.5793 113.984C79.2069 114.177 78.0331 114.273 77.058 114.273C75.7578 114.273 74.8368 113.9 74.2951 113.154C73.7533 112.395 73.4824 111.221 73.4824 109.632C73.4824 106.466 74.7405 104.883 77.2566 104.883C78.4725 104.883 79.3815 105.226 79.9834 105.912C80.5854 106.586 80.8863 107.652 80.8863 109.108L80.8141 110.138H74.8549C74.8549 111.137 75.0354 111.877 75.3966 112.359C75.7578 112.84 76.3838 113.081 77.2747 113.081C78.1776 113.081 79.0925 113.045 80.0195 112.973ZM79.532 109.054C79.532 107.947 79.3514 107.164 78.9902 106.707C78.6411 106.249 78.0632 106.02 77.2566 106.02C76.462 106.02 75.8601 106.261 75.4508 106.743C75.0535 107.224 74.8488 107.995 74.8368 109.054H79.532ZM89.3716 107.79V112.413C89.4077 112.859 89.7568 113.123 90.419 113.208L90.3648 114.273C89.4137 114.273 88.6974 114.032 88.2159 113.551C87.1324 114.032 86.0489 114.273 84.9654 114.273C84.1347 114.273 83.5026 114.038 83.0693 113.569C82.6359 113.099 82.4192 112.425 82.4192 111.546C82.4192 110.667 82.6419 110.023 83.0873 109.614C83.5327 109.193 84.231 108.934 85.1821 108.838L88.0172 108.567V107.79C88.0172 107.176 87.8848 106.737 87.6199 106.472C87.3551 106.207 86.9939 106.075 86.5364 106.075C85.5733 106.075 84.5741 106.135 83.5388 106.255L82.979 106.309L82.9248 105.28C84.2491 105.015 85.4228 104.883 86.4461 104.883C87.4694 104.883 88.2098 105.118 88.6673 105.587C89.1368 106.057 89.3716 106.791 89.3716 107.79ZM83.8096 111.474C83.8096 112.582 84.2671 113.135 85.1821 113.135C86.0007 113.135 86.8073 112.997 87.6019 112.72L88.0172 112.576V109.596L85.3446 109.849C84.8028 109.897 84.4116 110.054 84.1708 110.318C83.93 110.583 83.8096 110.968 83.8096 111.474ZM92.1521 114.093V101.127H93.5065V114.093H92.1521ZM96.2233 114.093V105.063H97.5776V114.093H96.2233ZM96.2233 103.023V101.452H97.5776V103.023H96.2233ZM99.6318 106.273V105.063H106.331V106.273L101.275 112.883H106.331V114.093H99.6318V112.883L104.688 106.273H99.6318ZM114.478 112.973L115.002 112.919L115.038 113.984C113.666 114.177 112.492 114.273 111.517 114.273C110.217 114.273 109.296 113.9 108.754 113.154C108.212 112.395 107.941 111.221 107.941 109.632C107.941 106.466 109.199 104.883 111.715 104.883C112.931 104.883 113.84 105.226 114.442 105.912C115.044 106.586 115.345 107.652 115.345 109.108L115.273 110.138H109.314C109.314 111.137 109.494 111.877 109.855 112.359C110.217 112.84 110.843 113.081 111.733 113.081C112.636 113.081 113.551 113.045 114.478 112.973ZM113.991 109.054C113.991 107.947 113.81 107.164 113.449 106.707C113.1 106.249 112.522 106.02 111.715 106.02C110.921 106.02 110.319 106.261 109.91 106.743C109.512 107.224 109.308 107.995 109.296 109.054H113.991ZM127.798 107.79V112.413C127.834 112.859 128.184 113.123 128.846 113.208L128.791 114.273C127.84 114.273 127.124 114.032 126.643 113.551C125.559 114.032 124.476 114.273 123.392 114.273C122.561 114.273 121.929 114.038 121.496 113.569C121.063 113.099 120.846 112.425 120.846 111.546C120.846 110.667 121.069 110.023 121.514 109.614C121.959 109.193 122.658 108.934 123.609 108.838L126.444 108.567V107.79C126.444 107.176 126.311 106.737 126.047 106.472C125.782 106.207 125.421 106.075 124.963 106.075C124 106.075 123.001 106.135 121.965 106.255L121.406 106.309L121.351 105.28C122.676 105.015 123.85 104.883 124.873 104.883C125.896 104.883 126.637 105.118 127.094 105.587C127.564 106.057 127.798 106.791 127.798 107.79ZM122.236 111.474C122.236 112.582 122.694 113.135 123.609 113.135C124.427 113.135 125.234 112.997 126.029 112.72L126.444 112.576V109.596L123.771 109.849C123.23 109.897 122.838 110.054 122.598 110.318C122.357 110.583 122.236 110.968 122.236 111.474ZM68.4388 129.79V134.413C68.4749 134.859 68.8241 135.123 69.4862 135.208L69.432 136.273C68.481 136.273 67.7646 136.032 67.2831 135.551C66.1996 136.032 65.1161 136.273 64.0326 136.273C63.2019 136.273 62.5699 136.038 62.1365 135.569C61.7031 135.099 61.4864 134.425 61.4864 133.546C61.4864 132.667 61.7091 132.023 62.1546 131.614C62.6 131.193 63.2982 130.934 64.2493 130.838L67.0845 130.567V129.79C67.0845 129.176 66.952 128.737 66.6872 128.472C66.4223 128.207 66.0612 128.075 65.6037 128.075C64.6406 128.075 63.6413 128.135 62.606 128.255L62.0462 128.309L61.992 127.28C63.3163 127.015 64.4901 126.883 65.5134 126.883C66.5367 126.883 67.2771 127.118 67.7346 127.587C68.2041 128.057 68.4388 128.791 68.4388 129.79ZM62.8769 133.474C62.8769 134.582 63.3344 135.135 64.2493 135.135C65.0679 135.135 65.8746 134.997 66.6691 134.72L67.0845 134.576V131.596L64.4118 131.849C63.8701 131.897 63.4788 132.054 63.238 132.318C62.9973 132.583 62.8769 132.968 62.8769 133.474ZM75.7881 128.237H72.9168V132.553C72.9168 133.588 72.9891 134.269 73.1335 134.594C73.29 134.919 73.6512 135.081 74.217 135.081L75.8242 134.973L75.9145 136.093C75.1079 136.225 74.4939 136.291 74.0726 136.291C73.1335 136.291 72.4834 136.062 72.1223 135.605C71.7611 135.147 71.5805 134.275 71.5805 132.987V128.237H70.2984V127.063H71.5805V124.3H72.9168V127.063H75.7881V128.237ZM77.442 136.093V127.063H78.7964V136.093H77.442ZM77.442 125.023V123.452H78.7964V125.023H77.442ZM80.5435 127.063H81.9882L84.101 134.919H84.7691L86.9542 127.063H88.3447L85.7984 136.093H83.0897L80.5435 127.063ZM90.0863 136.093V127.063H91.4407V136.093H90.0863ZM90.0863 125.023V123.452H91.4407V125.023H90.0863ZM100.971 123.127V136.093H99.6346V135.479C98.7076 136.008 97.7927 136.273 96.8897 136.273C96.4082 136.273 95.9868 136.213 95.6257 136.093C95.2645 135.972 94.9274 135.755 94.6144 135.442C93.9643 134.792 93.6393 133.594 93.6393 131.849C93.6393 130.091 93.9282 128.827 94.5061 128.057C95.096 127.274 96.0651 126.883 97.4134 126.883C98.1117 126.883 98.8521 126.961 99.6346 127.118V123.127H100.971ZM95.6618 134.467C95.8544 134.696 96.0591 134.853 96.2758 134.937C96.4925 135.021 96.7694 135.063 97.1064 135.063C97.4556 135.063 97.8408 135.009 98.2622 134.901C98.6956 134.78 99.0327 134.666 99.2734 134.558L99.6346 134.395V128.273C98.8641 128.129 98.1478 128.057 97.4857 128.057C96.5707 128.057 95.9327 128.352 95.5715 128.941C95.2103 129.519 95.0297 130.422 95.0297 131.65C95.0297 133.047 95.2404 133.986 95.6618 134.467ZM109.969 129.79V134.413C110.005 134.859 110.355 135.123 111.017 135.208L110.962 136.273C110.011 136.273 109.295 136.032 108.814 135.551C107.73 136.032 106.647 136.273 105.563 136.273C104.732 136.273 104.1 136.038 103.667 135.569C103.234 135.099 103.017 134.425 103.017 133.546C103.017 132.667 103.24 132.023 103.685 131.614C104.13 131.193 104.829 130.934 105.78 130.838L108.615 130.567V129.79C108.615 129.176 108.482 128.737 108.218 128.472C107.953 128.207 107.592 128.075 107.134 128.075C106.171 128.075 105.172 128.135 104.136 128.255L103.577 128.309L103.522 127.28C104.847 127.015 106.021 126.883 107.044 126.883C108.067 126.883 108.808 127.118 109.265 127.587C109.735 128.057 109.969 128.791 109.969 129.79ZM104.407 133.474C104.407 134.582 104.865 135.135 105.78 135.135C106.598 135.135 107.405 134.997 108.2 134.72L108.615 134.576V131.596L105.942 131.849C105.401 131.897 105.009 132.054 104.769 132.318C104.528 132.583 104.407 132.968 104.407 133.474ZM119.576 123.127V136.093H118.24V135.479C117.313 136.008 116.398 136.273 115.495 136.273C115.013 136.273 114.592 136.213 114.231 136.093C113.869 135.972 113.532 135.755 113.219 135.442C112.569 134.792 112.244 133.594 112.244 131.849C112.244 130.091 112.533 128.827 113.111 128.057C113.701 127.274 114.67 126.883 116.018 126.883C116.717 126.883 117.457 126.961 118.24 127.118V123.127H119.576ZM114.267 134.467C114.459 134.696 114.664 134.853 114.881 134.937C115.097 135.021 115.374 135.063 115.711 135.063C116.061 135.063 116.446 135.009 116.867 134.901C117.301 134.78 117.638 134.666 117.878 134.558L118.24 134.395V128.273C117.469 128.129 116.753 128.057 116.091 128.057C115.176 128.057 114.538 128.352 114.176 128.941C113.815 129.519 113.635 130.422 113.635 131.65C113.635 133.047 113.845 133.986 114.267 134.467ZM128.339 134.973L128.863 134.919L128.899 135.984C127.527 136.177 126.353 136.273 125.378 136.273C124.078 136.273 123.157 135.9 122.615 135.154C122.073 134.395 121.802 133.221 121.802 131.632C121.802 128.466 123.06 126.883 125.577 126.883C126.792 126.883 127.701 127.226 128.303 127.912C128.905 128.586 129.206 129.652 129.206 131.108L129.134 132.138H123.175C123.175 133.137 123.355 133.877 123.717 134.359C124.078 134.84 124.704 135.081 125.595 135.081C126.498 135.081 127.412 135.045 128.339 134.973ZM127.852 131.054C127.852 129.947 127.671 129.164 127.31 128.707C126.961 128.249 126.383 128.02 125.577 128.02C124.782 128.02 124.18 128.261 123.771 128.743C123.373 129.224 123.169 129.995 123.157 131.054H127.852Z" fill="#BB0823"/>
<path d="M103.45 88.9644H73.6312C73.2397 88.9644 72.9219 88.6481 72.9219 88.2594V36.5661C72.9219 36.1775 73.2397 35.8621 73.6312 35.8621H115.988C116.38 35.8621 116.698 36.1775 116.698 36.5661V75.9076C116.698 77.0579 116.227 78.184 115.408 78.9956L106.773 87.5477C106.766 87.5545 106.76 87.5597 106.753 87.5666C105.918 88.4279 104.746 88.9644 103.45 88.9644ZM74.3405 87.5545H103.45C105.196 87.5545 106.617 86.1447 106.617 84.4116V77.7439C106.617 77.5342 106.712 77.3348 106.874 77.2006C107.037 77.0665 107.256 77.0115 107.461 77.0527C109.035 77.3518 113.376 77.8694 115.134 76.8119C115.229 76.5213 115.279 76.2153 115.279 75.9075V37.2702H74.3405V87.5545ZM108.036 78.5778V84.3067L113.677 78.7205C111.666 79.0265 109.3 78.7669 108.036 78.5778Z" fill="#BB0823"/>
<path d="M82.3958 53.4323C79.0995 53.4323 76.418 50.7707 76.418 47.4987C76.418 44.2267 79.0994 41.5652 82.3958 41.5652C85.6922 41.5652 88.3736 44.2267 88.3736 47.4987C88.3736 50.7707 85.6921 53.4323 82.3958 53.4323ZM82.3958 42.9752C79.8824 42.9752 77.8367 45.0041 77.8367 47.4988C77.8367 49.9936 79.8824 52.0225 82.3958 52.0225C84.9092 52.0225 86.9549 49.9936 86.9549 47.4988C86.9549 45.0041 84.9092 42.9752 82.3958 42.9752Z" fill="#BB0823"/>
<path d="M80.8053 49.578C80.7585 49.578 80.7125 49.5728 80.6658 49.5643C80.4657 49.5231 80.2925 49.401 80.1903 49.2256L79.3918 47.8518C79.196 47.5148 79.3129 47.0833 79.6525 46.889C79.9929 46.6981 80.4258 46.8117 80.6216 47.147L81.0166 47.8278L84.4186 45.2488C84.7303 45.0151 85.1756 45.0752 85.4129 45.3812C85.651 45.6907 85.5913 46.1326 85.2795 46.3699L81.2357 49.4338C81.111 49.5282 80.9594 49.578 80.8053 49.578Z" fill="#BB0823"/>
<path d="M111.191 46.5135H90.6507C90.2593 46.5135 89.9414 46.1972 89.9414 45.8085C89.9414 45.42 90.2593 45.1035 90.6507 45.1035H111.191C111.582 45.1035 111.9 45.4198 111.9 45.8085C111.9 46.1972 111.582 46.5135 111.191 46.5135Z" fill="#BB0823"/>
<path d="M101.825 51.1079H90.6507C90.2593 51.1079 89.9414 50.7916 89.9414 50.4029C89.9414 50.0143 90.2593 49.698 90.6507 49.698H101.825C102.217 49.698 102.534 50.0143 102.534 50.4029C102.534 50.7916 102.217 51.1079 101.825 51.1079Z" fill="#BB0823"/>
<path d="M82.3997 68.4076C79.1034 68.4076 76.4219 65.7461 76.4219 62.4741C76.4219 59.2022 79.1033 56.5405 82.3997 56.5405C85.6961 56.5405 88.3775 59.202 88.3775 62.4741C88.3775 65.7461 85.696 68.4076 82.3997 68.4076ZM82.3997 57.9505C79.8863 57.9505 77.8406 59.9794 77.8406 62.4742C77.8406 64.969 79.8863 66.9978 82.3997 66.9978C84.9131 66.9978 86.9588 64.969 86.9588 62.4742C86.9588 59.9794 84.9131 57.9505 82.3997 57.9505Z" fill="#BB0823"/>
<path d="M80.8092 64.552C80.7624 64.552 80.7165 64.5468 80.6697 64.5382C80.4696 64.497 80.2964 64.3749 80.1942 64.1995L79.3957 62.8258C79.1999 62.4887 79.3168 62.0572 79.6564 61.863C79.9968 61.6721 80.4298 61.7856 80.6255 62.1209L81.0205 62.8017L84.4225 60.2227C84.7342 59.989 85.1795 60.0474 85.4168 60.3552C85.655 60.6646 85.5952 61.1064 85.2834 61.3438L81.2396 64.4077C81.115 64.5021 80.9633 64.552 80.8092 64.552Z" fill="#BB0823"/>
<path d="M111.195 60.7232H90.6546C90.2632 60.7232 89.9453 60.4069 89.9453 60.0182C89.9453 59.6296 90.2632 59.3132 90.6546 59.3132H111.195C111.586 59.3132 111.904 59.6296 111.904 60.0182C111.904 60.4069 111.586 60.7232 111.195 60.7232Z" fill="#BB0823"/>
<path d="M101.829 65.3183H90.6546C90.2632 65.3183 89.9453 65.002 89.9453 64.6133C89.9453 64.2248 90.2632 63.9084 90.6546 63.9084H101.829C102.22 63.9084 102.538 64.2248 102.538 64.6133C102.538 65.0019 102.22 65.3183 101.829 65.3183Z" fill="#BB0823"/>
<path d="M82.3997 83.3817C79.1034 83.3817 76.4219 80.7202 76.4219 77.4482C76.4219 74.1763 79.1033 71.5146 82.3997 71.5146C85.6961 71.5146 88.3775 74.1762 88.3775 77.4482C88.3775 80.7202 85.696 83.3817 82.3997 83.3817ZM82.3997 72.9246C79.8863 72.9246 77.8406 74.9535 77.8406 77.4483C77.8406 79.9431 79.8863 81.972 82.3997 81.972C84.9131 81.972 86.9588 79.9431 86.9588 77.4483C86.9588 74.9535 84.9131 72.9246 82.3997 72.9246Z" fill="#BB0823"/>
<path d="M80.8092 79.5271C80.7624 79.5271 80.7165 79.5218 80.6697 79.5133C80.4696 79.4721 80.2964 79.35 80.1942 79.1746L79.3957 77.8009C79.1999 77.4638 79.3168 77.0323 79.6564 76.8381C79.9968 76.6455 80.4298 76.7607 80.6255 77.096L81.0205 77.7768L84.4225 75.1978C84.7342 74.9641 85.1795 75.0225 85.4168 75.3302C85.655 75.6397 85.5952 76.0817 85.2834 76.3189L81.2396 79.3828C81.115 79.4772 80.9633 79.5271 80.8092 79.5271Z" fill="#BB0823"/>
<path d="M111.195 74.9307H90.6546C90.2632 74.9307 89.9453 74.6144 89.9453 74.2257C89.9453 73.8371 90.2632 73.5208 90.6546 73.5208H111.195C111.586 73.5208 111.904 73.8371 111.904 74.2257C111.904 74.6144 111.586 74.9307 111.195 74.9307Z" fill="#BB0823"/>
<path d="M101.829 79.5268H90.6546C90.2632 79.5268 89.9453 79.2105 89.9453 78.8218C89.9453 78.4333 90.2632 78.1169 90.6546 78.1169H101.829C102.22 78.1169 102.538 78.4333 102.538 78.8218C102.538 79.2105 102.22 79.5268 101.829 79.5268Z" fill="#BB0823"/>
<defs>
<filter id="filter0_d" x="0.201936" y="0.987363" width="196.443" height="163.3" filterUnits="userSpaceOnUse" color-interpolation-filters="sRGB">
<feFlood flood-opacity="0" result="BackgroundImageFix"/>
<feColorMatrix in="SourceAlpha" type="matrix" values="0 0 0 0 0 0 0 0 0 0 0 0 0 0 0 0 0 0 127 0"/>
<feMorphology radius="1.37151" operator="dilate" in="SourceAlpha" result="effect1_dropShadow"/>
<feOffset dx="3.42877" dy="5.14315"/>
<feGaussianBlur stdDeviation="4.62883"/>
<feColorMatrix type="matrix" values="0 0 0 0 0.737255 0 0 0 0 0.0470588 0 0 0 0 0.141176 0 0 0 0.13 0"/>
<feBlend mode="normal" in2="BackgroundImageFix" result="effect1_dropShadow"/>
<feBlend mode="normal" in="SourceGraphic" in2="effect1_dropShadow" result="shape"/>
</filter>
</defs>
</svg>
