<svg width="230" height="191" viewBox="0 0 230 191" fill="none" xmlns="http://www.w3.org/2000/svg">
<g filter="url(#filter0_d)">
<rect x="9" y="7" width="203.723" height="165.181" rx="6.37972" fill="#F5F5F5"/>
<rect x="9.19937" y="7.19937" width="203.324" height="164.782" rx="6.18035" stroke="#B5B5B5" stroke-width="0.398732"/>
</g>
<path d="M69.1833 124.912H74.4543C75.8963 124.912 76.9743 125.213 77.6883 125.815C78.4163 126.403 78.7803 127.334 78.7803 128.608C78.7803 129.518 78.6193 130.232 78.2973 130.75C77.9893 131.254 77.5273 131.653 76.9113 131.947C78.4513 132.479 79.2213 133.62 79.2213 135.37C79.2213 136.826 78.8363 137.869 78.0663 138.499C77.2963 139.129 76.1833 139.444 74.7273 139.444H69.1833V124.912ZM74.5593 132.766H70.8003V138.016H74.6643C75.6163 138.016 76.3373 137.82 76.8273 137.428C77.3313 137.022 77.5833 136.315 77.5833 135.307C77.5833 134.775 77.4783 134.327 77.2683 133.963C77.0723 133.599 76.8063 133.34 76.4703 133.186C75.8543 132.906 75.2173 132.766 74.5593 132.766ZM74.3913 126.34H70.8003V131.359H74.5383C75.4343 131.359 76.0853 131.149 76.4913 130.729C76.9113 130.295 77.1213 129.651 77.1213 128.797C77.1213 127.929 76.8973 127.306 76.4493 126.928C76.0153 126.536 75.3293 126.34 74.3913 126.34ZM81.8507 139.444V128.944H83.4257V139.444H81.8507ZM81.8507 126.571V124.744H83.4257V126.571H81.8507ZM91.0855 128.734C92.4995 128.734 93.4865 129.14 94.0465 129.952C94.6205 130.75 94.9075 132.157 94.9075 134.173C94.9075 136.189 94.5505 137.61 93.8365 138.436C93.1365 139.248 91.8415 139.654 89.9515 139.654C89.3635 139.654 88.3905 139.598 87.0325 139.486L86.4445 139.423V124.366H87.9985V129.469C89.0625 128.979 90.0915 128.734 91.0855 128.734ZM89.9305 138.247C91.3025 138.247 92.2055 137.939 92.6395 137.323C93.0875 136.693 93.3115 135.636 93.3115 134.152C93.3115 132.668 93.1365 131.632 92.7865 131.044C92.4365 130.442 91.8135 130.141 90.9175 130.141C90.1055 130.141 89.2725 130.295 88.4185 130.603L87.9985 130.75V138.142C88.9085 138.212 89.5525 138.247 89.9305 138.247ZM97.6242 139.444V124.366H99.1992V139.444H97.6242ZM102.359 139.444V128.944H103.934V139.444H102.359ZM102.359 126.571V124.744H103.934V126.571H102.359ZM106.49 134.173C106.49 132.255 106.833 130.869 107.519 130.015C108.205 129.161 109.36 128.734 110.984 128.734C112.622 128.734 113.777 129.161 114.449 130.015C115.135 130.869 115.478 132.255 115.478 134.173C115.478 136.091 115.156 137.484 114.512 138.352C113.868 139.22 112.692 139.654 110.984 139.654C109.276 139.654 108.1 139.22 107.456 138.352C106.812 137.484 106.49 136.091 106.49 134.173ZM108.107 134.152C108.107 135.678 108.289 136.749 108.653 137.365C109.031 137.981 109.808 138.289 110.984 138.289C112.174 138.289 112.951 137.988 113.315 137.386C113.679 136.77 113.861 135.692 113.861 134.152C113.861 132.612 113.658 131.555 113.252 130.981C112.846 130.393 112.09 130.099 110.984 130.099C109.892 130.099 109.136 130.393 108.716 130.981C108.31 131.555 108.107 132.612 108.107 134.152ZM123.404 130.309H120.065V135.328C120.065 136.532 120.149 137.323 120.317 137.701C120.499 138.079 120.919 138.268 121.577 138.268L123.446 138.142L123.551 139.444C122.613 139.598 121.899 139.675 121.409 139.675C120.317 139.675 119.561 139.409 119.141 138.877C118.721 138.345 118.511 137.33 118.511 135.832V130.309H117.02V128.944H118.511V125.731H120.065V128.944H123.404V130.309ZM132.467 138.142L133.076 138.079L133.118 139.318C131.522 139.542 130.157 139.654 129.023 139.654C127.511 139.654 126.44 139.22 125.81 138.352C125.18 137.47 124.865 136.105 124.865 134.257C124.865 130.575 126.328 128.734 129.254 128.734C130.668 128.734 131.725 129.133 132.425 129.931C133.125 130.715 133.475 131.954 133.475 133.648L133.391 134.845H126.461C126.461 136.007 126.671 136.868 127.091 137.428C127.511 137.988 128.239 138.268 129.275 138.268C130.325 138.268 131.389 138.226 132.467 138.142ZM131.9 133.585C131.9 132.297 131.69 131.387 131.27 130.855C130.864 130.323 130.192 130.057 129.254 130.057C128.33 130.057 127.63 130.337 127.154 130.897C126.692 131.457 126.454 132.353 126.44 133.585H131.9ZM139.857 128.734C140.319 128.734 141.103 128.818 142.209 128.986L142.713 129.049L142.65 130.33C141.53 130.204 140.704 130.141 140.172 130.141C138.982 130.141 138.17 130.428 137.736 131.002C137.316 131.562 137.106 132.612 137.106 134.152C137.106 135.678 137.302 136.742 137.694 137.344C138.1 137.946 138.933 138.247 140.193 138.247L142.671 138.058L142.734 139.36C141.432 139.556 140.459 139.654 139.815 139.654C138.177 139.654 137.043 139.234 136.413 138.394C135.797 137.554 135.489 136.14 135.489 134.152C135.489 132.15 135.825 130.75 136.497 129.952C137.169 129.14 138.289 128.734 139.857 128.734ZM152.489 132.115V137.491C152.531 138.009 152.937 138.317 153.707 138.415L153.644 139.654C152.538 139.654 151.705 139.374 151.145 138.814C149.885 139.374 148.625 139.654 147.365 139.654C146.399 139.654 145.664 139.381 145.16 138.835C144.656 138.289 144.404 137.505 144.404 136.483C144.404 135.461 144.663 134.712 145.181 134.236C145.699 133.746 146.511 133.445 147.617 133.333L150.914 133.018V132.115C150.914 131.401 150.76 130.89 150.452 130.582C150.144 130.274 149.724 130.12 149.192 130.12C148.072 130.12 146.91 130.19 145.706 130.33L145.055 130.393L144.992 129.196C146.532 128.888 147.897 128.734 149.087 128.734C150.277 128.734 151.138 129.007 151.67 129.553C152.216 130.099 152.489 130.953 152.489 132.115ZM146.021 136.399C146.021 137.687 146.553 138.331 147.617 138.331C148.569 138.331 149.507 138.17 150.431 137.848L150.914 137.68V134.215L147.806 134.509C147.176 134.565 146.721 134.747 146.441 135.055C146.161 135.363 146.021 135.811 146.021 136.399Z" fill="#423F40"/>
<path d="M145.303 58.1228H136.447V46.2381C136.447 45.7384 136.044 45.334 135.545 45.334H123.947V40.9451C123.947 40.4454 123.543 40.041 123.045 40.041H104.103C103.605 40.041 103.202 40.4454 103.202 40.9451V49.3239L90.1395 49.3247V40.9451C90.1395 40.4454 89.7362 40.041 89.2378 40.041H74.972C74.4736 40.041 74.0703 40.4454 74.0703 40.9451V111.464C74.0703 111.964 74.4736 112.368 74.972 112.368H145.303C145.802 112.368 146.205 111.964 146.205 111.464V59.0269C146.205 58.5272 145.802 58.1228 145.303 58.1228ZM136.447 74.1342H144.402V96.3568H136.447V74.1342ZM136.447 72.326V67.7049H144.402V72.326H136.447ZM136.447 98.165H144.402V102.786H136.447V98.165ZM144.402 59.931V65.8968H136.447V59.931H144.402ZM134.643 47.1422V59.0269V110.56H123.947V47.1422H134.643ZM122.143 60.4122H105.005V54.2531H122.143V60.4122ZM105.005 62.2204H122.143V110.56H105.005V62.2204ZM105.005 41.8492H122.143V46.2381V52.4449H105.005V50.2279V41.8492ZM88.3361 90.1889H75.8737V62.2212H88.3361V90.1889ZM88.3361 60.4131H75.8737V54.2539H88.3361V60.4131ZM75.8737 91.9971H88.3361V98.1562H75.8737V91.9971ZM88.3361 41.8492V50.2288V52.4458H75.8737V41.8492H88.3361ZM75.8737 99.9643H88.3361V110.56H75.8737V99.9643ZM90.1395 51.1329L103.202 51.132V110.56H90.1395V51.1329ZM136.447 110.56V104.594H144.402V110.56H136.447Z" fill="#BB0823"/>
<path d="M117.99 90.188H109.159C108.661 90.188 108.258 90.5924 108.258 91.0921C108.258 91.5918 108.661 91.9962 109.159 91.9962H117.99C118.488 91.9962 118.891 91.5918 118.891 91.0921C118.891 90.5924 118.488 90.188 117.99 90.188Z" fill="#BB0823"/>
<path d="M117.99 98.1553H109.159C108.661 98.1553 108.258 98.5596 108.258 99.0594C108.258 99.5591 108.661 99.9635 109.159 99.9635H117.99C118.488 99.9635 118.891 99.5591 118.891 99.0594C118.891 98.5596 118.488 98.1553 117.99 98.1553Z" fill="#BB0823"/>
<path d="M127.046 94.643H131.144C131.643 94.643 132.046 94.2386 132.046 93.7389C132.046 93.2392 131.643 92.8348 131.144 92.8348H127.046C126.548 92.8348 126.145 93.2392 126.145 93.7389C126.145 94.2386 126.548 94.643 127.046 94.643Z" fill="#BB0823"/>
<path d="M127.046 102.61H131.144C131.643 102.61 132.046 102.206 132.046 101.706C132.046 101.206 131.643 100.802 131.144 100.802H127.046C126.548 100.802 126.145 101.206 126.145 101.706C126.145 102.206 126.548 102.61 127.046 102.61Z" fill="#BB0823"/>
<path d="M113.575 84.7531C116.801 84.7531 119.329 80.9982 119.329 76.2049C119.329 71.4107 116.801 67.6558 113.575 67.6558C110.348 67.6558 107.82 71.4107 107.82 76.2049C107.82 80.9982 110.348 84.7531 113.575 84.7531ZM113.575 69.4639C115.716 69.4639 117.526 72.5506 117.526 76.2049C117.526 79.8583 115.716 82.9449 113.575 82.9449C111.433 82.9449 109.624 79.8583 109.624 76.2049C109.624 72.5506 111.433 69.4639 113.575 69.4639Z" fill="#BB0823"/>
<path d="M98.9212 74.2915C98.4228 74.2915 98.0195 74.6959 98.0195 75.1956V88.4921C98.0195 88.9918 98.4228 89.3962 98.9212 89.3962C99.4196 89.3962 99.8229 88.9918 99.8229 88.4921V75.1956C99.8229 74.6959 99.4196 74.2915 98.9212 74.2915Z" fill="#BB0823"/>
<path d="M94.4251 74.2913C93.9267 74.2913 93.5234 74.6956 93.5234 75.1953V88.4918C93.5234 88.9916 93.9267 89.3959 94.4251 89.3959C94.9235 89.3959 95.3268 88.9916 95.3268 88.4918V75.1953C95.3268 74.6956 94.9235 74.2913 94.4251 74.2913Z" fill="#BB0823"/>
<defs>
<filter id="filter0_d" x="0.626622" y="0.620283" width="228.444" height="189.902" filterUnits="userSpaceOnUse" color-interpolation-filters="sRGB">
<feFlood flood-opacity="0" result="BackgroundImageFix"/>
<feColorMatrix in="SourceAlpha" type="matrix" values="0 0 0 0 0 0 0 0 0 0 0 0 0 0 0 0 0 0 127 0"/>
<feMorphology radius="1.59493" operator="dilate" in="SourceAlpha" result="effect1_dropShadow"/>
<feOffset dx="3.98732" dy="5.98098"/>
<feGaussianBlur stdDeviation="5.38289"/>
<feColorMatrix type="matrix" values="0 0 0 0 0.737255 0 0 0 0 0.0470588 0 0 0 0 0.141176 0 0 0 0.13 0"/>
<feBlend mode="normal" in2="BackgroundImageFix" result="effect1_dropShadow"/>
<feBlend mode="normal" in="SourceGraphic" in2="effect1_dropShadow" result="shape"/>
</filter>
</defs>
</svg>
