<svg width="198" height="164" viewBox="0 0 198 164" fill="none" xmlns="http://www.w3.org/2000/svg">
<g filter="url(#filter0_d)">
<rect x="7.91406" y="5.92065" width="175.185" height="142.042" rx="5.48602" fill="#F5F5F5"/>
<rect x="8.0855" y="6.09209" width="174.842" height="141.699" rx="5.31459" stroke="#B5B5B5" stroke-width="0.342877"/>
</g>
<path d="M36.5352 116.918L39.9663 104.422H43.0001L46.4311 116.918H45.0587L44.1558 113.704H38.8105L37.9076 116.918H36.5352ZM41.0137 105.614L39.1175 112.458H43.8488L41.9527 105.614H41.0137ZM51.4304 107.709C51.8277 107.709 52.5019 107.781 53.453 107.925L53.8864 107.98L53.8322 109.081C52.8691 108.973 52.1588 108.919 51.7013 108.919C50.678 108.919 49.9798 109.165 49.6066 109.659C49.2454 110.141 49.0648 111.044 49.0648 112.368C49.0648 113.68 49.2334 114.595 49.5704 115.113C49.9196 115.63 50.6359 115.889 51.7194 115.889L53.8502 115.727L53.9044 116.846C52.7848 117.015 51.9481 117.099 51.3943 117.099C49.9858 117.099 49.0106 116.738 48.4689 116.016C47.9392 115.293 47.6743 114.077 47.6743 112.368C47.6743 110.646 47.9633 109.442 48.5411 108.756C49.119 108.058 50.0821 107.709 51.4304 107.709ZM61.9528 115.799L62.4764 115.745L62.5126 116.81C61.1401 117.003 59.9664 117.099 58.9912 117.099C57.691 117.099 56.77 116.726 56.2283 115.979C55.6865 115.221 55.4157 114.047 55.4157 112.458C55.4157 109.292 56.6737 107.709 59.1898 107.709C60.4058 107.709 61.3147 108.052 61.9166 108.738C62.5186 109.412 62.8196 110.478 62.8196 111.934L62.7473 112.964H56.7881C56.7881 113.963 56.9687 114.703 57.3298 115.185C57.691 115.666 58.317 115.907 59.2079 115.907C60.1108 115.907 61.0258 115.871 61.9528 115.799ZM61.4652 111.88C61.4652 110.773 61.2846 109.99 60.9234 109.533C60.5743 109.075 59.9964 108.846 59.1898 108.846C58.3953 108.846 57.7933 109.087 57.384 109.569C56.9867 110.05 56.7821 110.821 56.77 111.88H61.4652ZM67.7654 108.919C66.4532 108.919 65.797 109.376 65.797 110.291C65.797 110.712 65.9475 111.013 66.2485 111.194C66.5495 111.363 67.2357 111.543 68.3071 111.736C69.3786 111.916 70.137 112.175 70.5825 112.512C71.0279 112.849 71.2506 113.481 71.2506 114.408C71.2506 115.335 70.9497 116.016 70.3477 116.449C69.7578 116.882 68.891 117.099 67.7473 117.099C67.0009 117.099 66.1221 117.015 65.1108 116.846L64.5691 116.756L64.6413 115.582C66.0137 115.787 67.0491 115.889 67.7473 115.889C68.4456 115.889 68.9753 115.781 69.3365 115.564C69.7097 115.335 69.8963 114.962 69.8963 114.444C69.8963 113.915 69.7398 113.56 69.4268 113.379C69.1137 113.186 68.4275 113.006 67.3681 112.837C66.3087 112.669 65.5563 112.422 65.1108 112.097C64.6654 111.772 64.4427 111.17 64.4427 110.291C64.4427 109.412 64.7497 108.762 65.3637 108.341C65.9897 107.919 66.7662 107.709 67.6932 107.709C68.4275 107.709 69.3485 107.793 70.4561 107.962L70.9617 108.052L70.9256 109.208C69.5893 109.015 68.5359 108.919 67.7654 108.919ZM76.1597 108.919C74.8474 108.919 74.1913 109.376 74.1913 110.291C74.1913 110.712 74.3418 111.013 74.6428 111.194C74.9437 111.363 75.63 111.543 76.7014 111.736C77.7729 111.916 78.5313 112.175 78.9768 112.512C79.4222 112.849 79.6449 113.481 79.6449 114.408C79.6449 115.335 79.3439 116.016 78.742 116.449C78.1521 116.882 77.2853 117.099 76.1416 117.099C75.3952 117.099 74.5164 117.015 73.5051 116.846L72.9634 116.756L73.0356 115.582C74.408 115.787 75.4434 115.889 76.1416 115.889C76.8399 115.889 77.3696 115.781 77.7307 115.564C78.1039 115.335 78.2905 114.962 78.2905 114.444C78.2905 113.915 78.134 113.56 77.821 113.379C77.508 113.186 76.8218 113.006 75.7624 112.837C74.703 112.669 73.9505 112.422 73.5051 112.097C73.0597 111.772 72.8369 111.17 72.8369 110.291C72.8369 109.412 73.1439 108.762 73.7579 108.341C74.3839 107.919 75.1604 107.709 76.0874 107.709C76.8218 107.709 77.7428 107.793 78.8503 107.962L79.356 108.052L79.3199 109.208C77.9835 109.015 76.9302 108.919 76.1597 108.919ZM87.8586 115.799L88.3823 115.745L88.4184 116.81C87.046 117.003 85.8722 117.099 84.897 117.099C83.5968 117.099 82.6759 116.726 82.1341 115.979C81.5924 115.221 81.3215 114.047 81.3215 112.458C81.3215 109.292 82.5796 107.709 85.0957 107.709C86.3116 107.709 87.2205 108.052 87.8225 108.738C88.4244 109.412 88.7254 110.478 88.7254 111.934L88.6532 112.964H82.6939C82.6939 113.963 82.8745 114.703 83.2357 115.185C83.5968 115.666 84.2229 115.907 85.1137 115.907C86.0167 115.907 86.9316 115.871 87.8586 115.799ZM87.371 111.88C87.371 110.773 87.1904 109.99 86.8293 109.533C86.4801 109.075 85.9023 108.846 85.0957 108.846C84.3011 108.846 83.6992 109.087 83.2899 109.569C82.8926 110.05 82.6879 110.821 82.6759 111.88H87.371ZM94.4067 112.386C94.4067 110.737 94.7016 109.545 95.2915 108.81C95.8814 108.076 96.8746 107.709 98.2712 107.709C99.6797 107.709 100.673 108.076 101.251 108.81C101.841 109.545 102.136 110.737 102.136 112.386C102.136 114.035 101.859 115.233 101.305 115.979C100.751 116.726 99.7399 117.099 98.2712 117.099C96.8024 117.099 95.7912 116.726 95.2374 115.979C94.6836 115.233 94.4067 114.035 94.4067 112.386ZM95.7972 112.368C95.7972 113.68 95.9537 114.601 96.2667 115.131C96.5917 115.66 97.2599 115.925 98.2712 115.925C99.2945 115.925 99.9626 115.666 100.276 115.149C100.589 114.619 100.745 113.692 100.745 112.368C100.745 111.044 100.571 110.135 100.221 109.641C99.8723 109.135 99.2222 108.883 98.2712 108.883C97.3321 108.883 96.682 109.135 96.3209 109.641C95.9717 110.135 95.7972 111.044 95.7972 112.368ZM108.547 116.918V104.422H116.15V105.65H109.938V109.966H115.066V111.176H109.938V115.69H116.15V116.918H108.547ZM122.285 107.709C123.501 107.709 124.349 108.058 124.831 108.756C125.324 109.442 125.571 110.652 125.571 112.386C125.571 114.119 125.264 115.341 124.65 116.052C124.048 116.75 122.935 117.099 121.31 117.099C120.804 117.099 119.967 117.051 118.799 116.955L118.294 116.9V103.953H119.63V108.341C120.545 107.919 121.43 107.709 122.285 107.709ZM121.291 115.889C122.471 115.889 123.248 115.624 123.621 115.095C124.006 114.553 124.199 113.644 124.199 112.368C124.199 111.092 124.048 110.201 123.747 109.695C123.446 109.177 122.911 108.919 122.14 108.919C121.442 108.919 120.726 109.051 119.991 109.316L119.63 109.442V115.799C120.413 115.859 120.966 115.889 121.291 115.889ZM127.402 112.386C127.402 110.737 127.697 109.545 128.287 108.81C128.877 108.076 129.87 107.709 131.266 107.709C132.675 107.709 133.668 108.076 134.246 108.81C134.836 109.545 135.131 110.737 135.131 112.386C135.131 114.035 134.854 115.233 134.3 115.979C133.746 116.726 132.735 117.099 131.266 117.099C129.798 117.099 128.786 116.726 128.232 115.979C127.679 115.233 127.402 114.035 127.402 112.386ZM128.792 112.368C128.792 113.68 128.949 114.601 129.262 115.131C129.587 115.66 130.255 115.925 131.266 115.925C132.29 115.925 132.958 115.666 133.271 115.149C133.584 114.619 133.74 113.692 133.74 112.368C133.74 111.044 133.566 110.135 133.217 109.641C132.867 109.135 132.217 108.883 131.266 108.883C130.327 108.883 129.677 109.135 129.316 109.641C128.967 110.135 128.792 111.044 128.792 112.368ZM136.942 112.386C136.942 110.737 137.237 109.545 137.827 108.81C138.417 108.076 139.41 107.709 140.807 107.709C142.215 107.709 143.209 108.076 143.786 108.81C144.376 109.545 144.671 110.737 144.671 112.386C144.671 114.035 144.394 115.233 143.841 115.979C143.287 116.726 142.276 117.099 140.807 117.099C139.338 117.099 138.327 116.726 137.773 115.979C137.219 115.233 136.942 114.035 136.942 112.386ZM138.333 112.368C138.333 113.68 138.489 114.601 138.802 115.131C139.127 115.66 139.796 115.925 140.807 115.925C141.83 115.925 142.498 115.666 142.811 115.149C143.124 114.619 143.281 113.692 143.281 112.368C143.281 111.044 143.106 110.135 142.757 109.641C142.408 109.135 141.758 108.883 140.807 108.883C139.868 108.883 139.218 109.135 138.857 109.641C138.507 110.135 138.333 111.044 138.333 112.368ZM148.235 116.918H146.88V103.953H148.235V111.609L149.643 111.537L152.225 107.889H153.76L150.817 112.043L153.887 116.918H152.352L149.661 112.729L148.235 112.783V116.918Z" fill="#BB0823"/>
<path d="M114.607 27.3494H76.3156C74.9794 27.3494 73.6979 27.8802 72.753 28.825C71.8082 29.7699 71.2773 31.0514 71.2773 32.3877V82.7706C71.2773 84.1069 71.8082 85.3884 72.753 86.3332C73.6979 87.2781 74.9794 87.8089 76.3156 87.8089H114.607C115.943 87.8089 117.224 87.2781 118.169 86.3332C119.114 85.3884 119.645 84.1069 119.645 82.7706V32.3877C119.645 31.0514 119.114 29.7699 118.169 28.825C117.224 27.8802 115.943 27.3494 114.607 27.3494ZM117.63 82.7706C117.627 83.5716 117.308 84.3391 116.742 84.9055C116.175 85.4719 115.408 85.7912 114.607 85.7936H76.3156C75.5146 85.7912 74.7471 85.4719 74.1807 84.9055C73.6143 84.3391 73.2951 83.5716 73.2927 82.7706V32.3877C73.2951 31.5867 73.6143 30.8191 74.1807 30.2527C74.7471 29.6863 75.5146 29.3671 76.3156 29.3647H114.607C115.408 29.3671 116.175 29.6863 116.742 30.2527C117.308 30.8191 117.627 31.5867 117.63 32.3877V82.7706Z" fill="#BB0823"/>
<path d="M113.6 31.3796H77.3239C76.7899 31.3812 76.2782 31.5941 75.9006 31.9717C75.523 32.3493 75.3102 32.861 75.3086 33.395V73.7013C75.3102 74.2353 75.523 74.747 75.9006 75.1246C76.2782 75.5022 76.7899 75.715 77.3239 75.7166H113.6C114.134 75.715 114.645 75.5022 115.023 75.1246C115.401 74.747 115.613 74.2353 115.615 73.7013V33.395C115.613 32.861 115.401 32.3493 115.023 31.9717C114.645 31.5941 114.134 31.3812 113.6 31.3796ZM113.6 73.7013H77.3239V33.395H113.6V73.7013Z" fill="#BB0823"/>
<path d="M97.4794 77.7332H93.4488C92.647 77.7332 91.8781 78.0516 91.3112 78.6186C90.7443 79.1855 90.4258 79.9544 90.4258 80.7561C90.4258 81.5579 90.7443 82.3268 91.3112 82.8937C91.8781 83.4606 92.647 83.7791 93.4488 83.7791H97.4794C98.2811 83.7791 99.05 83.4606 99.617 82.8937C100.184 82.3268 100.502 81.5579 100.502 80.7561C100.502 79.9544 100.184 79.1855 99.617 78.6186C99.05 78.0516 98.2811 77.7332 97.4794 77.7332ZM97.4794 81.7638H93.4488C93.1815 81.7638 92.9252 81.6576 92.7362 81.4687C92.5473 81.2797 92.4411 81.0234 92.4411 80.7561C92.4411 80.4889 92.5473 80.2326 92.7362 80.0436C92.9252 79.8546 93.1815 79.7485 93.4488 79.7485H97.4794C97.7466 79.7485 98.0029 79.8546 98.1919 80.0436C98.3809 80.2326 98.4871 80.4889 98.4871 80.7561C98.4871 81.0234 98.3809 81.2797 98.1919 81.4687C98.0029 81.6576 97.7466 81.7638 97.4794 81.7638Z" fill="#BB0823"/>
<path d="M107.555 42.4644H99.4935C98.7087 42.4674 97.9354 42.654 97.2356 43.0091C96.5357 43.3643 95.9286 43.8783 95.4628 44.5099C94.9971 43.8783 94.39 43.3643 93.6901 43.0091C92.9903 42.654 92.217 42.4674 91.4322 42.4644H83.3709C83.1037 42.4644 82.8474 42.5705 82.6584 42.7595C82.4694 42.9485 82.3633 43.2048 82.3633 43.472V63.6252C82.3633 63.8924 82.4694 64.1487 82.6584 64.3377C82.8474 64.5267 83.1037 64.6329 83.3709 64.6329H107.555C107.822 64.6329 108.078 64.5267 108.267 64.3377C108.456 64.1487 108.562 63.8924 108.562 63.6252V43.472C108.562 43.2048 108.456 42.9485 108.267 42.7595C108.078 42.5705 107.822 42.4644 107.555 42.4644ZM84.3786 62.6175V60.6022H91.4322C92.0571 60.6039 92.6663 60.7984 93.1766 61.1591C93.687 61.5197 94.0736 62.029 94.2839 62.6175H84.3786ZM94.4552 59.6248C93.5896 58.9549 92.5268 58.59 91.4322 58.5869H84.3786V44.4797H91.4322C92.2332 44.4821 93.0007 44.8013 93.5671 45.3677C94.1335 45.9341 94.4528 46.7016 94.4552 47.5027V59.6248ZM106.547 62.6175H96.6418C96.852 62.029 97.2387 61.5197 97.7491 61.1591C98.2594 60.7984 98.8686 60.6039 99.4935 60.6022H106.547V62.6175ZM106.547 58.5869H99.4935C98.3989 58.59 97.3361 58.9549 96.4705 59.6248V47.5027C96.4729 46.7016 96.7922 45.9341 97.3586 45.3677C97.925 44.8013 98.6925 44.4821 99.4935 44.4797H106.547V58.5869Z" fill="#BB0823"/>
<path d="M92.4405 46.4954H86.3945V48.5107H92.4405V46.4954Z" fill="#BB0823"/>
<path d="M92.4405 50.5264H86.3945V52.5417H92.4405V50.5264Z" fill="#BB0823"/>
<path d="M92.4405 54.5564H86.3945V56.5717H92.4405V54.5564Z" fill="#BB0823"/>
<path d="M104.534 46.4954H98.4883V48.5107H104.534V46.4954Z" fill="#BB0823"/>
<path d="M104.534 50.5264H98.4883V52.5417H104.534V50.5264Z" fill="#BB0823"/>
<path d="M104.534 54.5564H98.4883V56.5717H104.534V54.5564Z" fill="#BB0823"/>
<defs>
<filter id="filter0_d" x="0.713655" y="0.434629" width="196.443" height="163.3" filterUnits="userSpaceOnUse" color-interpolation-filters="sRGB">
<feFlood flood-opacity="0" result="BackgroundImageFix"/>
<feColorMatrix in="SourceAlpha" type="matrix" values="0 0 0 0 0 0 0 0 0 0 0 0 0 0 0 0 0 0 127 0"/>
<feMorphology radius="1.37151" operator="dilate" in="SourceAlpha" result="effect1_dropShadow"/>
<feOffset dx="3.42877" dy="5.14315"/>
<feGaussianBlur stdDeviation="4.62883"/>
<feColorMatrix type="matrix" values="0 0 0 0 0.737255 0 0 0 0 0.0470588 0 0 0 0 0.141176 0 0 0 0.13 0"/>
<feBlend mode="normal" in2="BackgroundImageFix" result="effect1_dropShadow"/>
<feBlend mode="normal" in="SourceGraphic" in2="effect1_dropShadow" result="shape"/>
</filter>
</defs>
</svg>
