<svg width="203" height="61" viewBox="0 0 203 61" fill="none" xmlns="http://www.w3.org/2000/svg">
<g filter="url(#filter0_d)">
<rect x="5.83594" y="5.01685" width="185.139" height="42.6974" rx="4.42992" fill="#F5F5F5"/>
<rect x="5.97437" y="5.15528" width="184.862" height="42.4205" rx="4.29148" stroke="#B5B5B5" stroke-width="0.27687"/>
</g>
<path d="M67.3529 25.7097H64.1746V29.9172H62.7841V17.4209H67.3529C68.7133 17.4209 69.7185 17.752 70.3686 18.4141C71.0187 19.0763 71.3438 20.0875 71.3438 21.4479C71.3438 24.2891 70.0135 25.7097 67.3529 25.7097ZM64.1746 24.4817H67.3348C69.0564 24.4817 69.9172 23.4704 69.9172 21.4479C69.9172 20.4848 69.7125 19.7805 69.3032 19.3351C68.8939 18.8776 68.2377 18.6489 67.3348 18.6489H64.1746V24.4817ZM79.5402 23.6149V28.2378C79.5763 28.6833 79.9255 28.9481 80.5876 29.0324L80.5334 30.0978C79.5824 30.0978 78.8661 29.857 78.3845 29.3755C77.301 29.857 76.2175 30.0978 75.134 30.0978C74.3033 30.0978 73.6713 29.8631 73.2379 29.3935C72.8045 28.924 72.5878 28.2499 72.5878 27.371C72.5878 26.4922 72.8105 25.8481 73.256 25.4388C73.7014 25.0174 74.3996 24.7586 75.3507 24.6623L78.1859 24.3914V23.6149C78.1859 23.0009 78.0534 22.5615 77.7886 22.2967C77.5237 22.0318 77.1626 21.8994 76.7051 21.8994C75.742 21.8994 74.7428 21.9596 73.7074 22.08L73.1476 22.1341L73.0934 21.1048C74.4177 20.84 75.5915 20.7075 76.6148 20.7075C77.6381 20.7075 78.3785 20.9423 78.836 21.4118C79.3055 21.8813 79.5402 22.6157 79.5402 23.6149ZM73.9783 27.2988C73.9783 28.4064 74.4358 28.9601 75.3507 28.9601C76.1694 28.9601 76.976 28.8217 77.7705 28.5448L78.1859 28.4003V25.4207L75.5132 25.6735C74.9715 25.7217 74.5802 25.8782 74.3395 26.1431C74.0987 26.4079 73.9783 26.7932 73.9783 27.2988ZM73.9963 18.3238L77.8969 16.5541L78.3664 17.7099L74.3756 19.2448L73.9963 18.3238ZM85.6977 34.1609C84.253 34.1609 83.2417 33.9623 82.6639 33.565C82.0981 33.1798 81.8151 32.4695 81.8151 31.4341C81.8151 30.9405 81.9235 30.5372 82.1402 30.2242C82.3569 29.9233 82.7241 29.5801 83.2417 29.1949C82.9047 28.9662 82.7361 28.5508 82.7361 27.9489C82.7361 27.7442 82.8866 27.365 83.1876 26.8112L83.3501 26.5223C82.399 26.0889 81.9235 25.18 81.9235 23.7955C81.9235 21.7368 83.0491 20.7075 85.3004 20.7075C85.8783 20.7075 86.414 20.7677 86.9076 20.8881L87.1784 20.9423L89.8511 20.8701V22.0258L88.1355 21.9897C88.5328 22.3869 88.7315 22.9889 88.7315 23.7955C88.7315 24.9271 88.4485 25.7217 87.8827 26.1792C87.3289 26.6246 86.4501 26.8473 85.2462 26.8473C84.9212 26.8473 84.6262 26.8233 84.3614 26.7751C84.1447 27.3048 84.0363 27.6479 84.0363 27.8044C84.0363 28.1776 84.1507 28.4124 84.3794 28.5087C84.6082 28.593 85.3004 28.6351 86.4561 28.6351C87.6118 28.6351 88.4425 28.8157 88.9482 29.1768C89.4538 29.538 89.7066 30.2423 89.7066 31.2897C89.7066 33.2038 88.3703 34.1609 85.6977 34.1609ZM83.1515 31.3258C83.1515 31.9638 83.326 32.4033 83.6751 32.644C84.0363 32.8968 84.6924 33.0233 85.6435 33.0233C86.6066 33.0233 87.2928 32.8908 87.7021 32.626C88.1235 32.3611 88.3342 31.9157 88.3342 31.2897C88.3342 30.6757 88.1837 30.2784 87.8827 30.0978C87.5818 29.9172 86.9918 29.8269 86.113 29.8269L84.1627 29.7367C83.7654 30.0256 83.4946 30.2784 83.3501 30.4951C83.2177 30.7118 83.1515 30.9887 83.1515 31.3258ZM83.2779 23.7955C83.2779 24.5058 83.4344 25.0114 83.7474 25.3124C84.0724 25.6134 84.6021 25.7638 85.3365 25.7638C86.0709 25.7638 86.5946 25.6134 86.9076 25.3124C87.2206 25.0114 87.3771 24.5058 87.3771 23.7955C87.3771 23.0732 87.2206 22.5615 86.9076 22.2605C86.5946 21.9596 86.0709 21.8091 85.3365 21.8091C84.6021 21.8091 84.0724 21.9656 83.7474 22.2786C83.4344 22.5796 83.2779 23.0852 83.2779 23.7955ZM91.4884 29.9172V20.8881H92.8428V29.9172H91.4884ZM91.4884 18.8475V17.2765H92.8428V18.8475H91.4884ZM96.7931 29.9172H95.4387V20.8881H96.775V21.5201C97.7501 20.9784 98.6832 20.7075 99.574 20.7075C100.778 20.7075 101.585 21.0326 101.994 21.6827C102.415 22.3328 102.626 23.4885 102.626 25.1499V29.9172H101.29V25.186C101.29 23.9339 101.163 23.0792 100.91 22.6217C100.67 22.1522 100.146 21.9174 99.3393 21.9174C98.954 21.9174 98.5447 21.9776 98.1113 22.098C97.6899 22.2064 97.3649 22.3147 97.1362 22.4231L96.7931 22.5856V29.9172ZM111.513 23.6149V28.2378C111.549 28.6833 111.898 28.9481 112.56 29.0324L112.506 30.0978C111.555 30.0978 110.838 29.857 110.357 29.3755C109.273 29.857 108.19 30.0978 107.106 30.0978C106.276 30.0978 105.644 29.8631 105.21 29.3935C104.777 28.924 104.56 28.2499 104.56 27.371C104.56 26.4922 104.783 25.8481 105.228 25.4388C105.674 25.0174 106.372 24.7586 107.323 24.6623L110.158 24.3914V23.6149C110.158 23.0009 110.026 22.5615 109.761 22.2967C109.496 22.0318 109.135 21.8994 108.677 21.8994C107.714 21.8994 106.715 21.9596 105.68 22.08L105.12 22.1341L105.066 21.1048C106.39 20.84 107.564 20.7075 108.587 20.7075C109.61 20.7075 110.351 20.9423 110.808 21.4118C111.278 21.8813 111.513 22.6157 111.513 23.6149ZM105.951 27.2988C105.951 28.4064 106.408 28.9601 107.323 28.9601C108.142 28.9601 108.948 28.8217 109.743 28.5448L110.158 28.4003V25.4207L107.486 25.6735C106.944 25.7217 106.553 25.8782 106.312 26.1431C106.071 26.4079 105.951 26.7932 105.951 27.2988ZM118.153 29.9172V20.8881H119.507V29.9172H118.153ZM118.153 18.8475V17.2765H119.507V18.8475H118.153ZM123.457 29.9172H122.103V20.8881H123.439V21.5201C124.414 20.9784 125.347 20.7075 126.238 20.7075C127.442 20.7075 128.249 21.0326 128.658 21.6827C129.079 22.3328 129.29 23.4885 129.29 25.1499V29.9172H127.954V25.186C127.954 23.9339 127.827 23.0792 127.574 22.6217C127.334 22.1522 126.81 21.9174 126.003 21.9174C125.618 21.9174 125.209 21.9776 124.775 22.098C124.354 22.2064 124.029 22.3147 123.8 22.4231L123.457 22.5856V29.9172ZM131.802 29.9172V20.8881H133.156V29.9172H131.802ZM131.802 18.8475V17.2765H133.156V18.8475H131.802ZM139.129 20.7075C139.527 20.7075 140.201 20.7798 141.152 20.9242L141.585 20.9784L141.531 22.08C140.568 21.9716 139.858 21.9174 139.4 21.9174C138.377 21.9174 137.679 22.1642 137.305 22.6578C136.944 23.1394 136.764 24.0423 136.764 25.3666C136.764 26.6788 136.932 27.5937 137.269 28.1114C137.618 28.6291 138.335 28.8879 139.418 28.8879L141.549 28.7254L141.603 29.845C140.484 30.0135 139.647 30.0978 139.093 30.0978C137.685 30.0978 136.709 29.7367 136.168 29.0143C135.638 28.292 135.373 27.0761 135.373 25.3666C135.373 23.645 135.662 22.4411 136.24 21.7549C136.818 21.0567 137.781 20.7075 139.129 20.7075ZM143.618 29.9172V20.8881H144.972V29.9172H143.618ZM143.618 18.8475V17.2765H144.972V18.8475H143.618ZM153.942 23.6149V28.2378C153.978 28.6833 154.328 28.9481 154.99 29.0324L154.936 30.0978C153.984 30.0978 153.268 29.857 152.787 29.3755C151.703 29.857 150.62 30.0978 149.536 30.0978C148.705 30.0978 148.073 29.8631 147.64 29.3935C147.207 28.924 146.99 28.2499 146.99 27.371C146.99 26.4922 147.213 25.8481 147.658 25.4388C148.104 25.0174 148.802 24.7586 149.753 24.6623L152.588 24.3914V23.6149C152.588 23.0009 152.456 22.5615 152.191 22.2967C151.926 22.0318 151.565 21.8994 151.107 21.8994C150.144 21.8994 149.145 21.9596 148.11 22.08L147.55 22.1341L147.496 21.1048C148.82 20.84 149.994 20.7075 151.017 20.7075C152.04 20.7075 152.781 20.9423 153.238 21.4118C153.708 21.8813 153.942 22.6157 153.942 23.6149ZM148.38 27.2988C148.38 28.4064 148.838 28.9601 149.753 28.9601C150.571 28.9601 151.378 28.8217 152.173 28.5448L152.588 28.4003V25.4207L149.915 25.6735C149.374 25.7217 148.982 25.8782 148.742 26.1431C148.501 26.4079 148.38 26.7932 148.38 27.2988ZM156.723 29.9172V16.9514H158.077V29.9172H156.723Z" fill="#BB0823"/>
<path d="M29.7106 17.5413L21.1836 26.0807L29.7106 34.6202" stroke="#BB0823" stroke-width="1.13536" stroke-linecap="round" stroke-linejoin="round"/>
<path d="M21.1836 26.0808H40.6739" stroke="#BB0823" stroke-width="1.13536" stroke-linecap="round" stroke-linejoin="round"/>
<defs>
<filter id="filter0_d" x="0.0216684" y="0.586927" width="202.305" height="59.8633" filterUnits="userSpaceOnUse" color-interpolation-filters="sRGB">
<feFlood flood-opacity="0" result="BackgroundImageFix"/>
<feColorMatrix in="SourceAlpha" type="matrix" values="0 0 0 0 0 0 0 0 0 0 0 0 0 0 0 0 0 0 127 0"/>
<feMorphology radius="1.10748" operator="dilate" in="SourceAlpha" result="effect1_dropShadow"/>
<feOffset dx="2.7687" dy="4.15305"/>
<feGaussianBlur stdDeviation="3.73774"/>
<feColorMatrix type="matrix" values="0 0 0 0 0.737255 0 0 0 0 0.0470588 0 0 0 0 0.141176 0 0 0 0.13 0"/>
<feBlend mode="normal" in2="BackgroundImageFix" result="effect1_dropShadow"/>
<feBlend mode="normal" in="SourceGraphic" in2="effect1_dropShadow" result="shape"/>
</filter>
</defs>
</svg>
