<svg width="197" height="164" viewBox="0 0 197 164" fill="none" xmlns="http://www.w3.org/2000/svg">
<g filter="url(#filter0_d)">
<rect x="7.56641" y="6.16772" width="175.185" height="142.042" rx="5.48602" fill="#F5F5F5"/>
<rect x="7.73784" y="6.33916" width="174.842" height="141.699" rx="5.31459" stroke="#B5B5B5" stroke-width="0.342877"/>
</g>
<path d="M30.3462 119.92L33.7773 107.424H36.8111L40.2422 119.92H38.8697L37.9668 116.706H32.6216L31.7187 119.92H30.3462ZM34.8247 108.616L32.9286 115.46H37.6598L35.7637 108.616H34.8247ZM44.8055 111.92C43.4933 111.92 42.8372 112.378 42.8372 113.293C42.8372 113.714 42.9877 114.015 43.2886 114.196C43.5896 114.364 44.2758 114.545 45.3473 114.737C46.4187 114.918 47.1772 115.177 47.6226 115.514C48.0681 115.851 48.2908 116.483 48.2908 117.41C48.2908 118.337 47.9898 119.017 47.3879 119.451C46.798 119.884 45.9312 120.101 44.7875 120.101C44.0411 120.101 43.1622 120.016 42.151 119.848L41.6092 119.758L41.6815 118.584C43.0539 118.789 44.0892 118.891 44.7875 118.891C45.4857 118.891 46.0154 118.782 46.3766 118.566C46.7498 118.337 46.9364 117.964 46.9364 117.446C46.9364 116.916 46.7799 116.561 46.4669 116.381C46.1539 116.188 45.4677 116.008 44.4083 115.839C43.3488 115.67 42.5964 115.424 42.151 115.099C41.7055 114.774 41.4828 114.172 41.4828 113.293C41.4828 112.414 41.7898 111.764 42.4038 111.342C43.0298 110.921 43.8063 110.71 44.7333 110.71C45.4677 110.71 46.3886 110.795 47.4962 110.963L48.0019 111.054L47.9657 112.209C46.6294 112.017 45.576 111.92 44.8055 111.92ZM53.1998 111.92C51.8876 111.92 51.2315 112.378 51.2315 113.293C51.2315 113.714 51.3819 114.015 51.6829 114.196C51.9839 114.364 52.6701 114.545 53.7416 114.737C54.813 114.918 55.5715 115.177 56.0169 115.514C56.4623 115.851 56.685 116.483 56.685 117.41C56.685 118.337 56.3841 119.017 55.7821 119.451C55.1922 119.884 54.3254 120.101 53.1817 120.101C52.4353 120.101 51.5565 120.016 50.5452 119.848L50.0035 119.758L50.0757 118.584C51.4482 118.789 52.4835 118.891 53.1817 118.891C53.88 118.891 54.4097 118.782 54.7709 118.566C55.1441 118.337 55.3307 117.964 55.3307 117.446C55.3307 116.916 55.1742 116.561 54.8612 116.381C54.5482 116.188 53.8619 116.008 52.8025 115.839C51.7431 115.67 50.9907 115.424 50.5452 115.099C50.0998 114.774 49.8771 114.172 49.8771 113.293C49.8771 112.414 50.1841 111.764 50.7981 111.342C51.4241 110.921 52.2006 110.71 53.1276 110.71C53.8619 110.71 54.7829 110.795 55.8905 110.963L56.3961 111.054L56.36 112.209C55.0237 112.017 53.9703 111.92 53.1998 111.92ZM58.7589 119.92V110.891H60.1133V119.92H58.7589ZM58.7589 108.85V107.279H60.1133V108.85H58.7589ZM65.5443 111.92C64.2321 111.92 63.576 112.378 63.576 113.293C63.576 113.714 63.7264 114.015 64.0274 114.196C64.3284 114.364 65.0146 114.545 66.0861 114.737C67.1575 114.918 67.916 115.177 68.3614 115.514C68.8068 115.851 69.0296 116.483 69.0296 117.41C69.0296 118.337 68.7286 119.017 68.1266 119.451C67.5367 119.884 66.6699 120.101 65.5263 120.101C64.7798 120.101 63.901 120.016 62.8898 119.848L62.348 119.758L62.4202 118.584C63.7927 118.789 64.828 118.891 65.5263 118.891C66.2245 118.891 66.7542 118.782 67.1154 118.566C67.4886 118.337 67.6752 117.964 67.6752 117.446C67.6752 116.916 67.5187 116.561 67.2057 116.381C66.8927 116.188 66.2064 116.008 65.147 115.839C64.0876 115.67 63.3352 115.424 62.8898 115.099C62.4443 114.774 62.2216 114.172 62.2216 113.293C62.2216 112.414 62.5286 111.764 63.1426 111.342C63.7686 110.921 64.5451 110.71 65.4721 110.71C66.2064 110.71 67.1274 110.795 68.235 110.963L68.7406 111.054L68.7045 112.209C67.3682 112.017 66.3148 111.92 65.5443 111.92ZM75.7805 112.065H72.9093V116.381C72.9093 117.416 72.9815 118.096 73.126 118.421C73.2825 118.746 73.6436 118.909 74.2095 118.909L75.8166 118.801L75.9069 119.92C75.1003 120.053 74.4863 120.119 74.065 120.119C73.126 120.119 72.4759 119.89 72.1147 119.433C71.7535 118.975 71.573 118.102 71.573 116.814V112.065H70.2908V110.891H71.573V108.128H72.9093V110.891H75.7805V112.065ZM83.809 113.618V118.241C83.8451 118.686 84.1942 118.951 84.8563 119.035L84.8022 120.101C83.8511 120.101 83.1348 119.86 82.6532 119.378C81.5697 119.86 80.4862 120.101 79.4028 120.101C78.5721 120.101 77.94 119.866 77.5066 119.396C77.0732 118.927 76.8565 118.253 76.8565 117.374C76.8565 116.495 77.0793 115.851 77.5247 115.442C77.9701 115.02 78.6684 114.762 79.6195 114.665L82.4546 114.394V113.618C82.4546 113.004 82.3222 112.564 82.0573 112.3C81.7925 112.035 81.4313 111.902 80.9738 111.902C80.0107 111.902 79.0115 111.962 77.9762 112.083L77.4163 112.137L77.3622 111.108C78.6864 110.843 79.8602 110.71 80.8835 110.71C81.9068 110.71 82.6472 110.945 83.1047 111.415C83.5742 111.884 83.809 112.619 83.809 113.618ZM78.247 117.302C78.247 118.409 78.7045 118.963 79.6195 118.963C80.4381 118.963 81.2447 118.825 82.0393 118.548L82.4546 118.403V115.424L79.782 115.676C79.2402 115.725 78.849 115.881 78.6082 116.146C78.3674 116.411 78.247 116.796 78.247 117.302ZM90.0518 115.388C90.0518 113.738 90.3467 112.546 90.9366 111.812C91.5265 111.078 92.5197 110.71 93.9162 110.71C95.3248 110.71 96.318 111.078 96.8958 111.812C97.4857 112.546 97.7807 113.738 97.7807 115.388C97.7807 117.037 97.5038 118.235 96.95 118.981C96.3962 119.728 95.385 120.101 93.9162 120.101C92.4475 120.101 91.4362 119.728 90.8824 118.981C90.3287 118.235 90.0518 117.037 90.0518 115.388ZM91.4422 115.369C91.4422 116.682 91.5988 117.603 91.9118 118.132C92.2368 118.662 92.905 118.927 93.9162 118.927C94.9395 118.927 95.6077 118.668 95.9207 118.15C96.2337 117.621 96.3902 116.694 96.3902 115.369C96.3902 114.045 96.2156 113.136 95.8665 112.643C95.5174 112.137 94.8673 111.884 93.9162 111.884C92.9772 111.884 92.3271 112.137 91.9659 112.643C91.6168 113.136 91.4422 114.045 91.4422 115.369ZM102.825 111.92C101.512 111.92 100.856 112.378 100.856 113.293C100.856 113.714 101.007 114.015 101.308 114.196C101.609 114.364 102.295 114.545 103.366 114.737C104.438 114.918 105.196 115.177 105.642 115.514C106.087 115.851 106.31 116.483 106.31 117.41C106.31 118.337 106.009 119.017 105.407 119.451C104.817 119.884 103.95 120.101 102.807 120.101C102.06 120.101 101.181 120.016 100.17 119.848L99.6284 119.758L99.7007 118.584C101.073 118.789 102.108 118.891 102.807 118.891C103.505 118.891 104.035 118.782 104.396 118.566C104.769 118.337 104.956 117.964 104.956 117.446C104.956 116.916 104.799 116.561 104.486 116.381C104.173 116.188 103.487 116.008 102.427 115.839C101.368 115.67 100.616 115.424 100.17 115.099C99.7247 114.774 99.502 114.172 99.502 113.293C99.502 112.414 99.809 111.764 100.423 111.342C101.049 110.921 101.826 110.71 102.752 110.71C103.487 110.71 104.408 110.795 105.515 110.963L106.021 111.054L105.985 112.209C104.649 112.017 103.595 111.92 102.825 111.92ZM111.503 110.891H112.948L115.06 118.746H115.729L117.914 110.891H119.304L116.758 119.92H114.049L111.503 110.891ZM120.432 108.327L124.332 106.557L124.802 107.713L120.811 109.248L120.432 108.327ZM121.046 110.891H122.4V119.92H121.046V110.891ZM131.93 106.954V119.92H130.594V119.306C129.667 119.836 128.752 120.101 127.849 120.101C127.368 120.101 126.946 120.041 126.585 119.92C126.224 119.8 125.887 119.583 125.574 119.27C124.924 118.62 124.599 117.422 124.599 115.676C124.599 113.919 124.888 112.655 125.466 111.884C126.055 111.102 127.025 110.71 128.373 110.71C129.071 110.71 129.812 110.789 130.594 110.945V106.954H131.93ZM126.621 118.295C126.814 118.524 127.019 118.68 127.235 118.764C127.452 118.849 127.729 118.891 128.066 118.891C128.415 118.891 128.8 118.837 129.222 118.728C129.655 118.608 129.992 118.494 130.233 118.385L130.594 118.223V112.101C129.824 111.956 129.107 111.884 128.445 111.884C127.53 111.884 126.892 112.179 126.531 112.769C126.17 113.347 125.989 114.25 125.989 115.478C125.989 116.874 126.2 117.813 126.621 118.295ZM140.694 118.801L141.218 118.746L141.254 119.812C139.881 120.004 138.708 120.101 137.732 120.101C136.432 120.101 135.511 119.728 134.97 118.981C134.428 118.223 134.157 117.049 134.157 115.46C134.157 112.294 135.415 110.71 137.931 110.71C139.147 110.71 140.056 111.054 140.658 111.74C141.26 112.414 141.561 113.479 141.561 114.936L141.489 115.965H135.529C135.529 116.965 135.71 117.705 136.071 118.187C136.432 118.668 137.058 118.909 137.949 118.909C138.852 118.909 139.767 118.873 140.694 118.801ZM140.206 114.882C140.206 113.774 140.026 112.992 139.665 112.534C139.316 112.077 138.738 111.848 137.931 111.848C137.137 111.848 136.535 112.089 136.125 112.57C135.728 113.052 135.523 113.822 135.511 114.882H140.206ZM143.274 115.388C143.274 113.738 143.569 112.546 144.159 111.812C144.749 111.078 145.742 110.71 147.139 110.71C148.547 110.71 149.54 111.078 150.118 111.812C150.708 112.546 151.003 113.738 151.003 115.388C151.003 117.037 150.726 118.235 150.172 118.981C149.619 119.728 148.607 120.101 147.139 120.101C145.67 120.101 144.659 119.728 144.105 118.981C143.551 118.235 143.274 117.037 143.274 115.388ZM144.665 115.369C144.665 116.682 144.821 117.603 145.134 118.132C145.459 118.662 146.127 118.927 147.139 118.927C148.162 118.927 148.83 118.668 149.143 118.15C149.456 117.621 149.613 116.694 149.613 115.369C149.613 114.045 149.438 113.136 149.089 112.643C148.74 112.137 148.09 111.884 147.139 111.884C146.2 111.884 145.55 112.137 145.188 112.643C144.839 113.136 144.665 114.045 144.665 115.369ZM156.047 111.92C154.735 111.92 154.079 112.378 154.079 113.293C154.079 113.714 154.229 114.015 154.53 114.196C154.831 114.364 155.517 114.545 156.589 114.737C157.66 114.918 158.419 115.177 158.864 115.514C159.31 115.851 159.532 116.483 159.532 117.41C159.532 118.337 159.231 119.017 158.63 119.451C158.04 119.884 157.173 120.101 156.029 120.101C155.283 120.101 154.404 120.016 153.393 119.848L152.851 119.758L152.923 118.584C154.296 118.789 155.331 118.891 156.029 118.891C156.727 118.891 157.257 118.782 157.618 118.566C157.991 118.337 158.178 117.964 158.178 117.446C158.178 116.916 158.022 116.561 157.709 116.381C157.396 116.188 156.709 116.008 155.65 115.839C154.59 115.67 153.838 115.424 153.393 115.099C152.947 114.774 152.724 114.172 152.724 113.293C152.724 112.414 153.031 111.764 153.645 111.342C154.271 110.921 155.048 110.71 155.975 110.71C156.709 110.71 157.63 110.795 158.738 110.963L159.244 111.054L159.207 112.209C157.871 112.017 156.818 111.92 156.047 111.92Z" fill="#BB0823"/>
<g clip-path="url(#clip0)">
<path d="M121.231 33.5H69.314C68.5493 33.5009 67.8162 33.8007 67.2755 34.3337C66.7347 34.8667 66.4306 35.5893 66.4297 36.3431V85.6228C66.4306 86.3765 66.7347 87.0992 67.2755 87.6322C67.8162 88.1651 68.5493 88.465 69.314 88.4658H121.231C121.995 88.465 122.729 88.1651 123.269 87.6322C123.81 87.0992 124.114 86.3765 124.115 85.6228V36.3431C124.114 35.5893 123.81 34.8667 123.269 34.3337C122.729 33.8007 121.995 33.5009 121.231 33.5ZM69.314 35.3954H121.231C121.486 35.3957 121.73 35.4956 121.91 35.6733C122.09 35.8509 122.192 36.0918 122.192 36.3431V41.0815H68.3525V36.3431C68.3528 36.0918 68.4542 35.8509 68.6344 35.6733C68.8147 35.4956 69.0591 35.3957 69.314 35.3954ZM121.231 86.5705H69.314C69.0591 86.5702 68.8147 86.4702 68.6344 86.2926C68.4542 86.1149 68.3528 85.874 68.3525 85.6228V42.9769H122.192V85.6228C122.192 85.874 122.09 86.1149 121.91 86.2926C121.73 86.4702 121.486 86.5702 121.231 86.5705Z" fill="#BB0823"/>
<path d="M103.926 46.7676H73.1606C72.9057 46.7676 72.6611 46.8674 72.4808 47.0451C72.3005 47.2229 72.1992 47.4639 72.1992 47.7153V66.669C72.1992 66.9203 72.3005 67.1614 72.4808 67.3391C72.6611 67.5168 72.9057 67.6167 73.1606 67.6167H103.926C104.181 67.6167 104.426 67.5168 104.606 67.3391C104.786 67.1614 104.888 66.9203 104.888 66.669V47.7153C104.888 47.4639 104.786 47.2229 104.606 47.0451C104.426 46.8674 104.181 46.7676 103.926 46.7676ZM102.965 65.7213H74.1221V48.663H102.965V65.7213Z" fill="#BB0823"/>
<path d="M117.11 39.1859C117.641 39.1859 118.071 38.7616 118.071 38.2382C118.071 37.7148 117.641 37.2905 117.11 37.2905C116.579 37.2905 116.148 37.7148 116.148 38.2382C116.148 38.7616 116.579 39.1859 117.11 39.1859Z" fill="#BB0823"/>
<path d="M113.27 39.1869C113.801 39.1869 114.231 38.7626 114.231 38.2392C114.231 37.7158 113.801 37.2915 113.27 37.2915C112.739 37.2915 112.309 37.7158 112.309 38.2392C112.309 38.7626 112.739 39.1869 113.27 39.1869Z" fill="#BB0823"/>
<path d="M109.422 39.1859C109.953 39.1859 110.384 38.7616 110.384 38.2382C110.384 37.7148 109.953 37.2905 109.422 37.2905C108.891 37.2905 108.461 37.7148 108.461 38.2382C108.461 38.7616 108.891 39.1859 109.422 39.1859Z" fill="#BB0823"/>
<path d="M117.384 46.7676H107.77C107.515 46.7676 107.27 46.8674 107.09 47.0451C106.91 47.2229 106.809 47.4639 106.809 47.7153V55.2968C106.809 55.5481 106.91 55.7892 107.09 55.9669C107.27 56.1446 107.515 56.2444 107.77 56.2444H117.384C117.639 56.2444 117.884 56.1446 118.064 55.9669C118.244 55.7892 118.346 55.5481 118.346 55.2968V47.7153C118.346 47.4639 118.244 47.2229 118.064 47.0451C117.884 46.8674 117.639 46.7676 117.384 46.7676ZM116.423 54.3491H108.731V48.663H116.423V54.3491Z" fill="#BB0823"/>
<path d="M86.12 60.8416C86.2594 60.9265 86.4186 60.9749 86.5823 60.9822C86.746 60.9894 86.9089 60.9553 87.0555 60.883L92.824 58.0399C92.9837 57.9612 93.118 57.8402 93.2118 57.6905C93.3057 57.5408 93.3554 57.3683 93.3554 57.1923C93.3554 57.0164 93.3057 56.8438 93.2118 56.6941C93.118 56.5444 92.9837 56.4235 92.824 56.3447L87.0555 53.5017C86.9089 53.4294 86.746 53.3953 86.5823 53.4026C86.4186 53.4098 86.2595 53.4582 86.1201 53.5431C85.9807 53.6281 85.8656 53.7467 85.7858 53.8878C85.706 54.0289 85.6641 54.1877 85.6641 54.3493V60.0354C85.664 60.1969 85.7059 60.3558 85.7857 60.4969C85.8655 60.638 85.9806 60.7567 86.12 60.8416ZM87.5869 55.8826L90.2442 57.1923L87.5869 58.502V55.8826Z" fill="#BB0823"/>
<path d="M80.852 69.5117H73.1606C72.9057 69.5117 72.6611 69.6116 72.4808 69.7893C72.3005 69.967 72.1992 70.2081 72.1992 70.4594C72.1992 70.7107 72.3005 70.9518 72.4808 71.1295C72.6611 71.3072 72.9057 71.4071 73.1606 71.4071H80.852C81.107 71.4071 81.3515 71.3072 81.5318 71.1295C81.7121 70.9518 81.8134 70.7107 81.8134 70.4594C81.8134 70.2081 81.7121 69.967 81.5318 69.7893C81.3515 69.6116 81.107 69.5117 80.852 69.5117Z" fill="#BB0823"/>
<path d="M80.852 37.25H73.1606C72.9057 37.25 72.6611 37.3498 72.4808 37.5276C72.3005 37.7053 72.1992 37.9463 72.1992 38.1977C72.1992 38.449 72.3005 38.6901 72.4808 38.8678C72.6611 39.0455 72.9057 39.1454 73.1606 39.1454H80.852C81.107 39.1454 81.3515 39.0455 81.5318 38.8678C81.7121 38.6901 81.8134 38.449 81.8134 38.1977C81.8134 37.9463 81.7121 37.7053 81.5318 37.5276C81.3515 37.3498 81.107 37.25 80.852 37.25Z" fill="#BB0823"/>
<path d="M91.4296 74.2504C91.4296 73.9991 91.3283 73.758 91.148 73.5803C90.9677 73.4026 90.7232 73.3027 90.4682 73.3027H77.0083C76.7533 73.3027 76.5088 73.4026 76.3285 73.5803C76.1482 73.758 76.0469 73.9991 76.0469 74.2504C76.0469 74.5018 76.1482 74.7428 76.3285 74.9205C76.5088 75.0983 76.7533 75.1981 77.0083 75.1981H90.4682C90.7232 75.1981 90.9677 75.0983 91.148 74.9205C91.3283 74.7428 91.4296 74.5018 91.4296 74.2504Z" fill="#BB0823"/>
<path d="M77.0083 77.0938C76.7533 77.0938 76.5088 77.1936 76.3285 77.3713C76.1482 77.549 76.0469 77.7901 76.0469 78.0414C76.0469 78.2928 76.1482 78.5338 76.3285 78.7115C76.5088 78.8893 76.7533 78.9891 77.0083 78.9891H87.5839C87.8389 78.9891 88.0835 78.8893 88.2638 78.7115C88.4441 78.5338 88.5454 78.2928 88.5454 78.0414C88.5454 77.7901 88.4441 77.549 88.2638 77.3713C88.0835 77.1936 87.8389 77.0938 87.5839 77.0938H77.0083Z" fill="#BB0823"/>
<path d="M73.1606 75.1981C73.6916 75.1981 74.1221 74.7738 74.1221 74.2504C74.1221 73.727 73.6916 73.3027 73.1606 73.3027C72.6297 73.3027 72.1992 73.727 72.1992 74.2504C72.1992 74.7738 72.6297 75.1981 73.1606 75.1981Z" fill="#BB0823"/>
<path d="M73.1606 78.9891C73.6916 78.9891 74.1221 78.5648 74.1221 78.0414C74.1221 77.518 73.6916 77.0938 73.1606 77.0938C72.6297 77.0938 72.1992 77.518 72.1992 78.0414C72.1992 78.5648 72.6297 78.9891 73.1606 78.9891Z" fill="#BB0823"/>
<path d="M96.2367 80.8838H77.0083C76.7533 80.8838 76.5088 80.9836 76.3285 81.1614C76.1482 81.3391 76.0469 81.5801 76.0469 81.8315C76.0469 82.0828 76.1482 82.3239 76.3285 82.5016C76.5088 82.6793 76.7533 82.7792 77.0083 82.7792H96.2367C96.4917 82.7792 96.7363 82.6793 96.9166 82.5016C97.0969 82.3239 97.1982 82.0828 97.1982 81.8315C97.1982 81.5801 97.0969 81.3391 96.9166 81.1614C96.7363 80.9836 96.4917 80.8838 96.2367 80.8838Z" fill="#BB0823"/>
<path d="M98.9828 37.25H79.7544C79.4994 37.25 79.2549 37.3498 79.0746 37.5276C78.8943 37.7053 78.793 37.9463 78.793 38.1977C78.793 38.449 78.8943 38.6901 79.0746 38.8678C79.2549 39.0455 79.4994 39.1454 79.7544 39.1454H98.9828C99.2378 39.1454 99.4823 39.0455 99.6627 38.8678C99.843 38.6901 99.9442 38.449 99.9442 38.1977C99.9442 37.9463 99.843 37.7053 99.6627 37.5276C99.4823 37.3498 99.2378 37.25 98.9828 37.25Z" fill="#BB0823"/>
<path d="M73.1606 82.7792C73.6916 82.7792 74.1221 82.3549 74.1221 81.8315C74.1221 81.3081 73.6916 80.8838 73.1606 80.8838C72.6297 80.8838 72.1992 81.3081 72.1992 81.8315C72.1992 82.3549 72.6297 82.7792 73.1606 82.7792Z" fill="#BB0823"/>
<path d="M111.617 50.5586V52.454L113.54 51.5063L111.617 50.5586Z" fill="#BB0823"/>
<path d="M117.384 58.1396H107.77C107.515 58.1396 107.27 58.2395 107.09 58.4172C106.91 58.5949 106.809 58.836 106.809 59.0873V66.6688C106.809 66.9202 106.91 67.1612 107.09 67.3389C107.27 67.5167 107.515 67.6165 107.77 67.6165H117.384C117.639 67.6165 117.884 67.5167 118.064 67.3389C118.244 67.1612 118.346 66.9202 118.346 66.6688V59.0873C118.346 58.836 118.244 58.5949 118.064 58.4172C117.884 58.2395 117.639 58.1396 117.384 58.1396ZM116.423 65.7211H108.731V60.035H116.423V65.7211Z" fill="#BB0823"/>
<path d="M111.617 61.9307V63.826L113.54 62.8784L111.617 61.9307Z" fill="#BB0823"/>
<path d="M117.384 69.5117H107.77C107.515 69.5117 107.27 69.6116 107.09 69.7893C106.91 69.967 106.809 70.2081 106.809 70.4594V78.0409C106.809 78.2922 106.91 78.5333 107.09 78.711C107.27 78.8887 107.515 78.9886 107.77 78.9886H117.384C117.639 78.9886 117.884 78.8887 118.064 78.711C118.244 78.5333 118.346 78.2922 118.346 78.0409V70.4594C118.346 70.2081 118.244 69.967 118.064 69.7893C117.884 69.6116 117.639 69.5117 117.384 69.5117ZM116.423 77.0932H108.731V71.4071H116.423V77.0932Z" fill="#BB0823"/>
<path d="M111.617 73.3027V75.1981L113.54 74.2504L111.617 73.3027Z" fill="#BB0823"/>
<path d="M108.735 82.7792C109.266 82.7792 109.696 82.3549 109.696 81.8315C109.696 81.3081 109.266 80.8838 108.735 80.8838C108.204 80.8838 107.773 81.3081 107.773 81.8315C107.773 82.3549 108.204 82.7792 108.735 82.7792Z" fill="#BB0823"/>
<path d="M112.579 82.7792C113.11 82.7792 113.54 82.3549 113.54 81.8315C113.54 81.3081 113.11 80.8838 112.579 80.8838C112.048 80.8838 111.617 81.3081 111.617 81.8315C111.617 82.3549 112.048 82.7792 112.579 82.7792Z" fill="#BB0823"/>
<path d="M116.426 82.7792C116.957 82.7792 117.388 82.3549 117.388 81.8315C117.388 81.3081 116.957 80.8838 116.426 80.8838C115.895 80.8838 115.465 81.3081 115.465 81.8315C115.465 82.3549 115.895 82.7792 116.426 82.7792Z" fill="#BB0823"/>
</g>
<defs>
<filter id="filter0_d" x="0.365999" y="0.681699" width="196.443" height="163.3" filterUnits="userSpaceOnUse" color-interpolation-filters="sRGB">
<feFlood flood-opacity="0" result="BackgroundImageFix"/>
<feColorMatrix in="SourceAlpha" type="matrix" values="0 0 0 0 0 0 0 0 0 0 0 0 0 0 0 0 0 0 127 0"/>
<feMorphology radius="1.37151" operator="dilate" in="SourceAlpha" result="effect1_dropShadow"/>
<feOffset dx="3.42877" dy="5.14315"/>
<feGaussianBlur stdDeviation="4.62883"/>
<feColorMatrix type="matrix" values="0 0 0 0 0.737255 0 0 0 0 0.0470588 0 0 0 0 0.141176 0 0 0 0.13 0"/>
<feBlend mode="normal" in2="BackgroundImageFix" result="effect1_dropShadow"/>
<feBlend mode="normal" in="SourceGraphic" in2="effect1_dropShadow" result="shape"/>
</filter>
<clipPath id="clip0">
<rect width="61.531" height="57.7528" fill="white" transform="translate(64.5078 30.6572)"/>
</clipPath>
</defs>
</svg>
